<svg width="880" height="423" viewBox="0 0 880 423" fill="none" xmlns="http://www.w3.org/2000/svg">
<rect width="880" height="423" rx="14" fill="#1A1A1A"/>
<rect x="60.5" y="94.5" width="65" height="65" rx="11.5" fill="#1F1F1F"/>
<rect x="60.5" y="94.5" width="65" height="65" rx="11.5" stroke="#333333"/>
<path d="M81.7306 117.78L83.7795 115.731C85.7113 113.799 86.6771 112.833 87.8774 112.833C89.0776 112.833 90.0435 113.799 91.9752 115.731L88.5604 119.146L81.7306 125.975L81.7306 125.975C79.7989 124.044 78.833 123.078 78.833 121.878C78.833 120.677 79.7989 119.712 81.7306 117.78L81.7306 117.78Z" fill="#CE7D63"/>
<path d="M104.269 136.22L102.22 138.269C100.288 140.201 99.3222 141.167 98.122 141.167C96.9218 141.167 95.9559 140.201 94.0242 138.269L94.0241 138.269L100.854 131.439L104.269 128.024C106.2 129.956 107.166 130.922 107.166 132.122C107.166 133.322 106.2 134.288 104.269 136.22Z" fill="#CE7D63"/>
<path d="M92.1498 135.728L92.1498 135.728L102.627 125.251C101.201 124.657 99.5123 123.682 97.915 122.085C96.3174 120.487 95.3425 118.798 94.749 117.372L84.2713 127.85L84.2713 127.85C83.4537 128.667 83.0449 129.076 82.6933 129.527C82.2785 130.059 81.9229 130.634 81.6328 131.243C81.3869 131.759 81.204 132.307 80.8384 133.404L78.9101 139.189C78.7302 139.729 78.8707 140.324 79.2731 140.727C79.6754 141.129 80.2706 141.269 80.8104 141.089L86.5952 139.161C87.6922 138.796 88.2407 138.613 88.7567 138.367C89.3655 138.077 89.9408 137.721 90.4726 137.306C90.9233 136.955 91.3322 136.546 92.1498 135.728Z" fill="#CE7D63"/>
<path d="M105.535 122.343C107.71 120.168 107.71 116.641 105.535 114.465C103.359 112.289 99.8318 112.289 97.6562 114.465L96.3995 115.722C96.4167 115.774 96.4346 115.826 96.4531 115.88C96.9137 117.207 97.7828 118.948 99.4176 120.582C101.052 122.217 102.793 123.086 104.12 123.547C104.174 123.565 104.226 123.583 104.278 123.6L105.535 122.343Z" fill="#CE7D63"/>
<path d="M145.493 137.603L140.425 116.172H143.574L147.09 131.802C147.158 132.085 147.207 132.339 147.236 132.563C147.275 132.778 147.31 133.047 147.339 133.369H147.456C147.495 133.047 147.534 132.778 147.573 132.563C147.612 132.339 147.666 132.085 147.734 131.802L151.572 116.172H154.883L158.838 131.802C158.906 132.085 158.955 132.339 158.984 132.563C159.023 132.778 159.062 133.047 159.102 133.369H159.219C159.248 133.037 159.282 132.764 159.321 132.549C159.36 132.334 159.409 132.085 159.468 131.802L162.896 116.172H165.825L160.786 137.603H157.505L153.521 121.855C153.452 121.592 153.389 121.323 153.33 121.05C153.271 120.767 153.223 120.464 153.184 120.142H153.081C153.042 120.464 152.993 120.762 152.935 121.035C152.886 121.309 152.827 121.582 152.759 121.855L148.76 137.603H145.493ZM168.403 137.5V116.172H181.382V118.735H171.538V125.283H180.02V127.773H171.538V134.966H181.543V137.5H168.403ZM184.487 137.5V116.172H191.548C193.647 116.172 195.278 116.626 196.44 117.534C197.603 118.433 198.184 119.829 198.184 121.724C198.184 122.915 197.91 123.896 197.363 124.668C196.816 125.439 196.128 125.967 195.298 126.25V126.309C196.323 126.602 197.158 127.183 197.803 128.052C198.457 128.911 198.784 130.049 198.784 131.465C198.784 133.379 198.164 134.863 196.924 135.918C195.693 136.973 194.043 137.5 191.973 137.5H184.487ZM187.607 135.068H191.797C193.115 135.068 194.082 134.736 194.697 134.072C195.322 133.398 195.635 132.49 195.635 131.348C195.635 130.195 195.322 129.282 194.697 128.608C194.082 127.925 193.115 127.583 191.797 127.583H187.607V135.068ZM187.607 125.298H191.372C192.681 125.298 193.623 125 194.199 124.404C194.785 123.809 195.078 122.979 195.078 121.914C195.078 120.84 194.785 120.024 194.199 119.468C193.623 118.911 192.681 118.628 191.372 118.618H187.607V125.298ZM208.921 137.5V116.172H215.205C217.92 116.172 220.137 117.065 221.855 118.853C223.574 120.63 224.434 123.076 224.434 126.191V127.466C224.434 130.581 223.579 133.032 221.87 134.819C220.171 136.606 217.949 137.5 215.205 137.5H208.921ZM212.07 135.024H215.132C217.007 135.024 218.486 134.38 219.57 133.091C220.664 131.792 221.211 129.956 221.211 127.583V126.104C221.211 123.721 220.659 121.89 219.556 120.61C218.452 119.321 216.978 118.677 215.132 118.677H212.07V135.024ZM228.022 137.5V116.172H241.001V118.735H231.157V125.283H239.639V127.773H231.157V134.966H241.162V137.5H228.022ZM243.315 131.685V131.128H246.45V131.611C246.45 132.871 246.836 133.813 247.607 134.438C248.379 135.063 249.458 135.376 250.845 135.376C252.231 135.376 253.291 135.068 254.023 134.453C254.766 133.828 255.137 133.008 255.137 131.992C255.137 131.035 254.785 130.278 254.082 129.722C253.379 129.165 252.012 128.574 249.98 127.949C247.803 127.275 246.211 126.475 245.205 125.547C244.199 124.619 243.696 123.306 243.696 121.606C243.696 119.897 244.321 118.501 245.571 117.417C246.821 116.333 248.54 115.791 250.728 115.791C252.886 115.791 254.609 116.343 255.898 117.446C257.197 118.54 257.847 120.01 257.847 121.855V122.295H254.741V121.914C254.741 120.82 254.404 119.946 253.73 119.292C253.057 118.638 252.061 118.311 250.742 118.311C249.395 118.311 248.403 118.594 247.769 119.16C247.144 119.717 246.831 120.479 246.831 121.445C246.831 122.334 247.163 123.037 247.827 123.555C248.501 124.062 249.868 124.634 251.929 125.269C254.077 125.923 255.669 126.748 256.704 127.744C257.739 128.73 258.257 130.098 258.257 131.846C258.257 133.672 257.588 135.137 256.25 136.24C254.912 137.334 253.115 137.881 250.859 137.881C248.604 137.881 246.782 137.344 245.396 136.27C244.009 135.195 243.315 133.667 243.315 131.685ZM261.553 137.5V116.172H264.731V137.5H261.553ZM268.408 127.466V126.206C268.408 122.876 269.204 120.308 270.796 118.501C272.388 116.694 274.507 115.791 277.153 115.791C279.546 115.791 281.406 116.416 282.734 117.666C284.072 118.906 284.775 120.444 284.844 122.28L284.858 122.588H281.709V122.339C281.709 121.255 281.313 120.322 280.522 119.541C279.731 118.75 278.584 118.354 277.08 118.354C275.41 118.354 274.087 119.009 273.11 120.317C272.134 121.626 271.646 123.501 271.646 125.942V127.744C271.646 130.186 272.153 132.065 273.169 133.384C274.185 134.702 275.605 135.361 277.432 135.361C278.369 135.361 279.18 135.259 279.863 135.054C280.547 134.839 281.191 134.502 281.797 134.043V129.224H277.139V126.777H284.858V135.127C284.272 135.762 283.35 136.382 282.09 136.987C280.83 137.583 279.272 137.881 277.417 137.881C274.624 137.881 272.422 136.978 270.811 135.171C269.209 133.364 268.408 130.796 268.408 127.466ZM288.55 137.5V116.172H291.89L300.444 130.864C300.61 131.167 300.767 131.47 300.913 131.772C301.06 132.075 301.182 132.363 301.279 132.637H301.382C301.372 132.324 301.362 131.997 301.353 131.655C301.353 131.304 301.353 130.967 301.353 130.645V116.172H304.238V137.5H300.913L292.344 122.778C292.178 122.485 292.021 122.188 291.875 121.885C291.738 121.582 291.611 121.294 291.494 121.021H291.406C291.416 121.333 291.421 121.67 291.421 122.031C291.431 122.383 291.436 122.715 291.436 123.027V137.5H288.55Z" fill="#F9EFEC"/>
<rect x="625.5" y="94.5" width="51" height="51" rx="25.5" fill="#1F1F1F"/>
<rect x="625.5" y="94.5" width="51" height="51" rx="25.5" stroke="#333333"/>
<path fill-rule="evenodd" clip-rule="evenodd" d="M647.25 111.75L658.5 111.75C658.699 111.75 658.89 111.829 659.03 111.97C659.171 112.11 659.25 112.301 659.25 112.5V123.75C659.25 124.164 658.914 124.5 658.5 124.5C658.086 124.5 657.75 124.164 657.75 123.75V114.311L644.03 128.03C643.737 128.323 643.263 128.323 642.97 128.03C642.677 127.737 642.677 127.263 642.97 126.97L656.689 113.25L647.25 113.25C646.836 113.25 646.5 112.914 646.5 112.5C646.5 112.086 646.836 111.75 647.25 111.75Z" fill="#E7BEB1"/>
<path d="M688.436 128V113.781H692.986C693.676 113.781 694.324 113.859 694.93 114.016C695.535 114.165 696.059 114.396 696.502 114.709C696.945 115.021 697.29 115.422 697.537 115.91C697.791 116.392 697.918 116.965 697.918 117.629C697.911 118.033 697.84 118.41 697.703 118.762C697.573 119.107 697.384 119.413 697.137 119.68C696.961 119.875 696.762 120.048 696.541 120.197C696.326 120.34 696.076 120.471 695.789 120.588V120.607C696.212 120.718 696.574 120.881 696.873 121.096C697.173 121.304 697.423 121.542 697.625 121.809C697.833 122.095 697.99 122.414 698.094 122.766C698.204 123.111 698.26 123.475 698.26 123.859C698.266 124.536 698.146 125.132 697.898 125.646C697.651 126.161 697.309 126.59 696.873 126.936C696.437 127.287 695.916 127.554 695.311 127.736C694.712 127.912 694.061 128 693.357 128H688.436ZM690.799 121.574V126.066H693.377C693.748 126.066 694.087 126.014 694.393 125.91C694.699 125.806 694.959 125.663 695.174 125.48C695.408 125.292 695.587 125.061 695.711 124.787C695.841 124.507 695.906 124.198 695.906 123.859C695.906 123.501 695.854 123.186 695.75 122.912C695.646 122.632 695.49 122.395 695.281 122.199C695.073 122.004 694.819 121.854 694.52 121.75C694.22 121.639 693.878 121.581 693.494 121.574H690.799ZM690.799 119.787H693.035C693.419 119.781 693.771 119.729 694.09 119.631C694.415 119.533 694.689 119.39 694.91 119.201C695.112 119.032 695.271 118.827 695.389 118.586C695.506 118.345 695.564 118.068 695.564 117.756C695.564 117.424 695.509 117.137 695.398 116.896C695.294 116.649 695.145 116.447 694.949 116.291C694.728 116.096 694.451 115.956 694.119 115.871C693.787 115.78 693.419 115.731 693.016 115.725H690.799V119.787ZM710.105 121.838C710.105 122.411 710.053 122.964 709.949 123.498C709.852 124.032 709.708 124.536 709.52 125.012C709.318 125.487 709.067 125.926 708.768 126.33C708.468 126.727 708.123 127.069 707.732 127.355C707.355 127.616 706.935 127.821 706.473 127.971C706.017 128.12 705.516 128.195 704.969 128.195C704.402 128.195 703.882 128.117 703.406 127.961C702.938 127.798 702.518 127.577 702.146 127.297C701.769 127.01 701.437 126.665 701.15 126.262C700.87 125.858 700.636 125.415 700.447 124.934C700.265 124.471 700.128 123.98 700.037 123.459C699.946 122.932 699.9 122.391 699.9 121.838V119.963C699.9 119.383 699.949 118.824 700.047 118.283C700.145 117.743 700.291 117.232 700.486 116.75C700.675 116.288 700.906 115.865 701.18 115.48C701.46 115.09 701.788 114.751 702.166 114.465C702.531 114.185 702.944 113.97 703.406 113.82C703.875 113.664 704.389 113.586 704.949 113.586C705.516 113.586 706.036 113.664 706.512 113.82C706.987 113.977 707.413 114.195 707.791 114.475C708.169 114.755 708.497 115.083 708.777 115.461C709.057 115.839 709.292 116.252 709.48 116.701C709.689 117.183 709.845 117.701 709.949 118.254C710.053 118.801 710.105 119.37 710.105 119.963V121.838ZM707.742 119.943C707.736 119.585 707.713 119.234 707.674 118.889C707.641 118.544 707.583 118.215 707.498 117.902C707.4 117.544 707.27 117.219 707.107 116.926C706.951 116.626 706.759 116.372 706.531 116.164C706.329 115.982 706.098 115.839 705.838 115.734C705.577 115.63 705.281 115.578 704.949 115.578C704.63 115.578 704.344 115.63 704.09 115.734C703.836 115.832 703.615 115.969 703.426 116.145C703.198 116.359 703.006 116.617 702.85 116.916C702.693 117.209 702.573 117.538 702.488 117.902C702.41 118.215 702.352 118.547 702.312 118.898C702.28 119.243 702.264 119.592 702.264 119.943V121.838C702.264 122.183 702.28 122.525 702.312 122.863C702.345 123.202 702.4 123.527 702.479 123.84C702.563 124.191 702.677 124.52 702.82 124.826C702.97 125.126 703.149 125.38 703.357 125.588C703.559 125.783 703.79 125.939 704.051 126.057C704.318 126.167 704.624 126.223 704.969 126.223C705.301 126.223 705.6 126.167 705.867 126.057C706.141 125.946 706.375 125.796 706.57 125.607C706.798 125.393 706.987 125.139 707.137 124.846C707.293 124.546 707.417 124.217 707.508 123.859C707.586 123.547 707.641 123.221 707.674 122.883C707.713 122.538 707.736 122.189 707.742 121.838V119.943ZM722.117 121.838C722.117 122.411 722.065 122.964 721.961 123.498C721.863 124.032 721.72 124.536 721.531 125.012C721.329 125.487 721.079 125.926 720.779 126.33C720.48 126.727 720.135 127.069 719.744 127.355C719.367 127.616 718.947 127.821 718.484 127.971C718.029 128.12 717.527 128.195 716.98 128.195C716.414 128.195 715.893 128.117 715.418 127.961C714.949 127.798 714.529 127.577 714.158 127.297C713.781 127.01 713.449 126.665 713.162 126.262C712.882 125.858 712.648 125.415 712.459 124.934C712.277 124.471 712.14 123.98 712.049 123.459C711.958 122.932 711.912 122.391 711.912 121.838V119.963C711.912 119.383 711.961 118.824 712.059 118.283C712.156 117.743 712.303 117.232 712.498 116.75C712.687 116.288 712.918 115.865 713.191 115.48C713.471 115.09 713.8 114.751 714.178 114.465C714.542 114.185 714.956 113.97 715.418 113.82C715.887 113.664 716.401 113.586 716.961 113.586C717.527 113.586 718.048 113.664 718.523 113.82C718.999 113.977 719.425 114.195 719.803 114.475C720.18 114.755 720.509 115.083 720.789 115.461C721.069 115.839 721.303 116.252 721.492 116.701C721.701 117.183 721.857 117.701 721.961 118.254C722.065 118.801 722.117 119.37 722.117 119.963V121.838ZM719.754 119.943C719.747 119.585 719.725 119.234 719.686 118.889C719.653 118.544 719.594 118.215 719.51 117.902C719.412 117.544 719.282 117.219 719.119 116.926C718.963 116.626 718.771 116.372 718.543 116.164C718.341 115.982 718.11 115.839 717.85 115.734C717.589 115.63 717.293 115.578 716.961 115.578C716.642 115.578 716.355 115.63 716.102 115.734C715.848 115.832 715.626 115.969 715.438 116.145C715.21 116.359 715.018 116.617 714.861 116.916C714.705 117.209 714.585 117.538 714.5 117.902C714.422 118.215 714.363 118.547 714.324 118.898C714.292 119.243 714.275 119.592 714.275 119.943V121.838C714.275 122.183 714.292 122.525 714.324 122.863C714.357 123.202 714.412 123.527 714.49 123.84C714.575 124.191 714.689 124.52 714.832 124.826C714.982 125.126 715.161 125.38 715.369 125.588C715.571 125.783 715.802 125.939 716.062 126.057C716.329 126.167 716.635 126.223 716.98 126.223C717.312 126.223 717.612 126.167 717.879 126.057C718.152 125.946 718.387 125.796 718.582 125.607C718.81 125.393 718.999 125.139 719.148 124.846C719.305 124.546 719.428 124.217 719.52 123.859C719.598 123.547 719.653 123.221 719.686 122.883C719.725 122.538 719.747 122.189 719.754 121.838V119.943ZM728.377 121.838L726.844 123.557V128H724.471V113.781H726.844V120.471L728.172 118.742L731.922 113.781H734.793L729.93 120.041L735.037 128H732.225L728.377 121.838ZM755.418 124.729H750.955L749.988 128H747.547L752.176 113.781H754.256L758.807 128H756.375L755.418 124.729ZM751.551 122.717H754.842L753.211 117.092L751.551 122.717ZM782.137 123.625C782.072 124.315 781.909 124.943 781.648 125.51C781.388 126.07 781.046 126.548 780.623 126.945C780.193 127.349 779.682 127.661 779.09 127.883C778.504 128.098 777.853 128.205 777.137 128.205C776.551 128.205 776.01 128.127 775.516 127.971C775.027 127.808 774.591 127.58 774.207 127.287C773.836 127.014 773.51 126.685 773.23 126.301C772.957 125.91 772.726 125.484 772.537 125.021C772.348 124.566 772.205 124.071 772.107 123.537C772.016 123.003 771.971 122.447 771.971 121.867V119.924C771.971 119.37 772.016 118.837 772.107 118.322C772.199 117.808 772.335 117.323 772.518 116.867C772.713 116.359 772.964 115.9 773.27 115.49C773.582 115.074 773.94 114.719 774.344 114.426C774.728 114.159 775.151 113.951 775.613 113.801C776.082 113.651 776.593 113.576 777.146 113.576C777.895 113.576 778.562 113.687 779.148 113.908C779.741 114.13 780.245 114.442 780.662 114.846C781.085 115.256 781.417 115.751 781.658 116.33C781.906 116.91 782.065 117.554 782.137 118.264H779.793C779.754 117.84 779.673 117.46 779.549 117.121C779.432 116.776 779.269 116.483 779.061 116.242C778.846 116.001 778.582 115.819 778.27 115.695C777.957 115.565 777.583 115.5 777.146 115.5C776.84 115.5 776.564 115.542 776.316 115.627C776.076 115.712 775.861 115.832 775.672 115.988C775.411 116.177 775.193 116.424 775.018 116.73C774.848 117.03 774.708 117.365 774.598 117.736C774.513 118.062 774.448 118.41 774.402 118.781C774.363 119.146 774.344 119.52 774.344 119.904V121.867C774.344 122.342 774.37 122.788 774.422 123.205C774.48 123.622 774.568 124.003 774.686 124.348C774.777 124.634 774.891 124.895 775.027 125.129C775.171 125.363 775.34 125.565 775.535 125.734C775.737 125.917 775.968 126.057 776.229 126.154C776.495 126.245 776.798 126.291 777.137 126.291C777.54 126.291 777.898 126.232 778.211 126.115C778.523 125.998 778.79 125.826 779.012 125.598C779.227 125.376 779.399 125.1 779.529 124.768C779.66 124.436 779.744 124.055 779.783 123.625H782.137ZM791.453 124.729H786.99L786.023 128H783.582L788.211 113.781H790.291L794.842 128H792.41L791.453 124.729ZM787.586 122.717H790.877L789.246 117.092L787.586 122.717ZM799.119 126.066H805.906V128H796.766V113.781H799.119V126.066ZM811.131 126.066H817.918V128H808.777V113.781H811.131V126.066Z" fill="#B3B3B2"/>
<path d="M60.9844 223.997V223.206C60.9844 221.214 61.4795 219.673 62.4697 218.583C63.4658 217.493 64.7432 216.948 66.3018 216.948C67.8604 216.948 69.1348 217.493 70.125 218.583C71.1211 219.673 71.6191 221.214 71.6191 223.206V223.997C71.6191 225.989 71.1211 227.53 70.125 228.62C69.1348 229.71 67.8604 230.255 66.3018 230.255C64.7432 230.255 63.4658 229.71 62.4697 228.62C61.4795 227.53 60.9844 225.989 60.9844 223.997ZM62.6279 223.997C62.6279 225.538 62.9619 226.736 63.6299 227.592C64.3037 228.441 65.1943 228.866 66.3018 228.866C67.4092 228.866 68.2998 228.441 68.9736 227.592C69.6475 226.736 69.9844 225.538 69.9844 223.997V223.206C69.9844 221.665 69.6475 220.47 68.9736 219.62C68.2998 218.765 67.4092 218.337 66.3018 218.337C65.1943 218.337 64.3037 218.765 63.6299 219.62C62.9619 220.47 62.6279 221.665 62.6279 223.206V223.997ZM73.8076 226.774V220.859H75.3809V226.792C75.3809 227.53 75.5449 228.058 75.873 228.374C76.207 228.69 76.6787 228.849 77.2881 228.849C77.8037 228.849 78.2607 228.708 78.6592 228.427C79.0576 228.146 79.3682 227.779 79.5908 227.328V220.859H81.1641V230H79.7402L79.6787 228.813H79.626C79.2979 229.235 78.8936 229.569 78.4131 229.815C77.9326 230.056 77.4023 230.176 76.8223 230.176C75.9023 230.176 75.1699 229.915 74.625 229.394C74.0801 228.872 73.8076 227.999 73.8076 226.774ZM83.7217 230V220.859H85.1455L85.2158 222.046H85.2598C85.4941 221.659 85.8018 221.322 86.1826 221.035C86.5635 220.748 87.0176 220.604 87.5449 220.604C87.6738 220.604 87.8086 220.619 87.9492 220.648C88.0898 220.678 88.1895 220.704 88.248 220.728V222.187C88.1309 222.163 88.0078 222.146 87.8789 222.134C87.75 222.116 87.6094 222.107 87.457 222.107C86.9355 222.107 86.4902 222.245 86.1211 222.521C85.752 222.796 85.4766 223.142 85.2949 223.558V230H83.7217ZM96.2988 230.088L93.1699 217.203H94.7959L96.9932 226.774C97.04 226.968 97.0723 227.126 97.0898 227.249C97.1133 227.372 97.1367 227.53 97.1602 227.724H97.2393C97.2627 227.53 97.2861 227.372 97.3096 227.249C97.333 227.126 97.3682 226.968 97.415 226.774L99.8145 217.203H101.476L103.954 226.774C104.007 226.968 104.042 227.126 104.06 227.249C104.083 227.372 104.106 227.53 104.13 227.724H104.209C104.232 227.53 104.256 227.372 104.279 227.249C104.303 227.126 104.335 226.968 104.376 226.774L106.494 217.203H108.094L104.974 230.088H103.383L100.896 220.473C100.849 220.285 100.805 220.104 100.764 219.928C100.729 219.746 100.696 219.559 100.667 219.365H100.597C100.567 219.559 100.535 219.746 100.5 219.928C100.465 220.104 100.421 220.285 100.368 220.473L97.8809 230.088H96.2988ZM108.938 225.57V225.289C108.938 223.912 109.312 222.787 110.062 221.914C110.818 221.041 111.814 220.604 113.051 220.604C114.293 220.604 115.245 221.012 115.907 221.826C116.575 222.641 116.909 223.745 116.909 225.14V225.781H109.896V224.516H115.336V224.322C115.336 223.654 115.146 223.083 114.765 222.608C114.39 222.134 113.842 221.896 113.121 221.896C112.26 221.896 111.615 222.225 111.188 222.881C110.76 223.531 110.546 224.334 110.546 225.289V225.57C110.546 226.525 110.771 227.331 111.223 227.987C111.674 228.638 112.368 228.963 113.306 228.963C113.886 228.963 114.384 228.837 114.8 228.585C115.222 228.327 115.564 228.022 115.828 227.671L116.839 228.488C116.558 228.922 116.115 229.326 115.512 229.701C114.908 230.07 114.173 230.255 113.306 230.255C111.899 230.255 110.818 229.821 110.062 228.954C109.312 228.081 108.938 226.953 108.938 225.57ZM118.878 230V216.562H120.451V221.949C120.721 221.568 121.081 221.264 121.532 221.035C121.989 220.801 122.537 220.684 123.176 220.684C124.33 220.684 125.253 221.117 125.944 221.984C126.636 222.852 126.981 223.95 126.981 225.28V225.562C126.981 226.897 126.636 228.002 125.944 228.875C125.253 229.742 124.33 230.176 123.176 230.176C122.537 230.176 121.975 230.044 121.488 229.78C121.008 229.511 120.65 229.186 120.416 228.805H120.372L120.302 230H118.878ZM120.451 227.311C120.639 227.721 120.935 228.087 121.339 228.409C121.749 228.726 122.25 228.884 122.842 228.884C123.709 228.884 124.348 228.564 124.758 227.926C125.168 227.287 125.373 226.499 125.373 225.562V225.28C125.373 224.343 125.168 223.561 124.758 222.934C124.348 222.301 123.706 221.984 122.833 221.984C122.247 221.984 121.749 222.146 121.339 222.468C120.929 222.784 120.633 223.147 120.451 223.558V227.311ZM133.459 230V217.203H137.177C138.812 217.203 140.162 217.745 141.229 218.829C142.301 219.907 142.837 221.366 142.837 223.206V223.997C142.837 225.831 142.301 227.29 141.229 228.374C140.162 229.458 138.812 230 137.177 230H133.459ZM135.085 228.655H137.177C138.407 228.655 139.386 228.245 140.112 227.425C140.839 226.604 141.202 225.462 141.202 223.997V223.206C141.202 221.741 140.836 220.599 140.104 219.778C139.377 218.958 138.401 218.548 137.177 218.548H135.085V228.655ZM144.551 225.57V225.289C144.551 223.912 144.926 222.787 145.676 221.914C146.432 221.041 147.428 220.604 148.664 220.604C149.906 220.604 150.858 221.012 151.521 221.826C152.188 222.641 152.522 223.745 152.522 225.14V225.781H145.509V224.516H150.949V224.322C150.949 223.654 150.759 223.083 150.378 222.608C150.003 222.134 149.455 221.896 148.734 221.896C147.873 221.896 147.229 222.225 146.801 222.881C146.373 223.531 146.159 224.334 146.159 225.289V225.57C146.159 226.525 146.385 227.331 146.836 227.987C147.287 228.638 147.981 228.963 148.919 228.963C149.499 228.963 149.997 228.837 150.413 228.585C150.835 228.327 151.178 228.022 151.441 227.671L152.452 228.488C152.171 228.922 151.729 229.326 151.125 229.701C150.521 230.07 149.786 230.255 148.919 230.255C147.513 230.255 146.432 229.821 145.676 228.954C144.926 228.081 144.551 226.953 144.551 225.57ZM153.929 227.293H155.502V227.354C155.502 227.894 155.695 228.298 156.082 228.567C156.475 228.831 156.99 228.963 157.629 228.963C158.273 228.963 158.78 228.837 159.149 228.585C159.524 228.327 159.712 227.99 159.712 227.574C159.712 227.158 159.56 226.842 159.255 226.625C158.956 226.402 158.314 226.174 157.33 225.939C156.352 225.705 155.575 225.38 155.001 224.964C154.433 224.548 154.148 223.965 154.148 223.215C154.148 222.459 154.456 221.835 155.071 221.343C155.692 220.851 156.519 220.604 157.55 220.604C158.587 220.604 159.422 220.851 160.055 221.343C160.688 221.835 161.004 222.506 161.004 223.355V223.408H159.439V223.32C159.439 222.869 159.284 222.521 158.974 222.274C158.663 222.022 158.188 221.896 157.55 221.896C156.911 221.896 156.442 222.014 156.144 222.248C155.851 222.477 155.704 222.772 155.704 223.136C155.704 223.487 155.871 223.766 156.205 223.971C156.545 224.176 157.204 224.396 158.183 224.63C159.161 224.864 159.917 225.198 160.45 225.632C160.989 226.06 161.259 226.678 161.259 227.486C161.259 228.295 160.957 228.96 160.354 229.481C159.75 229.997 158.842 230.255 157.629 230.255C156.422 230.255 155.502 229.991 154.869 229.464C154.242 228.937 153.929 228.233 153.929 227.354V227.293ZM163.324 230V220.859H164.897V230H163.324ZM163.122 218.047C163.122 217.777 163.207 217.552 163.377 217.37C163.547 217.188 163.793 217.098 164.115 217.098C164.432 217.098 164.675 217.188 164.845 217.37C165.015 217.552 165.1 217.777 165.1 218.047C165.1 218.311 165.015 218.536 164.845 218.724C164.675 218.905 164.429 218.996 164.106 218.996C163.79 218.996 163.547 218.905 163.377 218.724C163.207 218.536 163.122 218.311 163.122 218.047ZM167.332 232.522L168.308 231.336C168.565 231.629 168.926 231.887 169.389 232.109C169.857 232.338 170.385 232.452 170.971 232.452C171.75 232.452 172.368 232.224 172.825 231.767C173.282 231.315 173.511 230.665 173.511 229.815V228.91C173.241 229.285 172.881 229.59 172.43 229.824C171.979 230.053 171.431 230.167 170.786 230.167C169.632 230.167 168.709 229.733 168.018 228.866C167.326 227.999 166.98 226.9 166.98 225.57V225.289C166.98 223.959 167.326 222.86 168.018 221.993C168.709 221.12 169.635 220.684 170.795 220.684C171.434 220.684 171.993 220.818 172.474 221.088C172.954 221.352 173.312 221.674 173.546 222.055H173.59L173.66 220.859H175.084V229.815C175.084 231.11 174.706 232.104 173.95 232.795C173.2 233.486 172.219 233.832 171.006 233.832C170.256 233.832 169.564 233.709 168.932 233.463C168.299 233.217 167.766 232.903 167.332 232.522ZM168.589 225.57C168.589 226.508 168.794 227.293 169.204 227.926C169.614 228.559 170.259 228.875 171.138 228.875C171.718 228.875 172.213 228.717 172.623 228.4C173.033 228.078 173.329 227.712 173.511 227.302V223.558C173.329 223.147 173.033 222.784 172.623 222.468C172.213 222.146 171.718 221.984 171.138 221.984C170.259 221.984 169.614 222.301 169.204 222.934C168.794 223.566 168.589 224.352 168.589 225.289V225.57ZM177.642 230V220.859H179.065L179.136 222.046H179.18C179.508 221.624 179.912 221.293 180.393 221.053C180.873 220.807 181.406 220.684 181.992 220.684C182.906 220.684 183.636 220.947 184.181 221.475C184.726 221.996 184.998 222.869 184.998 224.094V230H183.425V224.085C183.425 223.341 183.258 222.811 182.924 222.494C182.596 222.172 182.13 222.011 181.526 222.011C181.005 222.011 180.545 222.151 180.146 222.433C179.748 222.714 179.438 223.08 179.215 223.531V230H177.642ZM191.194 227.293H192.768V227.354C192.768 227.894 192.961 228.298 193.348 228.567C193.74 228.831 194.256 228.963 194.895 228.963C195.539 228.963 196.046 228.837 196.415 228.585C196.79 228.327 196.978 227.99 196.978 227.574C196.978 227.158 196.825 226.842 196.521 226.625C196.222 226.402 195.58 226.174 194.596 225.939C193.617 225.705 192.841 225.38 192.267 224.964C191.698 224.548 191.414 223.965 191.414 223.215C191.414 222.459 191.722 221.835 192.337 221.343C192.958 220.851 193.784 220.604 194.815 220.604C195.853 220.604 196.688 220.851 197.32 221.343C197.953 221.835 198.27 222.506 198.27 223.355V223.408H196.705V223.32C196.705 222.869 196.55 222.521 196.239 222.274C195.929 222.022 195.454 221.896 194.815 221.896C194.177 221.896 193.708 222.014 193.409 222.248C193.116 222.477 192.97 222.772 192.97 223.136C192.97 223.487 193.137 223.766 193.471 223.971C193.811 224.176 194.47 224.396 195.448 224.63C196.427 224.864 197.183 225.198 197.716 225.632C198.255 226.06 198.524 226.678 198.524 227.486C198.524 228.295 198.223 228.96 197.619 229.481C197.016 229.997 196.107 230.255 194.895 230.255C193.688 230.255 192.768 229.991 192.135 229.464C191.508 228.937 191.194 228.233 191.194 227.354V227.293ZM199.957 225.57V225.289C199.957 223.912 200.332 222.787 201.082 221.914C201.838 221.041 202.834 220.604 204.07 220.604C205.312 220.604 206.265 221.012 206.927 221.826C207.595 222.641 207.929 223.745 207.929 225.14V225.781H200.915V224.516H206.355V224.322C206.355 223.654 206.165 223.083 205.784 222.608C205.409 222.134 204.861 221.896 204.141 221.896C203.279 221.896 202.635 222.225 202.207 222.881C201.779 223.531 201.565 224.334 201.565 225.289V225.57C201.565 226.525 201.791 227.331 202.242 227.987C202.693 228.638 203.388 228.963 204.325 228.963C204.905 228.963 205.403 228.837 205.819 228.585C206.241 228.327 206.584 228.022 206.848 227.671L207.858 228.488C207.577 228.922 207.135 229.326 206.531 229.701C205.928 230.07 205.192 230.255 204.325 230.255C202.919 230.255 201.838 229.821 201.082 228.954C200.332 228.081 199.957 226.953 199.957 225.57ZM209.897 230V220.859H211.321L211.392 222.046H211.436C211.67 221.659 211.978 221.322 212.358 221.035C212.739 220.748 213.193 220.604 213.721 220.604C213.85 220.604 213.984 220.619 214.125 220.648C214.266 220.678 214.365 220.704 214.424 220.728V222.187C214.307 222.163 214.184 222.146 214.055 222.134C213.926 222.116 213.785 222.107 213.633 222.107C213.111 222.107 212.666 222.245 212.297 222.521C211.928 222.796 211.652 223.142 211.471 223.558V230H209.897ZM214.846 220.859H216.375L218.599 227.012C218.681 227.246 218.751 227.466 218.81 227.671C218.868 227.87 218.909 228.028 218.933 228.146H218.985C219.009 228.028 219.05 227.87 219.108 227.671C219.167 227.466 219.237 227.246 219.319 227.012L221.525 220.859H223.028L219.548 230H218.326L214.846 220.859ZM224.391 230V220.859H225.964V230H224.391ZM224.188 218.047C224.188 217.777 224.273 217.552 224.443 217.37C224.613 217.188 224.859 217.098 225.182 217.098C225.498 217.098 225.741 217.188 225.911 217.37C226.081 217.552 226.166 217.777 226.166 218.047C226.166 218.311 226.081 218.536 225.911 218.724C225.741 218.905 225.495 218.996 225.173 218.996C224.856 218.996 224.613 218.905 224.443 218.724C224.273 218.536 224.188 218.311 224.188 218.047ZM228.047 225.57V225.289C228.047 223.906 228.419 222.781 229.163 221.914C229.913 221.041 230.941 220.604 232.248 220.604C233.461 220.604 234.381 220.933 235.008 221.589C235.635 222.239 235.948 222.975 235.948 223.795V223.848H234.419V223.795C234.419 223.285 234.246 222.843 233.9 222.468C233.555 222.087 233.004 221.896 232.248 221.896C231.369 221.896 230.716 222.222 230.288 222.872C229.866 223.522 229.655 224.328 229.655 225.289V225.57C229.655 226.525 229.866 227.331 230.288 227.987C230.71 228.638 231.363 228.963 232.248 228.963C233.004 228.963 233.555 228.775 233.9 228.4C234.252 228.02 234.428 227.571 234.428 227.056V227.003H235.948V227.056C235.948 227.882 235.632 228.623 234.999 229.279C234.372 229.93 233.455 230.255 232.248 230.255C230.941 230.255 229.913 229.821 229.163 228.954C228.419 228.081 228.047 226.953 228.047 225.57ZM237.275 225.57V225.289C237.275 223.912 237.65 222.787 238.4 221.914C239.156 221.041 240.152 220.604 241.389 220.604C242.631 220.604 243.583 221.012 244.245 221.826C244.913 222.641 245.247 223.745 245.247 225.14V225.781H238.233V224.516H243.674V224.322C243.674 223.654 243.483 223.083 243.103 222.608C242.728 222.134 242.18 221.896 241.459 221.896C240.598 221.896 239.953 222.225 239.525 222.881C239.098 223.531 238.884 224.334 238.884 225.289V225.57C238.884 226.525 239.109 227.331 239.561 227.987C240.012 228.638 240.706 228.963 241.644 228.963C242.224 228.963 242.722 228.837 243.138 228.585C243.56 228.327 243.902 228.022 244.166 227.671L245.177 228.488C244.896 228.922 244.453 229.326 243.85 229.701C243.246 230.07 242.511 230.255 241.644 230.255C240.237 230.255 239.156 229.821 238.4 228.954C237.65 228.081 237.275 226.953 237.275 225.57ZM251.584 230V220.859H253.157V230H251.584ZM251.382 218.047C251.382 217.777 251.467 217.552 251.637 217.37C251.807 217.188 252.053 217.098 252.375 217.098C252.691 217.098 252.935 217.188 253.104 217.37C253.274 217.552 253.359 217.777 253.359 218.047C253.359 218.311 253.274 218.536 253.104 218.724C252.935 218.905 252.688 218.996 252.366 218.996C252.05 218.996 251.807 218.905 251.637 218.724C251.467 218.536 251.382 218.311 251.382 218.047ZM255.231 227.293H256.805V227.354C256.805 227.894 256.998 228.298 257.385 228.567C257.777 228.831 258.293 228.963 258.932 228.963C259.576 228.963 260.083 228.837 260.452 228.585C260.827 228.327 261.015 227.99 261.015 227.574C261.015 227.158 260.862 226.842 260.558 226.625C260.259 226.402 259.617 226.174 258.633 225.939C257.654 225.705 256.878 225.38 256.304 224.964C255.735 224.548 255.451 223.965 255.451 223.215C255.451 222.459 255.759 221.835 256.374 221.343C256.995 220.851 257.821 220.604 258.853 220.604C259.89 220.604 260.725 220.851 261.357 221.343C261.99 221.835 262.307 222.506 262.307 223.355V223.408H260.742V223.32C260.742 222.869 260.587 222.521 260.276 222.274C259.966 222.022 259.491 221.896 258.853 221.896C258.214 221.896 257.745 222.014 257.446 222.248C257.153 222.477 257.007 222.772 257.007 223.136C257.007 223.487 257.174 223.766 257.508 223.971C257.848 224.176 258.507 224.396 259.485 224.63C260.464 224.864 261.22 225.198 261.753 225.632C262.292 226.06 262.562 226.678 262.562 227.486C262.562 228.295 262.26 228.96 261.656 229.481C261.053 229.997 260.145 230.255 258.932 230.255C257.725 230.255 256.805 229.991 256.172 229.464C255.545 228.937 255.231 228.233 255.231 227.354V227.293ZM268.327 227.319C268.327 226.394 268.693 225.673 269.426 225.157C270.158 224.642 271.093 224.384 272.229 224.384H274.304V223.733C274.304 223.177 274.16 222.729 273.873 222.389C273.586 222.043 273.094 221.87 272.396 221.87C271.699 221.87 271.195 222.014 270.885 222.301C270.58 222.582 270.428 222.919 270.428 223.312V223.364H268.863V223.303C268.863 222.576 269.183 221.946 269.821 221.413C270.466 220.874 271.336 220.604 272.432 220.604C273.527 220.604 274.374 220.865 274.972 221.387C275.575 221.908 275.877 222.69 275.877 223.733V227.891C275.877 228.271 275.906 228.632 275.965 228.972C276.023 229.306 276.105 229.602 276.211 229.859V230H274.69C274.608 229.854 274.532 229.663 274.462 229.429C274.397 229.194 274.356 228.96 274.339 228.726C274.128 229.106 273.782 229.443 273.302 229.736C272.821 230.023 272.203 230.167 271.447 230.167C270.574 230.167 269.836 229.924 269.232 229.438C268.629 228.945 268.327 228.239 268.327 227.319ZM269.9 227.231C269.9 227.759 270.053 228.172 270.357 228.471C270.668 228.764 271.143 228.91 271.781 228.91C272.42 228.91 273 228.69 273.521 228.251C274.043 227.806 274.304 227.331 274.304 226.827V225.509H272.405C271.579 225.509 270.955 225.664 270.533 225.975C270.111 226.285 269.9 226.704 269.9 227.231ZM278.452 230V216.562H280.025V230H278.452ZM282.706 230V216.562H284.279V230H282.706ZM290.669 227.319C290.669 226.394 291.035 225.673 291.768 225.157C292.5 224.642 293.435 224.384 294.571 224.384H296.646V223.733C296.646 223.177 296.502 222.729 296.215 222.389C295.928 222.043 295.436 221.87 294.738 221.87C294.041 221.87 293.537 222.014 293.227 222.301C292.922 222.582 292.77 222.919 292.77 223.312V223.364H291.205V223.303C291.205 222.576 291.524 221.946 292.163 221.413C292.808 220.874 293.678 220.604 294.773 220.604C295.869 220.604 296.716 220.865 297.313 221.387C297.917 221.908 298.219 222.69 298.219 223.733V227.891C298.219 228.271 298.248 228.632 298.307 228.972C298.365 229.306 298.447 229.602 298.553 229.859V230H297.032C296.95 229.854 296.874 229.663 296.804 229.429C296.739 229.194 296.698 228.96 296.681 228.726C296.47 229.106 296.124 229.443 295.644 229.736C295.163 230.023 294.545 230.167 293.789 230.167C292.916 230.167 292.178 229.924 291.574 229.438C290.971 228.945 290.669 228.239 290.669 227.319ZM292.242 227.231C292.242 227.759 292.395 228.172 292.699 228.471C293.01 228.764 293.484 228.91 294.123 228.91C294.762 228.91 295.342 228.69 295.863 228.251C296.385 227.806 296.646 227.331 296.646 226.827V225.509H294.747C293.921 225.509 293.297 225.664 292.875 225.975C292.453 226.285 292.242 226.704 292.242 227.231ZM300.724 230V216.562H302.297V221.949C302.566 221.568 302.927 221.264 303.378 221.035C303.835 220.801 304.383 220.684 305.021 220.684C306.176 220.684 307.099 221.117 307.79 221.984C308.481 222.852 308.827 223.95 308.827 225.28V225.562C308.827 226.897 308.481 228.002 307.79 228.875C307.099 229.742 306.176 230.176 305.021 230.176C304.383 230.176 303.82 230.044 303.334 229.78C302.854 229.511 302.496 229.186 302.262 228.805H302.218L302.147 230H300.724ZM302.297 227.311C302.484 227.721 302.78 228.087 303.185 228.409C303.595 228.726 304.096 228.884 304.688 228.884C305.555 228.884 306.193 228.564 306.604 227.926C307.014 227.287 307.219 226.499 307.219 225.562V225.28C307.219 224.343 307.014 223.561 306.604 222.934C306.193 222.301 305.552 221.984 304.679 221.984C304.093 221.984 303.595 222.146 303.185 222.468C302.774 222.784 302.479 223.147 302.297 223.558V227.311ZM310.277 225.57V225.289C310.277 223.912 310.667 222.787 311.446 221.914C312.226 221.041 313.269 220.604 314.575 220.604C315.876 220.604 316.916 221.041 317.695 221.914C318.475 222.787 318.864 223.912 318.864 225.289V225.57C318.864 226.947 318.475 228.072 317.695 228.945C316.916 229.818 315.876 230.255 314.575 230.255C313.269 230.255 312.226 229.818 311.446 228.945C310.667 228.072 310.277 226.947 310.277 225.57ZM311.886 225.289V225.57C311.886 226.525 312.111 227.331 312.562 227.987C313.014 228.638 313.682 228.963 314.566 228.963C315.457 228.963 316.128 228.638 316.579 227.987C317.03 227.331 317.256 226.525 317.256 225.57V225.289C317.256 224.334 317.03 223.531 316.579 222.881C316.128 222.225 315.457 221.896 314.566 221.896C313.682 221.896 313.014 222.225 312.562 222.881C312.111 223.531 311.886 224.334 311.886 225.289ZM320.78 226.774V220.859H322.354V226.792C322.354 227.53 322.518 228.058 322.846 228.374C323.18 228.69 323.651 228.849 324.261 228.849C324.776 228.849 325.233 228.708 325.632 228.427C326.03 228.146 326.341 227.779 326.563 227.328V220.859H328.137V230H326.713L326.651 228.813H326.599C326.271 229.235 325.866 229.569 325.386 229.815C324.905 230.056 324.375 230.176 323.795 230.176C322.875 230.176 322.143 229.915 321.598 229.394C321.053 228.872 320.78 227.999 320.78 226.774ZM329.42 222.072V220.859H334.614V222.072H329.42ZM331.055 227.724V221.58V221.334V218.504H332.628V227.724C332.628 228.151 332.71 228.456 332.874 228.638C333.038 228.813 333.299 228.901 333.656 228.901C333.814 228.901 333.973 228.884 334.131 228.849C334.289 228.813 334.447 228.767 334.605 228.708V230C334.459 230.07 334.266 230.129 334.025 230.176C333.785 230.229 333.524 230.255 333.243 230.255C332.575 230.255 332.042 230.053 331.644 229.648C331.251 229.244 331.055 228.603 331.055 227.724ZM340.037 225.57V225.289C340.037 223.906 340.409 222.781 341.153 221.914C341.903 221.041 342.932 220.604 344.238 220.604C345.451 220.604 346.371 220.933 346.998 221.589C347.625 222.239 347.938 222.975 347.938 223.795V223.848H346.409V223.795C346.409 223.285 346.236 222.843 345.891 222.468C345.545 222.087 344.994 221.896 344.238 221.896C343.359 221.896 342.706 222.222 342.278 222.872C341.856 223.522 341.646 224.328 341.646 225.289V225.57C341.646 226.525 341.856 227.331 342.278 227.987C342.7 228.638 343.354 228.963 344.238 228.963C344.994 228.963 345.545 228.775 345.891 228.4C346.242 228.02 346.418 227.571 346.418 227.056V227.003H347.938V227.056C347.938 227.882 347.622 228.623 346.989 229.279C346.362 229.93 345.445 230.255 344.238 230.255C342.932 230.255 341.903 229.821 341.153 228.954C340.409 228.081 340.037 226.953 340.037 225.57ZM349.819 230V220.859H351.243L351.313 222.046H351.357C351.592 221.659 351.899 221.322 352.28 221.035C352.661 220.748 353.115 220.604 353.643 220.604C353.771 220.604 353.906 220.619 354.047 220.648C354.188 220.678 354.287 220.704 354.346 220.728V222.187C354.229 222.163 354.105 222.146 353.977 222.134C353.848 222.116 353.707 222.107 353.555 222.107C353.033 222.107 352.588 222.245 352.219 222.521C351.85 222.796 351.574 223.142 351.393 223.558V230H349.819ZM355.119 225.57V225.289C355.119 223.912 355.494 222.787 356.244 221.914C357 221.041 357.996 220.604 359.232 220.604C360.475 220.604 361.427 221.012 362.089 221.826C362.757 222.641 363.091 223.745 363.091 225.14V225.781H356.077V224.516H361.518V224.322C361.518 223.654 361.327 223.083 360.946 222.608C360.571 222.134 360.023 221.896 359.303 221.896C358.441 221.896 357.797 222.225 357.369 222.881C356.941 223.531 356.728 224.334 356.728 225.289V225.57C356.728 226.525 356.953 227.331 357.404 227.987C357.855 228.638 358.55 228.963 359.487 228.963C360.067 228.963 360.565 228.837 360.981 228.585C361.403 228.327 361.746 228.022 362.01 227.671L363.021 228.488C362.739 228.922 362.297 229.326 361.693 229.701C361.09 230.07 360.354 230.255 359.487 230.255C358.081 230.255 357 229.821 356.244 228.954C355.494 228.081 355.119 226.953 355.119 225.57ZM364.55 227.319C364.55 226.394 364.916 225.673 365.648 225.157C366.381 224.642 367.315 224.384 368.452 224.384H370.526V223.733C370.526 223.177 370.383 222.729 370.096 222.389C369.809 222.043 369.316 221.87 368.619 221.87C367.922 221.87 367.418 222.014 367.107 222.301C366.803 222.582 366.65 222.919 366.65 223.312V223.364H365.086V223.303C365.086 222.576 365.405 221.946 366.044 221.413C366.688 220.874 367.559 220.604 368.654 220.604C369.75 220.604 370.597 220.865 371.194 221.387C371.798 221.908 372.1 222.69 372.1 223.733V227.891C372.1 228.271 372.129 228.632 372.188 228.972C372.246 229.306 372.328 229.602 372.434 229.859V230H370.913C370.831 229.854 370.755 229.663 370.685 229.429C370.62 229.194 370.579 228.96 370.562 228.726C370.351 229.106 370.005 229.443 369.524 229.736C369.044 230.023 368.426 230.167 367.67 230.167C366.797 230.167 366.059 229.924 365.455 229.438C364.852 228.945 364.55 228.239 364.55 227.319ZM366.123 227.231C366.123 227.759 366.275 228.172 366.58 228.471C366.891 228.764 367.365 228.91 368.004 228.91C368.643 228.91 369.223 228.69 369.744 228.251C370.266 227.806 370.526 227.331 370.526 226.827V225.509H368.628C367.802 225.509 367.178 225.664 366.756 225.975C366.334 226.285 366.123 226.704 366.123 227.231ZM373.33 222.072V220.859H378.524V222.072H373.33ZM374.965 227.724V221.58V221.334V218.504H376.538V227.724C376.538 228.151 376.62 228.456 376.784 228.638C376.948 228.813 377.209 228.901 377.566 228.901C377.725 228.901 377.883 228.884 378.041 228.849C378.199 228.813 378.357 228.767 378.516 228.708V230C378.369 230.07 378.176 230.129 377.936 230.176C377.695 230.229 377.435 230.255 377.153 230.255C376.485 230.255 375.952 230.053 375.554 229.648C375.161 229.244 374.965 228.603 374.965 227.724ZM380.291 230V220.859H381.864V230H380.291ZM380.089 218.047C380.089 217.777 380.174 217.552 380.344 217.37C380.514 217.188 380.76 217.098 381.082 217.098C381.398 217.098 381.642 217.188 381.812 217.37C381.981 217.552 382.066 217.777 382.066 218.047C382.066 218.311 381.981 218.536 381.812 218.724C381.642 218.905 381.396 218.996 381.073 218.996C380.757 218.996 380.514 218.905 380.344 218.724C380.174 218.536 380.089 218.311 380.089 218.047ZM384.501 230V220.859H385.925L385.995 222.046H386.039C386.367 221.624 386.771 221.293 387.252 221.053C387.732 220.807 388.266 220.684 388.852 220.684C389.766 220.684 390.495 220.947 391.04 221.475C391.585 221.996 391.857 222.869 391.857 224.094V230H390.284V224.085C390.284 223.341 390.117 222.811 389.783 222.494C389.455 222.172 388.989 222.011 388.386 222.011C387.864 222.011 387.404 222.151 387.006 222.433C386.607 222.714 386.297 223.08 386.074 223.531V230H384.501ZM394.125 232.522L395.101 231.336C395.358 231.629 395.719 231.887 396.182 232.109C396.65 232.338 397.178 232.452 397.764 232.452C398.543 232.452 399.161 232.224 399.618 231.767C400.075 231.315 400.304 230.665 400.304 229.815V228.91C400.034 229.285 399.674 229.59 399.223 229.824C398.771 230.053 398.224 230.167 397.579 230.167C396.425 230.167 395.502 229.733 394.811 228.866C394.119 227.999 393.773 226.9 393.773 225.57V225.289C393.773 223.959 394.119 222.86 394.811 221.993C395.502 221.12 396.428 220.684 397.588 220.684C398.227 220.684 398.786 220.818 399.267 221.088C399.747 221.352 400.104 221.674 400.339 222.055H400.383L400.453 220.859H401.877V229.815C401.877 231.11 401.499 232.104 400.743 232.795C399.993 233.486 399.012 233.832 397.799 233.832C397.049 233.832 396.357 233.709 395.725 233.463C395.092 233.217 394.559 232.903 394.125 232.522ZM395.382 225.57C395.382 226.508 395.587 227.293 395.997 227.926C396.407 228.559 397.052 228.875 397.931 228.875C398.511 228.875 399.006 228.717 399.416 228.4C399.826 228.078 400.122 227.712 400.304 227.302V223.558C400.122 223.147 399.826 222.784 399.416 222.468C399.006 222.146 398.511 221.984 397.931 221.984C397.052 221.984 396.407 222.301 395.997 222.934C395.587 223.566 395.382 224.352 395.382 225.289V225.57ZM407.449 220.859H408.979L411.202 227.012C411.284 227.246 411.354 227.466 411.413 227.671C411.472 227.87 411.513 228.028 411.536 228.146H411.589C411.612 228.028 411.653 227.87 411.712 227.671C411.771 227.466 411.841 227.246 411.923 227.012L414.129 220.859H415.632L412.151 230H410.93L407.449 220.859ZM416.994 230V220.859H418.567V230H416.994ZM416.792 218.047C416.792 217.777 416.877 217.552 417.047 217.37C417.217 217.188 417.463 217.098 417.785 217.098C418.102 217.098 418.345 217.188 418.515 217.37C418.685 217.552 418.77 217.777 418.77 218.047C418.77 218.311 418.685 218.536 418.515 218.724C418.345 218.905 418.099 218.996 417.776 218.996C417.46 218.996 417.217 218.905 417.047 218.724C416.877 218.536 416.792 218.311 416.792 218.047ZM420.642 227.293H422.215V227.354C422.215 227.894 422.408 228.298 422.795 228.567C423.188 228.831 423.703 228.963 424.342 228.963C424.986 228.963 425.493 228.837 425.862 228.585C426.237 228.327 426.425 227.99 426.425 227.574C426.425 227.158 426.272 226.842 425.968 226.625C425.669 226.402 425.027 226.174 424.043 225.939C423.064 225.705 422.288 225.38 421.714 224.964C421.146 224.548 420.861 223.965 420.861 223.215C420.861 222.459 421.169 221.835 421.784 221.343C422.405 220.851 423.231 220.604 424.263 220.604C425.3 220.604 426.135 220.851 426.768 221.343C427.4 221.835 427.717 222.506 427.717 223.355V223.408H426.152V223.32C426.152 222.869 425.997 222.521 425.687 222.274C425.376 222.022 424.901 221.896 424.263 221.896C423.624 221.896 423.155 222.014 422.856 222.248C422.563 222.477 422.417 222.772 422.417 223.136C422.417 223.487 422.584 223.766 422.918 223.971C423.258 224.176 423.917 224.396 424.896 224.63C425.874 224.864 426.63 225.198 427.163 225.632C427.702 226.06 427.972 226.678 427.972 227.486C427.972 228.295 427.67 228.96 427.066 229.481C426.463 229.997 425.555 230.255 424.342 230.255C423.135 230.255 422.215 229.991 421.582 229.464C420.955 228.937 420.642 228.233 420.642 227.354V227.293ZM429.87 226.774V220.859H431.443V226.792C431.443 227.53 431.607 228.058 431.936 228.374C432.27 228.69 432.741 228.849 433.351 228.849C433.866 228.849 434.323 228.708 434.722 228.427C435.12 228.146 435.431 227.779 435.653 227.328V220.859H437.227V230H435.803L435.741 228.813H435.688C435.36 229.235 434.956 229.569 434.476 229.815C433.995 230.056 433.465 230.176 432.885 230.176C431.965 230.176 431.232 229.915 430.688 229.394C430.143 228.872 429.87 227.999 429.87 226.774ZM439.274 227.319C439.274 226.394 439.641 225.673 440.373 225.157C441.105 224.642 442.04 224.384 443.177 224.384H445.251V223.733C445.251 223.177 445.107 222.729 444.82 222.389C444.533 222.043 444.041 221.87 443.344 221.87C442.646 221.87 442.143 222.014 441.832 222.301C441.527 222.582 441.375 222.919 441.375 223.312V223.364H439.811V223.303C439.811 222.576 440.13 221.946 440.769 221.413C441.413 220.874 442.283 220.604 443.379 220.604C444.475 220.604 445.321 220.865 445.919 221.387C446.522 221.908 446.824 222.69 446.824 223.733V227.891C446.824 228.271 446.854 228.632 446.912 228.972C446.971 229.306 447.053 229.602 447.158 229.859V230H445.638C445.556 229.854 445.479 229.663 445.409 229.429C445.345 229.194 445.304 228.96 445.286 228.726C445.075 229.106 444.729 229.443 444.249 229.736C443.769 230.023 443.15 230.167 442.395 230.167C441.521 230.167 440.783 229.924 440.18 229.438C439.576 228.945 439.274 228.239 439.274 227.319ZM440.848 227.231C440.848 227.759 441 228.172 441.305 228.471C441.615 228.764 442.09 228.91 442.729 228.91C443.367 228.91 443.947 228.69 444.469 228.251C444.99 227.806 445.251 227.331 445.251 226.827V225.509H443.353C442.526 225.509 441.902 225.664 441.48 225.975C441.059 226.285 440.848 226.704 440.848 227.231ZM449.399 230V216.562H450.973V230H449.399ZM453.653 230V216.562H455.227V230H453.653ZM456.984 233.656V232.32C457.137 232.367 457.304 232.405 457.485 232.435C457.673 232.464 457.854 232.479 458.03 232.479C458.435 232.479 458.789 232.317 459.094 231.995C459.398 231.673 459.721 230.999 460.061 229.974V229.965L456.642 220.859H458.171L460.368 226.933C460.45 227.167 460.521 227.384 460.579 227.583C460.644 227.782 460.699 227.97 460.746 228.146H460.799C460.852 227.97 460.91 227.782 460.975 227.583C461.039 227.384 461.109 227.167 461.186 226.933L463.251 220.859H464.745L461.01 231.23C460.711 232.057 460.327 232.695 459.858 233.146C459.39 233.604 458.81 233.832 458.118 233.832C457.884 233.832 457.676 233.817 457.494 233.788C457.318 233.759 457.148 233.715 456.984 233.656ZM469.755 227.293H471.328V227.354C471.328 227.894 471.521 228.298 471.908 228.567C472.301 228.831 472.816 228.963 473.455 228.963C474.1 228.963 474.606 228.837 474.976 228.585C475.351 228.327 475.538 227.99 475.538 227.574C475.538 227.158 475.386 226.842 475.081 226.625C474.782 226.402 474.141 226.174 473.156 225.939C472.178 225.705 471.401 225.38 470.827 224.964C470.259 224.548 469.975 223.965 469.975 223.215C469.975 222.459 470.282 221.835 470.897 221.343C471.519 220.851 472.345 220.604 473.376 220.604C474.413 220.604 475.248 220.851 475.881 221.343C476.514 221.835 476.83 222.506 476.83 223.355V223.408H475.266V223.32C475.266 222.869 475.11 222.521 474.8 222.274C474.489 222.022 474.015 221.896 473.376 221.896C472.737 221.896 472.269 222.014 471.97 222.248C471.677 222.477 471.53 222.772 471.53 223.136C471.53 223.487 471.697 223.766 472.031 223.971C472.371 224.176 473.03 224.396 474.009 224.63C474.987 224.864 475.743 225.198 476.276 225.632C476.815 226.06 477.085 226.678 477.085 227.486C477.085 228.295 476.783 228.96 476.18 229.481C475.576 229.997 474.668 230.255 473.455 230.255C472.248 230.255 471.328 229.991 470.695 229.464C470.068 228.937 469.755 228.233 469.755 227.354V227.293ZM477.797 222.072V220.859H482.991V222.072H477.797ZM479.432 227.724V221.58V221.334V218.504H481.005V227.724C481.005 228.151 481.087 228.456 481.251 228.638C481.415 228.813 481.676 228.901 482.033 228.901C482.191 228.901 482.35 228.884 482.508 228.849C482.666 228.813 482.824 228.767 482.982 228.708V230C482.836 230.07 482.643 230.129 482.402 230.176C482.162 230.229 481.901 230.255 481.62 230.255C480.952 230.255 480.419 230.053 480.021 229.648C479.628 229.244 479.432 228.603 479.432 227.724ZM484.591 226.774V220.859H486.164V226.792C486.164 227.53 486.328 228.058 486.656 228.374C486.99 228.69 487.462 228.849 488.071 228.849C488.587 228.849 489.044 228.708 489.442 228.427C489.841 228.146 490.151 227.779 490.374 227.328V220.859H491.947V230H490.523L490.462 228.813H490.409C490.081 229.235 489.677 229.569 489.196 229.815C488.716 230.056 488.186 230.176 487.605 230.176C486.686 230.176 485.953 229.915 485.408 229.394C484.863 228.872 484.591 227.999 484.591 226.774ZM494.505 230V220.859H495.929L495.999 222.046H496.043C496.371 221.624 496.775 221.293 497.256 221.053C497.736 220.807 498.27 220.684 498.855 220.684C499.77 220.684 500.499 220.947 501.044 221.475C501.589 221.996 501.861 222.869 501.861 224.094V230H500.288V224.085C500.288 223.341 500.121 222.811 499.787 222.494C499.459 222.172 498.993 222.011 498.39 222.011C497.868 222.011 497.408 222.151 497.01 222.433C496.611 222.714 496.301 223.08 496.078 223.531V230H494.505ZM504.331 230V220.859H505.755L505.825 222.046H505.869C506.197 221.624 506.602 221.293 507.082 221.053C507.562 220.807 508.096 220.684 508.682 220.684C509.596 220.684 510.325 220.947 510.87 221.475C511.415 221.996 511.688 222.869 511.688 224.094V230H510.114V224.085C510.114 223.341 509.947 222.811 509.613 222.494C509.285 222.172 508.819 222.011 508.216 222.011C507.694 222.011 507.234 222.151 506.836 222.433C506.438 222.714 506.127 223.08 505.904 223.531V230H504.331ZM514.236 230V220.859H515.81V230H514.236ZM514.034 218.047C514.034 217.777 514.119 217.552 514.289 217.37C514.459 217.188 514.705 217.098 515.027 217.098C515.344 217.098 515.587 217.188 515.757 217.37C515.927 217.552 516.012 217.777 516.012 218.047C516.012 218.311 515.927 218.536 515.757 218.724C515.587 218.905 515.341 218.996 515.019 218.996C514.702 218.996 514.459 218.905 514.289 218.724C514.119 218.536 514.034 218.311 514.034 218.047ZM518.446 230V220.859H519.87L519.94 222.046H519.984C520.312 221.624 520.717 221.293 521.197 221.053C521.678 220.807 522.211 220.684 522.797 220.684C523.711 220.684 524.44 220.947 524.985 221.475C525.53 221.996 525.803 222.869 525.803 224.094V230H524.229V224.085C524.229 223.341 524.062 222.811 523.729 222.494C523.4 222.172 522.935 222.011 522.331 222.011C521.81 222.011 521.35 222.151 520.951 222.433C520.553 222.714 520.242 223.08 520.02 223.531V230H518.446ZM528.07 232.522L529.046 231.336C529.304 231.629 529.664 231.887 530.127 232.109C530.596 232.338 531.123 232.452 531.709 232.452C532.488 232.452 533.106 232.224 533.563 231.767C534.021 231.315 534.249 230.665 534.249 229.815V228.91C533.979 229.285 533.619 229.59 533.168 229.824C532.717 230.053 532.169 230.167 531.524 230.167C530.37 230.167 529.447 229.733 528.756 228.866C528.064 227.999 527.719 226.9 527.719 225.57V225.289C527.719 223.959 528.064 222.86 528.756 221.993C529.447 221.12 530.373 220.684 531.533 220.684C532.172 220.684 532.731 220.818 533.212 221.088C533.692 221.352 534.05 221.674 534.284 222.055H534.328L534.398 220.859H535.822V229.815C535.822 231.11 535.444 232.104 534.688 232.795C533.938 233.486 532.957 233.832 531.744 233.832C530.994 233.832 530.303 233.709 529.67 233.463C529.037 233.217 528.504 232.903 528.07 232.522ZM529.327 225.57C529.327 226.508 529.532 227.293 529.942 227.926C530.353 228.559 530.997 228.875 531.876 228.875C532.456 228.875 532.951 228.717 533.361 228.4C533.771 228.078 534.067 227.712 534.249 227.302V223.558C534.067 223.147 533.771 222.784 533.361 222.468C532.951 222.146 532.456 221.984 531.876 221.984C530.997 221.984 530.353 222.301 529.942 222.934C529.532 223.566 529.327 224.352 529.327 225.289V225.57ZM542.159 227.319C542.159 226.394 542.525 225.673 543.258 225.157C543.99 224.642 544.925 224.384 546.062 224.384H548.136V223.733C548.136 223.177 547.992 222.729 547.705 222.389C547.418 222.043 546.926 221.87 546.229 221.87C545.531 221.87 545.027 222.014 544.717 222.301C544.412 222.582 544.26 222.919 544.26 223.312V223.364H542.695V223.303C542.695 222.576 543.015 221.946 543.653 221.413C544.298 220.874 545.168 220.604 546.264 220.604C547.359 220.604 548.206 220.865 548.804 221.387C549.407 221.908 549.709 222.69 549.709 223.733V227.891C549.709 228.271 549.738 228.632 549.797 228.972C549.855 229.306 549.938 229.602 550.043 229.859V230H548.522C548.44 229.854 548.364 229.663 548.294 229.429C548.229 229.194 548.188 228.96 548.171 228.726C547.96 229.106 547.614 229.443 547.134 229.736C546.653 230.023 546.035 230.167 545.279 230.167C544.406 230.167 543.668 229.924 543.064 229.438C542.461 228.945 542.159 228.239 542.159 227.319ZM543.732 227.231C543.732 227.759 543.885 228.172 544.189 228.471C544.5 228.764 544.975 228.91 545.613 228.91C546.252 228.91 546.832 228.69 547.354 228.251C547.875 227.806 548.136 227.331 548.136 226.827V225.509H546.237C545.411 225.509 544.787 225.664 544.365 225.975C543.943 226.285 543.732 226.704 543.732 227.231ZM552.214 230V220.859H553.638L553.708 222.046H553.752C554.08 221.624 554.484 221.293 554.965 221.053C555.445 220.807 555.979 220.684 556.564 220.684C557.479 220.684 558.208 220.947 558.753 221.475C559.298 221.996 559.57 222.869 559.57 224.094V230H557.997V224.085C557.997 223.341 557.83 222.811 557.496 222.494C557.168 222.172 556.702 222.011 556.099 222.011C555.577 222.011 555.117 222.151 554.719 222.433C554.32 222.714 554.01 223.08 553.787 223.531V230H552.214ZM561.486 225.57V225.289C561.486 223.959 561.832 222.86 562.523 221.993C563.221 221.12 564.146 220.684 565.301 220.684C565.945 220.684 566.49 220.798 566.936 221.026C567.387 221.255 567.747 221.56 568.017 221.94V216.562H569.59V230H568.166L568.096 228.796H568.052C567.817 229.177 567.46 229.502 566.979 229.771C566.499 230.041 565.939 230.176 565.301 230.176C564.141 230.176 563.215 229.742 562.523 228.875C561.832 228.002 561.486 226.9 561.486 225.57ZM563.095 225.57C563.095 226.508 563.3 227.296 563.71 227.935C564.12 228.567 564.765 228.884 565.644 228.884C566.224 228.884 566.719 228.723 567.129 228.4C567.539 228.078 567.835 227.712 568.017 227.302V223.549C567.835 223.139 567.539 222.775 567.129 222.459C566.719 222.143 566.224 221.984 565.644 221.984C564.765 221.984 564.12 222.301 563.71 222.934C563.3 223.566 563.095 224.352 563.095 225.289V225.57ZM576.349 226.774V220.859H577.922V226.792C577.922 227.53 578.086 228.058 578.414 228.374C578.748 228.69 579.22 228.849 579.829 228.849C580.345 228.849 580.802 228.708 581.2 228.427C581.599 228.146 581.909 227.779 582.132 227.328V220.859H583.705V230H582.281L582.22 228.813H582.167C581.839 229.235 581.435 229.569 580.954 229.815C580.474 230.056 579.943 230.176 579.363 230.176C578.443 230.176 577.711 229.915 577.166 229.394C576.621 228.872 576.349 227.999 576.349 226.774ZM585.7 227.293H587.273V227.354C587.273 227.894 587.467 228.298 587.854 228.567C588.246 228.831 588.762 228.963 589.4 228.963C590.045 228.963 590.552 228.837 590.921 228.585C591.296 228.327 591.483 227.99 591.483 227.574C591.483 227.158 591.331 226.842 591.026 226.625C590.728 226.402 590.086 226.174 589.102 225.939C588.123 225.705 587.347 225.38 586.772 224.964C586.204 224.548 585.92 223.965 585.92 223.215C585.92 222.459 586.228 221.835 586.843 221.343C587.464 220.851 588.29 220.604 589.321 220.604C590.358 220.604 591.193 220.851 591.826 221.343C592.459 221.835 592.775 222.506 592.775 223.355V223.408H591.211V223.32C591.211 222.869 591.056 222.521 590.745 222.274C590.435 222.022 589.96 221.896 589.321 221.896C588.683 221.896 588.214 222.014 587.915 222.248C587.622 222.477 587.476 222.772 587.476 223.136C587.476 223.487 587.643 223.766 587.977 223.971C588.316 224.176 588.976 224.396 589.954 224.63C590.933 224.864 591.688 225.198 592.222 225.632C592.761 226.06 593.03 226.678 593.03 227.486C593.03 228.295 592.729 228.96 592.125 229.481C591.521 229.997 590.613 230.255 589.4 230.255C588.193 230.255 587.273 229.991 586.641 229.464C586.014 228.937 585.7 228.233 585.7 227.354V227.293ZM594.463 225.57V225.289C594.463 223.912 594.838 222.787 595.588 221.914C596.344 221.041 597.34 220.604 598.576 220.604C599.818 220.604 600.771 221.012 601.433 221.826C602.101 222.641 602.435 223.745 602.435 225.14V225.781H595.421V224.516H600.861V224.322C600.861 223.654 600.671 223.083 600.29 222.608C599.915 222.134 599.367 221.896 598.646 221.896C597.785 221.896 597.141 222.225 596.713 222.881C596.285 223.531 596.071 224.334 596.071 225.289V225.57C596.071 226.525 596.297 227.331 596.748 227.987C597.199 228.638 597.894 228.963 598.831 228.963C599.411 228.963 599.909 228.837 600.325 228.585C600.747 228.327 601.09 228.022 601.354 227.671L602.364 228.488C602.083 228.922 601.641 229.326 601.037 229.701C600.434 230.07 599.698 230.255 598.831 230.255C597.425 230.255 596.344 229.821 595.588 228.954C594.838 228.081 594.463 226.953 594.463 225.57ZM604.403 230V220.859H605.827L605.897 222.046H605.941C606.176 221.659 606.483 221.322 606.864 221.035C607.245 220.748 607.699 220.604 608.227 220.604C608.355 220.604 608.49 220.619 608.631 220.648C608.771 220.678 608.871 220.704 608.93 220.728V222.187C608.812 222.163 608.689 222.146 608.561 222.134C608.432 222.116 608.291 222.107 608.139 222.107C607.617 222.107 607.172 222.245 606.803 222.521C606.434 222.796 606.158 223.142 605.977 223.558V230H604.403ZM609.791 225.184V223.733H614.678V225.184H609.791ZM617.007 230V219.515C617.007 218.495 617.279 217.719 617.824 217.186C618.375 216.652 619.122 216.386 620.065 216.386C620.253 216.386 620.44 216.397 620.628 216.421C620.821 216.444 621.006 216.479 621.182 216.526L621.094 217.801C620.965 217.777 620.827 217.757 620.681 217.739C620.534 217.722 620.385 217.713 620.232 217.713C619.705 217.713 619.298 217.862 619.011 218.161C618.724 218.454 618.58 218.905 618.58 219.515V221.369V221.554V230H617.007ZM615.504 222.072V220.859H617.604H617.982H620.566V222.072H615.504ZM621.753 230V220.859H623.177L623.247 222.046H623.291C623.525 221.659 623.833 221.322 624.214 221.035C624.595 220.748 625.049 220.604 625.576 220.604C625.705 220.604 625.84 220.619 625.98 220.648C626.121 220.678 626.221 220.704 626.279 220.728V222.187C626.162 222.163 626.039 222.146 625.91 222.134C625.781 222.116 625.641 222.107 625.488 222.107C624.967 222.107 624.521 222.245 624.152 222.521C623.783 222.796 623.508 223.142 623.326 223.558V230H621.753ZM627.861 230V220.859H629.435V230H627.861ZM627.659 218.047C627.659 217.777 627.744 217.552 627.914 217.37C628.084 217.188 628.33 217.098 628.652 217.098C628.969 217.098 629.212 217.188 629.382 217.37C629.552 217.552 629.637 217.777 629.637 218.047C629.637 218.311 629.552 218.536 629.382 218.724C629.212 218.905 628.966 218.996 628.644 218.996C628.327 218.996 628.084 218.905 627.914 218.724C627.744 218.536 627.659 218.311 627.659 218.047ZM631.518 225.57V225.289C631.518 223.912 631.893 222.787 632.643 221.914C633.398 221.041 634.395 220.604 635.631 220.604C636.873 220.604 637.825 221.012 638.487 221.826C639.155 222.641 639.489 223.745 639.489 225.14V225.781H632.476V224.516H637.916V224.322C637.916 223.654 637.726 223.083 637.345 222.608C636.97 222.134 636.422 221.896 635.701 221.896C634.84 221.896 634.195 222.225 633.768 222.881C633.34 223.531 633.126 224.334 633.126 225.289V225.57C633.126 226.525 633.352 227.331 633.803 227.987C634.254 228.638 634.948 228.963 635.886 228.963C636.466 228.963 636.964 228.837 637.38 228.585C637.802 228.327 638.145 228.022 638.408 227.671L639.419 228.488C639.138 228.922 638.695 229.326 638.092 229.701C637.488 230.07 636.753 230.255 635.886 230.255C634.479 230.255 633.398 229.821 632.643 228.954C631.893 228.081 631.518 226.953 631.518 225.57ZM641.458 230V220.859H642.882L642.952 222.046H642.996C643.324 221.624 643.729 221.293 644.209 221.053C644.689 220.807 645.223 220.684 645.809 220.684C646.723 220.684 647.452 220.947 647.997 221.475C648.542 221.996 648.814 222.869 648.814 224.094V230H647.241V224.085C647.241 223.341 647.074 222.811 646.74 222.494C646.412 222.172 645.946 222.011 645.343 222.011C644.821 222.011 644.361 222.151 643.963 222.433C643.564 222.714 643.254 223.08 643.031 223.531V230H641.458ZM650.73 225.57V225.289C650.73 223.959 651.076 222.86 651.768 221.993C652.465 221.12 653.391 220.684 654.545 220.684C655.189 220.684 655.734 220.798 656.18 221.026C656.631 221.255 656.991 221.56 657.261 221.94V216.562H658.834V230H657.41L657.34 228.796H657.296C657.062 229.177 656.704 229.502 656.224 229.771C655.743 230.041 655.184 230.176 654.545 230.176C653.385 230.176 652.459 229.742 651.768 228.875C651.076 228.002 650.73 226.9 650.73 225.57ZM652.339 225.57C652.339 226.508 652.544 227.296 652.954 227.935C653.364 228.567 654.009 228.884 654.888 228.884C655.468 228.884 655.963 228.723 656.373 228.4C656.783 228.078 657.079 227.712 657.261 227.302V223.549C657.079 223.139 656.783 222.775 656.373 222.459C655.963 222.143 655.468 221.984 654.888 221.984C654.009 221.984 653.364 222.301 652.954 222.934C652.544 223.566 652.339 224.352 652.339 225.289V225.57ZM661.462 230V216.562H663.035V230H661.462ZM664.793 233.656V232.32C664.945 232.367 665.112 232.405 665.294 232.435C665.481 232.464 665.663 232.479 665.839 232.479C666.243 232.479 666.598 232.317 666.902 231.995C667.207 231.673 667.529 230.999 667.869 229.974V229.965L664.45 220.859H665.979L668.177 226.933C668.259 227.167 668.329 227.384 668.388 227.583C668.452 227.782 668.508 227.97 668.555 228.146H668.607C668.66 227.97 668.719 227.782 668.783 227.583C668.848 227.384 668.918 227.167 668.994 226.933L671.06 220.859H672.554L668.818 231.23C668.52 232.057 668.136 232.695 667.667 233.146C667.198 233.604 666.618 233.832 665.927 233.832C665.692 233.832 665.484 233.817 665.303 233.788C665.127 233.759 664.957 233.715 664.793 233.656ZM677.062 220.859H678.583L680.279 226.906C680.344 227.141 680.396 227.334 680.438 227.486C680.479 227.639 680.52 227.826 680.561 228.049H680.613C680.66 227.826 680.704 227.639 680.745 227.486C680.786 227.334 680.845 227.141 680.921 226.906L682.916 220.859H684.261L686.309 226.906C686.391 227.141 686.452 227.334 686.493 227.486C686.534 227.639 686.578 227.826 686.625 228.049H686.678C686.719 227.826 686.757 227.639 686.792 227.486C686.827 227.328 686.877 227.135 686.941 226.906L688.585 220.859H690.035L687.223 230H685.966L683.962 224.015C683.892 223.786 683.821 223.561 683.751 223.338C683.687 223.109 683.628 222.881 683.575 222.652H683.522C683.464 222.881 683.402 223.109 683.338 223.338C683.273 223.561 683.203 223.786 683.127 224.015L681.123 230H679.866L677.062 220.859ZM690.967 225.57V225.289C690.967 223.912 691.342 222.787 692.092 221.914C692.848 221.041 693.844 220.604 695.08 220.604C696.322 220.604 697.274 221.012 697.937 221.826C698.604 222.641 698.938 223.745 698.938 225.14V225.781H691.925V224.516H697.365V224.322C697.365 223.654 697.175 223.083 696.794 222.608C696.419 222.134 695.871 221.896 695.15 221.896C694.289 221.896 693.645 222.225 693.217 222.881C692.789 223.531 692.575 224.334 692.575 225.289V225.57C692.575 226.525 692.801 227.331 693.252 227.987C693.703 228.638 694.397 228.963 695.335 228.963C695.915 228.963 696.413 228.837 696.829 228.585C697.251 228.327 697.594 228.022 697.857 227.671L698.868 228.488C698.587 228.922 698.145 229.326 697.541 229.701C696.938 230.07 696.202 230.255 695.335 230.255C693.929 230.255 692.848 229.821 692.092 228.954C691.342 228.081 690.967 226.953 690.967 225.57ZM700.907 230V216.562H702.48V221.949C702.75 221.568 703.11 221.264 703.562 221.035C704.019 220.801 704.566 220.684 705.205 220.684C706.359 220.684 707.282 221.117 707.974 221.984C708.665 222.852 709.011 223.95 709.011 225.28V225.562C709.011 226.897 708.665 228.002 707.974 228.875C707.282 229.742 706.359 230.176 705.205 230.176C704.566 230.176 704.004 230.044 703.518 229.78C703.037 229.511 702.68 229.186 702.445 228.805H702.401L702.331 230H700.907ZM702.48 227.311C702.668 227.721 702.964 228.087 703.368 228.409C703.778 228.726 704.279 228.884 704.871 228.884C705.738 228.884 706.377 228.564 706.787 227.926C707.197 227.287 707.402 226.499 707.402 225.562V225.28C707.402 224.343 707.197 223.561 706.787 222.934C706.377 222.301 705.735 221.984 704.862 221.984C704.276 221.984 703.778 222.146 703.368 222.468C702.958 222.784 702.662 223.147 702.48 223.558V227.311ZM710.452 227.293H712.025V227.354C712.025 227.894 712.219 228.298 712.605 228.567C712.998 228.831 713.514 228.963 714.152 228.963C714.797 228.963 715.304 228.837 715.673 228.585C716.048 228.327 716.235 227.99 716.235 227.574C716.235 227.158 716.083 226.842 715.778 226.625C715.479 226.402 714.838 226.174 713.854 225.939C712.875 225.705 712.099 225.38 711.524 224.964C710.956 224.548 710.672 223.965 710.672 223.215C710.672 222.459 710.979 221.835 711.595 221.343C712.216 220.851 713.042 220.604 714.073 220.604C715.11 220.604 715.945 220.851 716.578 221.343C717.211 221.835 717.527 222.506 717.527 223.355V223.408H715.963V223.32C715.963 222.869 715.808 222.521 715.497 222.274C715.187 222.022 714.712 221.896 714.073 221.896C713.435 221.896 712.966 222.014 712.667 222.248C712.374 222.477 712.228 222.772 712.228 223.136C712.228 223.487 712.395 223.766 712.729 223.971C713.068 224.176 713.728 224.396 714.706 224.63C715.685 224.864 716.44 225.198 716.974 225.632C717.513 226.06 717.782 226.678 717.782 227.486C717.782 228.295 717.48 228.96 716.877 229.481C716.273 229.997 715.365 230.255 714.152 230.255C712.945 230.255 712.025 229.991 711.393 229.464C710.766 228.937 710.452 228.233 710.452 227.354V227.293ZM719.848 230V220.859H721.421V230H719.848ZM719.646 218.047C719.646 217.777 719.73 217.552 719.9 217.37C720.07 217.188 720.316 217.098 720.639 217.098C720.955 217.098 721.198 217.188 721.368 217.37C721.538 217.552 721.623 217.777 721.623 218.047C721.623 218.311 721.538 218.536 721.368 218.724C721.198 218.905 720.952 218.996 720.63 218.996C720.313 218.996 720.07 218.905 719.9 218.724C719.73 218.536 719.646 218.311 719.646 218.047ZM722.783 222.072V220.859H727.978V222.072H722.783ZM724.418 227.724V221.58V221.334V218.504H725.991V227.724C725.991 228.151 726.073 228.456 726.237 228.638C726.401 228.813 726.662 228.901 727.02 228.901C727.178 228.901 727.336 228.884 727.494 228.849C727.652 228.813 727.811 228.767 727.969 228.708V230C727.822 230.07 727.629 230.129 727.389 230.176C727.148 230.229 726.888 230.255 726.606 230.255C725.938 230.255 725.405 230.053 725.007 229.648C724.614 229.244 724.418 228.603 724.418 227.724ZM729.111 225.57V225.289C729.111 223.912 729.486 222.787 730.236 221.914C730.992 221.041 731.988 220.604 733.225 220.604C734.467 220.604 735.419 221.012 736.081 221.826C736.749 222.641 737.083 223.745 737.083 225.14V225.781H730.069V224.516H735.51V224.322C735.51 223.654 735.319 223.083 734.938 222.608C734.563 222.134 734.016 221.896 733.295 221.896C732.434 221.896 731.789 222.225 731.361 222.881C730.934 223.531 730.72 224.334 730.72 225.289V225.57C730.72 226.525 730.945 227.331 731.396 227.987C731.848 228.638 732.542 228.963 733.479 228.963C734.06 228.963 734.558 228.837 734.974 228.585C735.396 228.327 735.738 228.022 736.002 227.671L737.013 228.488C736.731 228.922 736.289 229.326 735.686 229.701C735.082 230.07 734.347 230.255 733.479 230.255C732.073 230.255 730.992 229.821 730.236 228.954C729.486 228.081 729.111 226.953 729.111 225.57ZM738.489 227.293H740.062V227.354C740.062 227.894 740.256 228.298 740.643 228.567C741.035 228.831 741.551 228.963 742.189 228.963C742.834 228.963 743.341 228.837 743.71 228.585C744.085 228.327 744.272 227.99 744.272 227.574C744.272 227.158 744.12 226.842 743.815 226.625C743.517 226.402 742.875 226.174 741.891 225.939C740.912 225.705 740.136 225.38 739.562 224.964C738.993 224.548 738.709 223.965 738.709 223.215C738.709 222.459 739.017 221.835 739.632 221.343C740.253 220.851 741.079 220.604 742.11 220.604C743.147 220.604 743.982 220.851 744.615 221.343C745.248 221.835 745.564 222.506 745.564 223.355V223.408H744V223.32C744 222.869 743.845 222.521 743.534 222.274C743.224 222.022 742.749 221.896 742.11 221.896C741.472 221.896 741.003 222.014 740.704 222.248C740.411 222.477 740.265 222.772 740.265 223.136C740.265 223.487 740.432 223.766 740.766 223.971C741.105 224.176 741.765 224.396 742.743 224.63C743.722 224.864 744.478 225.198 745.011 225.632C745.55 226.06 745.819 226.678 745.819 227.486C745.819 228.295 745.518 228.96 744.914 229.481C744.311 229.997 743.402 230.255 742.189 230.255C740.982 230.255 740.062 229.991 739.43 229.464C738.803 228.937 738.489 228.233 738.489 227.354V227.293ZM750.82 222.072V220.859H756.015V222.072H750.82ZM752.455 227.724V221.58V221.334V218.504H754.028V227.724C754.028 228.151 754.11 228.456 754.274 228.638C754.438 228.813 754.699 228.901 755.057 228.901C755.215 228.901 755.373 228.884 755.531 228.849C755.689 228.813 755.848 228.767 756.006 228.708V230C755.859 230.07 755.666 230.129 755.426 230.176C755.186 230.229 754.925 230.255 754.644 230.255C753.976 230.255 753.442 230.053 753.044 229.648C752.651 229.244 752.455 228.603 752.455 227.724ZM757.702 230V216.562H759.275V222.002C759.598 221.604 760.008 221.284 760.506 221.044C761.004 220.804 761.552 220.684 762.149 220.684C762.999 220.684 763.696 220.947 764.241 221.475C764.786 221.996 765.059 222.869 765.059 224.094V230H763.485V224.076C763.485 223.338 763.318 222.811 762.984 222.494C762.656 222.172 762.19 222.011 761.587 222.011C761.065 222.011 760.605 222.154 760.207 222.441C759.809 222.723 759.498 223.086 759.275 223.531V230H757.702ZM767.019 227.319C767.019 226.394 767.385 225.673 768.117 225.157C768.85 224.642 769.784 224.384 770.921 224.384H772.995V223.733C772.995 223.177 772.852 222.729 772.564 222.389C772.277 222.043 771.785 221.87 771.088 221.87C770.391 221.87 769.887 222.014 769.576 222.301C769.271 222.582 769.119 222.919 769.119 223.312V223.364H767.555V223.303C767.555 222.576 767.874 221.946 768.513 221.413C769.157 220.874 770.027 220.604 771.123 220.604C772.219 220.604 773.065 220.865 773.663 221.387C774.267 221.908 774.568 222.69 774.568 223.733V227.891C774.568 228.271 774.598 228.632 774.656 228.972C774.715 229.306 774.797 229.602 774.902 229.859V230H773.382C773.3 229.854 773.224 229.663 773.153 229.429C773.089 229.194 773.048 228.96 773.03 228.726C772.819 229.106 772.474 229.443 771.993 229.736C771.513 230.023 770.895 230.167 770.139 230.167C769.266 230.167 768.527 229.924 767.924 229.438C767.32 228.945 767.019 228.239 767.019 227.319ZM768.592 227.231C768.592 227.759 768.744 228.172 769.049 228.471C769.359 228.764 769.834 228.91 770.473 228.91C771.111 228.91 771.691 228.69 772.213 228.251C772.734 227.806 772.995 227.331 772.995 226.827V225.509H771.097C770.271 225.509 769.646 225.664 769.225 225.975C768.803 226.285 768.592 226.704 768.592 227.231ZM775.799 222.072V220.859H780.993V222.072H775.799ZM777.434 227.724V221.58V221.334V218.504H779.007V227.724C779.007 228.151 779.089 228.456 779.253 228.638C779.417 228.813 779.678 228.901 780.035 228.901C780.193 228.901 780.352 228.884 780.51 228.849C780.668 228.813 780.826 228.767 780.984 228.708V230C780.838 230.07 780.645 230.129 780.404 230.176C780.164 230.229 779.903 230.255 779.622 230.255C778.954 230.255 778.421 230.053 778.022 229.648C777.63 229.244 777.434 228.603 777.434 227.724ZM61.3447 257V243.562H62.918V257H61.3447ZM64.9746 252.57V252.289C64.9746 250.912 65.3496 249.787 66.0996 248.914C66.8555 248.041 67.8516 247.604 69.0879 247.604C70.3301 247.604 71.2822 248.012 71.9443 248.826C72.6123 249.641 72.9463 250.745 72.9463 252.14V252.781H65.9326V251.516H71.373V251.322C71.373 250.654 71.1826 250.083 70.8018 249.608C70.4268 249.134 69.8789 248.896 69.1582 248.896C68.2969 248.896 67.6523 249.225 67.2246 249.881C66.7969 250.531 66.583 251.334 66.583 252.289V252.57C66.583 253.525 66.8086 254.331 67.2598 254.987C67.7109 255.638 68.4053 255.963 69.3428 255.963C69.9229 255.963 70.4209 255.837 70.8369 255.585C71.2588 255.327 71.6016 255.022 71.8652 254.671L72.876 255.488C72.5947 255.922 72.1523 256.326 71.5488 256.701C70.9453 257.07 70.21 257.255 69.3428 257.255C67.9365 257.255 66.8555 256.821 66.0996 255.954C65.3496 255.081 64.9746 253.953 64.9746 252.57ZM74.4053 254.319C74.4053 253.394 74.7715 252.673 75.5039 252.157C76.2363 251.642 77.1709 251.384 78.3076 251.384H80.3818V250.733C80.3818 250.177 80.2383 249.729 79.9512 249.389C79.6641 249.043 79.1719 248.87 78.4746 248.87C77.7773 248.87 77.2734 249.014 76.9629 249.301C76.6582 249.582 76.5059 249.919 76.5059 250.312V250.364H74.9414V250.303C74.9414 249.576 75.2607 248.946 75.8994 248.413C76.5439 247.874 77.4141 247.604 78.5098 247.604C79.6055 247.604 80.4521 247.865 81.0498 248.387C81.6533 248.908 81.9551 249.69 81.9551 250.733V254.891C81.9551 255.271 81.9844 255.632 82.043 255.972C82.1016 256.306 82.1836 256.602 82.2891 256.859V257H80.7686C80.6865 256.854 80.6104 256.663 80.54 256.429C80.4756 256.194 80.4346 255.96 80.417 255.726C80.2061 256.106 79.8604 256.443 79.3799 256.736C78.8994 257.023 78.2812 257.167 77.5254 257.167C76.6523 257.167 75.9141 256.924 75.3105 256.438C74.707 255.945 74.4053 255.239 74.4053 254.319ZM75.9785 254.231C75.9785 254.759 76.1309 255.172 76.4355 255.471C76.7461 255.764 77.2207 255.91 77.8594 255.91C78.498 255.91 79.0781 255.69 79.5996 255.251C80.1211 254.806 80.3818 254.331 80.3818 253.827V252.509H78.4834C77.6572 252.509 77.0332 252.664 76.6113 252.975C76.1895 253.285 75.9785 253.704 75.9785 254.231ZM83.0449 247.859H84.5742L86.7979 254.012C86.8799 254.246 86.9502 254.466 87.0088 254.671C87.0674 254.87 87.1084 255.028 87.1318 255.146H87.1846C87.208 255.028 87.249 254.87 87.3076 254.671C87.3662 254.466 87.4365 254.246 87.5186 254.012L89.7246 247.859H91.2275L87.7471 257H86.5254L83.0449 247.859ZM91.834 252.57V252.289C91.834 250.912 92.209 249.787 92.959 248.914C93.7148 248.041 94.7109 247.604 95.9473 247.604C97.1895 247.604 98.1416 248.012 98.8037 248.826C99.4717 249.641 99.8057 250.745 99.8057 252.14V252.781H92.792V251.516H98.2324V251.322C98.2324 250.654 98.042 250.083 97.6611 249.608C97.2861 249.134 96.7383 248.896 96.0176 248.896C95.1562 248.896 94.5117 249.225 94.084 249.881C93.6562 250.531 93.4424 251.334 93.4424 252.289V252.57C93.4424 253.525 93.668 254.331 94.1191 254.987C94.5703 255.638 95.2646 255.963 96.2021 255.963C96.7822 255.963 97.2803 255.837 97.6963 255.585C98.1182 255.327 98.4609 255.022 98.7246 254.671L99.7354 255.488C99.4541 255.922 99.0117 256.326 98.4082 256.701C97.8047 257.07 97.0693 257.255 96.2021 257.255C94.7959 257.255 93.7148 256.821 92.959 255.954C92.209 255.081 91.834 253.953 91.834 252.57ZM105.554 254.319C105.554 253.394 105.92 252.673 106.652 252.157C107.385 251.642 108.319 251.384 109.456 251.384H111.53V250.733C111.53 250.177 111.387 249.729 111.1 249.389C110.812 249.043 110.32 248.87 109.623 248.87C108.926 248.87 108.422 249.014 108.111 249.301C107.807 249.582 107.654 249.919 107.654 250.312V250.364H106.09V250.303C106.09 249.576 106.409 248.946 107.048 248.413C107.692 247.874 108.562 247.604 109.658 247.604C110.754 247.604 111.601 247.865 112.198 248.387C112.802 248.908 113.104 249.69 113.104 250.733V254.891C113.104 255.271 113.133 255.632 113.191 255.972C113.25 256.306 113.332 256.602 113.438 256.859V257H111.917C111.835 256.854 111.759 256.663 111.688 256.429C111.624 256.194 111.583 255.96 111.565 255.726C111.354 256.106 111.009 256.443 110.528 256.736C110.048 257.023 109.43 257.167 108.674 257.167C107.801 257.167 107.062 256.924 106.459 256.438C105.855 255.945 105.554 255.239 105.554 254.319ZM107.127 254.231C107.127 254.759 107.279 255.172 107.584 255.471C107.895 255.764 108.369 255.91 109.008 255.91C109.646 255.91 110.227 255.69 110.748 255.251C111.27 254.806 111.53 254.331 111.53 253.827V252.509H109.632C108.806 252.509 108.182 252.664 107.76 252.975C107.338 253.285 107.127 253.704 107.127 254.231ZM119.968 257V243.562H121.541V257H119.968ZM123.642 254.319C123.642 253.394 124.008 252.673 124.74 252.157C125.473 251.642 126.407 251.384 127.544 251.384H129.618V250.733C129.618 250.177 129.475 249.729 129.188 249.389C128.9 249.043 128.408 248.87 127.711 248.87C127.014 248.87 126.51 249.014 126.199 249.301C125.895 249.582 125.742 249.919 125.742 250.312V250.364H124.178V250.303C124.178 249.576 124.497 248.946 125.136 248.413C125.78 247.874 126.65 247.604 127.746 247.604C128.842 247.604 129.688 247.865 130.286 248.387C130.89 248.908 131.191 249.69 131.191 250.733V254.891C131.191 255.271 131.221 255.632 131.279 255.972C131.338 256.306 131.42 256.602 131.525 256.859V257H130.005C129.923 256.854 129.847 256.663 129.776 256.429C129.712 256.194 129.671 255.96 129.653 255.726C129.442 256.106 129.097 256.443 128.616 256.736C128.136 257.023 127.518 257.167 126.762 257.167C125.889 257.167 125.15 256.924 124.547 256.438C123.943 255.945 123.642 255.239 123.642 254.319ZM125.215 254.231C125.215 254.759 125.367 255.172 125.672 255.471C125.982 255.764 126.457 255.91 127.096 255.91C127.734 255.91 128.314 255.69 128.836 255.251C129.357 254.806 129.618 254.331 129.618 253.827V252.509H127.72C126.894 252.509 126.27 252.664 125.848 252.975C125.426 253.285 125.215 253.704 125.215 254.231ZM133.134 254.293H134.707V254.354C134.707 254.894 134.9 255.298 135.287 255.567C135.68 255.831 136.195 255.963 136.834 255.963C137.479 255.963 137.985 255.837 138.354 255.585C138.729 255.327 138.917 254.99 138.917 254.574C138.917 254.158 138.765 253.842 138.46 253.625C138.161 253.402 137.52 253.174 136.535 252.939C135.557 252.705 134.78 252.38 134.206 251.964C133.638 251.548 133.354 250.965 133.354 250.215C133.354 249.459 133.661 248.835 134.276 248.343C134.897 247.851 135.724 247.604 136.755 247.604C137.792 247.604 138.627 247.851 139.26 248.343C139.893 248.835 140.209 249.506 140.209 250.355V250.408H138.645V250.32C138.645 249.869 138.489 249.521 138.179 249.274C137.868 249.022 137.394 248.896 136.755 248.896C136.116 248.896 135.647 249.014 135.349 249.248C135.056 249.477 134.909 249.772 134.909 250.136C134.909 250.487 135.076 250.766 135.41 250.971C135.75 251.176 136.409 251.396 137.388 251.63C138.366 251.864 139.122 252.198 139.655 252.632C140.194 253.06 140.464 253.678 140.464 254.486C140.464 255.295 140.162 255.96 139.559 256.481C138.955 256.997 138.047 257.255 136.834 257.255C135.627 257.255 134.707 256.991 134.074 256.464C133.447 255.937 133.134 255.233 133.134 254.354V254.293ZM141.176 249.072V247.859H146.37V249.072H141.176ZM142.811 254.724V248.58V248.334V245.504H144.384V254.724C144.384 255.151 144.466 255.456 144.63 255.638C144.794 255.813 145.055 255.901 145.412 255.901C145.57 255.901 145.729 255.884 145.887 255.849C146.045 255.813 146.203 255.767 146.361 255.708V257C146.215 257.07 146.021 257.129 145.781 257.176C145.541 257.229 145.28 257.255 144.999 257.255C144.331 257.255 143.798 257.053 143.399 256.648C143.007 256.244 142.811 255.603 142.811 254.724ZM148.137 257V247.859H149.71V257H148.137ZM147.935 245.047C147.935 244.777 148.02 244.552 148.189 244.37C148.359 244.188 148.605 244.098 148.928 244.098C149.244 244.098 149.487 244.188 149.657 244.37C149.827 244.552 149.912 244.777 149.912 245.047C149.912 245.311 149.827 245.536 149.657 245.724C149.487 245.905 149.241 245.996 148.919 245.996C148.603 245.996 148.359 245.905 148.189 245.724C148.02 245.536 147.935 245.311 147.935 245.047ZM152.347 257V247.859H153.771L153.841 249.046H153.885C154.213 248.624 154.617 248.293 155.098 248.053C155.578 247.807 156.111 247.684 156.697 247.684C157.611 247.684 158.341 247.947 158.886 248.475C159.431 248.996 159.703 249.869 159.703 251.094V257H158.13V251.085C158.13 250.341 157.963 249.811 157.629 249.494C157.301 249.172 156.835 249.011 156.231 249.011C155.71 249.011 155.25 249.151 154.852 249.433C154.453 249.714 154.143 250.08 153.92 250.531V257H152.347ZM161.971 259.522L162.946 258.336C163.204 258.629 163.564 258.887 164.027 259.109C164.496 259.338 165.023 259.452 165.609 259.452C166.389 259.452 167.007 259.224 167.464 258.767C167.921 258.315 168.149 257.665 168.149 256.815V255.91C167.88 256.285 167.52 256.59 167.068 256.824C166.617 257.053 166.069 257.167 165.425 257.167C164.271 257.167 163.348 256.733 162.656 255.866C161.965 254.999 161.619 253.9 161.619 252.57V252.289C161.619 250.959 161.965 249.86 162.656 248.993C163.348 248.12 164.273 247.684 165.434 247.684C166.072 247.684 166.632 247.818 167.112 248.088C167.593 248.352 167.95 248.674 168.185 249.055H168.229L168.299 247.859H169.723V256.815C169.723 258.11 169.345 259.104 168.589 259.795C167.839 260.486 166.857 260.832 165.645 260.832C164.895 260.832 164.203 260.709 163.57 260.463C162.938 260.217 162.404 259.903 161.971 259.522ZM163.228 252.57C163.228 253.508 163.433 254.293 163.843 254.926C164.253 255.559 164.897 255.875 165.776 255.875C166.356 255.875 166.852 255.717 167.262 255.4C167.672 255.078 167.968 254.712 168.149 254.302V250.558C167.968 250.147 167.672 249.784 167.262 249.468C166.852 249.146 166.356 248.984 165.776 248.984C164.897 248.984 164.253 249.301 163.843 249.934C163.433 250.566 163.228 251.352 163.228 252.289V252.57ZM172.412 256.121C172.412 255.828 172.506 255.579 172.693 255.374C172.887 255.163 173.162 255.058 173.52 255.058C173.877 255.058 174.149 255.163 174.337 255.374C174.53 255.579 174.627 255.828 174.627 256.121C174.627 256.42 174.53 256.675 174.337 256.886C174.149 257.091 173.877 257.193 173.52 257.193C173.162 257.193 172.887 257.091 172.693 256.886C172.506 256.675 172.412 256.42 172.412 256.121Z" fill="#B3B3B2"/>
<path d="M540.874 311.185V310.628H544.009V311.111C544.009 312.371 544.395 313.313 545.166 313.938C545.938 314.563 547.017 314.876 548.403 314.876C549.79 314.876 550.85 314.568 551.582 313.953C552.324 313.328 552.695 312.508 552.695 311.492C552.695 310.535 552.344 309.778 551.641 309.222C550.938 308.665 549.57 308.074 547.539 307.449C545.361 306.775 543.77 305.975 542.764 305.047C541.758 304.119 541.255 302.806 541.255 301.106C541.255 299.397 541.88 298.001 543.13 296.917C544.38 295.833 546.099 295.291 548.286 295.291C550.444 295.291 552.168 295.843 553.457 296.946C554.756 298.04 555.405 299.51 555.405 301.355V301.795H552.3V301.414C552.3 300.32 551.963 299.446 551.289 298.792C550.615 298.138 549.619 297.811 548.301 297.811C546.953 297.811 545.962 298.094 545.327 298.66C544.702 299.217 544.39 299.979 544.39 300.945C544.39 301.834 544.722 302.537 545.386 303.055C546.06 303.562 547.427 304.134 549.487 304.769C551.636 305.423 553.228 306.248 554.263 307.244C555.298 308.23 555.815 309.598 555.815 311.346C555.815 313.172 555.146 314.637 553.809 315.74C552.471 316.834 550.674 317.381 548.418 317.381C546.162 317.381 544.341 316.844 542.954 315.77C541.567 314.695 540.874 313.167 540.874 311.185ZM557.163 298.235V295.672H573.159V298.235H566.758V317H563.579V298.235H557.163ZM572.119 317L579.648 295.584H582.974L590.518 317H587.236L581.787 300.901C581.67 300.55 581.567 300.228 581.479 299.935C581.401 299.632 581.328 299.324 581.26 299.012H581.157C581.079 299.324 580.996 299.632 580.908 299.935C580.83 300.237 580.732 300.56 580.615 300.901L575.195 317H572.119ZM575.664 311.653L576.44 309.222H586.079L586.855 311.653H575.664ZM592.524 317V295.672H599.482C601.699 295.672 603.403 296.248 604.595 297.4C605.796 298.553 606.396 300.101 606.396 302.044C606.396 303.987 605.791 305.555 604.58 306.746C603.369 307.928 601.665 308.519 599.468 308.519H595.703V317H592.524ZM595.703 306.087H599.292C600.757 306.087 601.777 305.711 602.354 304.959C602.939 304.197 603.232 303.24 603.232 302.088C603.232 300.926 602.939 299.983 602.354 299.261C601.777 298.528 600.757 298.157 599.292 298.147H595.703V306.087ZM603.877 317L598.882 307.215L602.046 306.805L607.407 317H603.877ZM607.231 298.235V295.672H623.228V298.235H616.826V317H613.647V298.235H607.231ZM624.487 311.185V310.628H627.622V311.111C627.622 312.371 628.008 313.313 628.779 313.938C629.551 314.563 630.63 314.876 632.017 314.876C633.403 314.876 634.463 314.568 635.195 313.953C635.938 313.328 636.309 312.508 636.309 311.492C636.309 310.535 635.957 309.778 635.254 309.222C634.551 308.665 633.184 308.074 631.152 307.449C628.975 306.775 627.383 305.975 626.377 305.047C625.371 304.119 624.868 302.806 624.868 301.106C624.868 299.397 625.493 298.001 626.743 296.917C627.993 295.833 629.712 295.291 631.899 295.291C634.058 295.291 635.781 295.843 637.07 296.946C638.369 298.04 639.019 299.51 639.019 301.355V301.795H635.913V301.414C635.913 300.32 635.576 299.446 634.902 298.792C634.229 298.138 633.232 297.811 631.914 297.811C630.566 297.811 629.575 298.094 628.94 298.66C628.315 299.217 628.003 299.979 628.003 300.945C628.003 301.834 628.335 302.537 628.999 303.055C629.673 303.562 631.04 304.134 633.101 304.769C635.249 305.423 636.841 306.248 637.876 307.244C638.911 308.23 639.429 309.598 639.429 311.346C639.429 313.172 638.76 314.637 637.422 315.74C636.084 316.834 634.287 317.381 632.031 317.381C629.775 317.381 627.954 316.844 626.567 315.77C625.181 314.695 624.487 313.167 624.487 311.185ZM649.419 317V295.672H661.885V298.235H652.598V305.179H660.654V307.684H652.598V317H649.419ZM664.683 317V295.672H671.641C673.857 295.672 675.562 296.248 676.753 297.4C677.954 298.553 678.555 300.101 678.555 302.044C678.555 303.987 677.949 305.555 676.738 306.746C675.527 307.928 673.823 308.519 671.626 308.519H667.861V317H664.683ZM667.861 306.087H671.45C672.915 306.087 673.936 305.711 674.512 304.959C675.098 304.197 675.391 303.24 675.391 302.088C675.391 300.926 675.098 299.983 674.512 299.261C673.936 298.528 672.915 298.157 671.45 298.147H667.861V306.087ZM676.035 317L671.04 307.215L674.204 306.805L679.565 317H676.035ZM681.426 306.966V305.706C681.426 302.249 682.236 299.651 683.857 297.913C685.479 296.165 687.568 295.291 690.127 295.291C692.686 295.291 694.775 296.165 696.396 297.913C698.027 299.651 698.843 302.249 698.843 305.706V306.966C698.843 310.423 698.027 313.025 696.396 314.773C694.775 316.512 692.686 317.381 690.127 317.381C687.568 317.381 685.479 316.512 683.857 314.773C682.236 313.025 681.426 310.423 681.426 306.966ZM684.663 307.244C684.663 309.793 685.156 311.697 686.143 312.957C687.139 314.217 688.467 314.847 690.127 314.847C691.787 314.847 693.11 314.217 694.097 312.957C695.093 311.697 695.591 309.793 695.591 307.244V305.428C695.591 302.879 695.093 300.975 694.097 299.715C693.11 298.455 691.787 297.825 690.127 297.825C688.467 297.825 687.139 298.455 686.143 299.715C685.156 300.975 684.663 302.879 684.663 305.428V307.244ZM702.417 317V295.672H706.592L712.349 311.111C712.466 311.434 712.573 311.751 712.671 312.063C712.769 312.376 712.852 312.698 712.92 313.03H713.008C713.086 312.698 713.174 312.376 713.271 312.063C713.369 311.741 713.472 311.424 713.579 311.111L719.336 295.672H723.54V317H720.435V301.971C720.435 301.658 720.439 301.312 720.449 300.931C720.459 300.54 720.479 300.184 720.508 299.861H720.405C720.347 300.184 720.259 300.54 720.142 300.931C720.034 301.312 719.927 301.658 719.819 301.971L714.238 317H711.484L705.903 301.971C705.786 301.658 705.669 301.292 705.552 300.872C705.435 300.452 705.356 300.115 705.317 299.861H705.215C705.244 300.115 705.264 300.452 705.273 300.872C705.293 301.292 705.303 301.658 705.303 301.971V317H702.417ZM732.988 311.141V310.877H735.947V311.082C735.947 312.312 736.318 313.23 737.061 313.836C737.812 314.432 738.857 314.729 740.195 314.729C741.523 314.729 742.544 314.437 743.257 313.851C743.97 313.255 744.326 312.469 744.326 311.492C744.326 310.613 744.033 309.847 743.447 309.192C742.861 308.538 741.514 307.928 739.404 307.361C737.246 306.785 735.698 305.994 734.761 304.988C733.833 303.982 733.369 302.698 733.369 301.136C733.369 299.495 733.965 298.172 735.156 297.166C736.348 296.15 737.979 295.643 740.049 295.643C742.139 295.643 743.799 296.194 745.029 297.298C746.27 298.401 746.89 299.793 746.89 301.473V301.707H743.945V301.531C743.945 300.457 743.618 299.603 742.964 298.968C742.31 298.323 741.343 298.001 740.063 298.001C738.784 298.001 737.842 298.265 737.236 298.792C736.631 299.31 736.328 300.057 736.328 301.033C736.328 301.844 736.626 302.557 737.222 303.172C737.817 303.777 739.165 304.363 741.265 304.93C743.394 305.486 744.927 306.292 745.864 307.347C746.812 308.401 747.285 309.744 747.285 311.375C747.285 313.094 746.646 314.476 745.366 315.521C744.087 316.556 742.368 317.073 740.21 317.073C738.042 317.073 736.294 316.556 734.966 315.521C733.647 314.485 732.988 313.025 732.988 311.141ZM738.95 319.358V306.028H741.279V315.916L741.455 316.062V319.358H738.95ZM739.082 306.028V296.727L738.892 296.58V293.636H741.396V306.028H739.082ZM754.99 317V298.807L749.702 300.857V298.016L756.807 295.408H758.169V317H754.99ZM765.259 319.842C765.688 319.266 766.016 318.675 766.24 318.069C766.475 317.464 766.592 316.761 766.592 315.96V313.543H769.492V315.96C769.492 316.946 769.282 317.85 768.862 318.67C768.442 319.5 767.886 320.213 767.192 320.809L765.259 319.842ZM773.066 311.463V311.155H776.172V311.448C776.172 312.562 776.509 313.421 777.183 314.026C777.866 314.622 778.794 314.92 779.966 314.92C781.138 314.92 782.075 314.52 782.778 313.719C783.481 312.918 783.833 311.727 783.833 310.145C783.833 308.572 783.481 307.425 782.778 306.702C782.085 305.97 781.182 305.604 780.068 305.604C779.238 305.604 778.511 305.765 777.886 306.087C777.261 306.409 776.724 306.834 776.274 307.361L773.784 306.438L774.868 295.672H785.928V298.323L777.388 298.309L776.772 304.344C777.222 304.012 777.783 303.729 778.457 303.494C779.131 303.26 779.873 303.143 780.684 303.143C782.441 303.143 783.936 303.733 785.166 304.915C786.396 306.087 787.012 307.806 787.012 310.071C787.012 312.376 786.367 314.173 785.078 315.462C783.789 316.741 782.085 317.381 779.966 317.381C777.798 317.381 776.104 316.839 774.883 315.755C773.672 314.671 773.066 313.24 773.066 311.463ZM789.341 310.159V302.513C789.341 300.286 789.927 298.528 791.099 297.239C792.28 295.94 793.931 295.291 796.05 295.291C798.159 295.291 799.805 295.936 800.986 297.225C802.168 298.514 802.759 300.276 802.759 302.513V310.159C802.759 312.405 802.163 314.173 800.972 315.462C799.78 316.751 798.14 317.391 796.05 317.381C793.931 317.381 792.28 316.736 791.099 315.447C789.927 314.158 789.341 312.396 789.341 310.159ZM792.549 310.481C792.549 311.819 792.832 312.894 793.398 313.704C793.975 314.505 794.858 314.905 796.05 314.905C797.241 314.905 798.12 314.505 798.687 313.704C799.263 312.894 799.551 311.819 799.551 310.481V302.205C799.551 300.857 799.263 299.783 798.687 298.982C798.12 298.182 797.241 297.781 796.05 297.781C794.858 297.781 793.975 298.182 793.398 298.982C792.832 299.783 792.549 300.857 792.549 302.205V310.481ZM805.308 310.159V302.513C805.308 300.286 805.894 298.528 807.065 297.239C808.247 295.94 809.897 295.291 812.017 295.291C814.126 295.291 815.771 295.936 816.953 297.225C818.135 298.514 818.726 300.276 818.726 302.513V310.159C818.726 312.405 818.13 314.173 816.938 315.462C815.747 316.751 814.106 317.391 812.017 317.381C809.897 317.381 808.247 316.736 807.065 315.447C805.894 314.158 805.308 312.396 805.308 310.159ZM808.516 310.481C808.516 311.819 808.799 312.894 809.365 313.704C809.941 314.505 810.825 314.905 812.017 314.905C813.208 314.905 814.087 314.505 814.653 313.704C815.229 312.894 815.518 311.819 815.518 310.481V302.205C815.518 300.857 815.229 299.783 814.653 298.982C814.087 298.182 813.208 297.781 812.017 297.781C810.825 297.781 809.941 298.182 809.365 298.982C808.799 299.783 808.516 300.857 808.516 302.205V310.481Z" fill="#F9EFEC"/>
</svg>
