<svg width="430" height="398" viewBox="0 0 430 398" fill="none" xmlns="http://www.w3.org/2000/svg">
<rect width="430" height="398" rx="14" fill="#1A1A1A"/>
<path d="M42.1533 73V51.6719H55.1318V54.2354H45.2881V60.7832H53.7695V63.2734H45.2881V70.4658H55.293V73H42.1533ZM56.4062 73L63.6865 61.0615H64.1113L69.5312 51.6719H72.8125L65.9424 63.1416H65.5322L59.7021 73H56.4062ZM56.7578 51.6719H60.3174L65.8105 61.0615H65.8838L73.1787 73H69.5898L63.7598 63.1855L63.6865 63.1709L56.7578 51.6719ZM75.4639 73V51.6719H82.6123C84.8779 51.6719 86.6064 52.2725 87.7979 53.4736C88.9893 54.6748 89.585 56.2764 89.585 58.2783C89.585 60.2803 88.9893 61.8867 87.7979 63.0977C86.6162 64.3086 84.8828 64.9141 82.5977 64.9141H78.6426V73H75.4639ZM78.6426 62.4531H82.3633C83.8672 62.4531 84.917 62.0576 85.5127 61.2666C86.1182 60.4658 86.4209 59.4746 86.4209 58.293C86.4209 57.1113 86.1182 56.1299 85.5127 55.3486C84.917 54.5674 83.8672 54.1768 82.3633 54.1768H78.6426V62.4531ZM92.4268 73V51.6719H105.405V54.2354H95.5615V60.7832H104.043V63.2734H95.5615V70.4658H105.566V73H92.4268ZM108.511 73V51.6719H115.469C117.686 51.6719 119.39 52.248 120.581 53.4004C121.782 54.5527 122.383 56.1006 122.383 58.0439C122.383 59.9873 121.777 61.5547 120.566 62.7461C119.355 63.9277 117.651 64.5186 115.454 64.5186H111.689V73H108.511ZM111.689 62.0869H115.278C116.743 62.0869 117.764 61.7109 118.34 60.959C118.926 60.1973 119.219 59.2402 119.219 58.0879C119.219 56.9258 118.926 55.9834 118.34 55.2607C117.764 54.5283 116.743 54.1572 115.278 54.1475H111.689V62.0869ZM119.863 73L114.868 63.2148L118.032 62.8047L123.394 73H119.863ZM123.218 54.2354V51.6719H139.214V54.2354H132.812V73H129.634V54.2354H123.218ZM141.719 73V51.6719H144.897V73H141.719ZM148.325 67.1846V66.6279H151.46V67.1113C151.46 68.3711 151.846 69.3135 152.617 69.9385C153.389 70.5635 154.468 70.876 155.854 70.876C157.241 70.876 158.301 70.5684 159.033 69.9531C159.775 69.3281 160.146 68.5078 160.146 67.4922C160.146 66.5352 159.795 65.7783 159.092 65.2217C158.389 64.665 157.021 64.0742 154.99 63.4492C152.812 62.7754 151.221 61.9746 150.215 61.0469C149.209 60.1191 148.706 58.8057 148.706 57.1064C148.706 55.3975 149.331 54.001 150.581 52.917C151.831 51.833 153.55 51.291 155.737 51.291C157.896 51.291 159.619 51.8428 160.908 52.9463C162.207 54.04 162.856 55.5098 162.856 57.3555V57.7949H159.751V57.4141C159.751 56.3203 159.414 55.4463 158.74 54.792C158.066 54.1377 157.07 53.8105 155.752 53.8105C154.404 53.8105 153.413 54.0938 152.778 54.6602C152.153 55.2168 151.841 55.9785 151.841 56.9453C151.841 57.834 152.173 58.5371 152.837 59.0547C153.511 59.5625 154.878 60.1338 156.938 60.7686C159.087 61.4229 160.679 62.248 161.714 63.2441C162.749 64.2305 163.267 65.5977 163.267 67.3457C163.267 69.1719 162.598 70.6367 161.26 71.7402C159.922 72.834 158.125 73.3809 155.869 73.3809C153.613 73.3809 151.792 72.8438 150.405 71.7695C149.019 70.6953 148.325 69.167 148.325 67.1846ZM166.489 73V51.6719H179.468V54.2354H169.624V60.7832H178.105V63.2734H169.624V70.4658H179.629V73H166.489ZM189.268 73V51.6719H192.446V73H189.268ZM196.841 73V51.6719H200.181L208.735 66.3643C208.901 66.667 209.058 66.9697 209.204 67.2725C209.351 67.5752 209.473 67.8633 209.57 68.1367H209.673C209.663 67.8242 209.653 67.4971 209.644 67.1553C209.644 66.8037 209.644 66.4668 209.644 66.1445V51.6719H212.529V73H209.204L200.635 58.2783C200.469 57.9854 200.312 57.6875 200.166 57.3848C200.029 57.082 199.902 56.7939 199.785 56.5205H199.697C199.707 56.833 199.712 57.1699 199.712 57.5312C199.722 57.8828 199.727 58.2148 199.727 58.5273V73H196.841ZM222.9 62.9658V61.7061C222.9 58.2588 223.706 55.6611 225.317 53.9131C226.938 52.165 229.004 51.291 231.514 51.291C233.994 51.291 235.923 51.9502 237.3 53.2686C238.687 54.5869 239.38 56.3008 239.38 58.4102V58.8203H236.23V58.3369C236.23 56.9404 235.84 55.8418 235.059 55.041C234.277 54.2305 233.096 53.8252 231.514 53.8252C229.893 53.8252 228.594 54.4404 227.617 55.6709C226.641 56.9014 226.152 58.8154 226.152 61.4131V63.2588C226.152 65.7295 226.646 67.6143 227.632 68.9131C228.618 70.2119 229.927 70.8613 231.558 70.8613C233.062 70.8613 234.194 70.4512 234.956 69.6309C235.728 68.8105 236.147 67.6924 236.216 66.2764L236.23 65.8662H239.38L239.365 66.3496C239.268 68.3906 238.555 70.0752 237.227 71.4033C235.898 72.7217 233.994 73.3809 231.514 73.3809C228.926 73.3809 226.841 72.502 225.259 70.7441C223.687 68.9766 222.9 66.3838 222.9 62.9658ZM242.485 65.7197V51.6719H245.649V65.8516C245.649 67.6094 246.04 68.8838 246.821 69.6748C247.612 70.4561 248.672 70.8467 250 70.8467C251.328 70.8467 252.383 70.4561 253.164 69.6748C253.955 68.8838 254.351 67.6094 254.351 65.8516V51.6719H257.5V65.7197C257.5 68.3174 256.797 70.2461 255.391 71.5059C253.994 72.7559 252.197 73.3809 250 73.3809C247.803 73.3809 246.001 72.7559 244.595 71.5059C243.188 70.2461 242.485 68.3174 242.485 65.7197ZM259.771 54.2354V51.6719H275.767V54.2354H269.365V73H266.187V54.2354H259.771ZM276.558 54.2354V51.6719H292.554V54.2354H286.152V73H282.974V54.2354H276.558ZM295.059 73V51.6719H298.237V73H295.059ZM302.632 73V51.6719H305.972L314.526 66.3643C314.692 66.667 314.849 66.9697 314.995 67.2725C315.142 67.5752 315.264 67.8633 315.361 68.1367H315.464C315.454 67.8242 315.444 67.4971 315.435 67.1553C315.435 66.8037 315.435 66.4668 315.435 66.1445V51.6719H318.32V73H314.995L306.426 58.2783C306.26 57.9854 306.104 57.6875 305.957 57.3848C305.82 57.082 305.693 56.7939 305.576 56.5205H305.488C305.498 56.833 305.503 57.1699 305.503 57.5312C305.513 57.8828 305.518 58.2148 305.518 58.5273V73H302.632ZM321.924 62.9658V61.7061C321.924 58.376 322.72 55.8076 324.312 54.001C325.903 52.1943 328.022 51.291 330.669 51.291C333.062 51.291 334.922 51.916 336.25 53.166C337.588 54.4062 338.291 55.9443 338.359 57.7803L338.374 58.0879H335.225V57.8389C335.225 56.7549 334.829 55.8223 334.038 55.041C333.247 54.25 332.1 53.8545 330.596 53.8545C328.926 53.8545 327.603 54.5088 326.626 55.8174C325.649 57.126 325.161 59.001 325.161 61.4424V63.2441C325.161 65.6855 325.669 67.5654 326.685 68.8838C327.7 70.2021 329.121 70.8613 330.947 70.8613C331.885 70.8613 332.695 70.7588 333.379 70.5537C334.062 70.3389 334.707 70.002 335.312 69.543V64.7236H330.654V62.2773H338.374V70.627C337.788 71.2617 336.865 71.8818 335.605 72.4873C334.346 73.083 332.788 73.3809 330.933 73.3809C328.14 73.3809 325.938 72.4775 324.326 70.6709C322.725 68.8643 321.924 66.2959 321.924 62.9658ZM341.025 65.0752V62.3945H349.126V65.0752H341.025ZM42.1533 118V96.6719H55.1318V99.2354H45.2881V105.783H53.7695V108.273H45.2881V115.466H55.293V118H42.1533ZM58.2373 118V96.6719H64.5215C67.2363 96.6719 69.4531 97.5654 71.1719 99.3525C72.8906 101.13 73.75 103.576 73.75 106.691V107.966C73.75 111.081 72.8955 113.532 71.1865 115.319C69.4873 117.106 67.2656 118 64.5215 118H58.2373ZM61.3867 115.524H64.4482C66.3232 115.524 67.8027 114.88 68.8867 113.591C69.9805 112.292 70.5273 110.456 70.5273 108.083V106.604C70.5273 104.221 69.9756 102.39 68.8721 101.11C67.7686 99.8213 66.2939 99.1768 64.4482 99.1768H61.3867V115.524ZM76.6211 107.966V106.706C76.6211 103.376 77.417 100.808 79.0088 99.001C80.6006 97.1943 82.7197 96.291 85.3662 96.291C87.7588 96.291 89.6191 96.916 90.9473 98.166C92.2852 99.4062 92.9883 100.944 93.0566 102.78L93.0713 103.088H89.9219V102.839C89.9219 101.755 89.5264 100.822 88.7354 100.041C87.9443 99.25 86.7969 98.8545 85.293 98.8545C83.623 98.8545 82.2998 99.5088 81.3232 100.817C80.3467 102.126 79.8584 104.001 79.8584 106.442V108.244C79.8584 110.686 80.3662 112.565 81.3818 113.884C82.3975 115.202 83.8184 115.861 85.6445 115.861C86.582 115.861 87.3926 115.759 88.0762 115.554C88.7598 115.339 89.4043 115.002 90.0098 114.543V109.724H85.3516V107.277H93.0713V115.627C92.4854 116.262 91.5625 116.882 90.3027 117.487C89.043 118.083 87.4854 118.381 85.6299 118.381C82.8369 118.381 80.6348 117.478 79.0234 115.671C77.4219 113.864 76.6211 111.296 76.6211 107.966ZM96.7627 118V96.6719H109.741V99.2354H99.8975V105.783H108.379V108.273H99.8975V115.466H109.902V118H96.7627ZM117.036 99.2354V96.6719H133.032V99.2354H126.631V118H123.452V99.2354H117.036ZM135.464 118V96.6719H148.442V99.2354H138.599V105.783H147.08V108.273H138.599V115.466H148.604V118H135.464ZM150.801 107.966V106.706C150.801 103.259 151.606 100.661 153.218 98.9131C154.839 97.165 156.904 96.291 159.414 96.291C161.895 96.291 163.823 96.9502 165.2 98.2686C166.587 99.5869 167.28 101.301 167.28 103.41V103.82H164.131V103.337C164.131 101.94 163.74 100.842 162.959 100.041C162.178 99.2305 160.996 98.8252 159.414 98.8252C157.793 98.8252 156.494 99.4404 155.518 100.671C154.541 101.901 154.053 103.815 154.053 106.413V108.259C154.053 110.729 154.546 112.614 155.532 113.913C156.519 115.212 157.827 115.861 159.458 115.861C160.962 115.861 162.095 115.451 162.856 114.631C163.628 113.811 164.048 112.692 164.116 111.276L164.131 110.866H167.28L167.266 111.35C167.168 113.391 166.455 115.075 165.127 116.403C163.799 117.722 161.895 118.381 159.414 118.381C156.826 118.381 154.741 117.502 153.159 115.744C151.587 113.977 150.801 111.384 150.801 107.966ZM170.532 118V96.6719H173.711V105.695H183.232V96.6719H186.411V118H183.232V108.288H173.711V118H170.532ZM190.718 118V96.6719H194.058L202.612 111.364C202.778 111.667 202.935 111.97 203.081 112.272C203.228 112.575 203.35 112.863 203.447 113.137H203.55C203.54 112.824 203.53 112.497 203.521 112.155C203.521 111.804 203.521 111.467 203.521 111.145V96.6719H206.406V118H203.081L194.512 103.278C194.346 102.985 194.189 102.688 194.043 102.385C193.906 102.082 193.779 101.794 193.662 101.521H193.574C193.584 101.833 193.589 102.17 193.589 102.531C193.599 102.883 193.604 103.215 193.604 103.527V118H190.718ZM210.01 107.966V106.706C210.01 103.249 210.82 100.651 212.441 98.9131C214.062 97.165 216.152 96.291 218.711 96.291C221.27 96.291 223.359 97.165 224.98 98.9131C226.611 100.651 227.427 103.249 227.427 106.706V107.966C227.427 111.423 226.611 114.025 224.98 115.773C223.359 117.512 221.27 118.381 218.711 118.381C216.152 118.381 214.062 117.512 212.441 115.773C210.82 114.025 210.01 111.423 210.01 107.966ZM213.247 108.244C213.247 110.793 213.74 112.697 214.727 113.957C215.723 115.217 217.051 115.847 218.711 115.847C220.371 115.847 221.694 115.217 222.681 113.957C223.677 112.697 224.175 110.793 224.175 108.244V106.428C224.175 103.879 223.677 101.975 222.681 100.715C221.694 99.4551 220.371 98.8252 218.711 98.8252C217.051 98.8252 215.723 99.4551 214.727 100.715C213.74 101.975 213.247 103.879 213.247 106.428V108.244ZM231.001 118V96.6719H234.18V115.437H243.511V118H231.001ZM244.99 107.966V106.706C244.99 103.249 245.801 100.651 247.422 98.9131C249.043 97.165 251.133 96.291 253.691 96.291C256.25 96.291 258.34 97.165 259.961 98.9131C261.592 100.651 262.407 103.249 262.407 106.706V107.966C262.407 111.423 261.592 114.025 259.961 115.773C258.34 117.512 256.25 118.381 253.691 118.381C251.133 118.381 249.043 117.512 247.422 115.773C245.801 114.025 244.99 111.423 244.99 107.966ZM248.228 108.244C248.228 110.793 248.721 112.697 249.707 113.957C250.703 115.217 252.031 115.847 253.691 115.847C255.352 115.847 256.675 115.217 257.661 113.957C258.657 112.697 259.155 110.793 259.155 108.244V106.428C259.155 103.879 258.657 101.975 257.661 100.715C256.675 99.4551 255.352 98.8252 253.691 98.8252C252.031 98.8252 250.703 99.4551 249.707 100.715C248.721 101.975 248.228 103.879 248.228 106.428V108.244ZM265.264 107.966V106.706C265.264 103.376 266.06 100.808 267.651 99.001C269.243 97.1943 271.362 96.291 274.009 96.291C276.401 96.291 278.262 96.916 279.59 98.166C280.928 99.4062 281.631 100.944 281.699 102.78L281.714 103.088H278.564V102.839C278.564 101.755 278.169 100.822 277.378 100.041C276.587 99.25 275.439 98.8545 273.936 98.8545C272.266 98.8545 270.942 99.5088 269.966 100.817C268.989 102.126 268.501 104.001 268.501 106.442V108.244C268.501 110.686 269.009 112.565 270.024 113.884C271.04 115.202 272.461 115.861 274.287 115.861C275.225 115.861 276.035 115.759 276.719 115.554C277.402 115.339 278.047 115.002 278.652 114.543V109.724H273.994V107.277H281.714V115.627C281.128 116.262 280.205 116.882 278.945 117.487C277.686 118.083 276.128 118.381 274.272 118.381C271.479 118.381 269.277 117.478 267.666 115.671C266.064 113.864 265.264 111.296 265.264 107.966ZM285.479 118V96.6719H288.657V118H285.479ZM293.052 118V96.6719H306.03V99.2354H296.187V105.783H304.668V108.273H296.187V115.466H306.191V118H293.052ZM308.345 112.185V111.628H311.479V112.111C311.479 113.371 311.865 114.313 312.637 114.938C313.408 115.563 314.487 115.876 315.874 115.876C317.261 115.876 318.32 115.568 319.053 114.953C319.795 114.328 320.166 113.508 320.166 112.492C320.166 111.535 319.814 110.778 319.111 110.222C318.408 109.665 317.041 109.074 315.01 108.449C312.832 107.775 311.24 106.975 310.234 106.047C309.229 105.119 308.726 103.806 308.726 102.106C308.726 100.397 309.351 99.001 310.601 97.917C311.851 96.833 313.569 96.291 315.757 96.291C317.915 96.291 319.639 96.8428 320.928 97.9463C322.227 99.04 322.876 100.51 322.876 102.355V102.795H319.771V102.414C319.771 101.32 319.434 100.446 318.76 99.792C318.086 99.1377 317.09 98.8105 315.771 98.8105C314.424 98.8105 313.433 99.0938 312.798 99.6602C312.173 100.217 311.86 100.979 311.86 101.945C311.86 102.834 312.192 103.537 312.856 104.055C313.53 104.562 314.897 105.134 316.958 105.769C319.106 106.423 320.698 107.248 321.733 108.244C322.769 109.23 323.286 110.598 323.286 112.346C323.286 114.172 322.617 115.637 321.279 116.74C319.941 117.834 318.145 118.381 315.889 118.381C313.633 118.381 311.812 117.844 310.425 116.77C309.038 115.695 308.345 114.167 308.345 112.185Z" fill="#F9EFEC"/>
<path d="M41.459 162V149.203H43.1641L48.9209 158.282C49.0322 158.464 49.1377 158.643 49.2373 158.818C49.3369 158.994 49.4219 159.155 49.4922 159.302H49.5625C49.5566 159.126 49.5508 158.93 49.5449 158.713C49.5449 158.49 49.5449 158.291 49.5449 158.115V149.203H51.127V162H49.4307L43.6738 152.912C43.5566 152.736 43.4482 152.561 43.3486 152.385C43.2549 152.203 43.167 152.039 43.085 151.893H43.0322C43.0381 152.068 43.041 152.268 43.041 152.49C43.0469 152.713 43.0498 152.912 43.0498 153.088V162H41.459ZM53.3066 157.57V157.289C53.3066 155.912 53.6816 154.787 54.4316 153.914C55.1875 153.041 56.1836 152.604 57.4199 152.604C58.6621 152.604 59.6143 153.012 60.2764 153.826C60.9443 154.641 61.2783 155.745 61.2783 157.14V157.781H54.2646V156.516H59.7051V156.322C59.7051 155.654 59.5146 155.083 59.1338 154.608C58.7588 154.134 58.2109 153.896 57.4902 153.896C56.6289 153.896 55.9844 154.225 55.5566 154.881C55.1289 155.531 54.915 156.334 54.915 157.289V157.57C54.915 158.525 55.1406 159.331 55.5918 159.987C56.043 160.638 56.7373 160.963 57.6748 160.963C58.2549 160.963 58.7529 160.837 59.1689 160.585C59.5908 160.327 59.9336 160.022 60.1973 159.671L61.208 160.488C60.9268 160.922 60.4844 161.326 59.8809 161.701C59.2773 162.07 58.542 162.255 57.6748 162.255C56.2686 162.255 55.1875 161.821 54.4316 160.954C53.6816 160.081 53.3066 158.953 53.3066 157.57ZM62.1309 162L65.585 156.955L65.6816 156.938L68.2656 152.859H70.0322L66.7539 157.781L66.6484 157.79L63.9062 162H62.1309ZM62.3066 152.859H64.1084L66.6836 156.938L66.7627 156.955L70.208 162H68.4062L65.6641 157.799L65.585 157.781L62.3066 152.859ZM71.3594 155.997V155.206C71.3594 153.231 71.8545 151.696 72.8447 150.601C73.835 149.499 75.1211 148.948 76.7031 148.948C78.1328 148.948 79.252 149.332 80.0605 150.1C80.8691 150.867 81.3174 151.781 81.4053 152.842L81.4141 152.947H79.7881V152.851C79.7881 152.235 79.5186 151.664 78.9795 151.137C78.4404 150.604 77.6758 150.337 76.6855 150.337C75.5723 150.337 74.6787 150.768 74.0049 151.629C73.3369 152.49 73.0029 153.683 73.0029 155.206V155.997C73.0029 157.521 73.3398 158.713 74.0137 159.574C74.6875 160.436 75.6367 160.866 76.8613 160.866C77.5 160.866 78.0508 160.799 78.5137 160.664C78.9824 160.529 79.4248 160.315 79.8408 160.022V156.973H76.6855V155.628H81.4141V160.611C81.0332 161.004 80.4531 161.376 79.6738 161.728C78.9004 162.079 77.9629 162.255 76.8613 162.255C75.1797 162.255 73.8408 161.707 72.8447 160.611C71.8545 159.51 71.3594 157.972 71.3594 155.997ZM83.2422 157.57V157.289C83.2422 155.912 83.6172 154.787 84.3672 153.914C85.123 153.041 86.1191 152.604 87.3555 152.604C88.5977 152.604 89.5498 153.012 90.2119 153.826C90.8799 154.641 91.2139 155.745 91.2139 157.14V157.781H84.2002V156.516H89.6406V156.322C89.6406 155.654 89.4502 155.083 89.0693 154.608C88.6943 154.134 88.1465 153.896 87.4258 153.896C86.5645 153.896 85.9199 154.225 85.4922 154.881C85.0645 155.531 84.8506 156.334 84.8506 157.289V157.57C84.8506 158.525 85.0762 159.331 85.5273 159.987C85.9785 160.638 86.6729 160.963 87.6104 160.963C88.1904 160.963 88.6885 160.837 89.1045 160.585C89.5264 160.327 89.8691 160.022 90.1328 159.671L91.1436 160.488C90.8623 160.922 90.4199 161.326 89.8164 161.701C89.2129 162.07 88.4775 162.255 87.6104 162.255C86.2041 162.255 85.123 161.821 84.3672 160.954C83.6172 160.081 83.2422 158.953 83.2422 157.57ZM93.1826 162V152.859H94.6064L94.6768 154.046H94.7207C95.0488 153.624 95.4531 153.293 95.9336 153.053C96.4141 152.807 96.9473 152.684 97.5332 152.684C98.4473 152.684 99.1768 152.947 99.7217 153.475C100.267 153.996 100.539 154.869 100.539 156.094V162H98.9658V156.085C98.9658 155.341 98.7988 154.811 98.4648 154.494C98.1367 154.172 97.6709 154.011 97.0674 154.011C96.5459 154.011 96.0859 154.151 95.6875 154.433C95.2891 154.714 94.9785 155.08 94.7559 155.531V162H93.1826ZM106.744 157.57V157.289C106.744 155.912 107.119 154.787 107.869 153.914C108.625 153.041 109.621 152.604 110.857 152.604C112.1 152.604 113.052 153.012 113.714 153.826C114.382 154.641 114.716 155.745 114.716 157.14V157.781H107.702V156.516H113.143V156.322C113.143 155.654 112.952 155.083 112.571 154.608C112.196 154.134 111.648 153.896 110.928 153.896C110.066 153.896 109.422 154.225 108.994 154.881C108.566 155.531 108.353 156.334 108.353 157.289V157.57C108.353 158.525 108.578 159.331 109.029 159.987C109.48 160.638 110.175 160.963 111.112 160.963C111.692 160.963 112.19 160.837 112.606 160.585C113.028 160.327 113.371 160.022 113.635 159.671L114.646 160.488C114.364 160.922 113.922 161.326 113.318 161.701C112.715 162.07 111.979 162.255 111.112 162.255C109.706 162.255 108.625 161.821 107.869 160.954C107.119 160.081 106.744 158.953 106.744 157.57ZM116.685 162V152.859H118.108L118.179 154.046H118.223C118.551 153.624 118.955 153.293 119.436 153.053C119.916 152.807 120.449 152.684 121.035 152.684C121.949 152.684 122.679 152.947 123.224 153.475C123.769 153.996 124.041 154.869 124.041 156.094V162H122.468V156.085C122.468 155.341 122.301 154.811 121.967 154.494C121.639 154.172 121.173 154.011 120.569 154.011C120.048 154.011 119.588 154.151 119.189 154.433C118.791 154.714 118.48 155.08 118.258 155.531V162H116.685ZM125.948 159.293H127.521V159.354C127.521 159.894 127.715 160.298 128.102 160.567C128.494 160.831 129.01 160.963 129.648 160.963C130.293 160.963 130.8 160.837 131.169 160.585C131.544 160.327 131.731 159.99 131.731 159.574C131.731 159.158 131.579 158.842 131.274 158.625C130.976 158.402 130.334 158.174 129.35 157.939C128.371 157.705 127.595 157.38 127.021 156.964C126.452 156.548 126.168 155.965 126.168 155.215C126.168 154.459 126.476 153.835 127.091 153.343C127.712 152.851 128.538 152.604 129.569 152.604C130.606 152.604 131.441 152.851 132.074 153.343C132.707 153.835 133.023 154.506 133.023 155.355V155.408H131.459V155.32C131.459 154.869 131.304 154.521 130.993 154.274C130.683 154.022 130.208 153.896 129.569 153.896C128.931 153.896 128.462 154.014 128.163 154.248C127.87 154.477 127.724 154.772 127.724 155.136C127.724 155.487 127.891 155.766 128.225 155.971C128.564 156.176 129.224 156.396 130.202 156.63C131.181 156.864 131.937 157.198 132.47 157.632C133.009 158.06 133.278 158.678 133.278 159.486C133.278 160.295 132.977 160.96 132.373 161.481C131.77 161.997 130.861 162.255 129.648 162.255C128.441 162.255 127.521 161.991 126.889 161.464C126.262 160.937 125.948 160.233 125.948 159.354V159.293ZM135.177 158.774V152.859H136.75V158.792C136.75 159.53 136.914 160.058 137.242 160.374C137.576 160.69 138.048 160.849 138.657 160.849C139.173 160.849 139.63 160.708 140.028 160.427C140.427 160.146 140.737 159.779 140.96 159.328V152.859H142.533V162H141.109L141.048 160.813H140.995C140.667 161.235 140.263 161.569 139.782 161.815C139.302 162.056 138.771 162.176 138.191 162.176C137.271 162.176 136.539 161.915 135.994 161.394C135.449 160.872 135.177 159.999 135.177 158.774ZM145.091 162V152.859H146.515L146.585 154.046H146.629C146.863 153.659 147.171 153.322 147.552 153.035C147.933 152.748 148.387 152.604 148.914 152.604C149.043 152.604 149.178 152.619 149.318 152.648C149.459 152.678 149.559 152.704 149.617 152.728V154.187C149.5 154.163 149.377 154.146 149.248 154.134C149.119 154.116 148.979 154.107 148.826 154.107C148.305 154.107 147.859 154.245 147.49 154.521C147.121 154.796 146.846 155.142 146.664 155.558V162H145.091ZM150.391 157.57V157.289C150.391 155.912 150.766 154.787 151.516 153.914C152.271 153.041 153.268 152.604 154.504 152.604C155.746 152.604 156.698 153.012 157.36 153.826C158.028 154.641 158.362 155.745 158.362 157.14V157.781H151.349V156.516H156.789V156.322C156.789 155.654 156.599 155.083 156.218 154.608C155.843 154.134 155.295 153.896 154.574 153.896C153.713 153.896 153.068 154.225 152.641 154.881C152.213 155.531 151.999 156.334 151.999 157.289V157.57C151.999 158.525 152.225 159.331 152.676 159.987C153.127 160.638 153.821 160.963 154.759 160.963C155.339 160.963 155.837 160.837 156.253 160.585C156.675 160.327 157.018 160.022 157.281 159.671L158.292 160.488C158.011 160.922 157.568 161.326 156.965 161.701C156.361 162.07 155.626 162.255 154.759 162.255C153.353 162.255 152.271 161.821 151.516 160.954C150.766 160.081 150.391 158.953 150.391 157.57ZM159.769 159.293H161.342V159.354C161.342 159.894 161.535 160.298 161.922 160.567C162.314 160.831 162.83 160.963 163.469 160.963C164.113 160.963 164.62 160.837 164.989 160.585C165.364 160.327 165.552 159.99 165.552 159.574C165.552 159.158 165.399 158.842 165.095 158.625C164.796 158.402 164.154 158.174 163.17 157.939C162.191 157.705 161.415 157.38 160.841 156.964C160.272 156.548 159.988 155.965 159.988 155.215C159.988 154.459 160.296 153.835 160.911 153.343C161.532 152.851 162.358 152.604 163.39 152.604C164.427 152.604 165.262 152.851 165.895 153.343C166.527 153.835 166.844 154.506 166.844 155.355V155.408H165.279V155.32C165.279 154.869 165.124 154.521 164.813 154.274C164.503 154.022 164.028 153.896 163.39 153.896C162.751 153.896 162.282 154.014 161.983 154.248C161.69 154.477 161.544 154.772 161.544 155.136C161.544 155.487 161.711 155.766 162.045 155.971C162.385 156.176 163.044 156.396 164.022 156.63C165.001 156.864 165.757 157.198 166.29 157.632C166.829 158.06 167.099 158.678 167.099 159.486C167.099 160.295 166.797 160.96 166.193 161.481C165.59 161.997 164.682 162.255 163.469 162.255C162.262 162.255 161.342 161.991 160.709 161.464C160.082 160.937 159.769 160.233 159.769 159.354V159.293ZM172.521 165.656V164.32C172.674 164.367 172.841 164.405 173.022 164.435C173.21 164.464 173.392 164.479 173.567 164.479C173.972 164.479 174.326 164.317 174.631 163.995C174.936 163.673 175.258 162.999 175.598 161.974V161.965L172.179 152.859H173.708L175.905 158.933C175.987 159.167 176.058 159.384 176.116 159.583C176.181 159.782 176.236 159.97 176.283 160.146H176.336C176.389 159.97 176.447 159.782 176.512 159.583C176.576 159.384 176.646 159.167 176.723 158.933L178.788 152.859H180.282L176.547 163.23C176.248 164.057 175.864 164.695 175.396 165.146C174.927 165.604 174.347 165.832 173.655 165.832C173.421 165.832 173.213 165.817 173.031 165.788C172.855 165.759 172.686 165.715 172.521 165.656ZM180.871 157.57V157.289C180.871 155.912 181.261 154.787 182.04 153.914C182.819 153.041 183.862 152.604 185.169 152.604C186.47 152.604 187.51 153.041 188.289 153.914C189.068 154.787 189.458 155.912 189.458 157.289V157.57C189.458 158.947 189.068 160.072 188.289 160.945C187.51 161.818 186.47 162.255 185.169 162.255C183.862 162.255 182.819 161.818 182.04 160.945C181.261 160.072 180.871 158.947 180.871 157.57ZM182.479 157.289V157.57C182.479 158.525 182.705 159.331 183.156 159.987C183.607 160.638 184.275 160.963 185.16 160.963C186.051 160.963 186.722 160.638 187.173 159.987C187.624 159.331 187.85 158.525 187.85 157.57V157.289C187.85 156.334 187.624 155.531 187.173 154.881C186.722 154.225 186.051 153.896 185.16 153.896C184.275 153.896 183.607 154.225 183.156 154.881C182.705 155.531 182.479 156.334 182.479 157.289ZM191.374 158.774V152.859H192.947V158.792C192.947 159.53 193.111 160.058 193.439 160.374C193.773 160.69 194.245 160.849 194.854 160.849C195.37 160.849 195.827 160.708 196.226 160.427C196.624 160.146 196.935 159.779 197.157 159.328V152.859H198.73V162H197.307L197.245 160.813H197.192C196.864 161.235 196.46 161.569 195.979 161.815C195.499 162.056 194.969 162.176 194.389 162.176C193.469 162.176 192.736 161.915 192.191 161.394C191.646 160.872 191.374 159.999 191.374 158.774ZM201.288 162V152.859H202.712L202.782 154.046H202.826C203.061 153.659 203.368 153.322 203.749 153.035C204.13 152.748 204.584 152.604 205.111 152.604C205.24 152.604 205.375 152.619 205.516 152.648C205.656 152.678 205.756 152.704 205.814 152.728V154.187C205.697 154.163 205.574 154.146 205.445 154.134C205.316 154.116 205.176 154.107 205.023 154.107C204.502 154.107 204.057 154.245 203.688 154.521C203.318 154.796 203.043 155.142 202.861 155.558V162H201.288ZM211.606 165.683V152.859H213.03L213.101 154.063H213.145C213.379 153.683 213.736 153.357 214.217 153.088C214.703 152.818 215.266 152.684 215.904 152.684C217.059 152.684 217.981 153.117 218.673 153.984C219.364 154.846 219.71 155.947 219.71 157.289V157.57C219.71 158.906 219.364 160.008 218.673 160.875C217.981 161.742 217.059 162.176 215.904 162.176C215.266 162.176 214.718 162.062 214.261 161.833C213.81 161.599 213.449 161.291 213.18 160.91V165.683H211.606ZM213.18 159.302C213.361 159.712 213.657 160.078 214.067 160.4C214.478 160.723 214.976 160.884 215.562 160.884C216.435 160.884 217.076 160.567 217.486 159.935C217.896 159.296 218.102 158.508 218.102 157.57V157.289C218.102 156.352 217.896 155.566 217.486 154.934C217.076 154.301 216.435 153.984 215.562 153.984C214.976 153.984 214.478 154.146 214.067 154.468C213.657 154.784 213.361 155.147 213.18 155.558V159.302ZM221.714 162V152.859H223.138L223.208 154.046H223.252C223.486 153.659 223.794 153.322 224.175 153.035C224.556 152.748 225.01 152.604 225.537 152.604C225.666 152.604 225.801 152.619 225.941 152.648C226.082 152.678 226.182 152.704 226.24 152.728V154.187C226.123 154.163 226 154.146 225.871 154.134C225.742 154.116 225.602 154.107 225.449 154.107C224.928 154.107 224.482 154.245 224.113 154.521C223.744 154.796 223.469 155.142 223.287 155.558V162H221.714ZM227.014 157.57V157.289C227.014 155.912 227.403 154.787 228.183 153.914C228.962 153.041 230.005 152.604 231.312 152.604C232.612 152.604 233.652 153.041 234.432 153.914C235.211 154.787 235.601 155.912 235.601 157.289V157.57C235.601 158.947 235.211 160.072 234.432 160.945C233.652 161.818 232.612 162.255 231.312 162.255C230.005 162.255 228.962 161.818 228.183 160.945C227.403 160.072 227.014 158.947 227.014 157.57ZM228.622 157.289V157.57C228.622 158.525 228.848 159.331 229.299 159.987C229.75 160.638 230.418 160.963 231.303 160.963C232.193 160.963 232.864 160.638 233.315 159.987C233.767 159.331 233.992 158.525 233.992 157.57V157.289C233.992 156.334 233.767 155.531 233.315 154.881C232.864 154.225 232.193 153.896 231.303 153.896C230.418 153.896 229.75 154.225 229.299 154.881C228.848 155.531 228.622 156.334 228.622 157.289ZM235.478 165.604V164.329C235.595 164.364 235.762 164.402 235.979 164.443C236.189 164.484 236.38 164.505 236.55 164.505C236.907 164.505 237.186 164.399 237.385 164.188C237.584 163.978 237.684 163.626 237.684 163.134V152.859H239.257V162.791C239.257 163.846 239.055 164.616 238.65 165.103C238.246 165.589 237.657 165.832 236.884 165.832C236.649 165.832 236.395 165.806 236.119 165.753C235.838 165.706 235.624 165.656 235.478 165.604ZM237.481 150.047C237.481 149.777 237.566 149.552 237.736 149.37C237.906 149.188 238.149 149.098 238.466 149.098C238.788 149.098 239.034 149.188 239.204 149.37C239.374 149.552 239.459 149.777 239.459 150.047C239.459 150.311 239.374 150.536 239.204 150.724C239.034 150.905 238.788 150.996 238.466 150.996C238.149 150.996 237.906 150.905 237.736 150.724C237.566 150.536 237.481 150.311 237.481 150.047ZM241.34 157.57V157.289C241.34 155.912 241.715 154.787 242.465 153.914C243.221 153.041 244.217 152.604 245.453 152.604C246.695 152.604 247.647 153.012 248.31 153.826C248.978 154.641 249.312 155.745 249.312 157.14V157.781H242.298V156.516H247.738V156.322C247.738 155.654 247.548 155.083 247.167 154.608C246.792 154.134 246.244 153.896 245.523 153.896C244.662 153.896 244.018 154.225 243.59 154.881C243.162 155.531 242.948 156.334 242.948 157.289V157.57C242.948 158.525 243.174 159.331 243.625 159.987C244.076 160.638 244.771 160.963 245.708 160.963C246.288 160.963 246.786 160.837 247.202 160.585C247.624 160.327 247.967 160.022 248.23 159.671L249.241 160.488C248.96 160.922 248.518 161.326 247.914 161.701C247.311 162.07 246.575 162.255 245.708 162.255C244.302 162.255 243.221 161.821 242.465 160.954C241.715 160.081 241.34 158.953 241.34 157.57ZM250.727 157.57V157.289C250.727 155.906 251.099 154.781 251.843 153.914C252.593 153.041 253.621 152.604 254.928 152.604C256.141 152.604 257.061 152.933 257.688 153.589C258.314 154.239 258.628 154.975 258.628 155.795V155.848H257.099V155.795C257.099 155.285 256.926 154.843 256.58 154.468C256.234 154.087 255.684 153.896 254.928 153.896C254.049 153.896 253.396 154.222 252.968 154.872C252.546 155.522 252.335 156.328 252.335 157.289V157.57C252.335 158.525 252.546 159.331 252.968 159.987C253.39 160.638 254.043 160.963 254.928 160.963C255.684 160.963 256.234 160.775 256.58 160.4C256.932 160.02 257.107 159.571 257.107 159.056V159.003H258.628V159.056C258.628 159.882 258.312 160.623 257.679 161.279C257.052 161.93 256.135 162.255 254.928 162.255C253.621 162.255 252.593 161.821 251.843 160.954C251.099 160.081 250.727 158.953 250.727 157.57ZM259.234 154.072V152.859H264.429V154.072H259.234ZM260.869 159.724V153.58V153.334V150.504H262.442V159.724C262.442 160.151 262.524 160.456 262.688 160.638C262.853 160.813 263.113 160.901 263.471 160.901C263.629 160.901 263.787 160.884 263.945 160.849C264.104 160.813 264.262 160.767 264.42 160.708V162C264.273 162.07 264.08 162.129 263.84 162.176C263.6 162.229 263.339 162.255 263.058 162.255C262.39 162.255 261.856 162.053 261.458 161.648C261.065 161.244 260.869 160.603 260.869 159.724ZM265.554 159.293H267.127V159.354C267.127 159.894 267.32 160.298 267.707 160.567C268.1 160.831 268.615 160.963 269.254 160.963C269.898 160.963 270.405 160.837 270.774 160.585C271.149 160.327 271.337 159.99 271.337 159.574C271.337 159.158 271.185 158.842 270.88 158.625C270.581 158.402 269.939 158.174 268.955 157.939C267.977 157.705 267.2 157.38 266.626 156.964C266.058 156.548 265.773 155.965 265.773 155.215C265.773 154.459 266.081 153.835 266.696 153.343C267.317 152.851 268.144 152.604 269.175 152.604C270.212 152.604 271.047 152.851 271.68 153.343C272.312 153.835 272.629 154.506 272.629 155.355V155.408H271.064V155.32C271.064 154.869 270.909 154.521 270.599 154.274C270.288 154.022 269.813 153.896 269.175 153.896C268.536 153.896 268.067 154.014 267.769 154.248C267.476 154.477 267.329 154.772 267.329 155.136C267.329 155.487 267.496 155.766 267.83 155.971C268.17 156.176 268.829 156.396 269.808 156.63C270.786 156.864 271.542 157.198 272.075 157.632C272.614 158.06 272.884 158.678 272.884 159.486C272.884 160.295 272.582 160.96 271.979 161.481C271.375 161.997 270.467 162.255 269.254 162.255C268.047 162.255 267.127 161.991 266.494 161.464C265.867 160.937 265.554 160.233 265.554 159.354V159.293ZM278.649 159.319C278.649 158.394 279.016 157.673 279.748 157.157C280.48 156.642 281.415 156.384 282.552 156.384H284.626V155.733C284.626 155.177 284.482 154.729 284.195 154.389C283.908 154.043 283.416 153.87 282.719 153.87C282.021 153.87 281.518 154.014 281.207 154.301C280.902 154.582 280.75 154.919 280.75 155.312V155.364H279.186V155.303C279.186 154.576 279.505 153.946 280.144 153.413C280.788 152.874 281.658 152.604 282.754 152.604C283.85 152.604 284.696 152.865 285.294 153.387C285.897 153.908 286.199 154.69 286.199 155.733V159.891C286.199 160.271 286.229 160.632 286.287 160.972C286.346 161.306 286.428 161.602 286.533 161.859V162H285.013C284.931 161.854 284.854 161.663 284.784 161.429C284.72 161.194 284.679 160.96 284.661 160.726C284.45 161.106 284.104 161.443 283.624 161.736C283.144 162.023 282.525 162.167 281.77 162.167C280.896 162.167 280.158 161.924 279.555 161.438C278.951 160.945 278.649 160.239 278.649 159.319ZM280.223 159.231C280.223 159.759 280.375 160.172 280.68 160.471C280.99 160.764 281.465 160.91 282.104 160.91C282.742 160.91 283.322 160.69 283.844 160.251C284.365 159.806 284.626 159.331 284.626 158.827V157.509H282.728C281.901 157.509 281.277 157.664 280.855 157.975C280.434 158.285 280.223 158.704 280.223 159.231ZM288.704 162V152.859H290.128L290.198 154.046H290.242C290.477 153.659 290.784 153.322 291.165 153.035C291.546 152.748 292 152.604 292.527 152.604C292.656 152.604 292.791 152.619 292.932 152.648C293.072 152.678 293.172 152.704 293.23 152.728V154.187C293.113 154.163 292.99 154.146 292.861 154.134C292.732 154.116 292.592 154.107 292.439 154.107C291.918 154.107 291.473 154.245 291.104 154.521C290.734 154.796 290.459 155.142 290.277 155.558V162H288.704ZM294.004 157.57V157.289C294.004 155.912 294.379 154.787 295.129 153.914C295.885 153.041 296.881 152.604 298.117 152.604C299.359 152.604 300.312 153.012 300.974 153.826C301.642 154.641 301.976 155.745 301.976 157.14V157.781H294.962V156.516H300.402V156.322C300.402 155.654 300.212 155.083 299.831 154.608C299.456 154.134 298.908 153.896 298.188 153.896C297.326 153.896 296.682 154.225 296.254 154.881C295.826 155.531 295.612 156.334 295.612 157.289V157.57C295.612 158.525 295.838 159.331 296.289 159.987C296.74 160.638 297.435 160.963 298.372 160.963C298.952 160.963 299.45 160.837 299.866 160.585C300.288 160.327 300.631 160.022 300.895 159.671L301.905 160.488C301.624 160.922 301.182 161.326 300.578 161.701C299.975 162.07 299.239 162.255 298.372 162.255C296.966 162.255 295.885 161.821 295.129 160.954C294.379 160.081 294.004 158.953 294.004 157.57ZM308.233 165.683V152.859H309.657L309.728 154.063H309.771C310.006 153.683 310.363 153.357 310.844 153.088C311.33 152.818 311.893 152.684 312.531 152.684C313.686 152.684 314.608 153.117 315.3 153.984C315.991 154.846 316.337 155.947 316.337 157.289V157.57C316.337 158.906 315.991 160.008 315.3 160.875C314.608 161.742 313.686 162.176 312.531 162.176C311.893 162.176 311.345 162.062 310.888 161.833C310.437 161.599 310.076 161.291 309.807 160.91V165.683H308.233ZM309.807 159.302C309.988 159.712 310.284 160.078 310.694 160.4C311.104 160.723 311.603 160.884 312.188 160.884C313.062 160.884 313.703 160.567 314.113 159.935C314.523 159.296 314.729 158.508 314.729 157.57V157.289C314.729 156.352 314.523 155.566 314.113 154.934C313.703 154.301 313.062 153.984 312.188 153.984C311.603 153.984 311.104 154.146 310.694 154.468C310.284 154.784 309.988 155.147 309.807 155.558V159.302ZM317.787 157.57V157.289C317.787 155.912 318.177 154.787 318.956 153.914C319.735 153.041 320.778 152.604 322.085 152.604C323.386 152.604 324.426 153.041 325.205 153.914C325.984 154.787 326.374 155.912 326.374 157.289V157.57C326.374 158.947 325.984 160.072 325.205 160.945C324.426 161.818 323.386 162.255 322.085 162.255C320.778 162.255 319.735 161.818 318.956 160.945C318.177 160.072 317.787 158.947 317.787 157.57ZM319.396 157.289V157.57C319.396 158.525 319.621 159.331 320.072 159.987C320.523 160.638 321.191 160.963 322.076 160.963C322.967 160.963 323.638 160.638 324.089 159.987C324.54 159.331 324.766 158.525 324.766 157.57V157.289C324.766 156.334 324.54 155.531 324.089 154.881C323.638 154.225 322.967 153.896 322.076 153.896C321.191 153.896 320.523 154.225 320.072 154.881C319.621 155.531 319.396 156.334 319.396 157.289ZM327.314 152.859H328.835L330.531 158.906C330.596 159.141 330.648 159.334 330.689 159.486C330.73 159.639 330.771 159.826 330.812 160.049H330.865C330.912 159.826 330.956 159.639 330.997 159.486C331.038 159.334 331.097 159.141 331.173 158.906L333.168 152.859H334.513L336.561 158.906C336.643 159.141 336.704 159.334 336.745 159.486C336.786 159.639 336.83 159.826 336.877 160.049H336.93C336.971 159.826 337.009 159.639 337.044 159.486C337.079 159.328 337.129 159.135 337.193 158.906L338.837 152.859H340.287L337.475 162H336.218L334.214 156.015C334.144 155.786 334.073 155.561 334.003 155.338C333.938 155.109 333.88 154.881 333.827 154.652H333.774C333.716 154.881 333.654 155.109 333.59 155.338C333.525 155.561 333.455 155.786 333.379 156.015L331.375 162H330.118L327.314 152.859ZM341.219 157.57V157.289C341.219 155.912 341.594 154.787 342.344 153.914C343.1 153.041 344.096 152.604 345.332 152.604C346.574 152.604 347.526 153.012 348.188 153.826C348.856 154.641 349.19 155.745 349.19 157.14V157.781H342.177V156.516H347.617V156.322C347.617 155.654 347.427 155.083 347.046 154.608C346.671 154.134 346.123 153.896 345.402 153.896C344.541 153.896 343.896 154.225 343.469 154.881C343.041 155.531 342.827 156.334 342.827 157.289V157.57C342.827 158.525 343.053 159.331 343.504 159.987C343.955 160.638 344.649 160.963 345.587 160.963C346.167 160.963 346.665 160.837 347.081 160.585C347.503 160.327 347.846 160.022 348.109 159.671L349.12 160.488C348.839 160.922 348.396 161.326 347.793 161.701C347.189 162.07 346.454 162.255 345.587 162.255C344.181 162.255 343.1 161.821 342.344 160.954C341.594 160.081 341.219 158.953 341.219 157.57ZM351.159 162V152.859H352.583L352.653 154.046H352.697C352.932 153.659 353.239 153.322 353.62 153.035C354.001 152.748 354.455 152.604 354.982 152.604C355.111 152.604 355.246 152.619 355.387 152.648C355.527 152.678 355.627 152.704 355.686 152.728V154.187C355.568 154.163 355.445 154.146 355.316 154.134C355.188 154.116 355.047 154.107 354.895 154.107C354.373 154.107 353.928 154.245 353.559 154.521C353.189 154.796 352.914 155.142 352.732 155.558V162H351.159ZM356.459 157.57V157.289C356.459 155.912 356.834 154.787 357.584 153.914C358.34 153.041 359.336 152.604 360.572 152.604C361.814 152.604 362.767 153.012 363.429 153.826C364.097 154.641 364.431 155.745 364.431 157.14V157.781H357.417V156.516H362.857V156.322C362.857 155.654 362.667 155.083 362.286 154.608C361.911 154.134 361.363 153.896 360.643 153.896C359.781 153.896 359.137 154.225 358.709 154.881C358.281 155.531 358.067 156.334 358.067 157.289V157.57C358.067 158.525 358.293 159.331 358.744 159.987C359.195 160.638 359.89 160.963 360.827 160.963C361.407 160.963 361.905 160.837 362.321 160.585C362.743 160.327 363.086 160.022 363.35 159.671L364.36 160.488C364.079 160.922 363.637 161.326 363.033 161.701C362.43 162.07 361.694 162.255 360.827 162.255C359.421 162.255 358.34 161.821 357.584 160.954C356.834 160.081 356.459 158.953 356.459 157.57ZM365.846 157.57V157.289C365.846 155.959 366.191 154.86 366.883 153.993C367.58 153.12 368.506 152.684 369.66 152.684C370.305 152.684 370.85 152.798 371.295 153.026C371.746 153.255 372.106 153.56 372.376 153.94V148.562H373.949V162H372.525L372.455 160.796H372.411C372.177 161.177 371.819 161.502 371.339 161.771C370.858 162.041 370.299 162.176 369.66 162.176C368.5 162.176 367.574 161.742 366.883 160.875C366.191 160.002 365.846 158.9 365.846 157.57ZM367.454 157.57C367.454 158.508 367.659 159.296 368.069 159.935C368.479 160.567 369.124 160.884 370.003 160.884C370.583 160.884 371.078 160.723 371.488 160.4C371.898 160.078 372.194 159.712 372.376 159.302V155.549C372.194 155.139 371.898 154.775 371.488 154.459C371.078 154.143 370.583 153.984 370.003 153.984C369.124 153.984 368.479 154.301 368.069 154.934C367.659 155.566 367.454 156.352 367.454 157.289V157.57ZM41.2744 189V175.562H42.8477V180.949C43.1172 180.568 43.4775 180.264 43.9287 180.035C44.3857 179.801 44.9336 179.684 45.5723 179.684C46.7266 179.684 47.6494 180.117 48.3408 180.984C49.0322 181.852 49.3779 182.95 49.3779 184.28V184.562C49.3779 185.897 49.0322 187.002 48.3408 187.875C47.6494 188.742 46.7266 189.176 45.5723 189.176C44.9336 189.176 44.3711 189.044 43.8848 188.78C43.4043 188.511 43.0469 188.186 42.8125 187.805H42.7686L42.6982 189H41.2744ZM42.8477 186.311C43.0352 186.721 43.3311 187.087 43.7354 187.409C44.1455 187.726 44.6465 187.884 45.2383 187.884C46.1055 187.884 46.7441 187.564 47.1543 186.926C47.5645 186.287 47.7695 185.499 47.7695 184.562V184.28C47.7695 183.343 47.5645 182.561 47.1543 181.934C46.7441 181.301 46.1025 180.984 45.2295 180.984C44.6436 180.984 44.1455 181.146 43.7354 181.468C43.3252 181.784 43.0293 182.147 42.8477 182.558V186.311ZM50.4238 192.656V191.32C50.5762 191.367 50.7432 191.405 50.9248 191.435C51.1123 191.464 51.2939 191.479 51.4697 191.479C51.874 191.479 52.2285 191.317 52.5332 190.995C52.8379 190.673 53.1602 189.999 53.5 188.974V188.965L50.0811 179.859H51.6104L53.8076 185.933C53.8896 186.167 53.96 186.384 54.0186 186.583C54.083 186.782 54.1387 186.97 54.1855 187.146H54.2383C54.291 186.97 54.3496 186.782 54.4141 186.583C54.4785 186.384 54.5488 186.167 54.625 185.933L56.6904 179.859H58.1846L54.4492 190.23C54.1504 191.057 53.7666 191.695 53.2979 192.146C52.8291 192.604 52.249 192.832 51.5576 192.832C51.3232 192.832 51.1152 192.817 50.9336 192.788C50.7578 192.759 50.5879 192.715 50.4238 192.656ZM63.1943 186.293H64.7676V186.354C64.7676 186.894 64.9609 187.298 65.3477 187.567C65.7402 187.831 66.2559 187.963 66.8945 187.963C67.5391 187.963 68.0459 187.837 68.415 187.585C68.79 187.327 68.9775 186.99 68.9775 186.574C68.9775 186.158 68.8252 185.842 68.5205 185.625C68.2217 185.402 67.5801 185.174 66.5957 184.939C65.6172 184.705 64.8408 184.38 64.2666 183.964C63.6982 183.548 63.4141 182.965 63.4141 182.215C63.4141 181.459 63.7217 180.835 64.3369 180.343C64.958 179.851 65.7842 179.604 66.8154 179.604C67.8525 179.604 68.6875 179.851 69.3203 180.343C69.9531 180.835 70.2695 181.506 70.2695 182.355V182.408H68.7051V182.32C68.7051 181.869 68.5498 181.521 68.2393 181.274C67.9287 181.022 67.4541 180.896 66.8154 180.896C66.1768 180.896 65.708 181.014 65.4092 181.248C65.1162 181.477 64.9697 181.772 64.9697 182.136C64.9697 182.487 65.1367 182.766 65.4707 182.971C65.8105 183.176 66.4697 183.396 67.4482 183.63C68.4268 183.864 69.1826 184.198 69.7158 184.632C70.2549 185.06 70.5244 185.678 70.5244 186.486C70.5244 187.295 70.2227 187.96 69.6191 188.481C69.0156 188.997 68.1074 189.255 66.8945 189.255C65.6875 189.255 64.7676 188.991 64.1348 188.464C63.5078 187.937 63.1943 187.233 63.1943 186.354V186.293ZM71.2363 181.072V179.859H76.4307V181.072H71.2363ZM72.8711 186.724V180.58V180.334V177.504H74.4443V186.724C74.4443 187.151 74.5264 187.456 74.6904 187.638C74.8545 187.813 75.1152 187.901 75.4727 187.901C75.6309 187.901 75.7891 187.884 75.9473 187.849C76.1055 187.813 76.2637 187.767 76.4219 187.708V189C76.2754 189.07 76.082 189.129 75.8418 189.176C75.6016 189.229 75.3408 189.255 75.0596 189.255C74.3916 189.255 73.8584 189.053 73.46 188.648C73.0674 188.244 72.8711 187.603 72.8711 186.724ZM77.6084 186.319C77.6084 185.394 77.9746 184.673 78.707 184.157C79.4395 183.642 80.374 183.384 81.5107 183.384H83.585V182.733C83.585 182.177 83.4414 181.729 83.1543 181.389C82.8672 181.043 82.375 180.87 81.6777 180.87C80.9805 180.87 80.4766 181.014 80.166 181.301C79.8613 181.582 79.709 181.919 79.709 182.312V182.364H78.1445V182.303C78.1445 181.576 78.4639 180.946 79.1025 180.413C79.7471 179.874 80.6172 179.604 81.7129 179.604C82.8086 179.604 83.6553 179.865 84.2529 180.387C84.8564 180.908 85.1582 181.69 85.1582 182.733V186.891C85.1582 187.271 85.1875 187.632 85.2461 187.972C85.3047 188.306 85.3867 188.602 85.4922 188.859V189H83.9717C83.8896 188.854 83.8135 188.663 83.7432 188.429C83.6787 188.194 83.6377 187.96 83.6201 187.726C83.4092 188.106 83.0635 188.443 82.583 188.736C82.1025 189.023 81.4844 189.167 80.7285 189.167C79.8555 189.167 79.1172 188.924 78.5137 188.438C77.9102 187.945 77.6084 187.239 77.6084 186.319ZM79.1816 186.231C79.1816 186.759 79.334 187.172 79.6387 187.471C79.9492 187.764 80.4238 187.91 81.0625 187.91C81.7012 187.91 82.2812 187.69 82.8027 187.251C83.3242 186.806 83.585 186.331 83.585 185.827V184.509H81.6865C80.8604 184.509 80.2363 184.664 79.8145 184.975C79.3926 185.285 79.1816 185.704 79.1816 186.231ZM86.3887 181.072V179.859H91.583V181.072H86.3887ZM88.0234 186.724V180.58V180.334V177.504H89.5967V186.724C89.5967 187.151 89.6787 187.456 89.8428 187.638C90.0068 187.813 90.2676 187.901 90.625 187.901C90.7832 187.901 90.9414 187.884 91.0996 187.849C91.2578 187.813 91.416 187.767 91.5742 187.708V189C91.4277 189.07 91.2344 189.129 90.9941 189.176C90.7539 189.229 90.4932 189.255 90.2119 189.255C89.5439 189.255 89.0107 189.053 88.6123 188.648C88.2197 188.244 88.0234 187.603 88.0234 186.724ZM92.7168 184.57V184.289C92.7168 182.912 93.0918 181.787 93.8418 180.914C94.5977 180.041 95.5938 179.604 96.8301 179.604C98.0723 179.604 99.0244 180.012 99.6865 180.826C100.354 181.641 100.688 182.745 100.688 184.14V184.781H93.6748V183.516H99.1152V183.322C99.1152 182.654 98.9248 182.083 98.5439 181.608C98.1689 181.134 97.6211 180.896 96.9004 180.896C96.0391 180.896 95.3945 181.225 94.9668 181.881C94.5391 182.531 94.3252 183.334 94.3252 184.289V184.57C94.3252 185.525 94.5508 186.331 95.002 186.987C95.4531 187.638 96.1475 187.963 97.085 187.963C97.665 187.963 98.1631 187.837 98.5791 187.585C99.001 187.327 99.3438 187.022 99.6074 186.671L100.618 187.488C100.337 187.922 99.8945 188.326 99.291 188.701C98.6875 189.07 97.9521 189.255 97.085 189.255C95.6787 189.255 94.5977 188.821 93.8418 187.954C93.0918 187.081 92.7168 185.953 92.7168 184.57ZM102.648 184.184V182.733H107.535V184.184H102.648ZM109.205 184.57V184.289C109.205 182.912 109.595 181.787 110.374 180.914C111.153 180.041 112.196 179.604 113.503 179.604C114.804 179.604 115.844 180.041 116.623 180.914C117.402 181.787 117.792 182.912 117.792 184.289V184.57C117.792 185.947 117.402 187.072 116.623 187.945C115.844 188.818 114.804 189.255 113.503 189.255C112.196 189.255 111.153 188.818 110.374 187.945C109.595 187.072 109.205 185.947 109.205 184.57ZM110.813 184.289V184.57C110.813 185.525 111.039 186.331 111.49 186.987C111.941 187.638 112.609 187.963 113.494 187.963C114.385 187.963 115.056 187.638 115.507 186.987C115.958 186.331 116.184 185.525 116.184 184.57V184.289C116.184 183.334 115.958 182.531 115.507 181.881C115.056 181.225 114.385 180.896 113.494 180.896C112.609 180.896 111.941 181.225 111.49 181.881C111.039 182.531 110.813 183.334 110.813 184.289ZM120.218 189V178.515C120.218 177.495 120.49 176.719 121.035 176.186C121.586 175.652 122.333 175.386 123.276 175.386C123.464 175.386 123.651 175.397 123.839 175.421C124.032 175.444 124.217 175.479 124.393 175.526L124.305 176.801C124.176 176.777 124.038 176.757 123.892 176.739C123.745 176.722 123.596 176.713 123.443 176.713C122.916 176.713 122.509 176.862 122.222 177.161C121.935 177.454 121.791 177.905 121.791 178.515V180.369V180.554V189H120.218ZM118.715 181.072V179.859H120.815H121.193H123.777V181.072H118.715ZM124.322 184.184V182.733H129.209V184.184H124.322ZM130 181.072V179.859H135.194V181.072H130ZM131.635 186.724V180.58V180.334V177.504H133.208V186.724C133.208 187.151 133.29 187.456 133.454 187.638C133.618 187.813 133.879 187.901 134.236 187.901C134.395 187.901 134.553 187.884 134.711 187.849C134.869 187.813 135.027 187.767 135.186 187.708V189C135.039 189.07 134.846 189.129 134.605 189.176C134.365 189.229 134.104 189.255 133.823 189.255C133.155 189.255 132.622 189.053 132.224 188.648C131.831 188.244 131.635 187.603 131.635 186.724ZM136.882 189V175.562H138.455V181.002C138.777 180.604 139.188 180.284 139.686 180.044C140.184 179.804 140.731 179.684 141.329 179.684C142.179 179.684 142.876 179.947 143.421 180.475C143.966 180.996 144.238 181.869 144.238 183.094V189H142.665V183.076C142.665 182.338 142.498 181.811 142.164 181.494C141.836 181.172 141.37 181.011 140.767 181.011C140.245 181.011 139.785 181.154 139.387 181.441C138.988 181.723 138.678 182.086 138.455 182.531V189H136.882ZM146.154 184.57V184.289C146.154 182.912 146.529 181.787 147.279 180.914C148.035 180.041 149.031 179.604 150.268 179.604C151.51 179.604 152.462 180.012 153.124 180.826C153.792 181.641 154.126 182.745 154.126 184.14V184.781H147.112V183.516H152.553V183.322C152.553 182.654 152.362 182.083 151.981 181.608C151.606 181.134 151.059 180.896 150.338 180.896C149.477 180.896 148.832 181.225 148.404 181.881C147.977 182.531 147.763 183.334 147.763 184.289V184.57C147.763 185.525 147.988 186.331 148.439 186.987C148.891 187.638 149.585 187.963 150.522 187.963C151.103 187.963 151.601 187.837 152.017 187.585C152.438 187.327 152.781 187.022 153.045 186.671L154.056 187.488C153.774 187.922 153.332 188.326 152.729 188.701C152.125 189.07 151.39 189.255 150.522 189.255C149.116 189.255 148.035 188.821 147.279 187.954C146.529 187.081 146.154 185.953 146.154 184.57ZM156.086 184.184V182.733H160.973V184.184H156.086ZM162.282 186.319C162.282 185.394 162.648 184.673 163.381 184.157C164.113 183.642 165.048 183.384 166.185 183.384H168.259V182.733C168.259 182.177 168.115 181.729 167.828 181.389C167.541 181.043 167.049 180.87 166.352 180.87C165.654 180.87 165.15 181.014 164.84 181.301C164.535 181.582 164.383 181.919 164.383 182.312V182.364H162.818V182.303C162.818 181.576 163.138 180.946 163.776 180.413C164.421 179.874 165.291 179.604 166.387 179.604C167.482 179.604 168.329 179.865 168.927 180.387C169.53 180.908 169.832 181.69 169.832 182.733V186.891C169.832 187.271 169.861 187.632 169.92 187.972C169.979 188.306 170.061 188.602 170.166 188.859V189H168.646C168.563 188.854 168.487 188.663 168.417 188.429C168.353 188.194 168.312 187.96 168.294 187.726C168.083 188.106 167.737 188.443 167.257 188.736C166.776 189.023 166.158 189.167 165.402 189.167C164.529 189.167 163.791 188.924 163.188 188.438C162.584 187.945 162.282 187.239 162.282 186.319ZM163.855 186.231C163.855 186.759 164.008 187.172 164.312 187.471C164.623 187.764 165.098 187.91 165.736 187.91C166.375 187.91 166.955 187.69 167.477 187.251C167.998 186.806 168.259 186.331 168.259 185.827V184.509H166.36C165.534 184.509 164.91 184.664 164.488 184.975C164.066 185.285 163.855 185.704 163.855 186.231ZM172.337 189V179.859H173.761L173.831 181.046H173.875C174.109 180.659 174.417 180.322 174.798 180.035C175.179 179.748 175.633 179.604 176.16 179.604C176.289 179.604 176.424 179.619 176.564 179.648C176.705 179.678 176.805 179.704 176.863 179.728V181.187C176.746 181.163 176.623 181.146 176.494 181.134C176.365 181.116 176.225 181.107 176.072 181.107C175.551 181.107 175.105 181.245 174.736 181.521C174.367 181.796 174.092 182.142 173.91 182.558V189H172.337ZM177.549 181.072V179.859H182.743V181.072H177.549ZM179.184 186.724V180.58V180.334V177.504H180.757V186.724C180.757 187.151 180.839 187.456 181.003 187.638C181.167 187.813 181.428 187.901 181.785 187.901C181.943 187.901 182.102 187.884 182.26 187.849C182.418 187.813 182.576 187.767 182.734 187.708V189C182.588 189.07 182.395 189.129 182.154 189.176C181.914 189.229 181.653 189.255 181.372 189.255C180.704 189.255 180.171 189.053 179.772 188.648C179.38 188.244 179.184 187.603 179.184 186.724ZM187.445 181.072V179.859H192.64V181.072H187.445ZM189.08 186.724V180.58V180.334V177.504H190.653V186.724C190.653 187.151 190.735 187.456 190.899 187.638C191.063 187.813 191.324 187.901 191.682 187.901C191.84 187.901 191.998 187.884 192.156 187.849C192.314 187.813 192.473 187.767 192.631 187.708V189C192.484 189.07 192.291 189.129 192.051 189.176C191.811 189.229 191.55 189.255 191.269 189.255C190.601 189.255 190.067 189.053 189.669 188.648C189.276 188.244 189.08 187.603 189.08 186.724ZM193.773 184.57V184.289C193.773 182.912 194.148 181.787 194.898 180.914C195.654 180.041 196.65 179.604 197.887 179.604C199.129 179.604 200.081 180.012 200.743 180.826C201.411 181.641 201.745 182.745 201.745 184.14V184.781H194.731V183.516H200.172V183.322C200.172 182.654 199.981 182.083 199.601 181.608C199.226 181.134 198.678 180.896 197.957 180.896C197.096 180.896 196.451 181.225 196.023 181.881C195.596 182.531 195.382 183.334 195.382 184.289V184.57C195.382 185.525 195.607 186.331 196.059 186.987C196.51 187.638 197.204 187.963 198.142 187.963C198.722 187.963 199.22 187.837 199.636 187.585C200.058 187.327 200.4 187.022 200.664 186.671L201.675 187.488C201.394 187.922 200.951 188.326 200.348 188.701C199.744 189.07 199.009 189.255 198.142 189.255C196.735 189.255 195.654 188.821 194.898 187.954C194.148 187.081 193.773 185.953 193.773 184.57ZM203.16 184.57V184.289C203.16 182.906 203.532 181.781 204.276 180.914C205.026 180.041 206.055 179.604 207.361 179.604C208.574 179.604 209.494 179.933 210.121 180.589C210.748 181.239 211.062 181.975 211.062 182.795V182.848H209.532V182.795C209.532 182.285 209.359 181.843 209.014 181.468C208.668 181.087 208.117 180.896 207.361 180.896C206.482 180.896 205.829 181.222 205.401 181.872C204.979 182.522 204.769 183.328 204.769 184.289V184.57C204.769 185.525 204.979 186.331 205.401 186.987C205.823 187.638 206.477 187.963 207.361 187.963C208.117 187.963 208.668 187.775 209.014 187.4C209.365 187.02 209.541 186.571 209.541 186.056V186.003H211.062V186.056C211.062 186.882 210.745 187.623 210.112 188.279C209.485 188.93 208.568 189.255 207.361 189.255C206.055 189.255 205.026 188.821 204.276 187.954C203.532 187.081 203.16 185.953 203.16 184.57ZM212.942 189V175.562H214.516V181.002C214.838 180.604 215.248 180.284 215.746 180.044C216.244 179.804 216.792 179.684 217.39 179.684C218.239 179.684 218.937 179.947 219.481 180.475C220.026 180.996 220.299 181.869 220.299 183.094V189H218.726V183.076C218.726 182.338 218.559 181.811 218.225 181.494C217.896 181.172 217.431 181.011 216.827 181.011C216.306 181.011 215.846 181.154 215.447 181.441C215.049 181.723 214.738 182.086 214.516 182.531V189H212.942ZM222.769 189V179.859H224.192L224.263 181.046H224.307C224.635 180.624 225.039 180.293 225.52 180.053C226 179.807 226.533 179.684 227.119 179.684C228.033 179.684 228.763 179.947 229.308 180.475C229.853 180.996 230.125 181.869 230.125 183.094V189H228.552V183.085C228.552 182.341 228.385 181.811 228.051 181.494C227.723 181.172 227.257 181.011 226.653 181.011C226.132 181.011 225.672 181.151 225.273 181.433C224.875 181.714 224.564 182.08 224.342 182.531V189H222.769ZM232.041 184.57V184.289C232.041 182.912 232.431 181.787 233.21 180.914C233.989 180.041 235.032 179.604 236.339 179.604C237.64 179.604 238.68 180.041 239.459 180.914C240.238 181.787 240.628 182.912 240.628 184.289V184.57C240.628 185.947 240.238 187.072 239.459 187.945C238.68 188.818 237.64 189.255 236.339 189.255C235.032 189.255 233.989 188.818 233.21 187.945C232.431 187.072 232.041 185.947 232.041 184.57ZM233.649 184.289V184.57C233.649 185.525 233.875 186.331 234.326 186.987C234.777 187.638 235.445 187.963 236.33 187.963C237.221 187.963 237.892 187.638 238.343 186.987C238.794 186.331 239.02 185.525 239.02 184.57V184.289C239.02 183.334 238.794 182.531 238.343 181.881C237.892 181.225 237.221 180.896 236.33 180.896C235.445 180.896 234.777 181.225 234.326 181.881C233.875 182.531 233.649 183.334 233.649 184.289ZM242.702 189V175.562H244.275V189H242.702ZM246.332 184.57V184.289C246.332 182.912 246.722 181.787 247.501 180.914C248.28 180.041 249.323 179.604 250.63 179.604C251.931 179.604 252.971 180.041 253.75 180.914C254.529 181.787 254.919 182.912 254.919 184.289V184.57C254.919 185.947 254.529 187.072 253.75 187.945C252.971 188.818 251.931 189.255 250.63 189.255C249.323 189.255 248.28 188.818 247.501 187.945C246.722 187.072 246.332 185.947 246.332 184.57ZM247.94 184.289V184.57C247.94 185.525 248.166 186.331 248.617 186.987C249.068 187.638 249.736 187.963 250.621 187.963C251.512 187.963 252.183 187.638 252.634 186.987C253.085 186.331 253.311 185.525 253.311 184.57V184.289C253.311 183.334 253.085 182.531 252.634 181.881C252.183 181.225 251.512 180.896 250.621 180.896C249.736 180.896 249.068 181.225 248.617 181.881C248.166 182.531 247.94 183.334 247.94 184.289ZM256.721 191.522L257.696 190.336C257.954 190.629 258.314 190.887 258.777 191.109C259.246 191.338 259.773 191.452 260.359 191.452C261.139 191.452 261.757 191.224 262.214 190.767C262.671 190.315 262.899 189.665 262.899 188.815V187.91C262.63 188.285 262.27 188.59 261.818 188.824C261.367 189.053 260.819 189.167 260.175 189.167C259.021 189.167 258.098 188.733 257.406 187.866C256.715 186.999 256.369 185.9 256.369 184.57V184.289C256.369 182.959 256.715 181.86 257.406 180.993C258.098 180.12 259.023 179.684 260.184 179.684C260.822 179.684 261.382 179.818 261.862 180.088C262.343 180.352 262.7 180.674 262.935 181.055H262.979L263.049 179.859H264.473V188.815C264.473 190.11 264.095 191.104 263.339 191.795C262.589 192.486 261.607 192.832 260.395 192.832C259.645 192.832 258.953 192.709 258.32 192.463C257.688 192.217 257.154 191.903 256.721 191.522ZM257.978 184.57C257.978 185.508 258.183 186.293 258.593 186.926C259.003 187.559 259.647 187.875 260.526 187.875C261.106 187.875 261.602 187.717 262.012 187.4C262.422 187.078 262.718 186.712 262.899 186.302V182.558C262.718 182.147 262.422 181.784 262.012 181.468C261.602 181.146 261.106 180.984 260.526 180.984C259.647 180.984 259.003 181.301 258.593 181.934C258.183 182.566 257.978 183.352 257.978 184.289V184.57ZM267.109 189V179.859H268.683V189H267.109ZM266.907 177.047C266.907 176.777 266.992 176.552 267.162 176.37C267.332 176.188 267.578 176.098 267.9 176.098C268.217 176.098 268.46 176.188 268.63 176.37C268.8 176.552 268.885 176.777 268.885 177.047C268.885 177.311 268.8 177.536 268.63 177.724C268.46 177.905 268.214 177.996 267.892 177.996C267.575 177.996 267.332 177.905 267.162 177.724C266.992 177.536 266.907 177.311 266.907 177.047ZM270.766 184.57V184.289C270.766 182.912 271.141 181.787 271.891 180.914C272.646 180.041 273.643 179.604 274.879 179.604C276.121 179.604 277.073 180.012 277.735 180.826C278.403 181.641 278.737 182.745 278.737 184.14V184.781H271.724V183.516H277.164V183.322C277.164 182.654 276.974 182.083 276.593 181.608C276.218 181.134 275.67 180.896 274.949 180.896C274.088 180.896 273.443 181.225 273.016 181.881C272.588 182.531 272.374 183.334 272.374 184.289V184.57C272.374 185.525 272.6 186.331 273.051 186.987C273.502 187.638 274.196 187.963 275.134 187.963C275.714 187.963 276.212 187.837 276.628 187.585C277.05 187.327 277.393 187.022 277.656 186.671L278.667 187.488C278.386 187.922 277.943 188.326 277.34 188.701C276.736 189.07 276.001 189.255 275.134 189.255C273.728 189.255 272.646 188.821 271.891 187.954C271.141 187.081 270.766 185.953 270.766 184.57ZM280.144 186.293H281.717V186.354C281.717 186.894 281.91 187.298 282.297 187.567C282.689 187.831 283.205 187.963 283.844 187.963C284.488 187.963 284.995 187.837 285.364 187.585C285.739 187.327 285.927 186.99 285.927 186.574C285.927 186.158 285.774 185.842 285.47 185.625C285.171 185.402 284.529 185.174 283.545 184.939C282.566 184.705 281.79 184.38 281.216 183.964C280.647 183.548 280.363 182.965 280.363 182.215C280.363 181.459 280.671 180.835 281.286 180.343C281.907 179.851 282.733 179.604 283.765 179.604C284.802 179.604 285.637 179.851 286.27 180.343C286.902 180.835 287.219 181.506 287.219 182.355V182.408H285.654V182.32C285.654 181.869 285.499 181.521 285.188 181.274C284.878 181.022 284.403 180.896 283.765 180.896C283.126 180.896 282.657 181.014 282.358 181.248C282.065 181.477 281.919 181.772 281.919 182.136C281.919 182.487 282.086 182.766 282.42 182.971C282.76 183.176 283.419 183.396 284.397 183.63C285.376 183.864 286.132 184.198 286.665 184.632C287.204 185.06 287.474 185.678 287.474 186.486C287.474 187.295 287.172 187.96 286.568 188.481C285.965 188.997 285.057 189.255 283.844 189.255C282.637 189.255 281.717 188.991 281.084 188.464C280.457 187.937 280.144 187.233 280.144 186.354V186.293ZM289.188 190.854C289.457 190.491 289.665 190.119 289.812 189.738C289.964 189.357 290.04 188.912 290.04 188.402V187.119H291.561V188.402C291.561 189.029 291.426 189.601 291.156 190.116C290.887 190.638 290.529 191.089 290.084 191.47L289.188 190.854ZM41.0723 218.522L42.0479 217.336C42.3057 217.629 42.666 217.887 43.1289 218.109C43.5977 218.338 44.125 218.452 44.7109 218.452C45.4902 218.452 46.1084 218.224 46.5654 217.767C47.0225 217.315 47.251 216.665 47.251 215.815V214.91C46.9814 215.285 46.6211 215.59 46.1699 215.824C45.7188 216.053 45.1709 216.167 44.5264 216.167C43.3721 216.167 42.4492 215.733 41.7578 214.866C41.0664 213.999 40.7207 212.9 40.7207 211.57V211.289C40.7207 209.959 41.0664 208.86 41.7578 207.993C42.4492 207.12 43.375 206.684 44.5352 206.684C45.1738 206.684 45.7334 206.818 46.2139 207.088C46.6943 207.352 47.0518 207.674 47.2861 208.055H47.3301L47.4004 206.859H48.8242V215.815C48.8242 217.11 48.4463 218.104 47.6904 218.795C46.9404 219.486 45.959 219.832 44.7461 219.832C43.9961 219.832 43.3047 219.709 42.6719 219.463C42.0391 219.217 41.5059 218.903 41.0723 218.522ZM42.3291 211.57C42.3291 212.508 42.5342 213.293 42.9443 213.926C43.3545 214.559 43.999 214.875 44.8779 214.875C45.458 214.875 45.9531 214.717 46.3633 214.4C46.7734 214.078 47.0693 213.712 47.251 213.302V209.558C47.0693 209.147 46.7734 208.784 46.3633 208.468C45.9531 208.146 45.458 207.984 44.8779 207.984C43.999 207.984 43.3545 208.301 42.9443 208.934C42.5342 209.566 42.3291 210.352 42.3291 211.289V211.57ZM51.2939 212.774V206.859H52.8672V212.792C52.8672 213.53 53.0312 214.058 53.3594 214.374C53.6934 214.69 54.165 214.849 54.7744 214.849C55.29 214.849 55.7471 214.708 56.1455 214.427C56.5439 214.146 56.8545 213.779 57.0771 213.328V206.859H58.6504V216H57.2266L57.165 214.813H57.1123C56.7842 215.235 56.3799 215.569 55.8994 215.815C55.4189 216.056 54.8887 216.176 54.3086 216.176C53.3887 216.176 52.6562 215.915 52.1113 215.394C51.5664 214.872 51.2939 213.999 51.2939 212.774ZM60.6982 213.319C60.6982 212.394 61.0645 211.673 61.7969 211.157C62.5293 210.642 63.4639 210.384 64.6006 210.384H66.6748V209.733C66.6748 209.177 66.5312 208.729 66.2441 208.389C65.957 208.043 65.4648 207.87 64.7676 207.87C64.0703 207.87 63.5664 208.014 63.2559 208.301C62.9512 208.582 62.7988 208.919 62.7988 209.312V209.364H61.2344V209.303C61.2344 208.576 61.5537 207.946 62.1924 207.413C62.8369 206.874 63.707 206.604 64.8027 206.604C65.8984 206.604 66.7451 206.865 67.3428 207.387C67.9463 207.908 68.248 208.69 68.248 209.733V213.891C68.248 214.271 68.2773 214.632 68.3359 214.972C68.3945 215.306 68.4766 215.602 68.582 215.859V216H67.0615C66.9795 215.854 66.9033 215.663 66.833 215.429C66.7686 215.194 66.7275 214.96 66.71 214.726C66.499 215.106 66.1533 215.443 65.6729 215.736C65.1924 216.023 64.5742 216.167 63.8184 216.167C62.9453 216.167 62.207 215.924 61.6035 215.438C61 214.945 60.6982 214.239 60.6982 213.319ZM62.2715 213.231C62.2715 213.759 62.4238 214.172 62.7285 214.471C63.0391 214.764 63.5137 214.91 64.1523 214.91C64.791 214.91 65.3711 214.69 65.8926 214.251C66.4141 213.806 66.6748 213.331 66.6748 212.827V211.509H64.7764C63.9502 211.509 63.3262 211.664 62.9043 211.975C62.4824 212.285 62.2715 212.704 62.2715 213.231ZM70.7529 216V206.859H72.1768L72.2471 208.046H72.291C72.5254 207.659 72.833 207.322 73.2139 207.035C73.5947 206.748 74.0488 206.604 74.5762 206.604C74.7051 206.604 74.8398 206.619 74.9805 206.648C75.1211 206.678 75.2207 206.704 75.2793 206.728V208.187C75.1621 208.163 75.0391 208.146 74.9102 208.134C74.7812 208.116 74.6406 208.107 74.4883 208.107C73.9668 208.107 73.5215 208.245 73.1523 208.521C72.7832 208.796 72.5078 209.142 72.3262 209.558V216H70.7529ZM75.9209 213.319C75.9209 212.394 76.2871 211.673 77.0195 211.157C77.752 210.642 78.6865 210.384 79.8232 210.384H81.8975V209.733C81.8975 209.177 81.7539 208.729 81.4668 208.389C81.1797 208.043 80.6875 207.87 79.9902 207.87C79.293 207.87 78.7891 208.014 78.4785 208.301C78.1738 208.582 78.0215 208.919 78.0215 209.312V209.364H76.457V209.303C76.457 208.576 76.7764 207.946 77.415 207.413C78.0596 206.874 78.9297 206.604 80.0254 206.604C81.1211 206.604 81.9678 206.865 82.5654 207.387C83.1689 207.908 83.4707 208.69 83.4707 209.733V213.891C83.4707 214.271 83.5 214.632 83.5586 214.972C83.6172 215.306 83.6992 215.602 83.8047 215.859V216H82.2842C82.2021 215.854 82.126 215.663 82.0557 215.429C81.9912 215.194 81.9502 214.96 81.9326 214.726C81.7217 215.106 81.376 215.443 80.8955 215.736C80.415 216.023 79.7969 216.167 79.041 216.167C78.168 216.167 77.4297 215.924 76.8262 215.438C76.2227 214.945 75.9209 214.239 75.9209 213.319ZM77.4941 213.231C77.4941 213.759 77.6465 214.172 77.9512 214.471C78.2617 214.764 78.7363 214.91 79.375 214.91C80.0137 214.91 80.5938 214.69 81.1152 214.251C81.6367 213.806 81.8975 213.331 81.8975 212.827V211.509H79.999C79.1729 211.509 78.5488 211.664 78.127 211.975C77.7051 212.285 77.4941 212.704 77.4941 213.231ZM85.9756 216V206.859H87.3994L87.4697 208.046H87.5137C87.8418 207.624 88.2461 207.293 88.7266 207.053C89.207 206.807 89.7402 206.684 90.3262 206.684C91.2402 206.684 91.9697 206.947 92.5146 207.475C93.0596 207.996 93.332 208.869 93.332 210.094V216H91.7588V210.085C91.7588 209.341 91.5918 208.811 91.2578 208.494C90.9297 208.172 90.4639 208.011 89.8604 208.011C89.3389 208.011 88.8789 208.151 88.4805 208.433C88.082 208.714 87.7715 209.08 87.5488 209.531V216H85.9756ZM94.5273 208.072V206.859H99.7217V208.072H94.5273ZM96.1621 213.724V207.58V207.334V204.504H97.7354V213.724C97.7354 214.151 97.8174 214.456 97.9814 214.638C98.1455 214.813 98.4062 214.901 98.7637 214.901C98.9219 214.901 99.0801 214.884 99.2383 214.849C99.3965 214.813 99.5547 214.767 99.7129 214.708V216C99.5664 216.07 99.373 216.129 99.1328 216.176C98.8926 216.229 98.6318 216.255 98.3506 216.255C97.6826 216.255 97.1494 216.053 96.751 215.648C96.3584 215.244 96.1621 214.603 96.1621 213.724ZM100.855 211.57V211.289C100.855 209.912 101.23 208.787 101.98 207.914C102.736 207.041 103.732 206.604 104.969 206.604C106.211 206.604 107.163 207.012 107.825 207.826C108.493 208.641 108.827 209.745 108.827 211.14V211.781H101.813V210.516H107.254V210.322C107.254 209.654 107.063 209.083 106.683 208.608C106.308 208.134 105.76 207.896 105.039 207.896C104.178 207.896 103.533 208.225 103.105 208.881C102.678 209.531 102.464 210.334 102.464 211.289V211.57C102.464 212.525 102.689 213.331 103.141 213.987C103.592 214.638 104.286 214.963 105.224 214.963C105.804 214.963 106.302 214.837 106.718 214.585C107.14 214.327 107.482 214.022 107.746 213.671L108.757 214.488C108.476 214.922 108.033 215.326 107.43 215.701C106.826 216.07 106.091 216.255 105.224 216.255C103.817 216.255 102.736 215.821 101.98 214.954C101.23 214.081 100.855 212.953 100.855 211.57ZM110.242 211.57V211.289C110.242 209.912 110.617 208.787 111.367 207.914C112.123 207.041 113.119 206.604 114.355 206.604C115.598 206.604 116.55 207.012 117.212 207.826C117.88 208.641 118.214 209.745 118.214 211.14V211.781H111.2V210.516H116.641V210.322C116.641 209.654 116.45 209.083 116.069 208.608C115.694 208.134 115.146 207.896 114.426 207.896C113.564 207.896 112.92 208.225 112.492 208.881C112.064 209.531 111.851 210.334 111.851 211.289V211.57C111.851 212.525 112.076 213.331 112.527 213.987C112.979 214.638 113.673 214.963 114.61 214.963C115.19 214.963 115.688 214.837 116.104 214.585C116.526 214.327 116.869 214.022 117.133 213.671L118.144 214.488C117.862 214.922 117.42 215.326 116.816 215.701C116.213 216.07 115.478 216.255 114.61 216.255C113.204 216.255 112.123 215.821 111.367 214.954C110.617 214.081 110.242 212.953 110.242 211.57ZM120.262 216V206.859H121.835V216H120.262ZM120.06 204.047C120.06 203.777 120.145 203.552 120.314 203.37C120.484 203.188 120.73 203.098 121.053 203.098C121.369 203.098 121.612 203.188 121.782 203.37C121.952 203.552 122.037 203.777 122.037 204.047C122.037 204.311 121.952 204.536 121.782 204.724C121.612 204.905 121.366 204.996 121.044 204.996C120.728 204.996 120.484 204.905 120.314 204.724C120.145 204.536 120.06 204.311 120.06 204.047ZM124.472 216V206.859H125.896L125.966 208.046H126.01C126.338 207.624 126.742 207.293 127.223 207.053C127.703 206.807 128.236 206.684 128.822 206.684C129.736 206.684 130.466 206.947 131.011 207.475C131.556 207.996 131.828 208.869 131.828 210.094V216H130.255V210.085C130.255 209.341 130.088 208.811 129.754 208.494C129.426 208.172 128.96 208.011 128.356 208.011C127.835 208.011 127.375 208.151 126.977 208.433C126.578 208.714 126.268 209.08 126.045 209.531V216H124.472ZM134.096 218.522L135.071 217.336C135.329 217.629 135.689 217.887 136.152 218.109C136.621 218.338 137.148 218.452 137.734 218.452C138.514 218.452 139.132 218.224 139.589 217.767C140.046 217.315 140.274 216.665 140.274 215.815V214.91C140.005 215.285 139.645 215.59 139.193 215.824C138.742 216.053 138.194 216.167 137.55 216.167C136.396 216.167 135.473 215.733 134.781 214.866C134.09 213.999 133.744 212.9 133.744 211.57V211.289C133.744 209.959 134.09 208.86 134.781 207.993C135.473 207.12 136.398 206.684 137.559 206.684C138.197 206.684 138.757 206.818 139.237 207.088C139.718 207.352 140.075 207.674 140.31 208.055H140.354L140.424 206.859H141.848V215.815C141.848 217.11 141.47 218.104 140.714 218.795C139.964 219.486 138.982 219.832 137.77 219.832C137.02 219.832 136.328 219.709 135.695 219.463C135.062 219.217 134.529 218.903 134.096 218.522ZM135.353 211.57C135.353 212.508 135.558 213.293 135.968 213.926C136.378 214.559 137.022 214.875 137.901 214.875C138.481 214.875 138.977 214.717 139.387 214.4C139.797 214.078 140.093 213.712 140.274 213.302V209.558C140.093 209.147 139.797 208.784 139.387 208.468C138.977 208.146 138.481 207.984 137.901 207.984C137.022 207.984 136.378 208.301 135.968 208.934C135.558 209.566 135.353 210.352 135.353 211.289V211.57ZM148.773 216V206.859H150.347V216H148.773ZM148.571 204.047C148.571 203.777 148.656 203.552 148.826 203.37C148.996 203.188 149.242 203.098 149.564 203.098C149.881 203.098 150.124 203.188 150.294 203.37C150.464 203.552 150.549 203.777 150.549 204.047C150.549 204.311 150.464 204.536 150.294 204.724C150.124 204.905 149.878 204.996 149.556 204.996C149.239 204.996 148.996 204.905 148.826 204.724C148.656 204.536 148.571 204.311 148.571 204.047ZM152.983 216V206.859H154.407L154.478 208.046H154.521C154.85 207.624 155.254 207.293 155.734 207.053C156.215 206.807 156.748 206.684 157.334 206.684C158.248 206.684 158.978 206.947 159.522 207.475C160.067 207.996 160.34 208.869 160.34 210.094V216H158.767V210.085C158.767 209.341 158.6 208.811 158.266 208.494C157.938 208.172 157.472 208.011 156.868 208.011C156.347 208.011 155.887 208.151 155.488 208.433C155.09 208.714 154.779 209.08 154.557 209.531V216H152.983ZM162.81 216V206.859H164.233L164.304 208.046H164.348C164.676 207.624 165.08 207.293 165.561 207.053C166.041 206.807 166.574 206.684 167.16 206.684C168.074 206.684 168.804 206.947 169.349 207.475C169.894 207.996 170.166 208.869 170.166 210.094V216H168.593V210.085C168.593 209.341 168.426 208.811 168.092 208.494C167.764 208.172 167.298 208.011 166.694 208.011C166.173 208.011 165.713 208.151 165.314 208.433C164.916 208.714 164.605 209.08 164.383 209.531V216H162.81ZM172.082 211.57V211.289C172.082 209.912 172.472 208.787 173.251 207.914C174.03 207.041 175.073 206.604 176.38 206.604C177.681 206.604 178.721 207.041 179.5 207.914C180.279 208.787 180.669 209.912 180.669 211.289V211.57C180.669 212.947 180.279 214.072 179.5 214.945C178.721 215.818 177.681 216.255 176.38 216.255C175.073 216.255 174.03 215.818 173.251 214.945C172.472 214.072 172.082 212.947 172.082 211.57ZM173.69 211.289V211.57C173.69 212.525 173.916 213.331 174.367 213.987C174.818 214.638 175.486 214.963 176.371 214.963C177.262 214.963 177.933 214.638 178.384 213.987C178.835 213.331 179.061 212.525 179.061 211.57V211.289C179.061 210.334 178.835 209.531 178.384 208.881C177.933 208.225 177.262 207.896 176.371 207.896C175.486 207.896 174.818 208.225 174.367 208.881C173.916 209.531 173.69 210.334 173.69 211.289ZM181.258 206.859H182.787L185.011 213.012C185.093 213.246 185.163 213.466 185.222 213.671C185.28 213.87 185.321 214.028 185.345 214.146H185.397C185.421 214.028 185.462 213.87 185.521 213.671C185.579 213.466 185.649 213.246 185.731 213.012L187.938 206.859H189.44L185.96 216H184.738L181.258 206.859ZM190.073 213.319C190.073 212.394 190.439 211.673 191.172 211.157C191.904 210.642 192.839 210.384 193.976 210.384H196.05V209.733C196.05 209.177 195.906 208.729 195.619 208.389C195.332 208.043 194.84 207.87 194.143 207.87C193.445 207.87 192.941 208.014 192.631 208.301C192.326 208.582 192.174 208.919 192.174 209.312V209.364H190.609V209.303C190.609 208.576 190.929 207.946 191.567 207.413C192.212 206.874 193.082 206.604 194.178 206.604C195.273 206.604 196.12 206.865 196.718 207.387C197.321 207.908 197.623 208.69 197.623 209.733V213.891C197.623 214.271 197.652 214.632 197.711 214.972C197.77 215.306 197.852 215.602 197.957 215.859V216H196.437C196.354 215.854 196.278 215.663 196.208 215.429C196.144 215.194 196.103 214.96 196.085 214.726C195.874 215.106 195.528 215.443 195.048 215.736C194.567 216.023 193.949 216.167 193.193 216.167C192.32 216.167 191.582 215.924 190.979 215.438C190.375 214.945 190.073 214.239 190.073 213.319ZM191.646 213.231C191.646 213.759 191.799 214.172 192.104 214.471C192.414 214.764 192.889 214.91 193.527 214.91C194.166 214.91 194.746 214.69 195.268 214.251C195.789 213.806 196.05 213.331 196.05 212.827V211.509H194.151C193.325 211.509 192.701 211.664 192.279 211.975C191.857 212.285 191.646 212.704 191.646 213.231ZM198.854 208.072V206.859H204.048V208.072H198.854ZM200.488 213.724V207.58V207.334V204.504H202.062V213.724C202.062 214.151 202.144 214.456 202.308 214.638C202.472 214.813 202.732 214.901 203.09 214.901C203.248 214.901 203.406 214.884 203.564 214.849C203.723 214.813 203.881 214.767 204.039 214.708V216C203.893 216.07 203.699 216.129 203.459 216.176C203.219 216.229 202.958 216.255 202.677 216.255C202.009 216.255 201.476 216.053 201.077 215.648C200.685 215.244 200.488 214.603 200.488 213.724ZM205.814 216V206.859H207.388V216H205.814ZM205.612 204.047C205.612 203.777 205.697 203.552 205.867 203.37C206.037 203.188 206.283 203.098 206.605 203.098C206.922 203.098 207.165 203.188 207.335 203.37C207.505 203.552 207.59 203.777 207.59 204.047C207.59 204.311 207.505 204.536 207.335 204.724C207.165 204.905 206.919 204.996 206.597 204.996C206.28 204.996 206.037 204.905 205.867 204.724C205.697 204.536 205.612 204.311 205.612 204.047ZM209.471 211.57V211.289C209.471 209.912 209.86 208.787 210.64 207.914C211.419 207.041 212.462 206.604 213.769 206.604C215.069 206.604 216.109 207.041 216.889 207.914C217.668 208.787 218.058 209.912 218.058 211.289V211.57C218.058 212.947 217.668 214.072 216.889 214.945C216.109 215.818 215.069 216.255 213.769 216.255C212.462 216.255 211.419 215.818 210.64 214.945C209.86 214.072 209.471 212.947 209.471 211.57ZM211.079 211.289V211.57C211.079 212.525 211.305 213.331 211.756 213.987C212.207 214.638 212.875 214.963 213.76 214.963C214.65 214.963 215.321 214.638 215.772 213.987C216.224 213.331 216.449 212.525 216.449 211.57V211.289C216.449 210.334 216.224 209.531 215.772 208.881C215.321 208.225 214.65 207.896 213.76 207.896C212.875 207.896 212.207 208.225 211.756 208.881C211.305 209.531 211.079 210.334 211.079 211.289ZM220.062 216V206.859H221.485L221.556 208.046H221.6C221.928 207.624 222.332 207.293 222.812 207.053C223.293 206.807 223.826 206.684 224.412 206.684C225.326 206.684 226.056 206.947 226.601 207.475C227.146 207.996 227.418 208.869 227.418 210.094V216H225.845V210.085C225.845 209.341 225.678 208.811 225.344 208.494C225.016 208.172 224.55 208.011 223.946 208.011C223.425 208.011 222.965 208.151 222.566 208.433C222.168 208.714 221.857 209.08 221.635 209.531V216H220.062ZM233.667 213.319C233.667 212.394 234.033 211.673 234.766 211.157C235.498 210.642 236.433 210.384 237.569 210.384H239.644V209.733C239.644 209.177 239.5 208.729 239.213 208.389C238.926 208.043 238.434 207.87 237.736 207.87C237.039 207.87 236.535 208.014 236.225 208.301C235.92 208.582 235.768 208.919 235.768 209.312V209.364H234.203V209.303C234.203 208.576 234.522 207.946 235.161 207.413C235.806 206.874 236.676 206.604 237.771 206.604C238.867 206.604 239.714 206.865 240.312 207.387C240.915 207.908 241.217 208.69 241.217 209.733V213.891C241.217 214.271 241.246 214.632 241.305 214.972C241.363 215.306 241.445 215.602 241.551 215.859V216H240.03C239.948 215.854 239.872 215.663 239.802 215.429C239.737 215.194 239.696 214.96 239.679 214.726C239.468 215.106 239.122 215.443 238.642 215.736C238.161 216.023 237.543 216.167 236.787 216.167C235.914 216.167 235.176 215.924 234.572 215.438C233.969 214.945 233.667 214.239 233.667 213.319ZM235.24 213.231C235.24 213.759 235.393 214.172 235.697 214.471C236.008 214.764 236.482 214.91 237.121 214.91C237.76 214.91 238.34 214.69 238.861 214.251C239.383 213.806 239.644 213.331 239.644 212.827V211.509H237.745C236.919 211.509 236.295 211.664 235.873 211.975C235.451 212.285 235.24 212.704 235.24 213.231ZM243.722 216V206.859H245.146L245.216 208.046H245.26C245.588 207.624 245.992 207.293 246.473 207.053C246.953 206.807 247.486 206.684 248.072 206.684C248.986 206.684 249.716 206.947 250.261 207.475C250.806 207.996 251.078 208.869 251.078 210.094V216H249.505V210.085C249.505 209.341 249.338 208.811 249.004 208.494C248.676 208.172 248.21 208.011 247.606 208.011C247.085 208.011 246.625 208.151 246.227 208.433C245.828 208.714 245.518 209.08 245.295 209.531V216H243.722ZM252.994 211.57V211.289C252.994 209.959 253.34 208.86 254.031 207.993C254.729 207.12 255.654 206.684 256.809 206.684C257.453 206.684 257.998 206.798 258.443 207.026C258.895 207.255 259.255 207.56 259.524 207.94V202.562H261.098V216H259.674L259.604 214.796H259.56C259.325 215.177 258.968 215.502 258.487 215.771C258.007 216.041 257.447 216.176 256.809 216.176C255.648 216.176 254.723 215.742 254.031 214.875C253.34 214.002 252.994 212.9 252.994 211.57ZM254.603 211.57C254.603 212.508 254.808 213.296 255.218 213.935C255.628 214.567 256.272 214.884 257.151 214.884C257.731 214.884 258.227 214.723 258.637 214.4C259.047 214.078 259.343 213.712 259.524 213.302V209.549C259.343 209.139 259.047 208.775 258.637 208.459C258.227 208.143 257.731 207.984 257.151 207.984C256.272 207.984 255.628 208.301 255.218 208.934C254.808 209.566 254.603 210.352 254.603 211.289V211.57ZM268.366 216V205.515C268.366 204.495 268.639 203.719 269.184 203.186C269.734 202.652 270.481 202.386 271.425 202.386C271.612 202.386 271.8 202.397 271.987 202.421C272.181 202.444 272.365 202.479 272.541 202.526L272.453 203.801C272.324 203.777 272.187 203.757 272.04 203.739C271.894 203.722 271.744 203.713 271.592 203.713C271.064 203.713 270.657 203.862 270.37 204.161C270.083 204.454 269.939 204.905 269.939 205.515V207.369V207.554V216H268.366ZM266.863 208.072V206.859H268.964H269.342H271.926V208.072H266.863ZM273.024 212.774V206.859H274.598V212.792C274.598 213.53 274.762 214.058 275.09 214.374C275.424 214.69 275.896 214.849 276.505 214.849C277.021 214.849 277.478 214.708 277.876 214.427C278.274 214.146 278.585 213.779 278.808 213.328V206.859H280.381V216H278.957L278.896 214.813H278.843C278.515 215.235 278.11 215.569 277.63 215.815C277.149 216.056 276.619 216.176 276.039 216.176C275.119 216.176 274.387 215.915 273.842 215.394C273.297 214.872 273.024 213.999 273.024 212.774ZM281.664 208.072V206.859H286.858V208.072H281.664ZM283.299 213.724V207.58V207.334V204.504H284.872V213.724C284.872 214.151 284.954 214.456 285.118 214.638C285.282 214.813 285.543 214.901 285.9 214.901C286.059 214.901 286.217 214.884 286.375 214.849C286.533 214.813 286.691 214.767 286.85 214.708V216C286.703 216.07 286.51 216.129 286.27 216.176C286.029 216.229 285.769 216.255 285.487 216.255C284.819 216.255 284.286 216.053 283.888 215.648C283.495 215.244 283.299 214.603 283.299 213.724ZM288.458 212.774V206.859H290.031V212.792C290.031 213.53 290.195 214.058 290.523 214.374C290.857 214.69 291.329 214.849 291.938 214.849C292.454 214.849 292.911 214.708 293.31 214.427C293.708 214.146 294.019 213.779 294.241 213.328V206.859H295.814V216H294.391L294.329 214.813H294.276C293.948 215.235 293.544 215.569 293.063 215.815C292.583 216.056 292.053 216.176 291.473 216.176C290.553 216.176 289.82 215.915 289.275 215.394C288.73 214.872 288.458 213.999 288.458 212.774ZM298.372 216V206.859H299.796L299.866 208.046H299.91C300.145 207.659 300.452 207.322 300.833 207.035C301.214 206.748 301.668 206.604 302.195 206.604C302.324 206.604 302.459 206.619 302.6 206.648C302.74 206.678 302.84 206.704 302.898 206.728V208.187C302.781 208.163 302.658 208.146 302.529 208.134C302.4 208.116 302.26 208.107 302.107 208.107C301.586 208.107 301.141 208.245 300.771 208.521C300.402 208.796 300.127 209.142 299.945 209.558V216H298.372ZM303.672 211.57V211.289C303.672 209.912 304.047 208.787 304.797 207.914C305.553 207.041 306.549 206.604 307.785 206.604C309.027 206.604 309.979 207.012 310.642 207.826C311.31 208.641 311.644 209.745 311.644 211.14V211.781H304.63V210.516H310.07V210.322C310.07 209.654 309.88 209.083 309.499 208.608C309.124 208.134 308.576 207.896 307.855 207.896C306.994 207.896 306.35 208.225 305.922 208.881C305.494 209.531 305.28 210.334 305.28 211.289V211.57C305.28 212.525 305.506 213.331 305.957 213.987C306.408 214.638 307.103 214.963 308.04 214.963C308.62 214.963 309.118 214.837 309.534 214.585C309.956 214.327 310.299 214.022 310.562 213.671L311.573 214.488C311.292 214.922 310.85 215.326 310.246 215.701C309.643 216.07 308.907 216.255 308.04 216.255C306.634 216.255 305.553 215.821 304.797 214.954C304.047 214.081 303.672 212.953 303.672 211.57ZM313.604 211.184V209.733H318.49V211.184H313.604ZM320.397 219.683V206.859H321.821L321.892 208.063H321.936C322.17 207.683 322.527 207.357 323.008 207.088C323.494 206.818 324.057 206.684 324.695 206.684C325.85 206.684 326.772 207.117 327.464 207.984C328.155 208.846 328.501 209.947 328.501 211.289V211.57C328.501 212.906 328.155 214.008 327.464 214.875C326.772 215.742 325.85 216.176 324.695 216.176C324.057 216.176 323.509 216.062 323.052 215.833C322.601 215.599 322.24 215.291 321.971 214.91V219.683H320.397ZM321.971 213.302C322.152 213.712 322.448 214.078 322.858 214.4C323.269 214.723 323.767 214.884 324.353 214.884C325.226 214.884 325.867 214.567 326.277 213.935C326.688 213.296 326.893 212.508 326.893 211.57V211.289C326.893 210.352 326.688 209.566 326.277 208.934C325.867 208.301 325.226 207.984 324.353 207.984C323.767 207.984 323.269 208.146 322.858 208.468C322.448 208.784 322.152 209.147 321.971 209.558V213.302ZM330.505 216V206.859H331.929L331.999 208.046H332.043C332.277 207.659 332.585 207.322 332.966 207.035C333.347 206.748 333.801 206.604 334.328 206.604C334.457 206.604 334.592 206.619 334.732 206.648C334.873 206.678 334.973 206.704 335.031 206.728V208.187C334.914 208.163 334.791 208.146 334.662 208.134C334.533 208.116 334.393 208.107 334.24 208.107C333.719 208.107 333.273 208.245 332.904 208.521C332.535 208.796 332.26 209.142 332.078 209.558V216H330.505ZM335.805 211.57V211.289C335.805 209.912 336.194 208.787 336.974 207.914C337.753 207.041 338.796 206.604 340.103 206.604C341.403 206.604 342.443 207.041 343.223 207.914C344.002 208.787 344.392 209.912 344.392 211.289V211.57C344.392 212.947 344.002 214.072 343.223 214.945C342.443 215.818 341.403 216.255 340.103 216.255C338.796 216.255 337.753 215.818 336.974 214.945C336.194 214.072 335.805 212.947 335.805 211.57ZM337.413 211.289V211.57C337.413 212.525 337.639 213.331 338.09 213.987C338.541 214.638 339.209 214.963 340.094 214.963C340.984 214.963 341.655 214.638 342.106 213.987C342.558 213.331 342.783 212.525 342.783 211.57V211.289C342.783 210.334 342.558 209.531 342.106 208.881C341.655 208.225 340.984 207.896 340.094 207.896C339.209 207.896 338.541 208.225 338.09 208.881C337.639 209.531 337.413 210.334 337.413 211.289ZM345.842 211.57V211.289C345.842 209.912 346.231 208.787 347.011 207.914C347.79 207.041 348.833 206.604 350.14 206.604C351.44 206.604 352.48 207.041 353.26 207.914C354.039 208.787 354.429 209.912 354.429 211.289V211.57C354.429 212.947 354.039 214.072 353.26 214.945C352.48 215.818 351.44 216.255 350.14 216.255C348.833 216.255 347.79 215.818 347.011 214.945C346.231 214.072 345.842 212.947 345.842 211.57ZM347.45 211.289V211.57C347.45 212.525 347.676 213.331 348.127 213.987C348.578 214.638 349.246 214.963 350.131 214.963C351.021 214.963 351.692 214.638 352.144 213.987C352.595 213.331 352.82 212.525 352.82 211.57V211.289C352.82 210.334 352.595 209.531 352.144 208.881C351.692 208.225 351.021 207.896 350.131 207.896C349.246 207.896 348.578 208.225 348.127 208.881C347.676 209.531 347.45 210.334 347.45 211.289ZM356.854 216V205.515C356.854 204.495 357.127 203.719 357.672 203.186C358.223 202.652 358.97 202.386 359.913 202.386C360.101 202.386 360.288 202.397 360.476 202.421C360.669 202.444 360.854 202.479 361.029 202.526L360.941 203.801C360.812 203.777 360.675 203.757 360.528 203.739C360.382 203.722 360.232 203.713 360.08 203.713C359.553 203.713 359.146 203.862 358.858 204.161C358.571 204.454 358.428 204.905 358.428 205.515V207.369V207.554V216H356.854ZM355.352 208.072V206.859H357.452H357.83H360.414V208.072H355.352ZM40.7119 240.293H42.2852V240.354C42.2852 240.894 42.4785 241.298 42.8652 241.567C43.2578 241.831 43.7734 241.963 44.4121 241.963C45.0566 241.963 45.5635 241.837 45.9326 241.585C46.3076 241.327 46.4951 240.99 46.4951 240.574C46.4951 240.158 46.3428 239.842 46.0381 239.625C45.7393 239.402 45.0977 239.174 44.1133 238.939C43.1348 238.705 42.3584 238.38 41.7842 237.964C41.2158 237.548 40.9316 236.965 40.9316 236.215C40.9316 235.459 41.2393 234.835 41.8545 234.343C42.4756 233.851 43.3018 233.604 44.333 233.604C45.3701 233.604 46.2051 233.851 46.8379 234.343C47.4707 234.835 47.7871 235.506 47.7871 236.355V236.408H46.2227V236.32C46.2227 235.869 46.0674 235.521 45.7568 235.274C45.4463 235.022 44.9717 234.896 44.333 234.896C43.6943 234.896 43.2256 235.014 42.9268 235.248C42.6338 235.477 42.4873 235.772 42.4873 236.136C42.4873 236.487 42.6543 236.766 42.9883 236.971C43.3281 237.176 43.9873 237.396 44.9658 237.63C45.9443 237.864 46.7002 238.198 47.2334 238.632C47.7725 239.06 48.042 239.678 48.042 240.486C48.042 241.295 47.7402 241.96 47.1367 242.481C46.5332 242.997 45.625 243.255 44.4121 243.255C43.2051 243.255 42.2852 242.991 41.6523 242.464C41.0254 241.937 40.7119 241.233 40.7119 240.354V240.293ZM49.4746 238.57V238.289C49.4746 236.912 49.8643 235.787 50.6436 234.914C51.4229 234.041 52.4658 233.604 53.7725 233.604C55.0732 233.604 56.1133 234.041 56.8926 234.914C57.6719 235.787 58.0615 236.912 58.0615 238.289V238.57C58.0615 239.947 57.6719 241.072 56.8926 241.945C56.1133 242.818 55.0732 243.255 53.7725 243.255C52.4658 243.255 51.4229 242.818 50.6436 241.945C49.8643 241.072 49.4746 239.947 49.4746 238.57ZM51.083 238.289V238.57C51.083 239.525 51.3086 240.331 51.7598 240.987C52.2109 241.638 52.8789 241.963 53.7637 241.963C54.6543 241.963 55.3252 241.638 55.7764 240.987C56.2275 240.331 56.4531 239.525 56.4531 238.57V238.289C56.4531 237.334 56.2275 236.531 55.7764 235.881C55.3252 235.225 54.6543 234.896 53.7637 234.896C52.8789 234.896 52.2109 235.225 51.7598 235.881C51.3086 236.531 51.083 237.334 51.083 238.289ZM60.1357 243V229.562H61.709V243H60.1357ZM64.2314 239.774V233.859H65.8047V239.792C65.8047 240.53 65.9688 241.058 66.2969 241.374C66.6309 241.69 67.1025 241.849 67.7119 241.849C68.2275 241.849 68.6846 241.708 69.083 241.427C69.4814 241.146 69.792 240.779 70.0146 240.328V233.859H71.5879V243H70.1641L70.1025 241.813H70.0498C69.7217 242.235 69.3174 242.569 68.8369 242.815C68.3564 243.056 67.8262 243.176 67.2461 243.176C66.3262 243.176 65.5938 242.915 65.0488 242.394C64.5039 241.872 64.2314 240.999 64.2314 239.774ZM72.8711 235.072V233.859H78.0654V235.072H72.8711ZM74.5059 240.724V234.58V234.334V231.504H76.0791V240.724C76.0791 241.151 76.1611 241.456 76.3252 241.638C76.4893 241.813 76.75 241.901 77.1074 241.901C77.2656 241.901 77.4238 241.884 77.582 241.849C77.7402 241.813 77.8984 241.767 78.0566 241.708V243C77.9102 243.07 77.7168 243.129 77.4766 243.176C77.2363 243.229 76.9756 243.255 76.6943 243.255C76.0264 243.255 75.4932 243.053 75.0947 242.648C74.7021 242.244 74.5059 241.603 74.5059 240.724ZM79.832 243V233.859H81.4053V243H79.832ZM79.6299 231.047C79.6299 230.777 79.7148 230.552 79.8848 230.37C80.0547 230.188 80.3008 230.098 80.623 230.098C80.9395 230.098 81.1826 230.188 81.3525 230.37C81.5225 230.552 81.6074 230.777 81.6074 231.047C81.6074 231.311 81.5225 231.536 81.3525 231.724C81.1826 231.905 80.9365 231.996 80.6143 231.996C80.2979 231.996 80.0547 231.905 79.8848 231.724C79.7148 231.536 79.6299 231.311 79.6299 231.047ZM83.4883 238.57V238.289C83.4883 236.912 83.8779 235.787 84.6572 234.914C85.4365 234.041 86.4795 233.604 87.7861 233.604C89.0869 233.604 90.127 234.041 90.9062 234.914C91.6855 235.787 92.0752 236.912 92.0752 238.289V238.57C92.0752 239.947 91.6855 241.072 90.9062 241.945C90.127 242.818 89.0869 243.255 87.7861 243.255C86.4795 243.255 85.4365 242.818 84.6572 241.945C83.8779 241.072 83.4883 239.947 83.4883 238.57ZM85.0967 238.289V238.57C85.0967 239.525 85.3223 240.331 85.7734 240.987C86.2246 241.638 86.8926 241.963 87.7773 241.963C88.668 241.963 89.3389 241.638 89.79 240.987C90.2412 240.331 90.4668 239.525 90.4668 238.57V238.289C90.4668 237.334 90.2412 236.531 89.79 235.881C89.3389 235.225 88.668 234.896 87.7773 234.896C86.8926 234.896 86.2246 235.225 85.7734 235.881C85.3223 236.531 85.0967 237.334 85.0967 238.289ZM94.0791 243V233.859H95.5029L95.5732 235.046H95.6172C95.9453 234.624 96.3496 234.293 96.8301 234.053C97.3105 233.807 97.8438 233.684 98.4297 233.684C99.3438 233.684 100.073 233.947 100.618 234.475C101.163 234.996 101.436 235.869 101.436 237.094V243H99.8623V237.085C99.8623 236.341 99.6953 235.811 99.3613 235.494C99.0332 235.172 98.5674 235.011 97.9639 235.011C97.4424 235.011 96.9824 235.151 96.584 235.433C96.1855 235.714 95.875 236.08 95.6523 236.531V243H94.0791ZM103.343 240.293H104.916V240.354C104.916 240.894 105.109 241.298 105.496 241.567C105.889 241.831 106.404 241.963 107.043 241.963C107.688 241.963 108.194 241.837 108.563 241.585C108.938 241.327 109.126 240.99 109.126 240.574C109.126 240.158 108.974 239.842 108.669 239.625C108.37 239.402 107.729 239.174 106.744 238.939C105.766 238.705 104.989 238.38 104.415 237.964C103.847 237.548 103.562 236.965 103.562 236.215C103.562 235.459 103.87 234.835 104.485 234.343C105.106 233.851 105.933 233.604 106.964 233.604C108.001 233.604 108.836 233.851 109.469 234.343C110.102 234.835 110.418 235.506 110.418 236.355V236.408H108.854V236.32C108.854 235.869 108.698 235.521 108.388 235.274C108.077 235.022 107.603 234.896 106.964 234.896C106.325 234.896 105.856 235.014 105.558 235.248C105.265 235.477 105.118 235.772 105.118 236.136C105.118 236.487 105.285 236.766 105.619 236.971C105.959 237.176 106.618 237.396 107.597 237.63C108.575 237.864 109.331 238.198 109.864 238.632C110.403 239.06 110.673 239.678 110.673 240.486C110.673 241.295 110.371 241.96 109.768 242.481C109.164 242.997 108.256 243.255 107.043 243.255C105.836 243.255 104.916 242.991 104.283 242.464C103.656 241.937 103.343 241.233 103.343 240.354V240.293ZM112.791 242.121C112.791 241.828 112.885 241.579 113.072 241.374C113.266 241.163 113.541 241.058 113.898 241.058C114.256 241.058 114.528 241.163 114.716 241.374C114.909 241.579 115.006 241.828 115.006 242.121C115.006 242.42 114.909 242.675 114.716 242.886C114.528 243.091 114.256 243.193 113.898 243.193C113.541 243.193 113.266 243.091 113.072 242.886C112.885 242.675 112.791 242.42 112.791 242.121Z" fill="#B3B3B2"/>
<rect x="40.5" y="290.5" width="67" height="67" rx="33.5" fill="#0F0F0F"/>
<rect x="40.5" y="290.5" width="67" height="67" rx="33.5" stroke="#262626"/>
<path fill-rule="evenodd" clip-rule="evenodd" d="M69.625 314.375L82.75 314.375C82.9821 314.375 83.2046 314.467 83.3687 314.631C83.5328 314.795 83.625 315.018 83.625 315.25V328.375C83.625 328.858 83.2332 329.25 82.75 329.25C82.2668 329.25 81.875 328.858 81.875 328.375V317.362L65.8687 333.369C65.527 333.71 64.973 333.71 64.6313 333.369C64.2896 333.027 64.2896 332.473 64.6313 332.131L80.6376 316.125L69.625 316.125C69.1417 316.125 68.75 315.733 68.75 315.25C68.75 314.767 69.1417 314.375 69.625 314.375Z" fill="#E7BEB1"/>
<path d="M119.459 330.5V317.703H121.085V329.155H127.079V330.5H119.459ZM128.248 326.07V325.789C128.248 324.412 128.623 323.287 129.373 322.414C130.129 321.541 131.125 321.104 132.361 321.104C133.604 321.104 134.556 321.512 135.218 322.326C135.886 323.141 136.22 324.245 136.22 325.64V326.281H129.206V325.016H134.646V324.822C134.646 324.154 134.456 323.583 134.075 323.108C133.7 322.634 133.152 322.396 132.432 322.396C131.57 322.396 130.926 322.725 130.498 323.381C130.07 324.031 129.856 324.834 129.856 325.789V326.07C129.856 327.025 130.082 327.831 130.533 328.487C130.984 329.138 131.679 329.463 132.616 329.463C133.196 329.463 133.694 329.337 134.11 329.085C134.532 328.827 134.875 328.522 135.139 328.171L136.149 328.988C135.868 329.422 135.426 329.826 134.822 330.201C134.219 330.57 133.483 330.755 132.616 330.755C131.21 330.755 130.129 330.321 129.373 329.454C128.623 328.581 128.248 327.453 128.248 326.07ZM137.679 327.819C137.679 326.894 138.045 326.173 138.777 325.657C139.51 325.142 140.444 324.884 141.581 324.884H143.655V324.233C143.655 323.677 143.512 323.229 143.225 322.889C142.938 322.543 142.445 322.37 141.748 322.37C141.051 322.37 140.547 322.514 140.236 322.801C139.932 323.082 139.779 323.419 139.779 323.812V323.864H138.215V323.803C138.215 323.076 138.534 322.446 139.173 321.913C139.817 321.374 140.688 321.104 141.783 321.104C142.879 321.104 143.726 321.365 144.323 321.887C144.927 322.408 145.229 323.19 145.229 324.233V328.391C145.229 328.771 145.258 329.132 145.316 329.472C145.375 329.806 145.457 330.102 145.562 330.359V330.5H144.042C143.96 330.354 143.884 330.163 143.813 329.929C143.749 329.694 143.708 329.46 143.69 329.226C143.479 329.606 143.134 329.943 142.653 330.236C142.173 330.523 141.555 330.667 140.799 330.667C139.926 330.667 139.188 330.424 138.584 329.938C137.98 329.445 137.679 328.739 137.679 327.819ZM139.252 327.731C139.252 328.259 139.404 328.672 139.709 328.971C140.02 329.264 140.494 329.41 141.133 329.41C141.771 329.41 142.352 329.19 142.873 328.751C143.395 328.306 143.655 327.831 143.655 327.327V326.009H141.757C140.931 326.009 140.307 326.164 139.885 326.475C139.463 326.785 139.252 327.204 139.252 327.731ZM147.733 330.5V321.359H149.157L149.228 322.546H149.271C149.506 322.159 149.813 321.822 150.194 321.535C150.575 321.248 151.029 321.104 151.557 321.104C151.686 321.104 151.82 321.119 151.961 321.148C152.102 321.178 152.201 321.204 152.26 321.228V322.687C152.143 322.663 152.02 322.646 151.891 322.634C151.762 322.616 151.621 322.607 151.469 322.607C150.947 322.607 150.502 322.745 150.133 323.021C149.764 323.296 149.488 323.642 149.307 324.058V330.5H147.733ZM153.763 330.5V321.359H155.187L155.257 322.546H155.301C155.629 322.124 156.033 321.793 156.514 321.553C156.994 321.307 157.527 321.184 158.113 321.184C159.027 321.184 159.757 321.447 160.302 321.975C160.847 322.496 161.119 323.369 161.119 324.594V330.5H159.546V324.585C159.546 323.841 159.379 323.311 159.045 322.994C158.717 322.672 158.251 322.511 157.647 322.511C157.126 322.511 156.666 322.651 156.268 322.933C155.869 323.214 155.559 323.58 155.336 324.031V330.5H153.763ZM168.062 330.5V317.703H170.163L173.96 327.406C174.03 327.582 174.095 327.767 174.153 327.96C174.218 328.147 174.273 328.332 174.32 328.514H174.382C174.429 328.332 174.481 328.147 174.54 327.96C174.604 327.767 174.672 327.582 174.742 327.406L178.539 317.703H180.64V330.5H179.066V321.192C179.066 321.011 179.069 320.809 179.075 320.586C179.081 320.363 179.096 320.164 179.119 319.988H179.049C179.014 320.17 178.961 320.372 178.891 320.595C178.82 320.812 178.75 321.011 178.68 321.192L175.041 330.5H173.626L169.987 321.192C169.917 321.011 169.847 320.806 169.776 320.577C169.706 320.349 169.653 320.152 169.618 319.988H169.548C169.571 320.152 169.586 320.349 169.592 320.577C169.598 320.806 169.601 321.011 169.601 321.192V330.5H168.062ZM182.828 326.07V325.789C182.828 324.412 183.218 323.287 183.997 322.414C184.776 321.541 185.819 321.104 187.126 321.104C188.427 321.104 189.467 321.541 190.246 322.414C191.025 323.287 191.415 324.412 191.415 325.789V326.07C191.415 327.447 191.025 328.572 190.246 329.445C189.467 330.318 188.427 330.755 187.126 330.755C185.819 330.755 184.776 330.318 183.997 329.445C183.218 328.572 182.828 327.447 182.828 326.07ZM184.437 325.789V326.07C184.437 327.025 184.662 327.831 185.113 328.487C185.564 329.138 186.232 329.463 187.117 329.463C188.008 329.463 188.679 329.138 189.13 328.487C189.581 327.831 189.807 327.025 189.807 326.07V325.789C189.807 324.834 189.581 324.031 189.13 323.381C188.679 322.725 188.008 322.396 187.117 322.396C186.232 322.396 185.564 322.725 185.113 323.381C184.662 324.031 184.437 324.834 184.437 325.789ZM193.419 330.5V321.359H194.843L194.913 322.546H194.957C195.191 322.159 195.499 321.822 195.88 321.535C196.261 321.248 196.715 321.104 197.242 321.104C197.371 321.104 197.506 321.119 197.646 321.148C197.787 321.178 197.887 321.204 197.945 321.228V322.687C197.828 322.663 197.705 322.646 197.576 322.634C197.447 322.616 197.307 322.607 197.154 322.607C196.633 322.607 196.188 322.745 195.818 323.021C195.449 323.296 195.174 323.642 194.992 324.058V330.5H193.419ZM198.719 326.07V325.789C198.719 324.412 199.094 323.287 199.844 322.414C200.6 321.541 201.596 321.104 202.832 321.104C204.074 321.104 205.026 321.512 205.688 322.326C206.356 323.141 206.69 324.245 206.69 325.64V326.281H199.677V325.016H205.117V324.822C205.117 324.154 204.927 323.583 204.546 323.108C204.171 322.634 203.623 322.396 202.902 322.396C202.041 322.396 201.396 322.725 200.969 323.381C200.541 324.031 200.327 324.834 200.327 325.789V326.07C200.327 327.025 200.553 327.831 201.004 328.487C201.455 329.138 202.149 329.463 203.087 329.463C203.667 329.463 204.165 329.337 204.581 329.085C205.003 328.827 205.346 328.522 205.609 328.171L206.62 328.988C206.339 329.422 205.896 329.826 205.293 330.201C204.689 330.57 203.954 330.755 203.087 330.755C201.681 330.755 200.6 330.321 199.844 329.454C199.094 328.581 198.719 327.453 198.719 326.07Z" fill="#B3B3B2"/>
</svg>
