<svg width="880" height="395" viewBox="0 0 880 395" fill="none" xmlns="http://www.w3.org/2000/svg">
<rect width="880" height="395" rx="14" fill="#1A1A1A"/>
<rect x="80.5" y="80.5" width="65" height="65" rx="11.5" fill="#1F1F1F"/>
<rect x="80.5" y="80.5" width="65" height="65" rx="11.5" stroke="#333333"/>
<path d="M101.731 103.78L103.78 101.731C105.712 99.7992 106.678 98.8334 107.878 98.8334C109.078 98.8334 110.044 99.7992 111.976 101.731L108.561 105.146L101.731 111.976L101.731 111.976C99.7992 110.044 98.8334 109.078 98.8334 107.878C98.8334 106.678 99.7992 105.712 101.731 103.78L101.731 103.78Z" fill="#CE7D63"/>
<path d="M124.269 122.22L122.22 124.269C120.288 126.201 119.323 127.167 118.122 127.167C116.922 127.167 115.956 126.201 114.025 124.269L114.025 124.269L120.854 117.439L124.269 114.024C126.201 115.956 127.167 116.922 127.167 118.122C127.167 119.323 126.201 120.288 124.269 122.22Z" fill="#CE7D63"/>
<path d="M112.15 121.728L112.15 121.728L122.628 111.251C121.202 110.657 119.513 109.682 117.915 108.085C116.318 106.488 115.343 104.798 114.749 103.372L104.272 113.85L104.272 113.85C103.454 114.668 103.045 115.076 102.694 115.527C102.279 116.059 101.923 116.634 101.633 117.243C101.387 117.759 101.204 118.308 100.839 119.405L98.9105 125.189C98.7306 125.729 98.8711 126.324 99.2734 126.727C99.6758 127.129 100.271 127.27 100.811 127.09L106.596 125.161C107.693 124.796 108.241 124.613 108.757 124.367C109.366 124.077 109.941 123.721 110.473 123.306C110.924 122.955 111.333 122.546 112.15 121.728Z" fill="#CE7D63"/>
<path d="M125.535 108.344C127.711 106.168 127.711 102.641 125.535 100.465C123.359 98.2895 119.832 98.2895 117.657 100.465L116.4 101.722C116.417 101.774 116.435 101.826 116.453 101.88C116.914 103.207 117.783 104.948 119.418 106.583C121.053 108.217 122.793 109.086 124.121 109.547C124.174 109.566 124.226 109.583 124.278 109.6L125.535 108.344Z" fill="#CE7D63"/>
<path d="M165.493 123.603L160.425 102.172H163.574L167.09 117.802C167.158 118.085 167.207 118.339 167.236 118.563C167.275 118.778 167.31 119.047 167.339 119.369H167.456C167.495 119.047 167.534 118.778 167.573 118.563C167.612 118.339 167.666 118.085 167.734 117.802L171.572 102.172H174.883L178.838 117.802C178.906 118.085 178.955 118.339 178.984 118.563C179.023 118.778 179.062 119.047 179.102 119.369H179.219C179.248 119.037 179.282 118.764 179.321 118.549C179.36 118.334 179.409 118.085 179.468 117.802L182.896 102.172H185.825L180.786 123.603H177.505L173.521 107.855C173.452 107.592 173.389 107.323 173.33 107.05C173.271 106.767 173.223 106.464 173.184 106.142H173.081C173.042 106.464 172.993 106.762 172.935 107.035C172.886 107.309 172.827 107.582 172.759 107.855L168.76 123.603H165.493ZM188.403 123.5V102.172H201.382V104.735H191.538V111.283H200.02V113.773H191.538V120.966H201.543V123.5H188.403ZM204.487 123.5V102.172H211.548C213.647 102.172 215.278 102.626 216.44 103.534C217.603 104.433 218.184 105.829 218.184 107.724C218.184 108.915 217.91 109.896 217.363 110.668C216.816 111.439 216.128 111.967 215.298 112.25V112.309C216.323 112.602 217.158 113.183 217.803 114.052C218.457 114.911 218.784 116.049 218.784 117.465C218.784 119.379 218.164 120.863 216.924 121.918C215.693 122.973 214.043 123.5 211.973 123.5H204.487ZM207.607 121.068H211.797C213.115 121.068 214.082 120.736 214.697 120.072C215.322 119.398 215.635 118.49 215.635 117.348C215.635 116.195 215.322 115.282 214.697 114.608C214.082 113.925 213.115 113.583 211.797 113.583H207.607V121.068ZM207.607 111.298H211.372C212.681 111.298 213.623 111 214.199 110.404C214.785 109.809 215.078 108.979 215.078 107.914C215.078 106.84 214.785 106.024 214.199 105.468C213.623 104.911 212.681 104.628 211.372 104.618H207.607V111.298ZM228.921 123.5V102.172H235.205C237.92 102.172 240.137 103.065 241.855 104.853C243.574 106.63 244.434 109.076 244.434 112.191V113.466C244.434 116.581 243.579 119.032 241.87 120.819C240.171 122.606 237.949 123.5 235.205 123.5H228.921ZM232.07 121.024H235.132C237.007 121.024 238.486 120.38 239.57 119.091C240.664 117.792 241.211 115.956 241.211 113.583V112.104C241.211 109.721 240.659 107.89 239.556 106.61C238.452 105.321 236.978 104.677 235.132 104.677H232.07V121.024ZM248.022 123.5V102.172H261.001V104.735H251.157V111.283H259.639V113.773H251.157V120.966H261.162V123.5H248.022ZM263.315 117.685V117.128H266.45V117.611C266.45 118.871 266.836 119.813 267.607 120.438C268.379 121.063 269.458 121.376 270.845 121.376C272.231 121.376 273.291 121.068 274.023 120.453C274.766 119.828 275.137 119.008 275.137 117.992C275.137 117.035 274.785 116.278 274.082 115.722C273.379 115.165 272.012 114.574 269.98 113.949C267.803 113.275 266.211 112.475 265.205 111.547C264.199 110.619 263.696 109.306 263.696 107.606C263.696 105.897 264.321 104.501 265.571 103.417C266.821 102.333 268.54 101.791 270.728 101.791C272.886 101.791 274.609 102.343 275.898 103.446C277.197 104.54 277.847 106.01 277.847 107.855V108.295H274.741V107.914C274.741 106.82 274.404 105.946 273.73 105.292C273.057 104.638 272.061 104.311 270.742 104.311C269.395 104.311 268.403 104.594 267.769 105.16C267.144 105.717 266.831 106.479 266.831 107.445C266.831 108.334 267.163 109.037 267.827 109.555C268.501 110.062 269.868 110.634 271.929 111.269C274.077 111.923 275.669 112.748 276.704 113.744C277.739 114.73 278.257 116.098 278.257 117.846C278.257 119.672 277.588 121.137 276.25 122.24C274.912 123.334 273.115 123.881 270.859 123.881C268.604 123.881 266.782 123.344 265.396 122.27C264.009 121.195 263.315 119.667 263.315 117.685ZM281.553 123.5V102.172H284.731V123.5H281.553ZM288.408 113.466V112.206C288.408 108.876 289.204 106.308 290.796 104.501C292.388 102.694 294.507 101.791 297.153 101.791C299.546 101.791 301.406 102.416 302.734 103.666C304.072 104.906 304.775 106.444 304.844 108.28L304.858 108.588H301.709V108.339C301.709 107.255 301.313 106.322 300.522 105.541C299.731 104.75 298.584 104.354 297.08 104.354C295.41 104.354 294.087 105.009 293.11 106.317C292.134 107.626 291.646 109.501 291.646 111.942V113.744C291.646 116.186 292.153 118.065 293.169 119.384C294.185 120.702 295.605 121.361 297.432 121.361C298.369 121.361 299.18 121.259 299.863 121.054C300.547 120.839 301.191 120.502 301.797 120.043V115.224H297.139V112.777H304.858V121.127C304.272 121.762 303.35 122.382 302.09 122.987C300.83 123.583 299.272 123.881 297.417 123.881C294.624 123.881 292.422 122.978 290.811 121.171C289.209 119.364 288.408 116.796 288.408 113.466ZM308.55 123.5V102.172H311.89L320.444 116.864C320.61 117.167 320.767 117.47 320.913 117.772C321.06 118.075 321.182 118.363 321.279 118.637H321.382C321.372 118.324 321.362 117.997 321.353 117.655C321.353 117.304 321.353 116.967 321.353 116.645V102.172H324.238V123.5H320.913L312.344 108.778C312.178 108.485 312.021 108.188 311.875 107.885C311.738 107.582 311.611 107.294 311.494 107.021H311.406C311.416 107.333 311.421 107.67 311.421 108.031C311.431 108.383 311.436 108.715 311.436 109.027V123.5H308.55Z" fill="#F9EFEC"/>
<rect x="605.5" y="80.5" width="51" height="51" rx="25.5" fill="#1F1F1F"/>
<rect x="605.5" y="80.5" width="51" height="51" rx="25.5" stroke="#333333"/>
<path fill-rule="evenodd" clip-rule="evenodd" d="M627.25 97.75L638.5 97.75C638.699 97.75 638.89 97.829 639.03 97.9697C639.171 98.1103 639.25 98.3011 639.25 98.5V109.75C639.25 110.164 638.914 110.5 638.5 110.5C638.086 110.5 637.75 110.164 637.75 109.75V100.311L624.03 114.03C623.737 114.323 623.263 114.323 622.97 114.03C622.677 113.737 622.677 113.263 622.97 112.97L636.689 99.25L627.25 99.25C626.836 99.25 626.5 98.9142 626.5 98.5C626.5 98.0858 626.836 97.75 627.25 97.75Z" fill="#E7BEB1"/>
<path d="M668.436 114V99.7812H672.986C673.676 99.7812 674.324 99.8594 674.93 100.016C675.535 100.165 676.059 100.396 676.502 100.709C676.945 101.021 677.29 101.422 677.537 101.91C677.791 102.392 677.918 102.965 677.918 103.629C677.911 104.033 677.84 104.41 677.703 104.762C677.573 105.107 677.384 105.413 677.137 105.68C676.961 105.875 676.762 106.048 676.541 106.197C676.326 106.34 676.076 106.471 675.789 106.588V106.607C676.212 106.718 676.574 106.881 676.873 107.096C677.173 107.304 677.423 107.542 677.625 107.809C677.833 108.095 677.99 108.414 678.094 108.766C678.204 109.111 678.26 109.475 678.26 109.859C678.266 110.536 678.146 111.132 677.898 111.646C677.651 112.161 677.309 112.59 676.873 112.936C676.437 113.287 675.916 113.554 675.311 113.736C674.712 113.912 674.061 114 673.357 114H668.436ZM670.799 107.574V112.066H673.377C673.748 112.066 674.087 112.014 674.393 111.91C674.699 111.806 674.959 111.663 675.174 111.48C675.408 111.292 675.587 111.061 675.711 110.787C675.841 110.507 675.906 110.198 675.906 109.859C675.906 109.501 675.854 109.186 675.75 108.912C675.646 108.632 675.49 108.395 675.281 108.199C675.073 108.004 674.819 107.854 674.52 107.75C674.22 107.639 673.878 107.581 673.494 107.574H670.799ZM670.799 105.787H673.035C673.419 105.781 673.771 105.729 674.09 105.631C674.415 105.533 674.689 105.39 674.91 105.201C675.112 105.032 675.271 104.827 675.389 104.586C675.506 104.345 675.564 104.068 675.564 103.756C675.564 103.424 675.509 103.137 675.398 102.896C675.294 102.649 675.145 102.447 674.949 102.291C674.728 102.096 674.451 101.956 674.119 101.871C673.787 101.78 673.419 101.731 673.016 101.725H670.799V105.787ZM690.105 107.838C690.105 108.411 690.053 108.964 689.949 109.498C689.852 110.032 689.708 110.536 689.52 111.012C689.318 111.487 689.067 111.926 688.768 112.33C688.468 112.727 688.123 113.069 687.732 113.355C687.355 113.616 686.935 113.821 686.473 113.971C686.017 114.12 685.516 114.195 684.969 114.195C684.402 114.195 683.882 114.117 683.406 113.961C682.938 113.798 682.518 113.577 682.146 113.297C681.769 113.01 681.437 112.665 681.15 112.262C680.87 111.858 680.636 111.415 680.447 110.934C680.265 110.471 680.128 109.98 680.037 109.459C679.946 108.932 679.9 108.391 679.9 107.838V105.963C679.9 105.383 679.949 104.824 680.047 104.283C680.145 103.743 680.291 103.232 680.486 102.75C680.675 102.288 680.906 101.865 681.18 101.48C681.46 101.09 681.788 100.751 682.166 100.465C682.531 100.185 682.944 99.9701 683.406 99.8203C683.875 99.6641 684.389 99.5859 684.949 99.5859C685.516 99.5859 686.036 99.6641 686.512 99.8203C686.987 99.9766 687.413 100.195 687.791 100.475C688.169 100.755 688.497 101.083 688.777 101.461C689.057 101.839 689.292 102.252 689.48 102.701C689.689 103.183 689.845 103.701 689.949 104.254C690.053 104.801 690.105 105.37 690.105 105.963V107.838ZM687.742 105.943C687.736 105.585 687.713 105.234 687.674 104.889C687.641 104.544 687.583 104.215 687.498 103.902C687.4 103.544 687.27 103.219 687.107 102.926C686.951 102.626 686.759 102.372 686.531 102.164C686.329 101.982 686.098 101.839 685.838 101.734C685.577 101.63 685.281 101.578 684.949 101.578C684.63 101.578 684.344 101.63 684.09 101.734C683.836 101.832 683.615 101.969 683.426 102.145C683.198 102.359 683.006 102.617 682.85 102.916C682.693 103.209 682.573 103.538 682.488 103.902C682.41 104.215 682.352 104.547 682.312 104.898C682.28 105.243 682.264 105.592 682.264 105.943V107.838C682.264 108.183 682.28 108.525 682.312 108.863C682.345 109.202 682.4 109.527 682.479 109.84C682.563 110.191 682.677 110.52 682.82 110.826C682.97 111.126 683.149 111.38 683.357 111.588C683.559 111.783 683.79 111.939 684.051 112.057C684.318 112.167 684.624 112.223 684.969 112.223C685.301 112.223 685.6 112.167 685.867 112.057C686.141 111.946 686.375 111.796 686.57 111.607C686.798 111.393 686.987 111.139 687.137 110.846C687.293 110.546 687.417 110.217 687.508 109.859C687.586 109.547 687.641 109.221 687.674 108.883C687.713 108.538 687.736 108.189 687.742 107.838V105.943ZM702.117 107.838C702.117 108.411 702.065 108.964 701.961 109.498C701.863 110.032 701.72 110.536 701.531 111.012C701.329 111.487 701.079 111.926 700.779 112.33C700.48 112.727 700.135 113.069 699.744 113.355C699.367 113.616 698.947 113.821 698.484 113.971C698.029 114.12 697.527 114.195 696.98 114.195C696.414 114.195 695.893 114.117 695.418 113.961C694.949 113.798 694.529 113.577 694.158 113.297C693.781 113.01 693.449 112.665 693.162 112.262C692.882 111.858 692.648 111.415 692.459 110.934C692.277 110.471 692.14 109.98 692.049 109.459C691.958 108.932 691.912 108.391 691.912 107.838V105.963C691.912 105.383 691.961 104.824 692.059 104.283C692.156 103.743 692.303 103.232 692.498 102.75C692.687 102.288 692.918 101.865 693.191 101.48C693.471 101.09 693.8 100.751 694.178 100.465C694.542 100.185 694.956 99.9701 695.418 99.8203C695.887 99.6641 696.401 99.5859 696.961 99.5859C697.527 99.5859 698.048 99.6641 698.523 99.8203C698.999 99.9766 699.425 100.195 699.803 100.475C700.18 100.755 700.509 101.083 700.789 101.461C701.069 101.839 701.303 102.252 701.492 102.701C701.701 103.183 701.857 103.701 701.961 104.254C702.065 104.801 702.117 105.37 702.117 105.963V107.838ZM699.754 105.943C699.747 105.585 699.725 105.234 699.686 104.889C699.653 104.544 699.594 104.215 699.51 103.902C699.412 103.544 699.282 103.219 699.119 102.926C698.963 102.626 698.771 102.372 698.543 102.164C698.341 101.982 698.11 101.839 697.85 101.734C697.589 101.63 697.293 101.578 696.961 101.578C696.642 101.578 696.355 101.63 696.102 101.734C695.848 101.832 695.626 101.969 695.438 102.145C695.21 102.359 695.018 102.617 694.861 102.916C694.705 103.209 694.585 103.538 694.5 103.902C694.422 104.215 694.363 104.547 694.324 104.898C694.292 105.243 694.275 105.592 694.275 105.943V107.838C694.275 108.183 694.292 108.525 694.324 108.863C694.357 109.202 694.412 109.527 694.49 109.84C694.575 110.191 694.689 110.52 694.832 110.826C694.982 111.126 695.161 111.38 695.369 111.588C695.571 111.783 695.802 111.939 696.062 112.057C696.329 112.167 696.635 112.223 696.98 112.223C697.312 112.223 697.612 112.167 697.879 112.057C698.152 111.946 698.387 111.796 698.582 111.607C698.81 111.393 698.999 111.139 699.148 110.846C699.305 110.546 699.428 110.217 699.52 109.859C699.598 109.547 699.653 109.221 699.686 108.883C699.725 108.538 699.747 108.189 699.754 107.838V105.943ZM708.377 107.838L706.844 109.557V114H704.471V99.7812H706.844V106.471L708.172 104.742L711.922 99.7812H714.793L709.93 106.041L715.037 114H712.225L708.377 107.838ZM735.418 110.729H730.955L729.988 114H727.547L732.176 99.7812H734.256L738.807 114H736.375L735.418 110.729ZM731.551 108.717H734.842L733.211 103.092L731.551 108.717ZM762.137 109.625C762.072 110.315 761.909 110.943 761.648 111.51C761.388 112.07 761.046 112.548 760.623 112.945C760.193 113.349 759.682 113.661 759.09 113.883C758.504 114.098 757.853 114.205 757.137 114.205C756.551 114.205 756.01 114.127 755.516 113.971C755.027 113.808 754.591 113.58 754.207 113.287C753.836 113.014 753.51 112.685 753.23 112.301C752.957 111.91 752.726 111.484 752.537 111.021C752.348 110.566 752.205 110.071 752.107 109.537C752.016 109.003 751.971 108.447 751.971 107.867V105.924C751.971 105.37 752.016 104.837 752.107 104.322C752.199 103.808 752.335 103.323 752.518 102.867C752.713 102.359 752.964 101.9 753.27 101.49C753.582 101.074 753.94 100.719 754.344 100.426C754.728 100.159 755.151 99.9505 755.613 99.8008C756.082 99.651 756.593 99.5762 757.146 99.5762C757.895 99.5762 758.562 99.6868 759.148 99.9082C759.741 100.13 760.245 100.442 760.662 100.846C761.085 101.256 761.417 101.751 761.658 102.33C761.906 102.91 762.065 103.554 762.137 104.264H759.793C759.754 103.84 759.673 103.46 759.549 103.121C759.432 102.776 759.269 102.483 759.061 102.242C758.846 102.001 758.582 101.819 758.27 101.695C757.957 101.565 757.583 101.5 757.146 101.5C756.84 101.5 756.564 101.542 756.316 101.627C756.076 101.712 755.861 101.832 755.672 101.988C755.411 102.177 755.193 102.424 755.018 102.73C754.848 103.03 754.708 103.365 754.598 103.736C754.513 104.062 754.448 104.41 754.402 104.781C754.363 105.146 754.344 105.52 754.344 105.904V107.867C754.344 108.342 754.37 108.788 754.422 109.205C754.48 109.622 754.568 110.003 754.686 110.348C754.777 110.634 754.891 110.895 755.027 111.129C755.171 111.363 755.34 111.565 755.535 111.734C755.737 111.917 755.968 112.057 756.229 112.154C756.495 112.245 756.798 112.291 757.137 112.291C757.54 112.291 757.898 112.232 758.211 112.115C758.523 111.998 758.79 111.826 759.012 111.598C759.227 111.376 759.399 111.1 759.529 110.768C759.66 110.436 759.744 110.055 759.783 109.625H762.137ZM771.453 110.729H766.99L766.023 114H763.582L768.211 99.7812H770.291L774.842 114H772.41L771.453 110.729ZM767.586 108.717H770.877L769.246 103.092L767.586 108.717ZM779.119 112.066H785.906V114H776.766V99.7812H779.119V112.066ZM791.131 112.066H797.918V114H788.777V99.7812H791.131V112.066Z" fill="#B3B3B2"/>
<path d="M80.9844 209.997V209.206C80.9844 207.214 81.4795 205.673 82.4697 204.583C83.4658 203.493 84.7432 202.948 86.3018 202.948C87.8604 202.948 89.1348 203.493 90.125 204.583C91.1211 205.673 91.6191 207.214 91.6191 209.206V209.997C91.6191 211.989 91.1211 213.53 90.125 214.62C89.1348 215.71 87.8604 216.255 86.3018 216.255C84.7432 216.255 83.4658 215.71 82.4697 214.62C81.4795 213.53 80.9844 211.989 80.9844 209.997ZM82.6279 209.997C82.6279 211.538 82.9619 212.736 83.6299 213.592C84.3037 214.441 85.1943 214.866 86.3018 214.866C87.4092 214.866 88.2998 214.441 88.9736 213.592C89.6475 212.736 89.9844 211.538 89.9844 209.997V209.206C89.9844 207.665 89.6475 206.47 88.9736 205.62C88.2998 204.765 87.4092 204.337 86.3018 204.337C85.1943 204.337 84.3037 204.765 83.6299 205.62C82.9619 206.47 82.6279 207.665 82.6279 209.206V209.997ZM93.8076 212.774V206.859H95.3809V212.792C95.3809 213.53 95.5449 214.058 95.873 214.374C96.207 214.69 96.6787 214.849 97.2881 214.849C97.8037 214.849 98.2607 214.708 98.6592 214.427C99.0576 214.146 99.3682 213.779 99.5908 213.328V206.859H101.164V216H99.7402L99.6787 214.813H99.626C99.2979 215.235 98.8936 215.569 98.4131 215.815C97.9326 216.056 97.4023 216.176 96.8223 216.176C95.9023 216.176 95.1699 215.915 94.625 215.394C94.0801 214.872 93.8076 213.999 93.8076 212.774ZM103.722 216V206.859H105.146L105.216 208.046H105.26C105.494 207.659 105.802 207.322 106.183 207.035C106.563 206.748 107.018 206.604 107.545 206.604C107.674 206.604 107.809 206.619 107.949 206.648C108.09 206.678 108.189 206.704 108.248 206.728V208.187C108.131 208.163 108.008 208.146 107.879 208.134C107.75 208.116 107.609 208.107 107.457 208.107C106.936 208.107 106.49 208.245 106.121 208.521C105.752 208.796 105.477 209.142 105.295 209.558V216H103.722ZM116.299 216.088L113.17 203.203H114.796L116.993 212.774C117.04 212.968 117.072 213.126 117.09 213.249C117.113 213.372 117.137 213.53 117.16 213.724H117.239C117.263 213.53 117.286 213.372 117.31 213.249C117.333 213.126 117.368 212.968 117.415 212.774L119.814 203.203H121.476L123.954 212.774C124.007 212.968 124.042 213.126 124.06 213.249C124.083 213.372 124.106 213.53 124.13 213.724H124.209C124.232 213.53 124.256 213.372 124.279 213.249C124.303 213.126 124.335 212.968 124.376 212.774L126.494 203.203H128.094L124.974 216.088H123.383L120.896 206.473C120.849 206.285 120.805 206.104 120.764 205.928C120.729 205.746 120.696 205.559 120.667 205.365H120.597C120.567 205.559 120.535 205.746 120.5 205.928C120.465 206.104 120.421 206.285 120.368 206.473L117.881 216.088H116.299ZM128.938 211.57V211.289C128.938 209.912 129.312 208.787 130.062 207.914C130.818 207.041 131.814 206.604 133.051 206.604C134.293 206.604 135.245 207.012 135.907 207.826C136.575 208.641 136.909 209.745 136.909 211.14V211.781H129.896V210.516H135.336V210.322C135.336 209.654 135.146 209.083 134.765 208.608C134.39 208.134 133.842 207.896 133.121 207.896C132.26 207.896 131.615 208.225 131.188 208.881C130.76 209.531 130.546 210.334 130.546 211.289V211.57C130.546 212.525 130.771 213.331 131.223 213.987C131.674 214.638 132.368 214.963 133.306 214.963C133.886 214.963 134.384 214.837 134.8 214.585C135.222 214.327 135.564 214.022 135.828 213.671L136.839 214.488C136.558 214.922 136.115 215.326 135.512 215.701C134.908 216.07 134.173 216.255 133.306 216.255C131.899 216.255 130.818 215.821 130.062 214.954C129.312 214.081 128.938 212.953 128.938 211.57ZM138.878 216V202.562H140.451V207.949C140.721 207.568 141.081 207.264 141.532 207.035C141.989 206.801 142.537 206.684 143.176 206.684C144.33 206.684 145.253 207.117 145.944 207.984C146.636 208.852 146.981 209.95 146.981 211.28V211.562C146.981 212.897 146.636 214.002 145.944 214.875C145.253 215.742 144.33 216.176 143.176 216.176C142.537 216.176 141.975 216.044 141.488 215.78C141.008 215.511 140.65 215.186 140.416 214.805H140.372L140.302 216H138.878ZM140.451 213.311C140.639 213.721 140.935 214.087 141.339 214.409C141.749 214.726 142.25 214.884 142.842 214.884C143.709 214.884 144.348 214.564 144.758 213.926C145.168 213.287 145.373 212.499 145.373 211.562V211.28C145.373 210.343 145.168 209.561 144.758 208.934C144.348 208.301 143.706 207.984 142.833 207.984C142.247 207.984 141.749 208.146 141.339 208.468C140.929 208.784 140.633 209.147 140.451 209.558V213.311ZM153.459 216V203.203H157.177C158.812 203.203 160.162 203.745 161.229 204.829C162.301 205.907 162.837 207.366 162.837 209.206V209.997C162.837 211.831 162.301 213.29 161.229 214.374C160.162 215.458 158.812 216 157.177 216H153.459ZM155.085 214.655H157.177C158.407 214.655 159.386 214.245 160.112 213.425C160.839 212.604 161.202 211.462 161.202 209.997V209.206C161.202 207.741 160.836 206.599 160.104 205.778C159.377 204.958 158.401 204.548 157.177 204.548H155.085V214.655ZM164.551 211.57V211.289C164.551 209.912 164.926 208.787 165.676 207.914C166.432 207.041 167.428 206.604 168.664 206.604C169.906 206.604 170.858 207.012 171.521 207.826C172.188 208.641 172.522 209.745 172.522 211.14V211.781H165.509V210.516H170.949V210.322C170.949 209.654 170.759 209.083 170.378 208.608C170.003 208.134 169.455 207.896 168.734 207.896C167.873 207.896 167.229 208.225 166.801 208.881C166.373 209.531 166.159 210.334 166.159 211.289V211.57C166.159 212.525 166.385 213.331 166.836 213.987C167.287 214.638 167.981 214.963 168.919 214.963C169.499 214.963 169.997 214.837 170.413 214.585C170.835 214.327 171.178 214.022 171.441 213.671L172.452 214.488C172.171 214.922 171.729 215.326 171.125 215.701C170.521 216.07 169.786 216.255 168.919 216.255C167.513 216.255 166.432 215.821 165.676 214.954C164.926 214.081 164.551 212.953 164.551 211.57ZM173.929 213.293H175.502V213.354C175.502 213.894 175.695 214.298 176.082 214.567C176.475 214.831 176.99 214.963 177.629 214.963C178.273 214.963 178.78 214.837 179.149 214.585C179.524 214.327 179.712 213.99 179.712 213.574C179.712 213.158 179.56 212.842 179.255 212.625C178.956 212.402 178.314 212.174 177.33 211.939C176.352 211.705 175.575 211.38 175.001 210.964C174.433 210.548 174.148 209.965 174.148 209.215C174.148 208.459 174.456 207.835 175.071 207.343C175.692 206.851 176.519 206.604 177.55 206.604C178.587 206.604 179.422 206.851 180.055 207.343C180.688 207.835 181.004 208.506 181.004 209.355V209.408H179.439V209.32C179.439 208.869 179.284 208.521 178.974 208.274C178.663 208.022 178.188 207.896 177.55 207.896C176.911 207.896 176.442 208.014 176.144 208.248C175.851 208.477 175.704 208.772 175.704 209.136C175.704 209.487 175.871 209.766 176.205 209.971C176.545 210.176 177.204 210.396 178.183 210.63C179.161 210.864 179.917 211.198 180.45 211.632C180.989 212.06 181.259 212.678 181.259 213.486C181.259 214.295 180.957 214.96 180.354 215.481C179.75 215.997 178.842 216.255 177.629 216.255C176.422 216.255 175.502 215.991 174.869 215.464C174.242 214.937 173.929 214.233 173.929 213.354V213.293ZM183.324 216V206.859H184.897V216H183.324ZM183.122 204.047C183.122 203.777 183.207 203.552 183.377 203.37C183.547 203.188 183.793 203.098 184.115 203.098C184.432 203.098 184.675 203.188 184.845 203.37C185.015 203.552 185.1 203.777 185.1 204.047C185.1 204.311 185.015 204.536 184.845 204.724C184.675 204.905 184.429 204.996 184.106 204.996C183.79 204.996 183.547 204.905 183.377 204.724C183.207 204.536 183.122 204.311 183.122 204.047ZM187.332 218.522L188.308 217.336C188.565 217.629 188.926 217.887 189.389 218.109C189.857 218.338 190.385 218.452 190.971 218.452C191.75 218.452 192.368 218.224 192.825 217.767C193.282 217.315 193.511 216.665 193.511 215.815V214.91C193.241 215.285 192.881 215.59 192.43 215.824C191.979 216.053 191.431 216.167 190.786 216.167C189.632 216.167 188.709 215.733 188.018 214.866C187.326 213.999 186.98 212.9 186.98 211.57V211.289C186.98 209.959 187.326 208.86 188.018 207.993C188.709 207.12 189.635 206.684 190.795 206.684C191.434 206.684 191.993 206.818 192.474 207.088C192.954 207.352 193.312 207.674 193.546 208.055H193.59L193.66 206.859H195.084V215.815C195.084 217.11 194.706 218.104 193.95 218.795C193.2 219.486 192.219 219.832 191.006 219.832C190.256 219.832 189.564 219.709 188.932 219.463C188.299 219.217 187.766 218.903 187.332 218.522ZM188.589 211.57C188.589 212.508 188.794 213.293 189.204 213.926C189.614 214.559 190.259 214.875 191.138 214.875C191.718 214.875 192.213 214.717 192.623 214.4C193.033 214.078 193.329 213.712 193.511 213.302V209.558C193.329 209.147 193.033 208.784 192.623 208.468C192.213 208.146 191.718 207.984 191.138 207.984C190.259 207.984 189.614 208.301 189.204 208.934C188.794 209.566 188.589 210.352 188.589 211.289V211.57ZM197.642 216V206.859H199.065L199.136 208.046H199.18C199.508 207.624 199.912 207.293 200.393 207.053C200.873 206.807 201.406 206.684 201.992 206.684C202.906 206.684 203.636 206.947 204.181 207.475C204.726 207.996 204.998 208.869 204.998 210.094V216H203.425V210.085C203.425 209.341 203.258 208.811 202.924 208.494C202.596 208.172 202.13 208.011 201.526 208.011C201.005 208.011 200.545 208.151 200.146 208.433C199.748 208.714 199.438 209.08 199.215 209.531V216H197.642ZM211.194 213.293H212.768V213.354C212.768 213.894 212.961 214.298 213.348 214.567C213.74 214.831 214.256 214.963 214.895 214.963C215.539 214.963 216.046 214.837 216.415 214.585C216.79 214.327 216.978 213.99 216.978 213.574C216.978 213.158 216.825 212.842 216.521 212.625C216.222 212.402 215.58 212.174 214.596 211.939C213.617 211.705 212.841 211.38 212.267 210.964C211.698 210.548 211.414 209.965 211.414 209.215C211.414 208.459 211.722 207.835 212.337 207.343C212.958 206.851 213.784 206.604 214.815 206.604C215.853 206.604 216.688 206.851 217.32 207.343C217.953 207.835 218.27 208.506 218.27 209.355V209.408H216.705V209.32C216.705 208.869 216.55 208.521 216.239 208.274C215.929 208.022 215.454 207.896 214.815 207.896C214.177 207.896 213.708 208.014 213.409 208.248C213.116 208.477 212.97 208.772 212.97 209.136C212.97 209.487 213.137 209.766 213.471 209.971C213.811 210.176 214.47 210.396 215.448 210.63C216.427 210.864 217.183 211.198 217.716 211.632C218.255 212.06 218.524 212.678 218.524 213.486C218.524 214.295 218.223 214.96 217.619 215.481C217.016 215.997 216.107 216.255 214.895 216.255C213.688 216.255 212.768 215.991 212.135 215.464C211.508 214.937 211.194 214.233 211.194 213.354V213.293ZM219.957 211.57V211.289C219.957 209.912 220.332 208.787 221.082 207.914C221.838 207.041 222.834 206.604 224.07 206.604C225.312 206.604 226.265 207.012 226.927 207.826C227.595 208.641 227.929 209.745 227.929 211.14V211.781H220.915V210.516H226.355V210.322C226.355 209.654 226.165 209.083 225.784 208.608C225.409 208.134 224.861 207.896 224.141 207.896C223.279 207.896 222.635 208.225 222.207 208.881C221.779 209.531 221.565 210.334 221.565 211.289V211.57C221.565 212.525 221.791 213.331 222.242 213.987C222.693 214.638 223.388 214.963 224.325 214.963C224.905 214.963 225.403 214.837 225.819 214.585C226.241 214.327 226.584 214.022 226.848 213.671L227.858 214.488C227.577 214.922 227.135 215.326 226.531 215.701C225.928 216.07 225.192 216.255 224.325 216.255C222.919 216.255 221.838 215.821 221.082 214.954C220.332 214.081 219.957 212.953 219.957 211.57ZM229.897 216V206.859H231.321L231.392 208.046H231.436C231.67 207.659 231.978 207.322 232.358 207.035C232.739 206.748 233.193 206.604 233.721 206.604C233.85 206.604 233.984 206.619 234.125 206.648C234.266 206.678 234.365 206.704 234.424 206.728V208.187C234.307 208.163 234.184 208.146 234.055 208.134C233.926 208.116 233.785 208.107 233.633 208.107C233.111 208.107 232.666 208.245 232.297 208.521C231.928 208.796 231.652 209.142 231.471 209.558V216H229.897ZM234.846 206.859H236.375L238.599 213.012C238.681 213.246 238.751 213.466 238.81 213.671C238.868 213.87 238.909 214.028 238.933 214.146H238.985C239.009 214.028 239.05 213.87 239.108 213.671C239.167 213.466 239.237 213.246 239.319 213.012L241.525 206.859H243.028L239.548 216H238.326L234.846 206.859ZM244.391 216V206.859H245.964V216H244.391ZM244.188 204.047C244.188 203.777 244.273 203.552 244.443 203.37C244.613 203.188 244.859 203.098 245.182 203.098C245.498 203.098 245.741 203.188 245.911 203.37C246.081 203.552 246.166 203.777 246.166 204.047C246.166 204.311 246.081 204.536 245.911 204.724C245.741 204.905 245.495 204.996 245.173 204.996C244.856 204.996 244.613 204.905 244.443 204.724C244.273 204.536 244.188 204.311 244.188 204.047ZM248.047 211.57V211.289C248.047 209.906 248.419 208.781 249.163 207.914C249.913 207.041 250.941 206.604 252.248 206.604C253.461 206.604 254.381 206.933 255.008 207.589C255.635 208.239 255.948 208.975 255.948 209.795V209.848H254.419V209.795C254.419 209.285 254.246 208.843 253.9 208.468C253.555 208.087 253.004 207.896 252.248 207.896C251.369 207.896 250.716 208.222 250.288 208.872C249.866 209.522 249.655 210.328 249.655 211.289V211.57C249.655 212.525 249.866 213.331 250.288 213.987C250.71 214.638 251.363 214.963 252.248 214.963C253.004 214.963 253.555 214.775 253.9 214.4C254.252 214.02 254.428 213.571 254.428 213.056V213.003H255.948V213.056C255.948 213.882 255.632 214.623 254.999 215.279C254.372 215.93 253.455 216.255 252.248 216.255C250.941 216.255 249.913 215.821 249.163 214.954C248.419 214.081 248.047 212.953 248.047 211.57ZM257.275 211.57V211.289C257.275 209.912 257.65 208.787 258.4 207.914C259.156 207.041 260.152 206.604 261.389 206.604C262.631 206.604 263.583 207.012 264.245 207.826C264.913 208.641 265.247 209.745 265.247 211.14V211.781H258.233V210.516H263.674V210.322C263.674 209.654 263.483 209.083 263.103 208.608C262.728 208.134 262.18 207.896 261.459 207.896C260.598 207.896 259.953 208.225 259.525 208.881C259.098 209.531 258.884 210.334 258.884 211.289V211.57C258.884 212.525 259.109 213.331 259.561 213.987C260.012 214.638 260.706 214.963 261.644 214.963C262.224 214.963 262.722 214.837 263.138 214.585C263.56 214.327 263.902 214.022 264.166 213.671L265.177 214.488C264.896 214.922 264.453 215.326 263.85 215.701C263.246 216.07 262.511 216.255 261.644 216.255C260.237 216.255 259.156 215.821 258.4 214.954C257.65 214.081 257.275 212.953 257.275 211.57ZM271.584 216V206.859H273.157V216H271.584ZM271.382 204.047C271.382 203.777 271.467 203.552 271.637 203.37C271.807 203.188 272.053 203.098 272.375 203.098C272.691 203.098 272.935 203.188 273.104 203.37C273.274 203.552 273.359 203.777 273.359 204.047C273.359 204.311 273.274 204.536 273.104 204.724C272.935 204.905 272.688 204.996 272.366 204.996C272.05 204.996 271.807 204.905 271.637 204.724C271.467 204.536 271.382 204.311 271.382 204.047ZM275.231 213.293H276.805V213.354C276.805 213.894 276.998 214.298 277.385 214.567C277.777 214.831 278.293 214.963 278.932 214.963C279.576 214.963 280.083 214.837 280.452 214.585C280.827 214.327 281.015 213.99 281.015 213.574C281.015 213.158 280.862 212.842 280.558 212.625C280.259 212.402 279.617 212.174 278.633 211.939C277.654 211.705 276.878 211.38 276.304 210.964C275.735 210.548 275.451 209.965 275.451 209.215C275.451 208.459 275.759 207.835 276.374 207.343C276.995 206.851 277.821 206.604 278.853 206.604C279.89 206.604 280.725 206.851 281.357 207.343C281.99 207.835 282.307 208.506 282.307 209.355V209.408H280.742V209.32C280.742 208.869 280.587 208.521 280.276 208.274C279.966 208.022 279.491 207.896 278.853 207.896C278.214 207.896 277.745 208.014 277.446 208.248C277.153 208.477 277.007 208.772 277.007 209.136C277.007 209.487 277.174 209.766 277.508 209.971C277.848 210.176 278.507 210.396 279.485 210.63C280.464 210.864 281.22 211.198 281.753 211.632C282.292 212.06 282.562 212.678 282.562 213.486C282.562 214.295 282.26 214.96 281.656 215.481C281.053 215.997 280.145 216.255 278.932 216.255C277.725 216.255 276.805 215.991 276.172 215.464C275.545 214.937 275.231 214.233 275.231 213.354V213.293ZM288.327 213.319C288.327 212.394 288.693 211.673 289.426 211.157C290.158 210.642 291.093 210.384 292.229 210.384H294.304V209.733C294.304 209.177 294.16 208.729 293.873 208.389C293.586 208.043 293.094 207.87 292.396 207.87C291.699 207.87 291.195 208.014 290.885 208.301C290.58 208.582 290.428 208.919 290.428 209.312V209.364H288.863V209.303C288.863 208.576 289.183 207.946 289.821 207.413C290.466 206.874 291.336 206.604 292.432 206.604C293.527 206.604 294.374 206.865 294.972 207.387C295.575 207.908 295.877 208.69 295.877 209.733V213.891C295.877 214.271 295.906 214.632 295.965 214.972C296.023 215.306 296.105 215.602 296.211 215.859V216H294.69C294.608 215.854 294.532 215.663 294.462 215.429C294.397 215.194 294.356 214.96 294.339 214.726C294.128 215.106 293.782 215.443 293.302 215.736C292.821 216.023 292.203 216.167 291.447 216.167C290.574 216.167 289.836 215.924 289.232 215.438C288.629 214.945 288.327 214.239 288.327 213.319ZM289.9 213.231C289.9 213.759 290.053 214.172 290.357 214.471C290.668 214.764 291.143 214.91 291.781 214.91C292.42 214.91 293 214.69 293.521 214.251C294.043 213.806 294.304 213.331 294.304 212.827V211.509H292.405C291.579 211.509 290.955 211.664 290.533 211.975C290.111 212.285 289.9 212.704 289.9 213.231ZM298.452 216V202.562H300.025V216H298.452ZM302.706 216V202.562H304.279V216H302.706ZM310.669 213.319C310.669 212.394 311.035 211.673 311.768 211.157C312.5 210.642 313.435 210.384 314.571 210.384H316.646V209.733C316.646 209.177 316.502 208.729 316.215 208.389C315.928 208.043 315.436 207.87 314.738 207.87C314.041 207.87 313.537 208.014 313.227 208.301C312.922 208.582 312.77 208.919 312.77 209.312V209.364H311.205V209.303C311.205 208.576 311.524 207.946 312.163 207.413C312.808 206.874 313.678 206.604 314.773 206.604C315.869 206.604 316.716 206.865 317.313 207.387C317.917 207.908 318.219 208.69 318.219 209.733V213.891C318.219 214.271 318.248 214.632 318.307 214.972C318.365 215.306 318.447 215.602 318.553 215.859V216H317.032C316.95 215.854 316.874 215.663 316.804 215.429C316.739 215.194 316.698 214.96 316.681 214.726C316.47 215.106 316.124 215.443 315.644 215.736C315.163 216.023 314.545 216.167 313.789 216.167C312.916 216.167 312.178 215.924 311.574 215.438C310.971 214.945 310.669 214.239 310.669 213.319ZM312.242 213.231C312.242 213.759 312.395 214.172 312.699 214.471C313.01 214.764 313.484 214.91 314.123 214.91C314.762 214.91 315.342 214.69 315.863 214.251C316.385 213.806 316.646 213.331 316.646 212.827V211.509H314.747C313.921 211.509 313.297 211.664 312.875 211.975C312.453 212.285 312.242 212.704 312.242 213.231ZM320.724 216V202.562H322.297V207.949C322.566 207.568 322.927 207.264 323.378 207.035C323.835 206.801 324.383 206.684 325.021 206.684C326.176 206.684 327.099 207.117 327.79 207.984C328.481 208.852 328.827 209.95 328.827 211.28V211.562C328.827 212.897 328.481 214.002 327.79 214.875C327.099 215.742 326.176 216.176 325.021 216.176C324.383 216.176 323.82 216.044 323.334 215.78C322.854 215.511 322.496 215.186 322.262 214.805H322.218L322.147 216H320.724ZM322.297 213.311C322.484 213.721 322.78 214.087 323.185 214.409C323.595 214.726 324.096 214.884 324.688 214.884C325.555 214.884 326.193 214.564 326.604 213.926C327.014 213.287 327.219 212.499 327.219 211.562V211.28C327.219 210.343 327.014 209.561 326.604 208.934C326.193 208.301 325.552 207.984 324.679 207.984C324.093 207.984 323.595 208.146 323.185 208.468C322.774 208.784 322.479 209.147 322.297 209.558V213.311ZM330.277 211.57V211.289C330.277 209.912 330.667 208.787 331.446 207.914C332.226 207.041 333.269 206.604 334.575 206.604C335.876 206.604 336.916 207.041 337.695 207.914C338.475 208.787 338.864 209.912 338.864 211.289V211.57C338.864 212.947 338.475 214.072 337.695 214.945C336.916 215.818 335.876 216.255 334.575 216.255C333.269 216.255 332.226 215.818 331.446 214.945C330.667 214.072 330.277 212.947 330.277 211.57ZM331.886 211.289V211.57C331.886 212.525 332.111 213.331 332.562 213.987C333.014 214.638 333.682 214.963 334.566 214.963C335.457 214.963 336.128 214.638 336.579 213.987C337.03 213.331 337.256 212.525 337.256 211.57V211.289C337.256 210.334 337.03 209.531 336.579 208.881C336.128 208.225 335.457 207.896 334.566 207.896C333.682 207.896 333.014 208.225 332.562 208.881C332.111 209.531 331.886 210.334 331.886 211.289ZM340.78 212.774V206.859H342.354V212.792C342.354 213.53 342.518 214.058 342.846 214.374C343.18 214.69 343.651 214.849 344.261 214.849C344.776 214.849 345.233 214.708 345.632 214.427C346.03 214.146 346.341 213.779 346.563 213.328V206.859H348.137V216H346.713L346.651 214.813H346.599C346.271 215.235 345.866 215.569 345.386 215.815C344.905 216.056 344.375 216.176 343.795 216.176C342.875 216.176 342.143 215.915 341.598 215.394C341.053 214.872 340.78 213.999 340.78 212.774ZM349.42 208.072V206.859H354.614V208.072H349.42ZM351.055 213.724V207.58V207.334V204.504H352.628V213.724C352.628 214.151 352.71 214.456 352.874 214.638C353.038 214.813 353.299 214.901 353.656 214.901C353.814 214.901 353.973 214.884 354.131 214.849C354.289 214.813 354.447 214.767 354.605 214.708V216C354.459 216.07 354.266 216.129 354.025 216.176C353.785 216.229 353.524 216.255 353.243 216.255C352.575 216.255 352.042 216.053 351.644 215.648C351.251 215.244 351.055 214.603 351.055 213.724ZM360.037 211.57V211.289C360.037 209.906 360.409 208.781 361.153 207.914C361.903 207.041 362.932 206.604 364.238 206.604C365.451 206.604 366.371 206.933 366.998 207.589C367.625 208.239 367.938 208.975 367.938 209.795V209.848H366.409V209.795C366.409 209.285 366.236 208.843 365.891 208.468C365.545 208.087 364.994 207.896 364.238 207.896C363.359 207.896 362.706 208.222 362.278 208.872C361.856 209.522 361.646 210.328 361.646 211.289V211.57C361.646 212.525 361.856 213.331 362.278 213.987C362.7 214.638 363.354 214.963 364.238 214.963C364.994 214.963 365.545 214.775 365.891 214.4C366.242 214.02 366.418 213.571 366.418 213.056V213.003H367.938V213.056C367.938 213.882 367.622 214.623 366.989 215.279C366.362 215.93 365.445 216.255 364.238 216.255C362.932 216.255 361.903 215.821 361.153 214.954C360.409 214.081 360.037 212.953 360.037 211.57ZM369.819 216V206.859H371.243L371.313 208.046H371.357C371.592 207.659 371.899 207.322 372.28 207.035C372.661 206.748 373.115 206.604 373.643 206.604C373.771 206.604 373.906 206.619 374.047 206.648C374.188 206.678 374.287 206.704 374.346 206.728V208.187C374.229 208.163 374.105 208.146 373.977 208.134C373.848 208.116 373.707 208.107 373.555 208.107C373.033 208.107 372.588 208.245 372.219 208.521C371.85 208.796 371.574 209.142 371.393 209.558V216H369.819ZM375.119 211.57V211.289C375.119 209.912 375.494 208.787 376.244 207.914C377 207.041 377.996 206.604 379.232 206.604C380.475 206.604 381.427 207.012 382.089 207.826C382.757 208.641 383.091 209.745 383.091 211.14V211.781H376.077V210.516H381.518V210.322C381.518 209.654 381.327 209.083 380.946 208.608C380.571 208.134 380.023 207.896 379.303 207.896C378.441 207.896 377.797 208.225 377.369 208.881C376.941 209.531 376.728 210.334 376.728 211.289V211.57C376.728 212.525 376.953 213.331 377.404 213.987C377.855 214.638 378.55 214.963 379.487 214.963C380.067 214.963 380.565 214.837 380.981 214.585C381.403 214.327 381.746 214.022 382.01 213.671L383.021 214.488C382.739 214.922 382.297 215.326 381.693 215.701C381.09 216.07 380.354 216.255 379.487 216.255C378.081 216.255 377 215.821 376.244 214.954C375.494 214.081 375.119 212.953 375.119 211.57ZM384.55 213.319C384.55 212.394 384.916 211.673 385.648 211.157C386.381 210.642 387.315 210.384 388.452 210.384H390.526V209.733C390.526 209.177 390.383 208.729 390.096 208.389C389.809 208.043 389.316 207.87 388.619 207.87C387.922 207.87 387.418 208.014 387.107 208.301C386.803 208.582 386.65 208.919 386.65 209.312V209.364H385.086V209.303C385.086 208.576 385.405 207.946 386.044 207.413C386.688 206.874 387.559 206.604 388.654 206.604C389.75 206.604 390.597 206.865 391.194 207.387C391.798 207.908 392.1 208.69 392.1 209.733V213.891C392.1 214.271 392.129 214.632 392.188 214.972C392.246 215.306 392.328 215.602 392.434 215.859V216H390.913C390.831 215.854 390.755 215.663 390.685 215.429C390.62 215.194 390.579 214.96 390.562 214.726C390.351 215.106 390.005 215.443 389.524 215.736C389.044 216.023 388.426 216.167 387.67 216.167C386.797 216.167 386.059 215.924 385.455 215.438C384.852 214.945 384.55 214.239 384.55 213.319ZM386.123 213.231C386.123 213.759 386.275 214.172 386.58 214.471C386.891 214.764 387.365 214.91 388.004 214.91C388.643 214.91 389.223 214.69 389.744 214.251C390.266 213.806 390.526 213.331 390.526 212.827V211.509H388.628C387.802 211.509 387.178 211.664 386.756 211.975C386.334 212.285 386.123 212.704 386.123 213.231ZM393.33 208.072V206.859H398.524V208.072H393.33ZM394.965 213.724V207.58V207.334V204.504H396.538V213.724C396.538 214.151 396.62 214.456 396.784 214.638C396.948 214.813 397.209 214.901 397.566 214.901C397.725 214.901 397.883 214.884 398.041 214.849C398.199 214.813 398.357 214.767 398.516 214.708V216C398.369 216.07 398.176 216.129 397.936 216.176C397.695 216.229 397.435 216.255 397.153 216.255C396.485 216.255 395.952 216.053 395.554 215.648C395.161 215.244 394.965 214.603 394.965 213.724ZM400.291 216V206.859H401.864V216H400.291ZM400.089 204.047C400.089 203.777 400.174 203.552 400.344 203.37C400.514 203.188 400.76 203.098 401.082 203.098C401.398 203.098 401.642 203.188 401.812 203.37C401.981 203.552 402.066 203.777 402.066 204.047C402.066 204.311 401.981 204.536 401.812 204.724C401.642 204.905 401.396 204.996 401.073 204.996C400.757 204.996 400.514 204.905 400.344 204.724C400.174 204.536 400.089 204.311 400.089 204.047ZM404.501 216V206.859H405.925L405.995 208.046H406.039C406.367 207.624 406.771 207.293 407.252 207.053C407.732 206.807 408.266 206.684 408.852 206.684C409.766 206.684 410.495 206.947 411.04 207.475C411.585 207.996 411.857 208.869 411.857 210.094V216H410.284V210.085C410.284 209.341 410.117 208.811 409.783 208.494C409.455 208.172 408.989 208.011 408.386 208.011C407.864 208.011 407.404 208.151 407.006 208.433C406.607 208.714 406.297 209.08 406.074 209.531V216H404.501ZM414.125 218.522L415.101 217.336C415.358 217.629 415.719 217.887 416.182 218.109C416.65 218.338 417.178 218.452 417.764 218.452C418.543 218.452 419.161 218.224 419.618 217.767C420.075 217.315 420.304 216.665 420.304 215.815V214.91C420.034 215.285 419.674 215.59 419.223 215.824C418.771 216.053 418.224 216.167 417.579 216.167C416.425 216.167 415.502 215.733 414.811 214.866C414.119 213.999 413.773 212.9 413.773 211.57V211.289C413.773 209.959 414.119 208.86 414.811 207.993C415.502 207.12 416.428 206.684 417.588 206.684C418.227 206.684 418.786 206.818 419.267 207.088C419.747 207.352 420.104 207.674 420.339 208.055H420.383L420.453 206.859H421.877V215.815C421.877 217.11 421.499 218.104 420.743 218.795C419.993 219.486 419.012 219.832 417.799 219.832C417.049 219.832 416.357 219.709 415.725 219.463C415.092 219.217 414.559 218.903 414.125 218.522ZM415.382 211.57C415.382 212.508 415.587 213.293 415.997 213.926C416.407 214.559 417.052 214.875 417.931 214.875C418.511 214.875 419.006 214.717 419.416 214.4C419.826 214.078 420.122 213.712 420.304 213.302V209.558C420.122 209.147 419.826 208.784 419.416 208.468C419.006 208.146 418.511 207.984 417.931 207.984C417.052 207.984 416.407 208.301 415.997 208.934C415.587 209.566 415.382 210.352 415.382 211.289V211.57ZM427.449 206.859H428.979L431.202 213.012C431.284 213.246 431.354 213.466 431.413 213.671C431.472 213.87 431.513 214.028 431.536 214.146H431.589C431.612 214.028 431.653 213.87 431.712 213.671C431.771 213.466 431.841 213.246 431.923 213.012L434.129 206.859H435.632L432.151 216H430.93L427.449 206.859ZM436.994 216V206.859H438.567V216H436.994ZM436.792 204.047C436.792 203.777 436.877 203.552 437.047 203.37C437.217 203.188 437.463 203.098 437.785 203.098C438.102 203.098 438.345 203.188 438.515 203.37C438.685 203.552 438.77 203.777 438.77 204.047C438.77 204.311 438.685 204.536 438.515 204.724C438.345 204.905 438.099 204.996 437.776 204.996C437.46 204.996 437.217 204.905 437.047 204.724C436.877 204.536 436.792 204.311 436.792 204.047ZM440.642 213.293H442.215V213.354C442.215 213.894 442.408 214.298 442.795 214.567C443.188 214.831 443.703 214.963 444.342 214.963C444.986 214.963 445.493 214.837 445.862 214.585C446.237 214.327 446.425 213.99 446.425 213.574C446.425 213.158 446.272 212.842 445.968 212.625C445.669 212.402 445.027 212.174 444.043 211.939C443.064 211.705 442.288 211.38 441.714 210.964C441.146 210.548 440.861 209.965 440.861 209.215C440.861 208.459 441.169 207.835 441.784 207.343C442.405 206.851 443.231 206.604 444.263 206.604C445.3 206.604 446.135 206.851 446.768 207.343C447.4 207.835 447.717 208.506 447.717 209.355V209.408H446.152V209.32C446.152 208.869 445.997 208.521 445.687 208.274C445.376 208.022 444.901 207.896 444.263 207.896C443.624 207.896 443.155 208.014 442.856 208.248C442.563 208.477 442.417 208.772 442.417 209.136C442.417 209.487 442.584 209.766 442.918 209.971C443.258 210.176 443.917 210.396 444.896 210.63C445.874 210.864 446.63 211.198 447.163 211.632C447.702 212.06 447.972 212.678 447.972 213.486C447.972 214.295 447.67 214.96 447.066 215.481C446.463 215.997 445.555 216.255 444.342 216.255C443.135 216.255 442.215 215.991 441.582 215.464C440.955 214.937 440.642 214.233 440.642 213.354V213.293ZM449.87 212.774V206.859H451.443V212.792C451.443 213.53 451.607 214.058 451.936 214.374C452.27 214.69 452.741 214.849 453.351 214.849C453.866 214.849 454.323 214.708 454.722 214.427C455.12 214.146 455.431 213.779 455.653 213.328V206.859H457.227V216H455.803L455.741 214.813H455.688C455.36 215.235 454.956 215.569 454.476 215.815C453.995 216.056 453.465 216.176 452.885 216.176C451.965 216.176 451.232 215.915 450.688 215.394C450.143 214.872 449.87 213.999 449.87 212.774ZM459.274 213.319C459.274 212.394 459.641 211.673 460.373 211.157C461.105 210.642 462.04 210.384 463.177 210.384H465.251V209.733C465.251 209.177 465.107 208.729 464.82 208.389C464.533 208.043 464.041 207.87 463.344 207.87C462.646 207.87 462.143 208.014 461.832 208.301C461.527 208.582 461.375 208.919 461.375 209.312V209.364H459.811V209.303C459.811 208.576 460.13 207.946 460.769 207.413C461.413 206.874 462.283 206.604 463.379 206.604C464.475 206.604 465.321 206.865 465.919 207.387C466.522 207.908 466.824 208.69 466.824 209.733V213.891C466.824 214.271 466.854 214.632 466.912 214.972C466.971 215.306 467.053 215.602 467.158 215.859V216H465.638C465.556 215.854 465.479 215.663 465.409 215.429C465.345 215.194 465.304 214.96 465.286 214.726C465.075 215.106 464.729 215.443 464.249 215.736C463.769 216.023 463.15 216.167 462.395 216.167C461.521 216.167 460.783 215.924 460.18 215.438C459.576 214.945 459.274 214.239 459.274 213.319ZM460.848 213.231C460.848 213.759 461 214.172 461.305 214.471C461.615 214.764 462.09 214.91 462.729 214.91C463.367 214.91 463.947 214.69 464.469 214.251C464.99 213.806 465.251 213.331 465.251 212.827V211.509H463.353C462.526 211.509 461.902 211.664 461.48 211.975C461.059 212.285 460.848 212.704 460.848 213.231ZM469.399 216V202.562H470.973V216H469.399ZM473.653 216V202.562H475.227V216H473.653ZM476.984 219.656V218.32C477.137 218.367 477.304 218.405 477.485 218.435C477.673 218.464 477.854 218.479 478.03 218.479C478.435 218.479 478.789 218.317 479.094 217.995C479.398 217.673 479.721 216.999 480.061 215.974V215.965L476.642 206.859H478.171L480.368 212.933C480.45 213.167 480.521 213.384 480.579 213.583C480.644 213.782 480.699 213.97 480.746 214.146H480.799C480.852 213.97 480.91 213.782 480.975 213.583C481.039 213.384 481.109 213.167 481.186 212.933L483.251 206.859H484.745L481.01 217.23C480.711 218.057 480.327 218.695 479.858 219.146C479.39 219.604 478.81 219.832 478.118 219.832C477.884 219.832 477.676 219.817 477.494 219.788C477.318 219.759 477.148 219.715 476.984 219.656ZM489.755 213.293H491.328V213.354C491.328 213.894 491.521 214.298 491.908 214.567C492.301 214.831 492.816 214.963 493.455 214.963C494.1 214.963 494.606 214.837 494.976 214.585C495.351 214.327 495.538 213.99 495.538 213.574C495.538 213.158 495.386 212.842 495.081 212.625C494.782 212.402 494.141 212.174 493.156 211.939C492.178 211.705 491.401 211.38 490.827 210.964C490.259 210.548 489.975 209.965 489.975 209.215C489.975 208.459 490.282 207.835 490.897 207.343C491.519 206.851 492.345 206.604 493.376 206.604C494.413 206.604 495.248 206.851 495.881 207.343C496.514 207.835 496.83 208.506 496.83 209.355V209.408H495.266V209.32C495.266 208.869 495.11 208.521 494.8 208.274C494.489 208.022 494.015 207.896 493.376 207.896C492.737 207.896 492.269 208.014 491.97 208.248C491.677 208.477 491.53 208.772 491.53 209.136C491.53 209.487 491.697 209.766 492.031 209.971C492.371 210.176 493.03 210.396 494.009 210.63C494.987 210.864 495.743 211.198 496.276 211.632C496.815 212.06 497.085 212.678 497.085 213.486C497.085 214.295 496.783 214.96 496.18 215.481C495.576 215.997 494.668 216.255 493.455 216.255C492.248 216.255 491.328 215.991 490.695 215.464C490.068 214.937 489.755 214.233 489.755 213.354V213.293ZM497.797 208.072V206.859H502.991V208.072H497.797ZM499.432 213.724V207.58V207.334V204.504H501.005V213.724C501.005 214.151 501.087 214.456 501.251 214.638C501.415 214.813 501.676 214.901 502.033 214.901C502.191 214.901 502.35 214.884 502.508 214.849C502.666 214.813 502.824 214.767 502.982 214.708V216C502.836 216.07 502.643 216.129 502.402 216.176C502.162 216.229 501.901 216.255 501.62 216.255C500.952 216.255 500.419 216.053 500.021 215.648C499.628 215.244 499.432 214.603 499.432 213.724ZM504.591 212.774V206.859H506.164V212.792C506.164 213.53 506.328 214.058 506.656 214.374C506.99 214.69 507.462 214.849 508.071 214.849C508.587 214.849 509.044 214.708 509.442 214.427C509.841 214.146 510.151 213.779 510.374 213.328V206.859H511.947V216H510.523L510.462 214.813H510.409C510.081 215.235 509.677 215.569 509.196 215.815C508.716 216.056 508.186 216.176 507.605 216.176C506.686 216.176 505.953 215.915 505.408 215.394C504.863 214.872 504.591 213.999 504.591 212.774ZM514.505 216V206.859H515.929L515.999 208.046H516.043C516.371 207.624 516.775 207.293 517.256 207.053C517.736 206.807 518.27 206.684 518.855 206.684C519.77 206.684 520.499 206.947 521.044 207.475C521.589 207.996 521.861 208.869 521.861 210.094V216H520.288V210.085C520.288 209.341 520.121 208.811 519.787 208.494C519.459 208.172 518.993 208.011 518.39 208.011C517.868 208.011 517.408 208.151 517.01 208.433C516.611 208.714 516.301 209.08 516.078 209.531V216H514.505ZM524.331 216V206.859H525.755L525.825 208.046H525.869C526.197 207.624 526.602 207.293 527.082 207.053C527.562 206.807 528.096 206.684 528.682 206.684C529.596 206.684 530.325 206.947 530.87 207.475C531.415 207.996 531.688 208.869 531.688 210.094V216H530.114V210.085C530.114 209.341 529.947 208.811 529.613 208.494C529.285 208.172 528.819 208.011 528.216 208.011C527.694 208.011 527.234 208.151 526.836 208.433C526.438 208.714 526.127 209.08 525.904 209.531V216H524.331ZM534.236 216V206.859H535.81V216H534.236ZM534.034 204.047C534.034 203.777 534.119 203.552 534.289 203.37C534.459 203.188 534.705 203.098 535.027 203.098C535.344 203.098 535.587 203.188 535.757 203.37C535.927 203.552 536.012 203.777 536.012 204.047C536.012 204.311 535.927 204.536 535.757 204.724C535.587 204.905 535.341 204.996 535.019 204.996C534.702 204.996 534.459 204.905 534.289 204.724C534.119 204.536 534.034 204.311 534.034 204.047ZM538.446 216V206.859H539.87L539.94 208.046H539.984C540.312 207.624 540.717 207.293 541.197 207.053C541.678 206.807 542.211 206.684 542.797 206.684C543.711 206.684 544.44 206.947 544.985 207.475C545.53 207.996 545.803 208.869 545.803 210.094V216H544.229V210.085C544.229 209.341 544.062 208.811 543.729 208.494C543.4 208.172 542.935 208.011 542.331 208.011C541.81 208.011 541.35 208.151 540.951 208.433C540.553 208.714 540.242 209.08 540.02 209.531V216H538.446ZM548.07 218.522L549.046 217.336C549.304 217.629 549.664 217.887 550.127 218.109C550.596 218.338 551.123 218.452 551.709 218.452C552.488 218.452 553.106 218.224 553.563 217.767C554.021 217.315 554.249 216.665 554.249 215.815V214.91C553.979 215.285 553.619 215.59 553.168 215.824C552.717 216.053 552.169 216.167 551.524 216.167C550.37 216.167 549.447 215.733 548.756 214.866C548.064 213.999 547.719 212.9 547.719 211.57V211.289C547.719 209.959 548.064 208.86 548.756 207.993C549.447 207.12 550.373 206.684 551.533 206.684C552.172 206.684 552.731 206.818 553.212 207.088C553.692 207.352 554.05 207.674 554.284 208.055H554.328L554.398 206.859H555.822V215.815C555.822 217.11 555.444 218.104 554.688 218.795C553.938 219.486 552.957 219.832 551.744 219.832C550.994 219.832 550.303 219.709 549.67 219.463C549.037 219.217 548.504 218.903 548.07 218.522ZM549.327 211.57C549.327 212.508 549.532 213.293 549.942 213.926C550.353 214.559 550.997 214.875 551.876 214.875C552.456 214.875 552.951 214.717 553.361 214.4C553.771 214.078 554.067 213.712 554.249 213.302V209.558C554.067 209.147 553.771 208.784 553.361 208.468C552.951 208.146 552.456 207.984 551.876 207.984C550.997 207.984 550.353 208.301 549.942 208.934C549.532 209.566 549.327 210.352 549.327 211.289V211.57ZM562.159 213.319C562.159 212.394 562.525 211.673 563.258 211.157C563.99 210.642 564.925 210.384 566.062 210.384H568.136V209.733C568.136 209.177 567.992 208.729 567.705 208.389C567.418 208.043 566.926 207.87 566.229 207.87C565.531 207.87 565.027 208.014 564.717 208.301C564.412 208.582 564.26 208.919 564.26 209.312V209.364H562.695V209.303C562.695 208.576 563.015 207.946 563.653 207.413C564.298 206.874 565.168 206.604 566.264 206.604C567.359 206.604 568.206 206.865 568.804 207.387C569.407 207.908 569.709 208.69 569.709 209.733V213.891C569.709 214.271 569.738 214.632 569.797 214.972C569.855 215.306 569.938 215.602 570.043 215.859V216H568.522C568.44 215.854 568.364 215.663 568.294 215.429C568.229 215.194 568.188 214.96 568.171 214.726C567.96 215.106 567.614 215.443 567.134 215.736C566.653 216.023 566.035 216.167 565.279 216.167C564.406 216.167 563.668 215.924 563.064 215.438C562.461 214.945 562.159 214.239 562.159 213.319ZM563.732 213.231C563.732 213.759 563.885 214.172 564.189 214.471C564.5 214.764 564.975 214.91 565.613 214.91C566.252 214.91 566.832 214.69 567.354 214.251C567.875 213.806 568.136 213.331 568.136 212.827V211.509H566.237C565.411 211.509 564.787 211.664 564.365 211.975C563.943 212.285 563.732 212.704 563.732 213.231ZM572.214 216V206.859H573.638L573.708 208.046H573.752C574.08 207.624 574.484 207.293 574.965 207.053C575.445 206.807 575.979 206.684 576.564 206.684C577.479 206.684 578.208 206.947 578.753 207.475C579.298 207.996 579.57 208.869 579.57 210.094V216H577.997V210.085C577.997 209.341 577.83 208.811 577.496 208.494C577.168 208.172 576.702 208.011 576.099 208.011C575.577 208.011 575.117 208.151 574.719 208.433C574.32 208.714 574.01 209.08 573.787 209.531V216H572.214ZM581.486 211.57V211.289C581.486 209.959 581.832 208.86 582.523 207.993C583.221 207.12 584.146 206.684 585.301 206.684C585.945 206.684 586.49 206.798 586.936 207.026C587.387 207.255 587.747 207.56 588.017 207.94V202.562H589.59V216H588.166L588.096 214.796H588.052C587.817 215.177 587.46 215.502 586.979 215.771C586.499 216.041 585.939 216.176 585.301 216.176C584.141 216.176 583.215 215.742 582.523 214.875C581.832 214.002 581.486 212.9 581.486 211.57ZM583.095 211.57C583.095 212.508 583.3 213.296 583.71 213.935C584.12 214.567 584.765 214.884 585.644 214.884C586.224 214.884 586.719 214.723 587.129 214.4C587.539 214.078 587.835 213.712 588.017 213.302V209.549C587.835 209.139 587.539 208.775 587.129 208.459C586.719 208.143 586.224 207.984 585.644 207.984C584.765 207.984 584.12 208.301 583.71 208.934C583.3 209.566 583.095 210.352 583.095 211.289V211.57ZM596.349 212.774V206.859H597.922V212.792C597.922 213.53 598.086 214.058 598.414 214.374C598.748 214.69 599.22 214.849 599.829 214.849C600.345 214.849 600.802 214.708 601.2 214.427C601.599 214.146 601.909 213.779 602.132 213.328V206.859H603.705V216H602.281L602.22 214.813H602.167C601.839 215.235 601.435 215.569 600.954 215.815C600.474 216.056 599.943 216.176 599.363 216.176C598.443 216.176 597.711 215.915 597.166 215.394C596.621 214.872 596.349 213.999 596.349 212.774ZM605.7 213.293H607.273V213.354C607.273 213.894 607.467 214.298 607.854 214.567C608.246 214.831 608.762 214.963 609.4 214.963C610.045 214.963 610.552 214.837 610.921 214.585C611.296 214.327 611.483 213.99 611.483 213.574C611.483 213.158 611.331 212.842 611.026 212.625C610.728 212.402 610.086 212.174 609.102 211.939C608.123 211.705 607.347 211.38 606.772 210.964C606.204 210.548 605.92 209.965 605.92 209.215C605.92 208.459 606.228 207.835 606.843 207.343C607.464 206.851 608.29 206.604 609.321 206.604C610.358 206.604 611.193 206.851 611.826 207.343C612.459 207.835 612.775 208.506 612.775 209.355V209.408H611.211V209.32C611.211 208.869 611.056 208.521 610.745 208.274C610.435 208.022 609.96 207.896 609.321 207.896C608.683 207.896 608.214 208.014 607.915 208.248C607.622 208.477 607.476 208.772 607.476 209.136C607.476 209.487 607.643 209.766 607.977 209.971C608.316 210.176 608.976 210.396 609.954 210.63C610.933 210.864 611.688 211.198 612.222 211.632C612.761 212.06 613.03 212.678 613.03 213.486C613.03 214.295 612.729 214.96 612.125 215.481C611.521 215.997 610.613 216.255 609.4 216.255C608.193 216.255 607.273 215.991 606.641 215.464C606.014 214.937 605.7 214.233 605.7 213.354V213.293ZM614.463 211.57V211.289C614.463 209.912 614.838 208.787 615.588 207.914C616.344 207.041 617.34 206.604 618.576 206.604C619.818 206.604 620.771 207.012 621.433 207.826C622.101 208.641 622.435 209.745 622.435 211.14V211.781H615.421V210.516H620.861V210.322C620.861 209.654 620.671 209.083 620.29 208.608C619.915 208.134 619.367 207.896 618.646 207.896C617.785 207.896 617.141 208.225 616.713 208.881C616.285 209.531 616.071 210.334 616.071 211.289V211.57C616.071 212.525 616.297 213.331 616.748 213.987C617.199 214.638 617.894 214.963 618.831 214.963C619.411 214.963 619.909 214.837 620.325 214.585C620.747 214.327 621.09 214.022 621.354 213.671L622.364 214.488C622.083 214.922 621.641 215.326 621.037 215.701C620.434 216.07 619.698 216.255 618.831 216.255C617.425 216.255 616.344 215.821 615.588 214.954C614.838 214.081 614.463 212.953 614.463 211.57ZM624.403 216V206.859H625.827L625.897 208.046H625.941C626.176 207.659 626.483 207.322 626.864 207.035C627.245 206.748 627.699 206.604 628.227 206.604C628.355 206.604 628.49 206.619 628.631 206.648C628.771 206.678 628.871 206.704 628.93 206.728V208.187C628.812 208.163 628.689 208.146 628.561 208.134C628.432 208.116 628.291 208.107 628.139 208.107C627.617 208.107 627.172 208.245 626.803 208.521C626.434 208.796 626.158 209.142 625.977 209.558V216H624.403ZM629.791 211.184V209.733H634.678V211.184H629.791ZM637.007 216V205.515C637.007 204.495 637.279 203.719 637.824 203.186C638.375 202.652 639.122 202.386 640.065 202.386C640.253 202.386 640.44 202.397 640.628 202.421C640.821 202.444 641.006 202.479 641.182 202.526L641.094 203.801C640.965 203.777 640.827 203.757 640.681 203.739C640.534 203.722 640.385 203.713 640.232 203.713C639.705 203.713 639.298 203.862 639.011 204.161C638.724 204.454 638.58 204.905 638.58 205.515V207.369V207.554V216H637.007ZM635.504 208.072V206.859H637.604H637.982H640.566V208.072H635.504ZM641.753 216V206.859H643.177L643.247 208.046H643.291C643.525 207.659 643.833 207.322 644.214 207.035C644.595 206.748 645.049 206.604 645.576 206.604C645.705 206.604 645.84 206.619 645.98 206.648C646.121 206.678 646.221 206.704 646.279 206.728V208.187C646.162 208.163 646.039 208.146 645.91 208.134C645.781 208.116 645.641 208.107 645.488 208.107C644.967 208.107 644.521 208.245 644.152 208.521C643.783 208.796 643.508 209.142 643.326 209.558V216H641.753ZM647.861 216V206.859H649.435V216H647.861ZM647.659 204.047C647.659 203.777 647.744 203.552 647.914 203.37C648.084 203.188 648.33 203.098 648.652 203.098C648.969 203.098 649.212 203.188 649.382 203.37C649.552 203.552 649.637 203.777 649.637 204.047C649.637 204.311 649.552 204.536 649.382 204.724C649.212 204.905 648.966 204.996 648.644 204.996C648.327 204.996 648.084 204.905 647.914 204.724C647.744 204.536 647.659 204.311 647.659 204.047ZM651.518 211.57V211.289C651.518 209.912 651.893 208.787 652.643 207.914C653.398 207.041 654.395 206.604 655.631 206.604C656.873 206.604 657.825 207.012 658.487 207.826C659.155 208.641 659.489 209.745 659.489 211.14V211.781H652.476V210.516H657.916V210.322C657.916 209.654 657.726 209.083 657.345 208.608C656.97 208.134 656.422 207.896 655.701 207.896C654.84 207.896 654.195 208.225 653.768 208.881C653.34 209.531 653.126 210.334 653.126 211.289V211.57C653.126 212.525 653.352 213.331 653.803 213.987C654.254 214.638 654.948 214.963 655.886 214.963C656.466 214.963 656.964 214.837 657.38 214.585C657.802 214.327 658.145 214.022 658.408 213.671L659.419 214.488C659.138 214.922 658.695 215.326 658.092 215.701C657.488 216.07 656.753 216.255 655.886 216.255C654.479 216.255 653.398 215.821 652.643 214.954C651.893 214.081 651.518 212.953 651.518 211.57ZM661.458 216V206.859H662.882L662.952 208.046H662.996C663.324 207.624 663.729 207.293 664.209 207.053C664.689 206.807 665.223 206.684 665.809 206.684C666.723 206.684 667.452 206.947 667.997 207.475C668.542 207.996 668.814 208.869 668.814 210.094V216H667.241V210.085C667.241 209.341 667.074 208.811 666.74 208.494C666.412 208.172 665.946 208.011 665.343 208.011C664.821 208.011 664.361 208.151 663.963 208.433C663.564 208.714 663.254 209.08 663.031 209.531V216H661.458ZM670.73 211.57V211.289C670.73 209.959 671.076 208.86 671.768 207.993C672.465 207.12 673.391 206.684 674.545 206.684C675.189 206.684 675.734 206.798 676.18 207.026C676.631 207.255 676.991 207.56 677.261 207.94V202.562H678.834V216H677.41L677.34 214.796H677.296C677.062 215.177 676.704 215.502 676.224 215.771C675.743 216.041 675.184 216.176 674.545 216.176C673.385 216.176 672.459 215.742 671.768 214.875C671.076 214.002 670.73 212.9 670.73 211.57ZM672.339 211.57C672.339 212.508 672.544 213.296 672.954 213.935C673.364 214.567 674.009 214.884 674.888 214.884C675.468 214.884 675.963 214.723 676.373 214.4C676.783 214.078 677.079 213.712 677.261 213.302V209.549C677.079 209.139 676.783 208.775 676.373 208.459C675.963 208.143 675.468 207.984 674.888 207.984C674.009 207.984 673.364 208.301 672.954 208.934C672.544 209.566 672.339 210.352 672.339 211.289V211.57ZM681.462 216V202.562H683.035V216H681.462ZM684.793 219.656V218.32C684.945 218.367 685.112 218.405 685.294 218.435C685.481 218.464 685.663 218.479 685.839 218.479C686.243 218.479 686.598 218.317 686.902 217.995C687.207 217.673 687.529 216.999 687.869 215.974V215.965L684.45 206.859H685.979L688.177 212.933C688.259 213.167 688.329 213.384 688.388 213.583C688.452 213.782 688.508 213.97 688.555 214.146H688.607C688.66 213.97 688.719 213.782 688.783 213.583C688.848 213.384 688.918 213.167 688.994 212.933L691.06 206.859H692.554L688.818 217.23C688.52 218.057 688.136 218.695 687.667 219.146C687.198 219.604 686.618 219.832 685.927 219.832C685.692 219.832 685.484 219.817 685.303 219.788C685.127 219.759 684.957 219.715 684.793 219.656ZM697.062 206.859H698.583L700.279 212.906C700.344 213.141 700.396 213.334 700.438 213.486C700.479 213.639 700.52 213.826 700.561 214.049H700.613C700.66 213.826 700.704 213.639 700.745 213.486C700.786 213.334 700.845 213.141 700.921 212.906L702.916 206.859H704.261L706.309 212.906C706.391 213.141 706.452 213.334 706.493 213.486C706.534 213.639 706.578 213.826 706.625 214.049H706.678C706.719 213.826 706.757 213.639 706.792 213.486C706.827 213.328 706.877 213.135 706.941 212.906L708.585 206.859H710.035L707.223 216H705.966L703.962 210.015C703.892 209.786 703.821 209.561 703.751 209.338C703.687 209.109 703.628 208.881 703.575 208.652H703.522C703.464 208.881 703.402 209.109 703.338 209.338C703.273 209.561 703.203 209.786 703.127 210.015L701.123 216H699.866L697.062 206.859ZM710.967 211.57V211.289C710.967 209.912 711.342 208.787 712.092 207.914C712.848 207.041 713.844 206.604 715.08 206.604C716.322 206.604 717.274 207.012 717.937 207.826C718.604 208.641 718.938 209.745 718.938 211.14V211.781H711.925V210.516H717.365V210.322C717.365 209.654 717.175 209.083 716.794 208.608C716.419 208.134 715.871 207.896 715.15 207.896C714.289 207.896 713.645 208.225 713.217 208.881C712.789 209.531 712.575 210.334 712.575 211.289V211.57C712.575 212.525 712.801 213.331 713.252 213.987C713.703 214.638 714.397 214.963 715.335 214.963C715.915 214.963 716.413 214.837 716.829 214.585C717.251 214.327 717.594 214.022 717.857 213.671L718.868 214.488C718.587 214.922 718.145 215.326 717.541 215.701C716.938 216.07 716.202 216.255 715.335 216.255C713.929 216.255 712.848 215.821 712.092 214.954C711.342 214.081 710.967 212.953 710.967 211.57ZM720.907 216V202.562H722.48V207.949C722.75 207.568 723.11 207.264 723.562 207.035C724.019 206.801 724.566 206.684 725.205 206.684C726.359 206.684 727.282 207.117 727.974 207.984C728.665 208.852 729.011 209.95 729.011 211.28V211.562C729.011 212.897 728.665 214.002 727.974 214.875C727.282 215.742 726.359 216.176 725.205 216.176C724.566 216.176 724.004 216.044 723.518 215.78C723.037 215.511 722.68 215.186 722.445 214.805H722.401L722.331 216H720.907ZM722.48 213.311C722.668 213.721 722.964 214.087 723.368 214.409C723.778 214.726 724.279 214.884 724.871 214.884C725.738 214.884 726.377 214.564 726.787 213.926C727.197 213.287 727.402 212.499 727.402 211.562V211.28C727.402 210.343 727.197 209.561 726.787 208.934C726.377 208.301 725.735 207.984 724.862 207.984C724.276 207.984 723.778 208.146 723.368 208.468C722.958 208.784 722.662 209.147 722.48 209.558V213.311ZM730.452 213.293H732.025V213.354C732.025 213.894 732.219 214.298 732.605 214.567C732.998 214.831 733.514 214.963 734.152 214.963C734.797 214.963 735.304 214.837 735.673 214.585C736.048 214.327 736.235 213.99 736.235 213.574C736.235 213.158 736.083 212.842 735.778 212.625C735.479 212.402 734.838 212.174 733.854 211.939C732.875 211.705 732.099 211.38 731.524 210.964C730.956 210.548 730.672 209.965 730.672 209.215C730.672 208.459 730.979 207.835 731.595 207.343C732.216 206.851 733.042 206.604 734.073 206.604C735.11 206.604 735.945 206.851 736.578 207.343C737.211 207.835 737.527 208.506 737.527 209.355V209.408H735.963V209.32C735.963 208.869 735.808 208.521 735.497 208.274C735.187 208.022 734.712 207.896 734.073 207.896C733.435 207.896 732.966 208.014 732.667 208.248C732.374 208.477 732.228 208.772 732.228 209.136C732.228 209.487 732.395 209.766 732.729 209.971C733.068 210.176 733.728 210.396 734.706 210.63C735.685 210.864 736.44 211.198 736.974 211.632C737.513 212.06 737.782 212.678 737.782 213.486C737.782 214.295 737.48 214.96 736.877 215.481C736.273 215.997 735.365 216.255 734.152 216.255C732.945 216.255 732.025 215.991 731.393 215.464C730.766 214.937 730.452 214.233 730.452 213.354V213.293ZM739.848 216V206.859H741.421V216H739.848ZM739.646 204.047C739.646 203.777 739.73 203.552 739.9 203.37C740.07 203.188 740.316 203.098 740.639 203.098C740.955 203.098 741.198 203.188 741.368 203.37C741.538 203.552 741.623 203.777 741.623 204.047C741.623 204.311 741.538 204.536 741.368 204.724C741.198 204.905 740.952 204.996 740.63 204.996C740.313 204.996 740.07 204.905 739.9 204.724C739.73 204.536 739.646 204.311 739.646 204.047ZM742.783 208.072V206.859H747.978V208.072H742.783ZM744.418 213.724V207.58V207.334V204.504H745.991V213.724C745.991 214.151 746.073 214.456 746.237 214.638C746.401 214.813 746.662 214.901 747.02 214.901C747.178 214.901 747.336 214.884 747.494 214.849C747.652 214.813 747.811 214.767 747.969 214.708V216C747.822 216.07 747.629 216.129 747.389 216.176C747.148 216.229 746.888 216.255 746.606 216.255C745.938 216.255 745.405 216.053 745.007 215.648C744.614 215.244 744.418 214.603 744.418 213.724ZM749.111 211.57V211.289C749.111 209.912 749.486 208.787 750.236 207.914C750.992 207.041 751.988 206.604 753.225 206.604C754.467 206.604 755.419 207.012 756.081 207.826C756.749 208.641 757.083 209.745 757.083 211.14V211.781H750.069V210.516H755.51V210.322C755.51 209.654 755.319 209.083 754.938 208.608C754.563 208.134 754.016 207.896 753.295 207.896C752.434 207.896 751.789 208.225 751.361 208.881C750.934 209.531 750.72 210.334 750.72 211.289V211.57C750.72 212.525 750.945 213.331 751.396 213.987C751.848 214.638 752.542 214.963 753.479 214.963C754.06 214.963 754.558 214.837 754.974 214.585C755.396 214.327 755.738 214.022 756.002 213.671L757.013 214.488C756.731 214.922 756.289 215.326 755.686 215.701C755.082 216.07 754.347 216.255 753.479 216.255C752.073 216.255 750.992 215.821 750.236 214.954C749.486 214.081 749.111 212.953 749.111 211.57ZM758.489 213.293H760.062V213.354C760.062 213.894 760.256 214.298 760.643 214.567C761.035 214.831 761.551 214.963 762.189 214.963C762.834 214.963 763.341 214.837 763.71 214.585C764.085 214.327 764.272 213.99 764.272 213.574C764.272 213.158 764.12 212.842 763.815 212.625C763.517 212.402 762.875 212.174 761.891 211.939C760.912 211.705 760.136 211.38 759.562 210.964C758.993 210.548 758.709 209.965 758.709 209.215C758.709 208.459 759.017 207.835 759.632 207.343C760.253 206.851 761.079 206.604 762.11 206.604C763.147 206.604 763.982 206.851 764.615 207.343C765.248 207.835 765.564 208.506 765.564 209.355V209.408H764V209.32C764 208.869 763.845 208.521 763.534 208.274C763.224 208.022 762.749 207.896 762.11 207.896C761.472 207.896 761.003 208.014 760.704 208.248C760.411 208.477 760.265 208.772 760.265 209.136C760.265 209.487 760.432 209.766 760.766 209.971C761.105 210.176 761.765 210.396 762.743 210.63C763.722 210.864 764.478 211.198 765.011 211.632C765.55 212.06 765.819 212.678 765.819 213.486C765.819 214.295 765.518 214.96 764.914 215.481C764.311 215.997 763.402 216.255 762.189 216.255C760.982 216.255 760.062 215.991 759.43 215.464C758.803 214.937 758.489 214.233 758.489 213.354V213.293ZM80 235.072V233.859H85.1943V235.072H80ZM81.6348 240.724V234.58V234.334V231.504H83.208V240.724C83.208 241.151 83.29 241.456 83.4541 241.638C83.6182 241.813 83.8789 241.901 84.2363 241.901C84.3945 241.901 84.5527 241.884 84.7109 241.849C84.8691 241.813 85.0273 241.767 85.1855 241.708V243C85.0391 243.07 84.8457 243.129 84.6055 243.176C84.3652 243.229 84.1045 243.255 83.8232 243.255C83.1553 243.255 82.6221 243.053 82.2236 242.648C81.8311 242.244 81.6348 241.603 81.6348 240.724ZM86.8818 243V229.562H88.4551V235.002C88.7773 234.604 89.1875 234.284 89.6855 234.044C90.1836 233.804 90.7314 233.684 91.3291 233.684C92.1787 233.684 92.876 233.947 93.4209 234.475C93.9658 234.996 94.2383 235.869 94.2383 237.094V243H92.665V237.076C92.665 236.338 92.498 235.811 92.1641 235.494C91.8359 235.172 91.3701 235.011 90.7666 235.011C90.2451 235.011 89.7852 235.154 89.3867 235.441C88.9883 235.723 88.6777 236.086 88.4551 236.531V243H86.8818ZM96.1982 240.319C96.1982 239.394 96.5645 238.673 97.2969 238.157C98.0293 237.642 98.9639 237.384 100.101 237.384H102.175V236.733C102.175 236.177 102.031 235.729 101.744 235.389C101.457 235.043 100.965 234.87 100.268 234.87C99.5703 234.87 99.0664 235.014 98.7559 235.301C98.4512 235.582 98.2988 235.919 98.2988 236.312V236.364H96.7344V236.303C96.7344 235.576 97.0537 234.946 97.6924 234.413C98.3369 233.874 99.207 233.604 100.303 233.604C101.398 233.604 102.245 233.865 102.843 234.387C103.446 234.908 103.748 235.69 103.748 236.733V240.891C103.748 241.271 103.777 241.632 103.836 241.972C103.895 242.306 103.977 242.602 104.082 242.859V243H102.562C102.479 242.854 102.403 242.663 102.333 242.429C102.269 242.194 102.228 241.96 102.21 241.726C101.999 242.106 101.653 242.443 101.173 242.736C100.692 243.023 100.074 243.167 99.3184 243.167C98.4453 243.167 97.707 242.924 97.1035 242.438C96.5 241.945 96.1982 241.239 96.1982 240.319ZM97.7715 240.231C97.7715 240.759 97.9238 241.172 98.2285 241.471C98.5391 241.764 99.0137 241.91 99.6523 241.91C100.291 241.91 100.871 241.69 101.393 241.251C101.914 240.806 102.175 240.331 102.175 239.827V238.509H100.276C99.4502 238.509 98.8262 238.664 98.4043 238.975C97.9824 239.285 97.7715 239.704 97.7715 240.231ZM104.979 235.072V233.859H110.173V235.072H104.979ZM106.613 240.724V234.58V234.334V231.504H108.187V240.724C108.187 241.151 108.269 241.456 108.433 241.638C108.597 241.813 108.857 241.901 109.215 241.901C109.373 241.901 109.531 241.884 109.689 241.849C109.848 241.813 110.006 241.767 110.164 241.708V243C110.018 243.07 109.824 243.129 109.584 243.176C109.344 243.229 109.083 243.255 108.802 243.255C108.134 243.255 107.601 243.053 107.202 242.648C106.81 242.244 106.613 241.603 106.613 240.724ZM116.22 243V229.562H117.793V243H116.22ZM119.85 238.57V238.289C119.85 236.912 120.225 235.787 120.975 234.914C121.73 234.041 122.727 233.604 123.963 233.604C125.205 233.604 126.157 234.012 126.819 234.826C127.487 235.641 127.821 236.745 127.821 238.14V238.781H120.808V237.516H126.248V237.322C126.248 236.654 126.058 236.083 125.677 235.608C125.302 235.134 124.754 234.896 124.033 234.896C123.172 234.896 122.527 235.225 122.1 235.881C121.672 236.531 121.458 237.334 121.458 238.289V238.57C121.458 239.525 121.684 240.331 122.135 240.987C122.586 241.638 123.28 241.963 124.218 241.963C124.798 241.963 125.296 241.837 125.712 241.585C126.134 241.327 126.477 241.022 126.74 240.671L127.751 241.488C127.47 241.922 127.027 242.326 126.424 242.701C125.82 243.07 125.085 243.255 124.218 243.255C122.812 243.255 121.73 242.821 120.975 241.954C120.225 241.081 119.85 239.953 119.85 238.57ZM129.28 240.319C129.28 239.394 129.646 238.673 130.379 238.157C131.111 237.642 132.046 237.384 133.183 237.384H135.257V236.733C135.257 236.177 135.113 235.729 134.826 235.389C134.539 235.043 134.047 234.87 133.35 234.87C132.652 234.87 132.148 235.014 131.838 235.301C131.533 235.582 131.381 235.919 131.381 236.312V236.364H129.816V236.303C129.816 235.576 130.136 234.946 130.774 234.413C131.419 233.874 132.289 233.604 133.385 233.604C134.48 233.604 135.327 233.865 135.925 234.387C136.528 234.908 136.83 235.69 136.83 236.733V240.891C136.83 241.271 136.859 241.632 136.918 241.972C136.977 242.306 137.059 242.602 137.164 242.859V243H135.644C135.562 242.854 135.485 242.663 135.415 242.429C135.351 242.194 135.31 241.96 135.292 241.726C135.081 242.106 134.735 242.443 134.255 242.736C133.774 243.023 133.156 243.167 132.4 243.167C131.527 243.167 130.789 242.924 130.186 242.438C129.582 241.945 129.28 241.239 129.28 240.319ZM130.854 240.231C130.854 240.759 131.006 241.172 131.311 241.471C131.621 241.764 132.096 241.91 132.734 241.91C133.373 241.91 133.953 241.69 134.475 241.251C134.996 240.806 135.257 240.331 135.257 239.827V238.509H133.358C132.532 238.509 131.908 238.664 131.486 238.975C131.064 239.285 130.854 239.704 130.854 240.231ZM137.92 233.859H139.449L141.673 240.012C141.755 240.246 141.825 240.466 141.884 240.671C141.942 240.87 141.983 241.028 142.007 241.146H142.06C142.083 241.028 142.124 240.87 142.183 240.671C142.241 240.466 142.312 240.246 142.394 240.012L144.6 233.859H146.103L142.622 243H141.4L137.92 233.859ZM146.709 238.57V238.289C146.709 236.912 147.084 235.787 147.834 234.914C148.59 234.041 149.586 233.604 150.822 233.604C152.064 233.604 153.017 234.012 153.679 234.826C154.347 235.641 154.681 236.745 154.681 238.14V238.781H147.667V237.516H153.107V237.322C153.107 236.654 152.917 236.083 152.536 235.608C152.161 235.134 151.613 234.896 150.893 234.896C150.031 234.896 149.387 235.225 148.959 235.881C148.531 236.531 148.317 237.334 148.317 238.289V238.57C148.317 239.525 148.543 240.331 148.994 240.987C149.445 241.638 150.14 241.963 151.077 241.963C151.657 241.963 152.155 241.837 152.571 241.585C152.993 241.327 153.336 241.022 153.6 240.671L154.61 241.488C154.329 241.922 153.887 242.326 153.283 242.701C152.68 243.07 151.944 243.255 151.077 243.255C149.671 243.255 148.59 242.821 147.834 241.954C147.084 241.081 146.709 239.953 146.709 238.57ZM160.429 240.319C160.429 239.394 160.795 238.673 161.527 238.157C162.26 237.642 163.194 237.384 164.331 237.384H166.405V236.733C166.405 236.177 166.262 235.729 165.975 235.389C165.688 235.043 165.195 234.87 164.498 234.87C163.801 234.87 163.297 235.014 162.986 235.301C162.682 235.582 162.529 235.919 162.529 236.312V236.364H160.965V236.303C160.965 235.576 161.284 234.946 161.923 234.413C162.567 233.874 163.438 233.604 164.533 233.604C165.629 233.604 166.476 233.865 167.073 234.387C167.677 234.908 167.979 235.69 167.979 236.733V240.891C167.979 241.271 168.008 241.632 168.066 241.972C168.125 242.306 168.207 242.602 168.312 242.859V243H166.792C166.71 242.854 166.634 242.663 166.563 242.429C166.499 242.194 166.458 241.96 166.44 241.726C166.229 242.106 165.884 242.443 165.403 242.736C164.923 243.023 164.305 243.167 163.549 243.167C162.676 243.167 161.938 242.924 161.334 242.438C160.73 241.945 160.429 241.239 160.429 240.319ZM162.002 240.231C162.002 240.759 162.154 241.172 162.459 241.471C162.77 241.764 163.244 241.91 163.883 241.91C164.521 241.91 165.102 241.69 165.623 241.251C166.145 240.806 166.405 240.331 166.405 239.827V238.509H164.507C163.681 238.509 163.057 238.664 162.635 238.975C162.213 239.285 162.002 239.704 162.002 240.231ZM174.843 243V229.562H176.416V243H174.843ZM178.517 240.319C178.517 239.394 178.883 238.673 179.615 238.157C180.348 237.642 181.282 237.384 182.419 237.384H184.493V236.733C184.493 236.177 184.35 235.729 184.062 235.389C183.775 235.043 183.283 234.87 182.586 234.87C181.889 234.87 181.385 235.014 181.074 235.301C180.77 235.582 180.617 235.919 180.617 236.312V236.364H179.053V236.303C179.053 235.576 179.372 234.946 180.011 234.413C180.655 233.874 181.525 233.604 182.621 233.604C183.717 233.604 184.563 233.865 185.161 234.387C185.765 234.908 186.066 235.69 186.066 236.733V240.891C186.066 241.271 186.096 241.632 186.154 241.972C186.213 242.306 186.295 242.602 186.4 242.859V243H184.88C184.798 242.854 184.722 242.663 184.651 242.429C184.587 242.194 184.546 241.96 184.528 241.726C184.317 242.106 183.972 242.443 183.491 242.736C183.011 243.023 182.393 243.167 181.637 243.167C180.764 243.167 180.025 242.924 179.422 242.438C178.818 241.945 178.517 241.239 178.517 240.319ZM180.09 240.231C180.09 240.759 180.242 241.172 180.547 241.471C180.857 241.764 181.332 241.91 181.971 241.91C182.609 241.91 183.189 241.69 183.711 241.251C184.232 240.806 184.493 240.331 184.493 239.827V238.509H182.595C181.769 238.509 181.145 238.664 180.723 238.975C180.301 239.285 180.09 239.704 180.09 240.231ZM188.009 240.293H189.582V240.354C189.582 240.894 189.775 241.298 190.162 241.567C190.555 241.831 191.07 241.963 191.709 241.963C192.354 241.963 192.86 241.837 193.229 241.585C193.604 241.327 193.792 240.99 193.792 240.574C193.792 240.158 193.64 239.842 193.335 239.625C193.036 239.402 192.395 239.174 191.41 238.939C190.432 238.705 189.655 238.38 189.081 237.964C188.513 237.548 188.229 236.965 188.229 236.215C188.229 235.459 188.536 234.835 189.151 234.343C189.772 233.851 190.599 233.604 191.63 233.604C192.667 233.604 193.502 233.851 194.135 234.343C194.768 234.835 195.084 235.506 195.084 236.355V236.408H193.52V236.32C193.52 235.869 193.364 235.521 193.054 235.274C192.743 235.022 192.269 234.896 191.63 234.896C190.991 234.896 190.522 235.014 190.224 235.248C189.931 235.477 189.784 235.772 189.784 236.136C189.784 236.487 189.951 236.766 190.285 236.971C190.625 237.176 191.284 237.396 192.263 237.63C193.241 237.864 193.997 238.198 194.53 238.632C195.069 239.06 195.339 239.678 195.339 240.486C195.339 241.295 195.037 241.96 194.434 242.481C193.83 242.997 192.922 243.255 191.709 243.255C190.502 243.255 189.582 242.991 188.949 242.464C188.322 241.937 188.009 241.233 188.009 240.354V240.293ZM196.051 235.072V233.859H201.245V235.072H196.051ZM197.686 240.724V234.58V234.334V231.504H199.259V240.724C199.259 241.151 199.341 241.456 199.505 241.638C199.669 241.813 199.93 241.901 200.287 241.901C200.445 241.901 200.604 241.884 200.762 241.849C200.92 241.813 201.078 241.767 201.236 241.708V243C201.09 243.07 200.896 243.129 200.656 243.176C200.416 243.229 200.155 243.255 199.874 243.255C199.206 243.255 198.673 243.053 198.274 242.648C197.882 242.244 197.686 241.603 197.686 240.724ZM203.012 243V233.859H204.585V243H203.012ZM202.81 231.047C202.81 230.777 202.895 230.552 203.064 230.37C203.234 230.188 203.48 230.098 203.803 230.098C204.119 230.098 204.362 230.188 204.532 230.37C204.702 230.552 204.787 230.777 204.787 231.047C204.787 231.311 204.702 231.536 204.532 231.724C204.362 231.905 204.116 231.996 203.794 231.996C203.478 231.996 203.234 231.905 203.064 231.724C202.895 231.536 202.81 231.311 202.81 231.047ZM207.222 243V233.859H208.646L208.716 235.046H208.76C209.088 234.624 209.492 234.293 209.973 234.053C210.453 233.807 210.986 233.684 211.572 233.684C212.486 233.684 213.216 233.947 213.761 234.475C214.306 234.996 214.578 235.869 214.578 237.094V243H213.005V237.085C213.005 236.341 212.838 235.811 212.504 235.494C212.176 235.172 211.71 235.011 211.106 235.011C210.585 235.011 210.125 235.151 209.727 235.433C209.328 235.714 209.018 236.08 208.795 236.531V243H207.222ZM216.846 245.522L217.821 244.336C218.079 244.629 218.439 244.887 218.902 245.109C219.371 245.338 219.898 245.452 220.484 245.452C221.264 245.452 221.882 245.224 222.339 244.767C222.796 244.315 223.024 243.665 223.024 242.815V241.91C222.755 242.285 222.395 242.59 221.943 242.824C221.492 243.053 220.944 243.167 220.3 243.167C219.146 243.167 218.223 242.733 217.531 241.866C216.84 240.999 216.494 239.9 216.494 238.57V238.289C216.494 236.959 216.84 235.86 217.531 234.993C218.223 234.12 219.148 233.684 220.309 233.684C220.947 233.684 221.507 233.818 221.987 234.088C222.468 234.352 222.825 234.674 223.06 235.055H223.104L223.174 233.859H224.598V242.815C224.598 244.11 224.22 245.104 223.464 245.795C222.714 246.486 221.732 246.832 220.52 246.832C219.77 246.832 219.078 246.709 218.445 246.463C217.812 246.217 217.279 245.903 216.846 245.522ZM218.103 238.57C218.103 239.508 218.308 240.293 218.718 240.926C219.128 241.559 219.772 241.875 220.651 241.875C221.231 241.875 221.727 241.717 222.137 241.4C222.547 241.078 222.843 240.712 223.024 240.302V236.558C222.843 236.147 222.547 235.784 222.137 235.468C221.727 235.146 221.231 234.984 220.651 234.984C219.772 234.984 219.128 235.301 218.718 235.934C218.308 236.566 218.103 237.352 218.103 238.289V238.57ZM227.287 242.121C227.287 241.828 227.381 241.579 227.568 241.374C227.762 241.163 228.037 241.058 228.395 241.058C228.752 241.058 229.024 241.163 229.212 241.374C229.405 241.579 229.502 241.828 229.502 242.121C229.502 242.42 229.405 242.675 229.212 242.886C229.024 243.091 228.752 243.193 228.395 243.193C228.037 243.193 227.762 243.091 227.568 242.886C227.381 242.675 227.287 242.42 227.287 242.121Z" fill="#B3B3B2"/>
<path d="M520.874 297.185V296.628H524.009V297.111C524.009 298.371 524.395 299.313 525.166 299.938C525.938 300.563 527.017 300.876 528.403 300.876C529.79 300.876 530.85 300.568 531.582 299.953C532.324 299.328 532.695 298.508 532.695 297.492C532.695 296.535 532.344 295.778 531.641 295.222C530.938 294.665 529.57 294.074 527.539 293.449C525.361 292.775 523.77 291.975 522.764 291.047C521.758 290.119 521.255 288.806 521.255 287.106C521.255 285.397 521.88 284.001 523.13 282.917C524.38 281.833 526.099 281.291 528.286 281.291C530.444 281.291 532.168 281.843 533.457 282.946C534.756 284.04 535.405 285.51 535.405 287.355V287.795H532.3V287.414C532.3 286.32 531.963 285.446 531.289 284.792C530.615 284.138 529.619 283.811 528.301 283.811C526.953 283.811 525.962 284.094 525.327 284.66C524.702 285.217 524.39 285.979 524.39 286.945C524.39 287.834 524.722 288.537 525.386 289.055C526.06 289.562 527.427 290.134 529.487 290.769C531.636 291.423 533.228 292.248 534.263 293.244C535.298 294.23 535.815 295.598 535.815 297.346C535.815 299.172 535.146 300.637 533.809 301.74C532.471 302.834 530.674 303.381 528.418 303.381C526.162 303.381 524.341 302.844 522.954 301.77C521.567 300.695 520.874 299.167 520.874 297.185ZM537.163 284.235V281.672H553.159V284.235H546.758V303H543.579V284.235H537.163ZM552.119 303L559.648 281.584H562.974L570.518 303H567.236L561.787 286.901C561.67 286.55 561.567 286.228 561.479 285.935C561.401 285.632 561.328 285.324 561.26 285.012H561.157C561.079 285.324 560.996 285.632 560.908 285.935C560.83 286.237 560.732 286.56 560.615 286.901L555.195 303H552.119ZM555.664 297.653L556.44 295.222H566.079L566.855 297.653H555.664ZM572.524 303V281.672H579.482C581.699 281.672 583.403 282.248 584.595 283.4C585.796 284.553 586.396 286.101 586.396 288.044C586.396 289.987 585.791 291.555 584.58 292.746C583.369 293.928 581.665 294.519 579.468 294.519H575.703V303H572.524ZM575.703 292.087H579.292C580.757 292.087 581.777 291.711 582.354 290.959C582.939 290.197 583.232 289.24 583.232 288.088C583.232 286.926 582.939 285.983 582.354 285.261C581.777 284.528 580.757 284.157 579.292 284.147H575.703V292.087ZM583.877 303L578.882 293.215L582.046 292.805L587.407 303H583.877ZM587.231 284.235V281.672H603.228V284.235H596.826V303H593.647V284.235H587.231ZM604.487 297.185V296.628H607.622V297.111C607.622 298.371 608.008 299.313 608.779 299.938C609.551 300.563 610.63 300.876 612.017 300.876C613.403 300.876 614.463 300.568 615.195 299.953C615.938 299.328 616.309 298.508 616.309 297.492C616.309 296.535 615.957 295.778 615.254 295.222C614.551 294.665 613.184 294.074 611.152 293.449C608.975 292.775 607.383 291.975 606.377 291.047C605.371 290.119 604.868 288.806 604.868 287.106C604.868 285.397 605.493 284.001 606.743 282.917C607.993 281.833 609.712 281.291 611.899 281.291C614.058 281.291 615.781 281.843 617.07 282.946C618.369 284.04 619.019 285.51 619.019 287.355V287.795H615.913V287.414C615.913 286.32 615.576 285.446 614.902 284.792C614.229 284.138 613.232 283.811 611.914 283.811C610.566 283.811 609.575 284.094 608.94 284.66C608.315 285.217 608.003 285.979 608.003 286.945C608.003 287.834 608.335 288.537 608.999 289.055C609.673 289.562 611.04 290.134 613.101 290.769C615.249 291.423 616.841 292.248 617.876 293.244C618.911 294.23 619.429 295.598 619.429 297.346C619.429 299.172 618.76 300.637 617.422 301.74C616.084 302.834 614.287 303.381 612.031 303.381C609.775 303.381 607.954 302.844 606.567 301.77C605.181 300.695 604.487 299.167 604.487 297.185ZM629.419 303V281.672H641.885V284.235H632.598V291.179H640.654V293.684H632.598V303H629.419ZM644.683 303V281.672H651.641C653.857 281.672 655.562 282.248 656.753 283.4C657.954 284.553 658.555 286.101 658.555 288.044C658.555 289.987 657.949 291.555 656.738 292.746C655.527 293.928 653.823 294.519 651.626 294.519H647.861V303H644.683ZM647.861 292.087H651.45C652.915 292.087 653.936 291.711 654.512 290.959C655.098 290.197 655.391 289.24 655.391 288.088C655.391 286.926 655.098 285.983 654.512 285.261C653.936 284.528 652.915 284.157 651.45 284.147H647.861V292.087ZM656.035 303L651.04 293.215L654.204 292.805L659.565 303H656.035ZM661.426 292.966V291.706C661.426 288.249 662.236 285.651 663.857 283.913C665.479 282.165 667.568 281.291 670.127 281.291C672.686 281.291 674.775 282.165 676.396 283.913C678.027 285.651 678.843 288.249 678.843 291.706V292.966C678.843 296.423 678.027 299.025 676.396 300.773C674.775 302.512 672.686 303.381 670.127 303.381C667.568 303.381 665.479 302.512 663.857 300.773C662.236 299.025 661.426 296.423 661.426 292.966ZM664.663 293.244C664.663 295.793 665.156 297.697 666.143 298.957C667.139 300.217 668.467 300.847 670.127 300.847C671.787 300.847 673.11 300.217 674.097 298.957C675.093 297.697 675.591 295.793 675.591 293.244V291.428C675.591 288.879 675.093 286.975 674.097 285.715C673.11 284.455 671.787 283.825 670.127 283.825C668.467 283.825 667.139 284.455 666.143 285.715C665.156 286.975 664.663 288.879 664.663 291.428V293.244ZM682.417 303V281.672H686.592L692.349 297.111C692.466 297.434 692.573 297.751 692.671 298.063C692.769 298.376 692.852 298.698 692.92 299.03H693.008C693.086 298.698 693.174 298.376 693.271 298.063C693.369 297.741 693.472 297.424 693.579 297.111L699.336 281.672H703.54V303H700.435V287.971C700.435 287.658 700.439 287.312 700.449 286.931C700.459 286.54 700.479 286.184 700.508 285.861H700.405C700.347 286.184 700.259 286.54 700.142 286.931C700.034 287.312 699.927 287.658 699.819 287.971L694.238 303H691.484L685.903 287.971C685.786 287.658 685.669 287.292 685.552 286.872C685.435 286.452 685.356 286.115 685.317 285.861H685.215C685.244 286.115 685.264 286.452 685.273 286.872C685.293 287.292 685.303 287.658 685.303 287.971V303H682.417ZM712.988 297.141V296.877H715.947V297.082C715.947 298.312 716.318 299.23 717.061 299.836C717.812 300.432 718.857 300.729 720.195 300.729C721.523 300.729 722.544 300.437 723.257 299.851C723.97 299.255 724.326 298.469 724.326 297.492C724.326 296.613 724.033 295.847 723.447 295.192C722.861 294.538 721.514 293.928 719.404 293.361C717.246 292.785 715.698 291.994 714.761 290.988C713.833 289.982 713.369 288.698 713.369 287.136C713.369 285.495 713.965 284.172 715.156 283.166C716.348 282.15 717.979 281.643 720.049 281.643C722.139 281.643 723.799 282.194 725.029 283.298C726.27 284.401 726.89 285.793 726.89 287.473V287.707H723.945V287.531C723.945 286.457 723.618 285.603 722.964 284.968C722.31 284.323 721.343 284.001 720.063 284.001C718.784 284.001 717.842 284.265 717.236 284.792C716.631 285.31 716.328 286.057 716.328 287.033C716.328 287.844 716.626 288.557 717.222 289.172C717.817 289.777 719.165 290.363 721.265 290.93C723.394 291.486 724.927 292.292 725.864 293.347C726.812 294.401 727.285 295.744 727.285 297.375C727.285 299.094 726.646 300.476 725.366 301.521C724.087 302.556 722.368 303.073 720.21 303.073C718.042 303.073 716.294 302.556 714.966 301.521C713.647 300.485 712.988 299.025 712.988 297.141ZM718.95 305.358V292.028H721.279V301.916L721.455 302.062V305.358H718.95ZM719.082 292.028V282.727L718.892 282.58V279.636H721.396V292.028H719.082ZM734.99 303V284.807L729.702 286.857V284.016L736.807 281.408H738.169V303H734.99ZM745.259 305.842C745.688 305.266 746.016 304.675 746.24 304.069C746.475 303.464 746.592 302.761 746.592 301.96V299.543H749.492V301.96C749.492 302.946 749.282 303.85 748.862 304.67C748.442 305.5 747.886 306.213 747.192 306.809L745.259 305.842ZM753.066 297.463V297.155H756.172V297.448C756.172 298.562 756.509 299.421 757.183 300.026C757.866 300.622 758.794 300.92 759.966 300.92C761.138 300.92 762.075 300.52 762.778 299.719C763.481 298.918 763.833 297.727 763.833 296.145C763.833 294.572 763.481 293.425 762.778 292.702C762.085 291.97 761.182 291.604 760.068 291.604C759.238 291.604 758.511 291.765 757.886 292.087C757.261 292.409 756.724 292.834 756.274 293.361L753.784 292.438L754.868 281.672H765.928V284.323L757.388 284.309L756.772 290.344C757.222 290.012 757.783 289.729 758.457 289.494C759.131 289.26 759.873 289.143 760.684 289.143C762.441 289.143 763.936 289.733 765.166 290.915C766.396 292.087 767.012 293.806 767.012 296.071C767.012 298.376 766.367 300.173 765.078 301.462C763.789 302.741 762.085 303.381 759.966 303.381C757.798 303.381 756.104 302.839 754.883 301.755C753.672 300.671 753.066 299.24 753.066 297.463ZM769.341 296.159V288.513C769.341 286.286 769.927 284.528 771.099 283.239C772.28 281.94 773.931 281.291 776.05 281.291C778.159 281.291 779.805 281.936 780.986 283.225C782.168 284.514 782.759 286.276 782.759 288.513V296.159C782.759 298.405 782.163 300.173 780.972 301.462C779.78 302.751 778.14 303.391 776.05 303.381C773.931 303.381 772.28 302.736 771.099 301.447C769.927 300.158 769.341 298.396 769.341 296.159ZM772.549 296.481C772.549 297.819 772.832 298.894 773.398 299.704C773.975 300.505 774.858 300.905 776.05 300.905C777.241 300.905 778.12 300.505 778.687 299.704C779.263 298.894 779.551 297.819 779.551 296.481V288.205C779.551 286.857 779.263 285.783 778.687 284.982C778.12 284.182 777.241 283.781 776.05 283.781C774.858 283.781 773.975 284.182 773.398 284.982C772.832 285.783 772.549 286.857 772.549 288.205V296.481ZM785.308 296.159V288.513C785.308 286.286 785.894 284.528 787.065 283.239C788.247 281.94 789.897 281.291 792.017 281.291C794.126 281.291 795.771 281.936 796.953 283.225C798.135 284.514 798.726 286.276 798.726 288.513V296.159C798.726 298.405 798.13 300.173 796.938 301.462C795.747 302.751 794.106 303.391 792.017 303.381C789.897 303.381 788.247 302.736 787.065 301.447C785.894 300.158 785.308 298.396 785.308 296.159ZM788.516 296.481C788.516 297.819 788.799 298.894 789.365 299.704C789.941 300.505 790.825 300.905 792.017 300.905C793.208 300.905 794.087 300.505 794.653 299.704C795.229 298.894 795.518 297.819 795.518 296.481V288.205C795.518 286.857 795.229 285.783 794.653 284.982C794.087 284.182 793.208 283.781 792.017 283.781C790.825 283.781 789.941 284.182 789.365 284.982C788.799 285.783 788.516 286.857 788.516 288.205V296.481Z" fill="#F9EFEC"/>
</svg>
