<svg width="1167" height="70" viewBox="0 0 1167 70" fill="none" xmlns="http://www.w3.org/2000/svg">
<g clip-path="url(#clip0_145_7985)">
<rect width="1167" height="70" rx="12" fill="#0F0F0F"/>
<path d="M-117.486 43V28.7812H-114.195C-113.642 28.7878 -113.121 28.8464 -112.633 28.957C-112.138 29.0612 -111.682 29.2109 -111.266 29.4062C-110.686 29.6732 -110.175 30.0247 -109.732 30.4609C-109.283 30.8906 -108.925 31.3887 -108.658 31.9551C-108.417 32.4368 -108.235 32.9642 -108.111 33.5371C-107.981 34.11 -107.913 34.722 -107.906 35.373V36.418C-107.906 37.043 -107.968 37.6354 -108.092 38.1953C-108.209 38.7552 -108.382 39.2695 -108.609 39.7383C-108.844 40.2266 -109.14 40.6693 -109.498 41.0664C-109.856 41.4635 -110.257 41.8021 -110.699 42.082C-111.168 42.375 -111.699 42.5996 -112.291 42.7559C-112.877 42.9121 -113.512 42.9935 -114.195 43H-117.486ZM-115.65 30.2656V41.5254H-114.195C-113.674 41.5189 -113.202 41.4538 -112.779 41.3301C-112.35 41.2064 -111.969 41.0306 -111.637 40.8027C-111.285 40.5684 -110.982 40.2819 -110.729 39.9434C-110.468 39.5983 -110.263 39.2142 -110.113 38.791C-109.983 38.446 -109.885 38.0749 -109.82 37.6777C-109.755 37.2741 -109.719 36.8542 -109.713 36.418V35.3535C-109.719 34.9108 -109.758 34.4876 -109.83 34.084C-109.895 33.6738 -109.996 33.293 -110.133 32.9414C-110.309 32.4857 -110.546 32.0755 -110.846 31.7109C-111.139 31.3398 -111.5 31.0404 -111.93 30.8125C-112.236 30.6432 -112.577 30.513 -112.955 30.4219C-113.333 30.3242 -113.746 30.2721 -114.195 30.2656H-115.65ZM-105.289 28.7812H-96.6953V30.3535H-100.104V41.4375H-96.6953V43H-105.289V41.4375H-101.959V30.3535H-105.289V28.7812ZM-84.0781 41.1348C-84.2995 41.3952 -84.5339 41.6328 -84.7812 41.8477C-85.0286 42.056 -85.2858 42.2383 -85.5527 42.3945C-86.0085 42.668 -86.5 42.8698 -87.0273 43C-87.5547 43.1367 -88.1081 43.2018 -88.6875 43.1953C-89.2734 43.1888 -89.8138 43.1009 -90.3086 42.9316C-90.7969 42.7559 -91.2363 42.515 -91.627 42.209C-92.0176 41.9095 -92.3594 41.5547 -92.6523 41.1445C-92.9453 40.7344 -93.1895 40.2884 -93.3848 39.8066C-93.5866 39.3314 -93.7396 38.8333 -93.8438 38.3125C-93.9414 37.7852 -93.9935 37.2546 -94 36.7207V35.0703C-93.9935 34.543 -93.9479 34.0189 -93.8633 33.498C-93.7721 32.9707 -93.6354 32.4661 -93.4531 31.9844C-93.2708 31.5026 -93.043 31.0566 -92.7695 30.6465C-92.4961 30.2298 -92.1673 29.8685 -91.7832 29.5625C-91.4056 29.263 -90.9759 29.0254 -90.4941 28.8496C-90.0124 28.6738 -89.472 28.5859 -88.873 28.5859C-88.209 28.5859 -87.597 28.6901 -87.0371 28.8984C-86.4772 29.1003 -85.9889 29.39 -85.5723 29.7676C-85.1556 30.1517 -84.8203 30.6139 -84.5664 31.1543C-84.3125 31.6882 -84.1562 32.2871 -84.0977 32.9512H-85.8848C-85.9564 32.541 -86.0671 32.1634 -86.2168 31.8184C-86.3665 31.4668 -86.5618 31.1673 -86.8027 30.9199C-87.0501 30.6725 -87.3431 30.4805 -87.6816 30.3438C-88.0202 30.2005 -88.4141 30.1289 -88.8633 30.1289C-89.293 30.1289 -89.6738 30.2038 -90.0059 30.3535C-90.3379 30.4967 -90.6276 30.6921 -90.875 30.9395C-91.1224 31.1868 -91.3275 31.4766 -91.4902 31.8086C-91.653 32.1341 -91.7865 32.4792 -91.8906 32.8438C-91.9948 33.2083 -92.0697 33.5794 -92.1152 33.957C-92.1608 34.3346 -92.1836 34.6992 -92.1836 35.0508V36.7207C-92.1771 37.0788 -92.1478 37.4499 -92.0957 37.834C-92.0371 38.2116 -91.9492 38.5827 -91.832 38.9473C-91.7148 39.3118 -91.5651 39.6569 -91.3828 39.9824C-91.2005 40.3079 -90.9792 40.5944 -90.7188 40.8418C-90.4648 41.0892 -90.1686 41.2878 -89.8301 41.4375C-89.4915 41.5807 -89.1074 41.6556 -88.6777 41.6621C-88.4303 41.6686 -88.1732 41.6589 -87.9062 41.6328C-87.6328 41.6068 -87.3691 41.5547 -87.1152 41.4766C-86.8613 41.3984 -86.6237 41.2943 -86.4023 41.1641C-86.181 41.0273 -85.9954 40.8516 -85.8457 40.6367L-85.8262 37.4434H-88.7168V35.9199H-84.1074L-84.0781 41.1348ZM-81.2656 28.7812H-72.6719V30.3535H-76.0801V41.4375H-72.6719V43H-81.2656V41.4375H-77.9355V30.3535H-81.2656V28.7812ZM-59.6641 30.3242H-64.0586V43H-65.8164V30.3242H-70.2109V28.7812H-59.6641V30.3242ZM-50.4551 39.3184H-55.2012L-56.3438 43H-58.1504L-53.5605 28.7812H-52.0469L-47.5352 43H-49.332L-50.4551 39.3184ZM-54.7129 37.7461H-50.9336L-52.8086 31.5742L-54.7129 37.7461ZM-43.1895 41.4668H-36.2363V43H-44.9961V28.7812H-43.1895V41.4668ZM-19.2246 28.7812L-16.9102 35.8906L-14.4102 28.7812H-12.1641V43H-13.9219V37.3262L-13.7754 31.3887L-16.4023 39.0449H-17.4375L-19.8496 31.5938L-19.7031 37.3262V43H-21.4609V28.7812H-19.2246ZM-2.4082 39.3184H-7.1543L-8.29688 43H-10.1035L-5.51367 28.7812H-4L0.511719 43H-1.28516L-2.4082 39.3184ZM-6.66602 37.7461H-2.88672L-4.76172 31.5742L-6.66602 37.7461ZM7.52344 37.1992H4.68164V43H2.88477V28.7812H7.05469C7.71875 28.7943 8.34375 28.8887 8.92969 29.0645C9.51562 29.2402 10.0299 29.5039 10.4727 29.8555C10.9089 30.207 11.2507 30.6497 11.498 31.1836C11.752 31.7109 11.8789 32.3327 11.8789 33.0488C11.8789 33.5111 11.8105 33.9342 11.6738 34.3184C11.5436 34.7025 11.3613 35.0508 11.127 35.3633C10.8926 35.6758 10.6126 35.9525 10.2871 36.1934C9.96159 36.4342 9.60352 36.6393 9.21289 36.8086L12.2305 42.8828L12.2207 43H10.3164L7.52344 37.1992ZM4.68164 35.7148H7.10352C7.50716 35.7083 7.88802 35.6465 8.24609 35.5293C8.60417 35.4056 8.91992 35.2298 9.19336 35.002C9.46029 34.7741 9.67188 34.4974 9.82812 34.1719C9.98438 33.8398 10.0625 33.459 10.0625 33.0293C10.0625 32.5736 9.98763 32.1764 9.83789 31.8379C9.68815 31.4928 9.47982 31.2031 9.21289 30.9688C8.94596 30.7409 8.62695 30.5684 8.25586 30.4512C7.89128 30.334 7.49089 30.2721 7.05469 30.2656H4.68164V35.7148ZM18.2363 36.3984L16.6543 38.1953V43H14.8086V28.7812H16.6543V35.7246L18.0312 34.0059L22.2012 28.7812H24.3984L19.4277 35.002L24.7305 43H22.5332L18.2363 36.3984ZM34.6621 36.4277H28.7246V41.4668H35.6484V43H26.918V28.7812H35.5605V30.3242H28.7246V34.8945H34.6621V36.4277ZM48.4414 30.3242H44.0469V43H42.2891V30.3242H37.8945V28.7812H48.4414V30.3242ZM50.8633 28.7812H59.457V30.3535H56.0488V41.4375H59.457V43H50.8633V41.4375H54.1934V30.3535H50.8633V28.7812ZM71.7812 43H69.9453L64.4277 32.375L64.3984 43H62.5723V28.7812H64.4082L69.9258 39.3867L69.9551 28.7812H71.7812V43ZM84.0859 41.1348C83.8646 41.3952 83.6302 41.6328 83.3828 41.8477C83.1354 42.056 82.8783 42.2383 82.6113 42.3945C82.1556 42.668 81.6641 42.8698 81.1367 43C80.6094 43.1367 80.056 43.2018 79.4766 43.1953C78.8906 43.1888 78.3503 43.1009 77.8555 42.9316C77.3672 42.7559 76.9277 42.515 76.5371 42.209C76.1465 41.9095 75.8047 41.5547 75.5117 41.1445C75.2188 40.7344 74.9746 40.2884 74.7793 39.8066C74.5775 39.3314 74.4245 38.8333 74.3203 38.3125C74.2227 37.7852 74.1706 37.2546 74.1641 36.7207V35.0703C74.1706 34.543 74.2161 34.0189 74.3008 33.498C74.3919 32.9707 74.5286 32.4661 74.7109 31.9844C74.8932 31.5026 75.1211 31.0566 75.3945 30.6465C75.668 30.2298 75.9967 29.8685 76.3809 29.5625C76.7585 29.263 77.1882 29.0254 77.6699 28.8496C78.1517 28.6738 78.6921 28.5859 79.291 28.5859C79.9551 28.5859 80.5671 28.6901 81.127 28.8984C81.6868 29.1003 82.1751 29.39 82.5918 29.7676C83.0085 30.1517 83.3438 30.6139 83.5977 31.1543C83.8516 31.6882 84.0078 32.2871 84.0664 32.9512H82.2793C82.2077 32.541 82.097 32.1634 81.9473 31.8184C81.7975 31.4668 81.6022 31.1673 81.3613 30.9199C81.1139 30.6725 80.821 30.4805 80.4824 30.3438C80.1439 30.2005 79.75 30.1289 79.3008 30.1289C78.8711 30.1289 78.4902 30.2038 78.1582 30.3535C77.8262 30.4967 77.5365 30.6921 77.2891 30.9395C77.0417 31.1868 76.8366 31.4766 76.6738 31.8086C76.5111 32.1341 76.3776 32.4792 76.2734 32.8438C76.1693 33.2083 76.0944 33.5794 76.0488 33.957C76.0033 34.3346 75.9805 34.6992 75.9805 35.0508V36.7207C75.987 37.0788 76.0163 37.4499 76.0684 37.834C76.127 38.2116 76.2148 38.5827 76.332 38.9473C76.4492 39.3118 76.599 39.6569 76.7812 39.9824C76.9635 40.3079 77.1849 40.5944 77.4453 40.8418C77.6992 41.0892 77.9954 41.2878 78.334 41.4375C78.6725 41.5807 79.0566 41.6556 79.4863 41.6621C79.7337 41.6686 79.9909 41.6589 80.2578 41.6328C80.5312 41.6068 80.7949 41.5547 81.0488 41.4766C81.3027 41.3984 81.5404 41.2943 81.7617 41.1641C81.9831 41.0273 82.1686 40.8516 82.3184 40.6367L82.3379 37.4434H79.4473V35.9199H84.0566L84.0859 41.1348Z" fill="#676665"/>
<circle cx="109.5" cy="35" r="3.5" fill="#CE7D63"/>
<path d="M135.441 43L133.713 28.7812H135.432L136.457 38.5859L136.516 39.1523L136.623 38.5664L138.342 28.7812H139.914L141.643 38.5762L141.75 39.1523L141.809 38.5664L142.834 28.7812H144.543L142.814 43H140.969L139.24 32.8828L139.143 32.2871L139.035 32.8926L137.297 43H135.441ZM154.533 36.4277H148.596V41.4668H155.52V43H146.789V28.7812H155.432V30.3242H148.596V34.8945H154.533V36.4277ZM158.703 43V28.7812H162.932C163.518 28.7878 164.09 28.8659 164.65 29.0156C165.21 29.1589 165.708 29.3835 166.145 29.6895C166.581 29.9954 166.929 30.3861 167.189 30.8613C167.45 31.3366 167.577 31.9062 167.57 32.5703C167.564 32.9414 167.502 33.2799 167.385 33.5859C167.274 33.8919 167.121 34.1654 166.926 34.4062C166.724 34.6536 166.499 34.862 166.252 35.0312C166.011 35.2005 165.718 35.36 165.373 35.5098V35.5391C165.731 35.6237 166.076 35.7767 166.408 35.998C166.74 36.2194 167.014 36.4635 167.229 36.7305C167.456 37.0234 167.632 37.3522 167.756 37.7168C167.886 38.0814 167.951 38.4753 167.951 38.8984C167.958 39.5625 167.831 40.1484 167.57 40.6562C167.31 41.1641 166.962 41.5872 166.525 41.9258C166.089 42.2708 165.585 42.5345 165.012 42.7168C164.445 42.8991 163.859 42.9935 163.254 43H158.703ZM160.52 36.3496V41.4668H163.303C163.68 41.4603 164.038 41.3984 164.377 41.2812C164.715 41.1576 165.015 40.9883 165.275 40.7734C165.536 40.5586 165.741 40.2949 165.891 39.9824C166.047 39.6699 166.125 39.3151 166.125 38.918C166.132 38.5143 166.063 38.1562 165.92 37.8438C165.783 37.5312 165.591 37.2643 165.344 37.043C165.096 36.8281 164.807 36.6621 164.475 36.5449C164.143 36.4277 163.785 36.3626 163.4 36.3496H160.52ZM160.52 34.8457H163.039C163.378 34.8392 163.71 34.7871 164.035 34.6895C164.361 34.5853 164.65 34.4355 164.904 34.2402C165.158 34.0514 165.363 33.8171 165.52 33.5371C165.676 33.2572 165.754 32.9316 165.754 32.5605C165.754 32.1634 165.676 31.8249 165.52 31.5449C165.37 31.265 165.168 31.0339 164.914 30.8516C164.654 30.6758 164.354 30.5456 164.016 30.4609C163.684 30.3763 163.342 30.3307 162.99 30.3242H160.52V34.8457ZM178.176 39.4062C178.176 38.9701 178.075 38.6022 177.873 38.3027C177.678 38.0033 177.424 37.7493 177.111 37.541C176.799 37.3392 176.454 37.1699 176.076 37.0332C175.705 36.8965 175.347 36.7728 175.002 36.6621C174.501 36.4993 173.99 36.304 173.469 36.0762C172.954 35.8418 172.486 35.5618 172.062 35.2363C171.633 34.9043 171.281 34.5137 171.008 34.0645C170.741 33.6087 170.607 33.0749 170.607 32.4629C170.607 31.8509 170.741 31.304 171.008 30.8223C171.281 30.3405 171.636 29.9336 172.072 29.6016C172.508 29.2695 173.003 29.0189 173.557 28.8496C174.11 28.6738 174.667 28.5859 175.227 28.5859C175.845 28.5859 176.441 28.6901 177.014 28.8984C177.587 29.1003 178.094 29.3867 178.537 29.7578C178.98 30.1289 179.335 30.5781 179.602 31.1055C179.868 31.6328 180.008 32.222 180.021 32.873H178.166C178.114 32.4629 178.013 32.0918 177.863 31.7598C177.714 31.4212 177.515 31.1315 177.268 30.8906C177.02 30.6497 176.724 30.4642 176.379 30.334C176.04 30.1973 175.656 30.1289 175.227 30.1289C174.882 30.1289 174.543 30.1777 174.211 30.2754C173.885 30.373 173.596 30.5195 173.342 30.7148C173.081 30.9102 172.873 31.151 172.717 31.4375C172.567 31.724 172.492 32.056 172.492 32.4336C172.499 32.8438 172.603 33.1921 172.805 33.4785C173.007 33.7585 173.264 33.9961 173.576 34.1914C173.882 34.3867 174.214 34.5495 174.572 34.6797C174.937 34.8099 175.279 34.9238 175.598 35.0215C176.125 35.1842 176.652 35.3828 177.18 35.6172C177.707 35.8451 178.189 36.138 178.625 36.4961C179.055 36.8281 179.4 37.235 179.66 37.7168C179.927 38.1986 180.061 38.7552 180.061 39.3867C180.061 40.0247 179.917 40.5814 179.631 41.0566C179.351 41.5319 178.986 41.9258 178.537 42.2383C178.088 42.5573 177.58 42.7982 177.014 42.9609C176.447 43.1172 175.881 43.1953 175.314 43.1953C174.637 43.1953 173.97 43.0814 173.312 42.8535C172.661 42.6257 172.095 42.2969 171.613 41.8672C171.184 41.4961 170.842 41.0632 170.588 40.5684C170.34 40.0671 170.207 39.5104 170.188 38.8984H172.033C172.092 39.3411 172.212 39.735 172.395 40.0801C172.577 40.4186 172.811 40.7051 173.098 40.9395C173.384 41.1803 173.713 41.3626 174.084 41.4863C174.462 41.6035 174.872 41.6621 175.314 41.6621C175.666 41.6621 176.011 41.6198 176.35 41.5352C176.695 41.444 177.001 41.304 177.268 41.1152C177.535 40.9329 177.753 40.7018 177.922 40.4219C178.091 40.1354 178.176 39.7969 178.176 39.4062ZM182.746 28.7812H191.34V30.3535H187.932V41.4375H191.34V43H182.746V41.4375H186.076V30.3535H182.746V28.7812ZM204.348 30.3242H199.953V43H198.195V30.3242H193.801V28.7812H204.348V30.3242ZM214.592 36.4277H208.654V41.4668H215.578V43H206.848V28.7812H215.49V30.3242H208.654V34.8945H214.592V36.4277ZM230.607 43V28.7812H233.898C234.452 28.7878 234.973 28.8464 235.461 28.957C235.956 29.0612 236.411 29.2109 236.828 29.4062C237.408 29.6732 237.919 30.0247 238.361 30.4609C238.811 30.8906 239.169 31.3887 239.436 31.9551C239.676 32.4368 239.859 32.9642 239.982 33.5371C240.113 34.11 240.181 34.722 240.188 35.373V36.418C240.188 37.043 240.126 37.6354 240.002 38.1953C239.885 38.7552 239.712 39.2695 239.484 39.7383C239.25 40.2266 238.954 40.6693 238.596 41.0664C238.238 41.4635 237.837 41.8021 237.395 42.082C236.926 42.375 236.395 42.5996 235.803 42.7559C235.217 42.9121 234.582 42.9935 233.898 43H230.607ZM232.443 30.2656V41.5254H233.898C234.419 41.5189 234.891 41.4538 235.314 41.3301C235.744 41.2064 236.125 41.0306 236.457 40.8027C236.809 40.5684 237.111 40.2819 237.365 39.9434C237.626 39.5983 237.831 39.2142 237.98 38.791C238.111 38.446 238.208 38.0749 238.273 37.6777C238.339 37.2741 238.374 36.8542 238.381 36.418V35.3535C238.374 34.9108 238.335 34.4876 238.264 34.084C238.199 33.6738 238.098 33.293 237.961 32.9414C237.785 32.4857 237.548 32.0755 237.248 31.7109C236.955 31.3398 236.594 31.0404 236.164 30.8125C235.858 30.6432 235.516 30.513 235.139 30.4219C234.761 30.3242 234.348 30.2721 233.898 30.2656H232.443ZM250.627 36.4277H244.689V41.4668H251.613V43H242.883V28.7812H251.525V30.3242H244.689V34.8945H250.627V36.4277ZM262.258 39.4062C262.258 38.9701 262.157 38.6022 261.955 38.3027C261.76 38.0033 261.506 37.7493 261.193 37.541C260.881 37.3392 260.536 37.1699 260.158 37.0332C259.787 36.8965 259.429 36.7728 259.084 36.6621C258.583 36.4993 258.072 36.304 257.551 36.0762C257.036 35.8418 256.568 35.5618 256.145 35.2363C255.715 34.9043 255.363 34.5137 255.09 34.0645C254.823 33.6087 254.689 33.0749 254.689 32.4629C254.689 31.8509 254.823 31.304 255.09 30.8223C255.363 30.3405 255.718 29.9336 256.154 29.6016C256.59 29.2695 257.085 29.0189 257.639 28.8496C258.192 28.6738 258.749 28.5859 259.309 28.5859C259.927 28.5859 260.523 28.6901 261.096 28.8984C261.669 29.1003 262.176 29.3867 262.619 29.7578C263.062 30.1289 263.417 30.5781 263.684 31.1055C263.951 31.6328 264.09 32.222 264.104 32.873H262.248C262.196 32.4629 262.095 32.0918 261.945 31.7598C261.796 31.4212 261.597 31.1315 261.35 30.8906C261.102 30.6497 260.806 30.4642 260.461 30.334C260.122 30.1973 259.738 30.1289 259.309 30.1289C258.964 30.1289 258.625 30.1777 258.293 30.2754C257.967 30.373 257.678 30.5195 257.424 30.7148C257.163 30.9102 256.955 31.151 256.799 31.4375C256.649 31.724 256.574 32.056 256.574 32.4336C256.581 32.8438 256.685 33.1921 256.887 33.4785C257.089 33.7585 257.346 33.9961 257.658 34.1914C257.964 34.3867 258.296 34.5495 258.654 34.6797C259.019 34.8099 259.361 34.9238 259.68 35.0215C260.207 35.1842 260.734 35.3828 261.262 35.6172C261.789 35.8451 262.271 36.138 262.707 36.4961C263.137 36.8281 263.482 37.235 263.742 37.7168C264.009 38.1986 264.143 38.7552 264.143 39.3867C264.143 40.0247 263.999 40.5814 263.713 41.0566C263.433 41.5319 263.068 41.9258 262.619 42.2383C262.17 42.5573 261.662 42.7982 261.096 42.9609C260.529 43.1172 259.963 43.1953 259.396 43.1953C258.719 43.1953 258.052 43.0814 257.395 42.8535C256.743 42.6257 256.177 42.2969 255.695 41.8672C255.266 41.4961 254.924 41.0632 254.67 40.5684C254.423 40.0671 254.289 39.5104 254.27 38.8984H256.115C256.174 39.3411 256.294 39.735 256.477 40.0801C256.659 40.4186 256.893 40.7051 257.18 40.9395C257.466 41.1803 257.795 41.3626 258.166 41.4863C258.544 41.6035 258.954 41.6621 259.396 41.6621C259.748 41.6621 260.093 41.6198 260.432 41.5352C260.777 41.444 261.083 41.304 261.35 41.1152C261.617 40.9329 261.835 40.7018 262.004 40.4219C262.173 40.1354 262.258 39.7969 262.258 39.4062ZM266.828 28.7812H275.422V30.3535H272.014V41.4375H275.422V43H266.828V41.4375H270.158V30.3535H266.828V28.7812ZM288.039 41.1348C287.818 41.3952 287.583 41.6328 287.336 41.8477C287.089 42.056 286.831 42.2383 286.564 42.3945C286.109 42.668 285.617 42.8698 285.09 43C284.562 43.1367 284.009 43.2018 283.43 43.1953C282.844 43.1888 282.303 43.1009 281.809 42.9316C281.32 42.7559 280.881 42.515 280.49 42.209C280.1 41.9095 279.758 41.5547 279.465 41.1445C279.172 40.7344 278.928 40.2884 278.732 39.8066C278.531 39.3314 278.378 38.8333 278.273 38.3125C278.176 37.7852 278.124 37.2546 278.117 36.7207V35.0703C278.124 34.543 278.169 34.0189 278.254 33.498C278.345 32.9707 278.482 32.4661 278.664 31.9844C278.846 31.5026 279.074 31.0566 279.348 30.6465C279.621 30.2298 279.95 29.8685 280.334 29.5625C280.712 29.263 281.141 29.0254 281.623 28.8496C282.105 28.6738 282.645 28.5859 283.244 28.5859C283.908 28.5859 284.52 28.6901 285.08 28.8984C285.64 29.1003 286.128 29.39 286.545 29.7676C286.962 30.1517 287.297 30.6139 287.551 31.1543C287.805 31.6882 287.961 32.2871 288.02 32.9512H286.232C286.161 32.541 286.05 32.1634 285.9 31.8184C285.751 31.4668 285.555 31.1673 285.314 30.9199C285.067 30.6725 284.774 30.4805 284.436 30.3438C284.097 30.2005 283.703 30.1289 283.254 30.1289C282.824 30.1289 282.443 30.2038 282.111 30.3535C281.779 30.4967 281.49 30.6921 281.242 30.9395C280.995 31.1868 280.79 31.4766 280.627 31.8086C280.464 32.1341 280.331 32.4792 280.227 32.8438C280.122 33.2083 280.048 33.5794 280.002 33.957C279.956 34.3346 279.934 34.6992 279.934 35.0508V36.7207C279.94 37.0788 279.969 37.4499 280.021 37.834C280.08 38.2116 280.168 38.5827 280.285 38.9473C280.402 39.3118 280.552 39.6569 280.734 39.9824C280.917 40.3079 281.138 40.5944 281.398 40.8418C281.652 41.0892 281.949 41.2878 282.287 41.4375C282.626 41.5807 283.01 41.6556 283.439 41.6621C283.687 41.6686 283.944 41.6589 284.211 41.6328C284.484 41.6068 284.748 41.5547 285.002 41.4766C285.256 41.3984 285.493 41.2943 285.715 41.1641C285.936 41.0273 286.122 40.8516 286.271 40.6367L286.291 37.4434H283.4V35.9199H288.01L288.039 41.1348ZM299.758 43H297.922L292.404 32.375L292.375 43H290.549V28.7812H292.385L297.902 39.3867L297.932 28.7812H299.758V43Z" fill="#676665"/>
<circle cx="325.5" cy="35" r="3.5" fill="#CE7D63"/>
<path d="M350.68 43V28.7812H354.908C355.494 28.7878 356.067 28.8659 356.627 29.0156C357.187 29.1589 357.685 29.3835 358.121 29.6895C358.557 29.9954 358.906 30.3861 359.166 30.8613C359.426 31.3366 359.553 31.9062 359.547 32.5703C359.54 32.9414 359.479 33.2799 359.361 33.5859C359.251 33.8919 359.098 34.1654 358.902 34.4062C358.701 34.6536 358.476 34.862 358.229 35.0312C357.988 35.2005 357.695 35.36 357.35 35.5098V35.5391C357.708 35.6237 358.053 35.7767 358.385 35.998C358.717 36.2194 358.99 36.4635 359.205 36.7305C359.433 37.0234 359.609 37.3522 359.732 37.7168C359.863 38.0814 359.928 38.4753 359.928 38.8984C359.934 39.5625 359.807 40.1484 359.547 40.6562C359.286 41.1641 358.938 41.5872 358.502 41.9258C358.066 42.2708 357.561 42.5345 356.988 42.7168C356.422 42.8991 355.836 42.9935 355.23 43H350.68ZM352.496 36.3496V41.4668H355.279C355.657 41.4603 356.015 41.3984 356.354 41.2812C356.692 41.1576 356.992 40.9883 357.252 40.7734C357.512 40.5586 357.717 40.2949 357.867 39.9824C358.023 39.6699 358.102 39.3151 358.102 38.918C358.108 38.5143 358.04 38.1562 357.896 37.8438C357.76 37.5312 357.568 37.2643 357.32 37.043C357.073 36.8281 356.783 36.6621 356.451 36.5449C356.119 36.4277 355.761 36.3626 355.377 36.3496H352.496ZM352.496 34.8457H355.016C355.354 34.8392 355.686 34.7871 356.012 34.6895C356.337 34.5853 356.627 34.4355 356.881 34.2402C357.135 34.0514 357.34 33.8171 357.496 33.5371C357.652 33.2572 357.73 32.9316 357.73 32.5605C357.73 32.1634 357.652 31.8249 357.496 31.5449C357.346 31.265 357.145 31.0339 356.891 30.8516C356.63 30.6758 356.331 30.5456 355.992 30.4609C355.66 30.3763 355.318 30.3307 354.967 30.3242H352.496V34.8457ZM367.418 37.1992H364.576V43H362.779V28.7812H366.949C367.613 28.7943 368.238 28.8887 368.824 29.0645C369.41 29.2402 369.924 29.5039 370.367 29.8555C370.803 30.207 371.145 30.6497 371.393 31.1836C371.646 31.7109 371.773 32.3327 371.773 33.0488C371.773 33.5111 371.705 33.9342 371.568 34.3184C371.438 34.7025 371.256 35.0508 371.021 35.3633C370.787 35.6758 370.507 35.9525 370.182 36.1934C369.856 36.4342 369.498 36.6393 369.107 36.8086L372.125 42.8828L372.115 43H370.211L367.418 37.1992ZM364.576 35.7148H366.998C367.402 35.7083 367.783 35.6465 368.141 35.5293C368.499 35.4056 368.814 35.2298 369.088 35.002C369.355 34.7741 369.566 34.4974 369.723 34.1719C369.879 33.8398 369.957 33.459 369.957 33.0293C369.957 32.5736 369.882 32.1764 369.732 31.8379C369.583 31.4928 369.374 31.2031 369.107 30.9688C368.84 30.7409 368.521 30.5684 368.15 30.4512C367.786 30.334 367.385 30.2721 366.949 30.2656H364.576V35.7148ZM381.51 39.3184H376.764L375.621 43H373.814L378.404 28.7812H379.918L384.43 43H382.633L381.51 39.3184ZM377.252 37.7461H381.031L379.156 31.5742L377.252 37.7461ZM395.641 43H393.805L388.287 32.375L388.258 43H386.432V28.7812H388.268L393.785 39.3867L393.814 28.7812H395.641V43ZM398.561 43V28.7812H401.852C402.405 28.7878 402.926 28.8464 403.414 28.957C403.909 29.0612 404.365 29.2109 404.781 29.4062C405.361 29.6732 405.872 30.0247 406.314 30.4609C406.764 30.8906 407.122 31.3887 407.389 31.9551C407.63 32.4368 407.812 32.9642 407.936 33.5371C408.066 34.11 408.134 34.722 408.141 35.373V36.418C408.141 37.043 408.079 37.6354 407.955 38.1953C407.838 38.7552 407.665 39.2695 407.438 39.7383C407.203 40.2266 406.907 40.6693 406.549 41.0664C406.191 41.4635 405.79 41.8021 405.348 42.082C404.879 42.375 404.348 42.5996 403.756 42.7559C403.17 42.9121 402.535 42.9935 401.852 43H398.561ZM400.396 30.2656V41.5254H401.852C402.372 41.5189 402.844 41.4538 403.268 41.3301C403.697 41.2064 404.078 41.0306 404.41 40.8027C404.762 40.5684 405.064 40.2819 405.318 39.9434C405.579 39.5983 405.784 39.2142 405.934 38.791C406.064 38.446 406.161 38.0749 406.227 37.6777C406.292 37.2741 406.327 36.8542 406.334 36.418V35.3535C406.327 34.9108 406.288 34.4876 406.217 34.084C406.152 33.6738 406.051 33.293 405.914 32.9414C405.738 32.4857 405.501 32.0755 405.201 31.7109C404.908 31.3398 404.547 31.0404 404.117 30.8125C403.811 30.6432 403.469 30.513 403.092 30.4219C402.714 30.3242 402.301 30.2721 401.852 30.2656H400.396ZM410.758 28.7812H419.352V30.3535H415.943V41.4375H419.352V43H410.758V41.4375H414.088V30.3535H410.758V28.7812ZM431.676 43H429.84L424.322 32.375L424.293 43H422.467V28.7812H424.303L429.82 39.3867L429.85 28.7812H431.676V43ZM443.98 41.1348C443.759 41.3952 443.525 41.6328 443.277 41.8477C443.03 42.056 442.773 42.2383 442.506 42.3945C442.05 42.668 441.559 42.8698 441.031 43C440.504 43.1367 439.951 43.2018 439.371 43.1953C438.785 43.1888 438.245 43.1009 437.75 42.9316C437.262 42.7559 436.822 42.515 436.432 42.209C436.041 41.9095 435.699 41.5547 435.406 41.1445C435.113 40.7344 434.869 40.2884 434.674 39.8066C434.472 39.3314 434.319 38.8333 434.215 38.3125C434.117 37.7852 434.065 37.2546 434.059 36.7207V35.0703C434.065 34.543 434.111 34.0189 434.195 33.498C434.286 32.9707 434.423 32.4661 434.605 31.9844C434.788 31.5026 435.016 31.0566 435.289 30.6465C435.562 30.2298 435.891 29.8685 436.275 29.5625C436.653 29.263 437.083 29.0254 437.564 28.8496C438.046 28.6738 438.587 28.5859 439.186 28.5859C439.85 28.5859 440.462 28.6901 441.021 28.8984C441.581 29.1003 442.07 29.39 442.486 29.7676C442.903 30.1517 443.238 30.6139 443.492 31.1543C443.746 31.6882 443.902 32.2871 443.961 32.9512H442.174C442.102 32.541 441.992 32.1634 441.842 31.8184C441.692 31.4668 441.497 31.1673 441.256 30.9199C441.008 30.6725 440.715 30.4805 440.377 30.3438C440.038 30.2005 439.645 30.1289 439.195 30.1289C438.766 30.1289 438.385 30.2038 438.053 30.3535C437.721 30.4967 437.431 30.6921 437.184 30.9395C436.936 31.1868 436.731 31.4766 436.568 31.8086C436.406 32.1341 436.272 32.4792 436.168 32.8438C436.064 33.2083 435.989 33.5794 435.943 33.957C435.898 34.3346 435.875 34.6992 435.875 35.0508V36.7207C435.882 37.0788 435.911 37.4499 435.963 37.834C436.021 38.2116 436.109 38.5827 436.227 38.9473C436.344 39.3118 436.493 39.6569 436.676 39.9824C436.858 40.3079 437.079 40.5944 437.34 40.8418C437.594 41.0892 437.89 41.2878 438.229 41.4375C438.567 41.5807 438.951 41.6556 439.381 41.6621C439.628 41.6686 439.885 41.6589 440.152 41.6328C440.426 41.6068 440.689 41.5547 440.943 41.4766C441.197 41.3984 441.435 41.2943 441.656 41.1641C441.878 41.0273 442.063 40.8516 442.213 40.6367L442.232 37.4434H439.342V35.9199H443.951L443.98 41.1348Z" fill="#676665"/>
<circle cx="469.5" cy="35" r="3.5" fill="#CE7D63"/>
<path d="M495.441 43L493.713 28.7812H495.432L496.457 38.5859L496.516 39.1523L496.623 38.5664L498.342 28.7812H499.914L501.643 38.5762L501.75 39.1523L501.809 38.5664L502.834 28.7812H504.543L502.814 43H500.969L499.24 32.8828L499.143 32.2871L499.035 32.8926L497.297 43H495.441ZM514.533 36.4277H508.596V41.4668H515.52V43H506.789V28.7812H515.432V30.3242H508.596V34.8945H514.533V36.4277ZM518.703 43V28.7812H522.932C523.518 28.7878 524.09 28.8659 524.65 29.0156C525.21 29.1589 525.708 29.3835 526.145 29.6895C526.581 29.9954 526.929 30.3861 527.189 30.8613C527.45 31.3366 527.577 31.9062 527.57 32.5703C527.564 32.9414 527.502 33.2799 527.385 33.5859C527.274 33.8919 527.121 34.1654 526.926 34.4062C526.724 34.6536 526.499 34.862 526.252 35.0312C526.011 35.2005 525.718 35.36 525.373 35.5098V35.5391C525.731 35.6237 526.076 35.7767 526.408 35.998C526.74 36.2194 527.014 36.4635 527.229 36.7305C527.456 37.0234 527.632 37.3522 527.756 37.7168C527.886 38.0814 527.951 38.4753 527.951 38.8984C527.958 39.5625 527.831 40.1484 527.57 40.6562C527.31 41.1641 526.962 41.5872 526.525 41.9258C526.089 42.2708 525.585 42.5345 525.012 42.7168C524.445 42.8991 523.859 42.9935 523.254 43H518.703ZM520.52 36.3496V41.4668H523.303C523.68 41.4603 524.038 41.3984 524.377 41.2812C524.715 41.1576 525.015 40.9883 525.275 40.7734C525.536 40.5586 525.741 40.2949 525.891 39.9824C526.047 39.6699 526.125 39.3151 526.125 38.918C526.132 38.5143 526.063 38.1562 525.92 37.8438C525.783 37.5312 525.591 37.2643 525.344 37.043C525.096 36.8281 524.807 36.6621 524.475 36.5449C524.143 36.4277 523.785 36.3626 523.4 36.3496H520.52ZM520.52 34.8457H523.039C523.378 34.8392 523.71 34.7871 524.035 34.6895C524.361 34.5853 524.65 34.4355 524.904 34.2402C525.158 34.0514 525.363 33.8171 525.52 33.5371C525.676 33.2572 525.754 32.9316 525.754 32.5605C525.754 32.1634 525.676 31.8249 525.52 31.5449C525.37 31.265 525.168 31.0339 524.914 30.8516C524.654 30.6758 524.354 30.5456 524.016 30.4609C523.684 30.3763 523.342 30.3307 522.99 30.3242H520.52V34.8457ZM538.176 39.4062C538.176 38.9701 538.075 38.6022 537.873 38.3027C537.678 38.0033 537.424 37.7493 537.111 37.541C536.799 37.3392 536.454 37.1699 536.076 37.0332C535.705 36.8965 535.347 36.7728 535.002 36.6621C534.501 36.4993 533.99 36.304 533.469 36.0762C532.954 35.8418 532.486 35.5618 532.062 35.2363C531.633 34.9043 531.281 34.5137 531.008 34.0645C530.741 33.6087 530.607 33.0749 530.607 32.4629C530.607 31.8509 530.741 31.304 531.008 30.8223C531.281 30.3405 531.636 29.9336 532.072 29.6016C532.508 29.2695 533.003 29.0189 533.557 28.8496C534.11 28.6738 534.667 28.5859 535.227 28.5859C535.845 28.5859 536.441 28.6901 537.014 28.8984C537.587 29.1003 538.094 29.3867 538.537 29.7578C538.98 30.1289 539.335 30.5781 539.602 31.1055C539.868 31.6328 540.008 32.222 540.021 32.873H538.166C538.114 32.4629 538.013 32.0918 537.863 31.7598C537.714 31.4212 537.515 31.1315 537.268 30.8906C537.02 30.6497 536.724 30.4642 536.379 30.334C536.04 30.1973 535.656 30.1289 535.227 30.1289C534.882 30.1289 534.543 30.1777 534.211 30.2754C533.885 30.373 533.596 30.5195 533.342 30.7148C533.081 30.9102 532.873 31.151 532.717 31.4375C532.567 31.724 532.492 32.056 532.492 32.4336C532.499 32.8438 532.603 33.1921 532.805 33.4785C533.007 33.7585 533.264 33.9961 533.576 34.1914C533.882 34.3867 534.214 34.5495 534.572 34.6797C534.937 34.8099 535.279 34.9238 535.598 35.0215C536.125 35.1842 536.652 35.3828 537.18 35.6172C537.707 35.8451 538.189 36.138 538.625 36.4961C539.055 36.8281 539.4 37.235 539.66 37.7168C539.927 38.1986 540.061 38.7552 540.061 39.3867C540.061 40.0247 539.917 40.5814 539.631 41.0566C539.351 41.5319 538.986 41.9258 538.537 42.2383C538.088 42.5573 537.58 42.7982 537.014 42.9609C536.447 43.1172 535.881 43.1953 535.314 43.1953C534.637 43.1953 533.97 43.0814 533.312 42.8535C532.661 42.6257 532.095 42.2969 531.613 41.8672C531.184 41.4961 530.842 41.0632 530.588 40.5684C530.34 40.0671 530.207 39.5104 530.188 38.8984H532.033C532.092 39.3411 532.212 39.735 532.395 40.0801C532.577 40.4186 532.811 40.7051 533.098 40.9395C533.384 41.1803 533.713 41.3626 534.084 41.4863C534.462 41.6035 534.872 41.6621 535.314 41.6621C535.666 41.6621 536.011 41.6198 536.35 41.5352C536.695 41.444 537.001 41.304 537.268 41.1152C537.535 40.9329 537.753 40.7018 537.922 40.4219C538.091 40.1354 538.176 39.7969 538.176 39.4062ZM542.746 28.7812H551.34V30.3535H547.932V41.4375H551.34V43H542.746V41.4375H546.076V30.3535H542.746V28.7812ZM564.348 30.3242H559.953V43H558.195V30.3242H553.801V28.7812H564.348V30.3242ZM574.592 36.4277H568.654V41.4668H575.578V43H566.848V28.7812H575.49V30.3242H568.654V34.8945H574.592V36.4277ZM590.607 43V28.7812H593.898C594.452 28.7878 594.973 28.8464 595.461 28.957C595.956 29.0612 596.411 29.2109 596.828 29.4062C597.408 29.6732 597.919 30.0247 598.361 30.4609C598.811 30.8906 599.169 31.3887 599.436 31.9551C599.676 32.4368 599.859 32.9642 599.982 33.5371C600.113 34.11 600.181 34.722 600.188 35.373V36.418C600.188 37.043 600.126 37.6354 600.002 38.1953C599.885 38.7552 599.712 39.2695 599.484 39.7383C599.25 40.2266 598.954 40.6693 598.596 41.0664C598.238 41.4635 597.837 41.8021 597.395 42.082C596.926 42.375 596.395 42.5996 595.803 42.7559C595.217 42.9121 594.582 42.9935 593.898 43H590.607ZM592.443 30.2656V41.5254H593.898C594.419 41.5189 594.891 41.4538 595.314 41.3301C595.744 41.2064 596.125 41.0306 596.457 40.8027C596.809 40.5684 597.111 40.2819 597.365 39.9434C597.626 39.5983 597.831 39.2142 597.98 38.791C598.111 38.446 598.208 38.0749 598.273 37.6777C598.339 37.2741 598.374 36.8542 598.381 36.418V35.3535C598.374 34.9108 598.335 34.4876 598.264 34.084C598.199 33.6738 598.098 33.293 597.961 32.9414C597.785 32.4857 597.548 32.0755 597.248 31.7109C596.955 31.3398 596.594 31.0404 596.164 30.8125C595.858 30.6432 595.516 30.513 595.139 30.4219C594.761 30.3242 594.348 30.2721 593.898 30.2656H592.443ZM610.627 36.4277H604.689V41.4668H611.613V43H602.883V28.7812H611.525V30.3242H604.689V34.8945H610.627V36.4277ZM618.303 43L613.811 28.7812H615.744L618.869 39.3965L619.074 40.0898L619.289 39.377L622.434 28.7812H624.357L619.875 43H618.303ZM634.65 36.4277H628.713V41.4668H635.637V43H626.906V28.7812H635.549V30.3242H628.713V34.8945H634.65V36.4277ZM640.881 41.4668H647.834V43H639.074V28.7812H640.881V41.4668ZM660.1 36.7109C660.093 37.2188 660.048 37.7331 659.963 38.2539C659.885 38.7682 659.761 39.2663 659.592 39.748C659.423 40.2298 659.204 40.679 658.938 41.0957C658.677 41.5124 658.365 41.877 658 42.1895C657.635 42.502 657.215 42.7493 656.74 42.9316C656.271 43.1074 655.744 43.1953 655.158 43.1953C654.572 43.1953 654.042 43.1074 653.566 42.9316C653.098 42.7493 652.681 42.502 652.316 42.1895C651.952 41.877 651.636 41.5124 651.369 41.0957C651.102 40.6725 650.884 40.2201 650.715 39.7383C650.539 39.2565 650.409 38.7585 650.324 38.2441C650.24 37.7298 650.194 37.2188 650.188 36.7109V35.0898C650.194 34.582 650.236 34.071 650.314 33.5566C650.399 33.0358 650.529 32.5345 650.705 32.0527C650.874 31.571 651.089 31.1217 651.35 30.7051C651.617 30.2819 651.932 29.9108 652.297 29.5918C652.661 29.2793 653.078 29.0352 653.547 28.8594C654.022 28.6771 654.553 28.5859 655.139 28.5859C655.725 28.5859 656.255 28.6771 656.73 28.8594C657.206 29.0352 657.626 29.2793 657.99 29.5918C658.355 29.9043 658.667 30.2721 658.928 30.6953C659.195 31.112 659.416 31.5612 659.592 32.043C659.761 32.5247 659.885 33.026 659.963 33.5469C660.048 34.0677 660.093 34.582 660.1 35.0898V36.7109ZM658.312 35.0703C658.306 34.7318 658.283 34.3802 658.244 34.0156C658.205 33.6445 658.14 33.2767 658.049 32.9121C657.951 32.554 657.824 32.2122 657.668 31.8867C657.512 31.5547 657.316 31.2617 657.082 31.0078C656.848 30.7604 656.571 30.5651 656.252 30.4219C655.933 30.2721 655.562 30.1973 655.139 30.1973C654.722 30.1973 654.354 30.2721 654.035 30.4219C653.716 30.5716 653.439 30.7702 653.205 31.0176C652.971 31.2715 652.775 31.5645 652.619 31.8965C652.463 32.222 652.339 32.5638 652.248 32.9219C652.15 33.2865 652.079 33.6543 652.033 34.0254C651.994 34.39 651.971 34.7383 651.965 35.0703V36.7109C651.971 37.043 651.994 37.3945 652.033 37.7656C652.079 38.1367 652.15 38.5013 652.248 38.8594C652.346 39.224 652.473 39.5723 652.629 39.9043C652.785 40.2363 652.98 40.526 653.215 40.7734C653.449 41.0273 653.726 41.2292 654.045 41.3789C654.364 41.5286 654.735 41.6035 655.158 41.6035C655.581 41.6035 655.952 41.5286 656.271 41.3789C656.597 41.2292 656.877 41.0273 657.111 40.7734C657.339 40.526 657.528 40.2396 657.678 39.9141C657.834 39.582 657.961 39.2337 658.059 38.8691C658.15 38.5111 658.212 38.1465 658.244 37.7754C658.283 37.4043 658.306 37.0495 658.312 36.7109V35.0703ZM664.836 37.2969V43H663.029V28.7812H667.639C668.277 28.7943 668.879 28.8952 669.445 29.084C670.018 29.2728 670.52 29.5462 670.949 29.9043C671.379 30.2624 671.717 30.7051 671.965 31.2324C672.219 31.7598 672.346 32.3652 672.346 33.0488C672.346 33.7324 672.219 34.3379 671.965 34.8652C671.717 35.3861 671.379 35.8255 670.949 36.1836C670.52 36.5417 670.018 36.8151 669.445 37.0039C668.879 37.1927 668.277 37.2904 667.639 37.2969H664.836ZM664.836 35.8125H667.639C668.055 35.806 668.439 35.7409 668.791 35.6172C669.143 35.487 669.449 35.3047 669.709 35.0703C669.969 34.8359 670.171 34.5527 670.314 34.2207C670.464 33.8822 670.539 33.498 670.539 33.0684C670.539 32.6387 670.464 32.2513 670.314 31.9062C670.171 31.5612 669.973 31.2682 669.719 31.0273C669.458 30.7865 669.149 30.6009 668.791 30.4707C668.439 30.3405 668.055 30.2721 667.639 30.2656H664.836V35.8125ZM676.857 28.7812L679.172 35.8906L681.672 28.7812H683.918V43H682.16V37.3262L682.307 31.3887L679.68 39.0449H678.645L676.232 31.5938L676.379 37.3262V43H674.621V28.7812H676.857ZM694.709 36.4277H688.771V41.4668H695.695V43H686.965V28.7812H695.607V30.3242H688.771V34.8945H694.709V36.4277ZM707.805 43H705.969L700.451 32.375L700.422 43H698.596V28.7812H700.432L705.949 39.3867L705.979 28.7812H707.805V43ZM720.5 30.3242H716.105V43H714.348V30.3242H709.953V28.7812H720.5V30.3242Z" fill="#676665"/>
<circle cx="745.5" cy="35" r="3.5" fill="#CE7D63"/>
<path d="M772.682 28.7812L774.996 35.8906L777.496 28.7812H779.742V43H777.984V37.3262L778.131 31.3887L775.504 39.0449H774.469L772.057 31.5938L772.203 37.3262V43H770.445V28.7812H772.682ZM791.959 36.7109C791.952 37.2188 791.907 37.7331 791.822 38.2539C791.744 38.7682 791.62 39.2663 791.451 39.748C791.282 40.2298 791.064 40.679 790.797 41.0957C790.536 41.5124 790.224 41.877 789.859 42.1895C789.495 42.502 789.075 42.7493 788.6 42.9316C788.131 43.1074 787.604 43.1953 787.018 43.1953C786.432 43.1953 785.901 43.1074 785.426 42.9316C784.957 42.7493 784.54 42.502 784.176 42.1895C783.811 41.877 783.495 41.5124 783.229 41.0957C782.962 40.6725 782.743 40.2201 782.574 39.7383C782.398 39.2565 782.268 38.7585 782.184 38.2441C782.099 37.7298 782.053 37.2188 782.047 36.7109V35.0898C782.053 34.582 782.096 34.071 782.174 33.5566C782.258 33.0358 782.389 32.5345 782.564 32.0527C782.734 31.571 782.949 31.1217 783.209 30.7051C783.476 30.2819 783.792 29.9108 784.156 29.5918C784.521 29.2793 784.938 29.0352 785.406 28.8594C785.882 28.6771 786.412 28.5859 786.998 28.5859C787.584 28.5859 788.115 28.6771 788.59 28.8594C789.065 29.0352 789.485 29.2793 789.85 29.5918C790.214 29.9043 790.527 30.2721 790.787 30.6953C791.054 31.112 791.275 31.5612 791.451 32.043C791.62 32.5247 791.744 33.026 791.822 33.5469C791.907 34.0677 791.952 34.582 791.959 35.0898V36.7109ZM790.172 35.0703C790.165 34.7318 790.143 34.3802 790.104 34.0156C790.064 33.6445 789.999 33.2767 789.908 32.9121C789.811 32.554 789.684 32.2122 789.527 31.8867C789.371 31.5547 789.176 31.2617 788.941 31.0078C788.707 30.7604 788.43 30.5651 788.111 30.4219C787.792 30.2721 787.421 30.1973 786.998 30.1973C786.581 30.1973 786.214 30.2721 785.895 30.4219C785.576 30.5716 785.299 30.7702 785.064 31.0176C784.83 31.2715 784.635 31.5645 784.479 31.8965C784.322 32.222 784.199 32.5638 784.107 32.9219C784.01 33.2865 783.938 33.6543 783.893 34.0254C783.854 34.39 783.831 34.7383 783.824 35.0703V36.7109C783.831 37.043 783.854 37.3945 783.893 37.7656C783.938 38.1367 784.01 38.5013 784.107 38.8594C784.205 39.224 784.332 39.5723 784.488 39.9043C784.645 40.2363 784.84 40.526 785.074 40.7734C785.309 41.0273 785.585 41.2292 785.904 41.3789C786.223 41.5286 786.594 41.6035 787.018 41.6035C787.441 41.6035 787.812 41.5286 788.131 41.3789C788.456 41.2292 788.736 41.0273 788.971 40.7734C789.199 40.526 789.387 40.2396 789.537 39.9141C789.693 39.582 789.82 39.2337 789.918 38.8691C790.009 38.5111 790.071 38.1465 790.104 37.7754C790.143 37.4043 790.165 37.0495 790.172 36.7109V35.0703ZM794.703 43V28.7812H798.932C799.518 28.7878 800.09 28.8659 800.65 29.0156C801.21 29.1589 801.708 29.3835 802.145 29.6895C802.581 29.9954 802.929 30.3861 803.189 30.8613C803.45 31.3366 803.577 31.9062 803.57 32.5703C803.564 32.9414 803.502 33.2799 803.385 33.5859C803.274 33.8919 803.121 34.1654 802.926 34.4062C802.724 34.6536 802.499 34.862 802.252 35.0312C802.011 35.2005 801.718 35.36 801.373 35.5098V35.5391C801.731 35.6237 802.076 35.7767 802.408 35.998C802.74 36.2194 803.014 36.4635 803.229 36.7305C803.456 37.0234 803.632 37.3522 803.756 37.7168C803.886 38.0814 803.951 38.4753 803.951 38.8984C803.958 39.5625 803.831 40.1484 803.57 40.6562C803.31 41.1641 802.962 41.5872 802.525 41.9258C802.089 42.2708 801.585 42.5345 801.012 42.7168C800.445 42.8991 799.859 42.9935 799.254 43H794.703ZM796.52 36.3496V41.4668H799.303C799.68 41.4603 800.038 41.3984 800.377 41.2812C800.715 41.1576 801.015 40.9883 801.275 40.7734C801.536 40.5586 801.741 40.2949 801.891 39.9824C802.047 39.6699 802.125 39.3151 802.125 38.918C802.132 38.5143 802.063 38.1562 801.92 37.8438C801.783 37.5312 801.591 37.2643 801.344 37.043C801.096 36.8281 800.807 36.6621 800.475 36.5449C800.143 36.4277 799.785 36.3626 799.4 36.3496H796.52ZM796.52 34.8457H799.039C799.378 34.8392 799.71 34.7871 800.035 34.6895C800.361 34.5853 800.65 34.4355 800.904 34.2402C801.158 34.0514 801.363 33.8171 801.52 33.5371C801.676 33.2572 801.754 32.9316 801.754 32.5605C801.754 32.1634 801.676 31.8249 801.52 31.5449C801.37 31.265 801.168 31.0339 800.914 30.8516C800.654 30.6758 800.354 30.5456 800.016 30.4609C799.684 30.3763 799.342 30.3307 798.99 30.3242H796.52V34.8457ZM806.734 28.7812H815.328V30.3535H811.92V41.4375H815.328V43H806.734V41.4375H810.064V30.3535H806.734V28.7812ZM820.787 41.4668H827.74V43H818.98V28.7812H820.787V41.4668ZM838.58 36.4277H832.643V41.4668H839.566V43H830.836V28.7812H839.479V30.3242H832.643V34.8945H838.58V36.4277ZM861.568 39.3184H856.822L855.68 43H853.873L858.463 28.7812H859.977L864.488 43H862.691L861.568 39.3184ZM857.311 37.7461H861.09L859.215 31.5742L857.311 37.7461ZM868.766 37.2969V43H866.959V28.7812H871.568C872.206 28.7943 872.809 28.8952 873.375 29.084C873.948 29.2728 874.449 29.5462 874.879 29.9043C875.309 30.2624 875.647 30.7051 875.895 31.2324C876.148 31.7598 876.275 32.3652 876.275 33.0488C876.275 33.7324 876.148 34.3379 875.895 34.8652C875.647 35.3861 875.309 35.8255 874.879 36.1836C874.449 36.5417 873.948 36.8151 873.375 37.0039C872.809 37.1927 872.206 37.2904 871.568 37.2969H868.766ZM868.766 35.8125H871.568C871.985 35.806 872.369 35.7409 872.721 35.6172C873.072 35.487 873.378 35.3047 873.639 35.0703C873.899 34.8359 874.101 34.5527 874.244 34.2207C874.394 33.8822 874.469 33.498 874.469 33.0684C874.469 32.6387 874.394 32.2513 874.244 31.9062C874.101 31.5612 873.902 31.2682 873.648 31.0273C873.388 30.7865 873.079 30.6009 872.721 30.4707C872.369 30.3405 871.985 30.2721 871.568 30.2656H868.766V35.8125ZM880.777 37.2969V43H878.971V28.7812H883.58C884.218 28.7943 884.82 28.8952 885.387 29.084C885.96 29.2728 886.461 29.5462 886.891 29.9043C887.32 30.2624 887.659 30.7051 887.906 31.2324C888.16 31.7598 888.287 32.3652 888.287 33.0488C888.287 33.7324 888.16 34.3379 887.906 34.8652C887.659 35.3861 887.32 35.8255 886.891 36.1836C886.461 36.5417 885.96 36.8151 885.387 37.0039C884.82 37.1927 884.218 37.2904 883.58 37.2969H880.777ZM880.777 35.8125H883.58C883.997 35.806 884.381 35.7409 884.732 35.6172C885.084 35.487 885.39 35.3047 885.65 35.0703C885.911 34.8359 886.113 34.5527 886.256 34.2207C886.406 33.8822 886.48 33.498 886.48 33.0684C886.48 32.6387 886.406 32.2513 886.256 31.9062C886.113 31.5612 885.914 31.2682 885.66 31.0273C885.4 30.7865 885.09 30.6009 884.732 30.4707C884.381 30.3405 883.997 30.2721 883.58 30.2656H880.777V35.8125ZM902.643 43V28.7812H905.934C906.487 28.7878 907.008 28.8464 907.496 28.957C907.991 29.0612 908.447 29.2109 908.863 29.4062C909.443 29.6732 909.954 30.0247 910.396 30.4609C910.846 30.8906 911.204 31.3887 911.471 31.9551C911.712 32.4368 911.894 32.9642 912.018 33.5371C912.148 34.11 912.216 34.722 912.223 35.373V36.418C912.223 37.043 912.161 37.6354 912.037 38.1953C911.92 38.7552 911.747 39.2695 911.52 39.7383C911.285 40.2266 910.989 40.6693 910.631 41.0664C910.273 41.4635 909.872 41.8021 909.43 42.082C908.961 42.375 908.43 42.5996 907.838 42.7559C907.252 42.9121 906.617 42.9935 905.934 43H902.643ZM904.479 30.2656V41.5254H905.934C906.454 41.5189 906.926 41.4538 907.35 41.3301C907.779 41.2064 908.16 41.0306 908.492 40.8027C908.844 40.5684 909.146 40.2819 909.4 39.9434C909.661 39.5983 909.866 39.2142 910.016 38.791C910.146 38.446 910.243 38.0749 910.309 37.6777C910.374 37.2741 910.41 36.8542 910.416 36.418V35.3535C910.41 34.9108 910.37 34.4876 910.299 34.084C910.234 33.6738 910.133 33.293 909.996 32.9414C909.82 32.4857 909.583 32.0755 909.283 31.7109C908.99 31.3398 908.629 31.0404 908.199 30.8125C907.893 30.6432 907.551 30.513 907.174 30.4219C906.796 30.3242 906.383 30.2721 905.934 30.2656H904.479ZM922.662 36.4277H916.725V41.4668H923.648V43H914.918V28.7812H923.561V30.3242H916.725V34.8945H922.662V36.4277ZM930.338 43L925.846 28.7812H927.779L930.904 39.3965L931.109 40.0898L931.324 39.377L934.469 28.7812H936.393L931.91 43H930.338ZM946.686 36.4277H940.748V41.4668H947.672V43H938.941V28.7812H947.584V30.3242H940.748V34.8945H946.686V36.4277ZM952.916 41.4668H959.869V43H951.109V28.7812H952.916V41.4668ZM972.135 36.7109C972.128 37.2188 972.083 37.7331 971.998 38.2539C971.92 38.7682 971.796 39.2663 971.627 39.748C971.458 40.2298 971.24 40.679 970.973 41.0957C970.712 41.5124 970.4 41.877 970.035 42.1895C969.671 42.502 969.251 42.7493 968.775 42.9316C968.307 43.1074 967.779 43.1953 967.193 43.1953C966.607 43.1953 966.077 43.1074 965.602 42.9316C965.133 42.7493 964.716 42.502 964.352 42.1895C963.987 41.877 963.671 41.5124 963.404 41.0957C963.137 40.6725 962.919 40.2201 962.75 39.7383C962.574 39.2565 962.444 38.7585 962.359 38.2441C962.275 37.7298 962.229 37.2188 962.223 36.7109V35.0898C962.229 34.582 962.271 34.071 962.35 33.5566C962.434 33.0358 962.564 32.5345 962.74 32.0527C962.91 31.571 963.124 31.1217 963.385 30.7051C963.652 30.2819 963.967 29.9108 964.332 29.5918C964.697 29.2793 965.113 29.0352 965.582 28.8594C966.057 28.6771 966.588 28.5859 967.174 28.5859C967.76 28.5859 968.29 28.6771 968.766 28.8594C969.241 29.0352 969.661 29.2793 970.025 29.5918C970.39 29.9043 970.702 30.2721 970.963 30.6953C971.23 31.112 971.451 31.5612 971.627 32.043C971.796 32.5247 971.92 33.026 971.998 33.5469C972.083 34.0677 972.128 34.582 972.135 35.0898V36.7109ZM970.348 35.0703C970.341 34.7318 970.318 34.3802 970.279 34.0156C970.24 33.6445 970.175 33.2767 970.084 32.9121C969.986 32.554 969.859 32.2122 969.703 31.8867C969.547 31.5547 969.352 31.2617 969.117 31.0078C968.883 30.7604 968.606 30.5651 968.287 30.4219C967.968 30.2721 967.597 30.1973 967.174 30.1973C966.757 30.1973 966.389 30.2721 966.07 30.4219C965.751 30.5716 965.475 30.7702 965.24 31.0176C965.006 31.2715 964.811 31.5645 964.654 31.8965C964.498 32.222 964.374 32.5638 964.283 32.9219C964.186 33.2865 964.114 33.6543 964.068 34.0254C964.029 34.39 964.007 34.7383 964 35.0703V36.7109C964.007 37.043 964.029 37.3945 964.068 37.7656C964.114 38.1367 964.186 38.5013 964.283 38.8594C964.381 39.224 964.508 39.5723 964.664 39.9043C964.82 40.2363 965.016 40.526 965.25 40.7734C965.484 41.0273 965.761 41.2292 966.08 41.3789C966.399 41.5286 966.77 41.6035 967.193 41.6035C967.617 41.6035 967.988 41.5286 968.307 41.3789C968.632 41.2292 968.912 41.0273 969.146 40.7734C969.374 40.526 969.563 40.2396 969.713 39.9141C969.869 39.582 969.996 39.2337 970.094 38.8691C970.185 38.5111 970.247 38.1465 970.279 37.7754C970.318 37.4043 970.341 37.0495 970.348 36.7109V35.0703ZM976.871 37.2969V43H975.064V28.7812H979.674C980.312 28.7943 980.914 28.8952 981.48 29.084C982.053 29.2728 982.555 29.5462 982.984 29.9043C983.414 30.2624 983.753 30.7051 984 31.2324C984.254 31.7598 984.381 32.3652 984.381 33.0488C984.381 33.7324 984.254 34.3379 984 34.8652C983.753 35.3861 983.414 35.8255 982.984 36.1836C982.555 36.5417 982.053 36.8151 981.48 37.0039C980.914 37.1927 980.312 37.2904 979.674 37.2969H976.871ZM976.871 35.8125H979.674C980.09 35.806 980.475 35.7409 980.826 35.6172C981.178 35.487 981.484 35.3047 981.744 35.0703C982.005 34.8359 982.206 34.5527 982.35 34.2207C982.499 33.8822 982.574 33.498 982.574 33.0684C982.574 32.6387 982.499 32.2513 982.35 31.9062C982.206 31.5612 982.008 31.2682 981.754 31.0273C981.493 30.7865 981.184 30.6009 980.826 30.4707C980.475 30.3405 980.09 30.2721 979.674 30.2656H976.871V35.8125ZM988.893 28.7812L991.207 35.8906L993.707 28.7812H995.953V43H994.195V37.3262L994.342 31.3887L991.715 39.0449H990.68L988.268 31.5938L988.414 37.3262V43H986.656V28.7812H988.893ZM1006.74 36.4277H1000.81V41.4668H1007.73V43H999V28.7812H1007.64V30.3242H1000.81V34.8945H1006.74V36.4277ZM1019.84 43H1018L1012.49 32.375L1012.46 43H1010.63V28.7812H1012.47L1017.98 39.3867L1018.01 28.7812H1019.84V43ZM1032.54 30.3242H1028.14V43H1026.38V30.3242H1021.99V28.7812H1032.54V30.3242Z" fill="#676665"/>
<circle cx="1057.5" cy="35" r="3.5" fill="#CE7D63"/>
<path d="M1082.51 43V28.7812H1085.8C1086.36 28.7878 1086.88 28.8464 1087.37 28.957C1087.86 29.0612 1088.32 29.2109 1088.73 29.4062C1089.31 29.6732 1089.82 30.0247 1090.27 30.4609C1090.72 30.8906 1091.07 31.3887 1091.34 31.9551C1091.58 32.4368 1091.76 32.9642 1091.89 33.5371C1092.02 34.11 1092.09 34.722 1092.09 35.373V36.418C1092.09 37.043 1092.03 37.6354 1091.91 38.1953C1091.79 38.7552 1091.62 39.2695 1091.39 39.7383C1091.16 40.2266 1090.86 40.6693 1090.5 41.0664C1090.14 41.4635 1089.74 41.8021 1089.3 42.082C1088.83 42.375 1088.3 42.5996 1087.71 42.7559C1087.12 42.9121 1086.49 42.9935 1085.8 43H1082.51ZM1084.35 30.2656V41.5254H1085.8C1086.33 41.5189 1086.8 41.4538 1087.22 41.3301C1087.65 41.2064 1088.03 41.0306 1088.36 40.8027C1088.71 40.5684 1089.02 40.2819 1089.27 39.9434C1089.53 39.5983 1089.74 39.2142 1089.89 38.791C1090.02 38.446 1090.11 38.0749 1090.18 37.6777C1090.24 37.2741 1090.28 36.8542 1090.29 36.418V35.3535C1090.28 34.9108 1090.24 34.4876 1090.17 34.084C1090.1 33.6738 1090 33.293 1089.87 32.9414C1089.69 32.4857 1089.45 32.0755 1089.15 31.7109C1088.86 31.3398 1088.5 31.0404 1088.07 30.8125C1087.76 30.6432 1087.42 30.513 1087.04 30.4219C1086.67 30.3242 1086.25 30.2721 1085.8 30.2656H1084.35ZM1094.71 28.7812H1103.3V30.3535H1099.9V41.4375H1103.3V43H1094.71V41.4375H1098.04V30.3535H1094.71V28.7812ZM1115.92 41.1348C1115.7 41.3952 1115.47 41.6328 1115.22 41.8477C1114.97 42.056 1114.71 42.2383 1114.45 42.3945C1113.99 42.668 1113.5 42.8698 1112.97 43C1112.45 43.1367 1111.89 43.2018 1111.31 43.1953C1110.73 43.1888 1110.19 43.1009 1109.69 42.9316C1109.2 42.7559 1108.76 42.515 1108.37 42.209C1107.98 41.9095 1107.64 41.5547 1107.35 41.1445C1107.05 40.7344 1106.81 40.2884 1106.62 39.8066C1106.41 39.3314 1106.26 38.8333 1106.16 38.3125C1106.06 37.7852 1106.01 37.2546 1106 36.7207V35.0703C1106.01 34.543 1106.05 34.0189 1106.14 33.498C1106.23 32.9707 1106.36 32.4661 1106.55 31.9844C1106.73 31.5026 1106.96 31.0566 1107.23 30.6465C1107.5 30.2298 1107.83 29.8685 1108.22 29.5625C1108.59 29.263 1109.02 29.0254 1109.51 28.8496C1109.99 28.6738 1110.53 28.5859 1111.13 28.5859C1111.79 28.5859 1112.4 28.6901 1112.96 28.8984C1113.52 29.1003 1114.01 29.39 1114.43 29.7676C1114.84 30.1517 1115.18 30.6139 1115.43 31.1543C1115.69 31.6882 1115.84 32.2871 1115.9 32.9512H1114.12C1114.04 32.541 1113.93 32.1634 1113.78 31.8184C1113.63 31.4668 1113.44 31.1673 1113.2 30.9199C1112.95 30.6725 1112.66 30.4805 1112.32 30.3438C1111.98 30.2005 1111.59 30.1289 1111.14 30.1289C1110.71 30.1289 1110.33 30.2038 1109.99 30.3535C1109.66 30.4967 1109.37 30.6921 1109.12 30.9395C1108.88 31.1868 1108.67 31.4766 1108.51 31.8086C1108.35 32.1341 1108.21 32.4792 1108.11 32.8438C1108.01 33.2083 1107.93 33.5794 1107.88 33.957C1107.84 34.3346 1107.82 34.6992 1107.82 35.0508V36.7207C1107.82 37.0788 1107.85 37.4499 1107.9 37.834C1107.96 38.2116 1108.05 38.5827 1108.17 38.9473C1108.29 39.3118 1108.43 39.6569 1108.62 39.9824C1108.8 40.3079 1109.02 40.5944 1109.28 40.8418C1109.54 41.0892 1109.83 41.2878 1110.17 41.4375C1110.51 41.5807 1110.89 41.6556 1111.32 41.6621C1111.57 41.6686 1111.83 41.6589 1112.09 41.6328C1112.37 41.6068 1112.63 41.5547 1112.88 41.4766C1113.14 41.3984 1113.38 41.2943 1113.6 41.1641C1113.82 41.0273 1114 40.8516 1114.15 40.6367L1114.17 37.4434H1111.28V35.9199H1115.89L1115.92 41.1348ZM1118.73 28.7812H1127.33V30.3535H1123.92V41.4375H1127.33V43H1118.73V41.4375H1122.06V30.3535H1118.73V28.7812ZM1140.34 30.3242H1135.94V43H1134.18V30.3242H1129.79V28.7812H1140.34V30.3242ZM1149.54 39.3184H1144.8L1143.66 43H1141.85L1146.44 28.7812H1147.95L1152.46 43H1150.67L1149.54 39.3184ZM1145.29 37.7461H1149.07L1147.19 31.5742L1145.29 37.7461ZM1156.81 41.4668H1163.76V43H1155V28.7812H1156.81V41.4668ZM1180.78 28.7812L1183.09 35.8906L1185.59 28.7812H1187.84V43H1186.08V37.3262L1186.22 31.3887L1183.6 39.0449H1182.56L1180.15 31.5938L1180.3 37.3262V43H1178.54V28.7812H1180.78ZM1197.59 39.3184H1192.85L1191.7 43H1189.9L1194.49 28.7812H1196L1200.51 43H1198.71L1197.59 39.3184ZM1193.33 37.7461H1197.11L1195.24 31.5742L1193.33 37.7461ZM1207.52 37.1992H1204.68V43H1202.88V28.7812H1207.05C1207.72 28.7943 1208.34 28.8887 1208.93 29.0645C1209.52 29.2402 1210.03 29.5039 1210.47 29.8555C1210.91 30.207 1211.25 30.6497 1211.5 31.1836C1211.75 31.7109 1211.88 32.3327 1211.88 33.0488C1211.88 33.5111 1211.81 33.9342 1211.67 34.3184C1211.54 34.7025 1211.36 35.0508 1211.13 35.3633C1210.89 35.6758 1210.61 35.9525 1210.29 36.1934C1209.96 36.4342 1209.6 36.6393 1209.21 36.8086L1212.23 42.8828L1212.22 43H1210.32L1207.52 37.1992ZM1204.68 35.7148H1207.1C1207.51 35.7083 1207.89 35.6465 1208.25 35.5293C1208.6 35.4056 1208.92 35.2298 1209.19 35.002C1209.46 34.7741 1209.67 34.4974 1209.83 34.1719C1209.98 33.8398 1210.06 33.459 1210.06 33.0293C1210.06 32.5736 1209.99 32.1764 1209.84 31.8379C1209.69 31.4928 1209.48 31.2031 1209.21 30.9688C1208.95 30.7409 1208.63 30.5684 1208.26 30.4512C1207.89 30.334 1207.49 30.2721 1207.05 30.2656H1204.68V35.7148ZM1218.24 36.3984L1216.65 38.1953V43H1214.81V28.7812H1216.65V35.7246L1218.03 34.0059L1222.2 28.7812H1224.4L1219.43 35.002L1224.73 43H1222.53L1218.24 36.3984ZM1234.66 36.4277H1228.72V41.4668H1235.65V43H1226.92V28.7812H1235.56V30.3242H1228.72V34.8945H1234.66V36.4277ZM1248.44 30.3242H1244.05V43H1242.29V30.3242H1237.89V28.7812H1248.44V30.3242ZM1250.86 28.7812H1259.46V30.3535H1256.05V41.4375H1259.46V43H1250.86V41.4375H1254.19V30.3535H1250.86V28.7812ZM1271.78 43H1269.95L1264.43 32.375L1264.4 43H1262.57V28.7812H1264.41L1269.93 39.3867L1269.96 28.7812H1271.78V43ZM1284.09 41.1348C1283.86 41.3952 1283.63 41.6328 1283.38 41.8477C1283.14 42.056 1282.88 42.2383 1282.61 42.3945C1282.16 42.668 1281.66 42.8698 1281.14 43C1280.61 43.1367 1280.06 43.2018 1279.48 43.1953C1278.89 43.1888 1278.35 43.1009 1277.86 42.9316C1277.37 42.7559 1276.93 42.515 1276.54 42.209C1276.15 41.9095 1275.8 41.5547 1275.51 41.1445C1275.22 40.7344 1274.97 40.2884 1274.78 39.8066C1274.58 39.3314 1274.42 38.8333 1274.32 38.3125C1274.22 37.7852 1274.17 37.2546 1274.16 36.7207V35.0703C1274.17 34.543 1274.22 34.0189 1274.3 33.498C1274.39 32.9707 1274.53 32.4661 1274.71 31.9844C1274.89 31.5026 1275.12 31.0566 1275.39 30.6465C1275.67 30.2298 1276 29.8685 1276.38 29.5625C1276.76 29.263 1277.19 29.0254 1277.67 28.8496C1278.15 28.6738 1278.69 28.5859 1279.29 28.5859C1279.96 28.5859 1280.57 28.6901 1281.13 28.8984C1281.69 29.1003 1282.18 29.39 1282.59 29.7676C1283.01 30.1517 1283.34 30.6139 1283.6 31.1543C1283.85 31.6882 1284.01 32.2871 1284.07 32.9512H1282.28C1282.21 32.541 1282.1 32.1634 1281.95 31.8184C1281.8 31.4668 1281.6 31.1673 1281.36 30.9199C1281.11 30.6725 1280.82 30.4805 1280.48 30.3438C1280.14 30.2005 1279.75 30.1289 1279.3 30.1289C1278.87 30.1289 1278.49 30.2038 1278.16 30.3535C1277.83 30.4967 1277.54 30.6921 1277.29 30.9395C1277.04 31.1868 1276.84 31.4766 1276.67 31.8086C1276.51 32.1341 1276.38 32.4792 1276.27 32.8438C1276.17 33.2083 1276.09 33.5794 1276.05 33.957C1276 34.3346 1275.98 34.6992 1275.98 35.0508V36.7207C1275.99 37.0788 1276.02 37.4499 1276.07 37.834C1276.13 38.2116 1276.21 38.5827 1276.33 38.9473C1276.45 39.3118 1276.6 39.6569 1276.78 39.9824C1276.96 40.3079 1277.18 40.5944 1277.45 40.8418C1277.7 41.0892 1278 41.2878 1278.33 41.4375C1278.67 41.5807 1279.06 41.6556 1279.49 41.6621C1279.73 41.6686 1279.99 41.6589 1280.26 41.6328C1280.53 41.6068 1280.79 41.5547 1281.05 41.4766C1281.3 41.3984 1281.54 41.2943 1281.76 41.1641C1281.98 41.0273 1282.17 40.8516 1282.32 40.6367L1282.34 37.4434H1279.45V35.9199H1284.06L1284.09 41.1348Z" fill="#676665"/>
</g>
<defs>
<clipPath id="clip0_145_7985">
<rect width="1167" height="70" rx="12" fill="white"/>
</clipPath>
</defs>
</svg>
