<svg width="1818" height="168" viewBox="0 0 1818 168" fill="none" xmlns="http://www.w3.org/2000/svg">
<rect width="1818" height="168" rx="16" fill="#1A1A1A"/>
<path d="M51.8984 83.9219V81.9531C51.8984 76.2812 53.1953 72.0938 55.7891 69.3906C58.3828 66.6719 61.7344 65.3125 65.8438 65.3125C69.9375 65.3125 73.2812 66.6719 75.875 69.3906C78.4844 72.0938 79.7891 76.2812 79.7891 81.9531V83.9219C79.7891 89.5938 78.4844 93.7891 75.875 96.5078C73.2812 99.2109 69.9375 100.562 65.8438 100.562C61.7344 100.562 58.3828 99.2109 55.7891 96.5078C53.1953 93.7891 51.8984 89.5938 51.8984 83.9219ZM58.4609 85.0703C58.4609 88.8359 59.125 91.5781 60.4531 93.2969C61.7812 95 63.5781 95.8516 65.8438 95.8516C68.0938 95.8516 69.8828 95 71.2109 93.2969C72.5547 91.5781 73.2266 88.8359 73.2266 85.0703V80.8281C73.2266 77.0781 72.5547 74.3516 71.2109 72.6484C69.8828 70.9297 68.0938 70.0703 65.8438 70.0703C63.5781 70.0703 61.7812 70.9297 60.4531 72.6484C59.125 74.3516 58.4609 77.0781 58.4609 80.8281V85.0703ZM84.3828 87.8828V65.875H90.7344V88.4688C90.7344 91.1094 91.2578 93 92.3047 94.1406C93.3516 95.2656 94.7891 95.8281 96.6172 95.8281C98.4297 95.8281 99.8516 95.2656 100.883 94.1406C101.93 93 102.453 91.1094 102.453 88.4688V65.875H108.781V87.8828C108.781 92.1953 107.672 95.3906 105.453 97.4688C103.25 99.5312 100.312 100.562 96.6406 100.562C92.9219 100.562 89.9453 99.5312 87.7109 97.4688C85.4922 95.3906 84.3828 92.1953 84.3828 87.8828ZM114.406 100V65.875H126.477C129.945 65.875 132.641 66.8281 134.562 68.7344C136.484 70.625 137.445 73.1484 137.445 76.3047C137.445 79.5234 136.453 82.1172 134.469 84.0859C132.5 86.0391 129.82 87.0156 126.43 87.0156H120.758V100H114.406ZM120.758 82.5156H125.586C127.617 82.5156 129.031 81.9609 129.828 80.8516C130.641 79.7266 131.055 78.2891 131.07 76.5391C131.07 74.7734 130.664 73.3516 129.852 72.2734C129.039 71.1797 127.617 70.625 125.586 70.6094H120.758V82.5156ZM131.914 100L124.555 84.625L130.648 83.5234L138.922 100H131.914ZM158.211 100.117L150.172 65.875H156.406L161.727 89.6172C161.82 90.0078 161.891 90.375 161.938 90.7188C161.984 91.0469 162.031 91.4531 162.078 91.9375H162.242C162.305 91.4688 162.359 91.0625 162.406 90.7188C162.469 90.375 162.547 90.0078 162.641 89.6172L168.383 65.875H174.711L180.641 89.6172C180.719 89.9922 180.781 90.3516 180.828 90.6953C180.891 91.0391 180.953 91.4531 181.016 91.9375H181.156C181.219 91.4531 181.273 91.0391 181.32 90.6953C181.367 90.3516 181.43 89.9922 181.508 89.6172L186.664 65.875H192.406L184.438 100.117H177.875L171.852 76.2109C171.773 75.8672 171.695 75.5 171.617 75.1094C171.539 74.7031 171.469 74.2656 171.406 73.7969H171.266C171.203 74.2656 171.133 74.7031 171.055 75.1094C170.977 75.5 170.898 75.8672 170.82 76.2109L164.797 100.117H158.211ZM194.492 83.9219V81.9531C194.492 76.2812 195.789 72.0938 198.383 69.3906C200.977 66.6719 204.328 65.3125 208.438 65.3125C212.531 65.3125 215.875 66.6719 218.469 69.3906C221.078 72.0938 222.383 76.2812 222.383 81.9531V83.9219C222.383 89.5938 221.078 93.7891 218.469 96.5078C215.875 99.2109 212.531 100.562 208.438 100.562C204.328 100.562 200.977 99.2109 198.383 96.5078C195.789 93.7891 194.492 89.5938 194.492 83.9219ZM201.055 85.0703C201.055 88.8359 201.719 91.5781 203.047 93.2969C204.375 95 206.172 95.8516 208.438 95.8516C210.688 95.8516 212.477 95 213.805 93.2969C215.148 91.5781 215.82 88.8359 215.82 85.0703V80.8281C215.82 77.0781 215.148 74.3516 213.805 72.6484C212.477 70.9297 210.688 70.0703 208.438 70.0703C206.172 70.0703 204.375 70.9297 203.047 72.6484C201.719 74.3516 201.055 77.0781 201.055 80.8281V85.0703ZM227.188 100V65.875H239.258C242.727 65.875 245.422 66.8281 247.344 68.7344C249.266 70.625 250.227 73.1484 250.227 76.3047C250.227 79.5234 249.234 82.1172 247.25 84.0859C245.281 86.0391 242.602 87.0156 239.211 87.0156H233.539V100H227.188ZM233.539 82.5156H238.367C240.398 82.5156 241.812 81.9609 242.609 80.8516C243.422 79.7266 243.836 78.2891 243.852 76.5391C243.852 74.7734 243.445 73.3516 242.633 72.2734C241.82 71.1797 240.398 70.625 238.367 70.6094H233.539V82.5156ZM244.695 100L237.336 84.625L243.43 83.5234L251.703 100H244.695ZM254.75 100V65.875H261.102V80.4297L272.797 65.875H279.594L261.102 88.2109V100H254.75ZM273.453 100L262.25 83.1016L266.188 78.3906L280.836 100H273.453ZM281.492 90.7422V89.4062H287.562V90.4141C287.562 92.2734 288.094 93.6641 289.156 94.5859C290.234 95.4922 291.727 95.9453 293.633 95.9453C295.523 95.9453 296.969 95.5078 297.969 94.6328C298.984 93.7578 299.492 92.5938 299.492 91.1406C299.492 89.7812 298.992 88.7031 297.992 87.9062C296.992 87.0938 295.031 86.2266 292.109 85.3047C288.656 84.2109 286.109 82.875 284.469 81.2969C282.828 79.7188 282.008 77.5703 282.008 74.8516C282.008 71.9766 283.031 69.6719 285.078 67.9375C287.141 66.2031 289.93 65.3359 293.445 65.3359C296.914 65.3359 299.695 66.1797 301.789 67.8672C303.898 69.5547 304.953 71.8828 304.953 74.8516V75.9062H298.977V75.1562C298.977 73.5625 298.508 72.3125 297.57 71.4062C296.648 70.4844 295.297 70.0234 293.516 70.0234C291.656 70.0234 290.297 70.4219 289.438 71.2188C288.594 72 288.172 73.0547 288.172 74.3828C288.172 75.6328 288.672 76.6328 289.672 77.3828C290.672 78.1172 292.672 78.9531 295.672 79.8906C299.047 80.9375 301.547 82.2891 303.172 83.9453C304.812 85.5859 305.641 87.8281 305.656 90.6719C305.656 93.7188 304.562 96.1328 302.375 97.9141C300.203 99.6797 297.305 100.562 293.68 100.562C290.07 100.562 287.133 99.7266 284.867 98.0547C282.617 96.3672 281.492 93.9297 281.492 90.7422Z" fill="#F9EFEC"/>
<rect x="1581.5" y="50.5" width="67" height="67" rx="33.5" fill="#1A1A1A"/>
<rect x="1581.5" y="50.5" width="67" height="67" rx="33.5" stroke="#262626"/>
<path fill-rule="evenodd" clip-rule="evenodd" d="M1610.62 74.375L1623.75 74.375C1623.98 74.375 1624.2 74.4672 1624.37 74.6313C1624.53 74.7954 1624.62 75.0179 1624.62 75.25V88.375C1624.62 88.8582 1624.23 89.25 1623.75 89.25C1623.27 89.25 1622.88 88.8582 1622.88 88.375V77.3624L1606.87 93.3687C1606.53 93.7104 1605.97 93.7104 1605.63 93.3687C1605.29 93.027 1605.29 92.473 1605.63 92.1313L1621.64 76.125L1610.62 76.125C1610.14 76.125 1609.75 75.7332 1609.75 75.25C1609.75 74.7668 1610.14 74.375 1610.62 74.375Z" fill="#E7BEB1"/>
<path d="M1667.36 88.7285H1662.9L1661.93 92H1659.49L1664.12 77.7812H1666.2L1670.75 92H1668.32L1667.36 88.7285ZM1663.49 86.7168H1666.78L1665.15 81.0918L1663.49 86.7168ZM1675.03 90.0664H1681.81V92H1672.67V77.7812H1675.03V90.0664ZM1687.04 90.0664H1693.82V92H1684.68V77.7812H1687.04V90.0664ZM1709.35 92L1707.5 77.7812H1709.67L1710.65 86.5117L1710.72 87.0684L1710.82 86.4824L1712.18 77.7812H1713.98L1715.4 86.5215L1715.49 87.1074L1715.56 86.5117L1716.55 77.7812H1718.74L1716.86 92H1714.64L1713.2 83.2988L1713.1 82.625L1712.99 83.2988L1711.57 92H1709.35ZM1730.15 85.8379C1730.15 86.4108 1730.1 86.9642 1730 87.498C1729.9 88.0319 1729.76 88.5365 1729.57 89.0117C1729.36 89.487 1729.11 89.9264 1728.81 90.3301C1728.51 90.7272 1728.17 91.069 1727.78 91.3555C1727.4 91.6159 1726.98 91.821 1726.52 91.9707C1726.06 92.1204 1725.56 92.1953 1725.02 92.1953C1724.45 92.1953 1723.93 92.1172 1723.45 91.9609C1722.98 91.7982 1722.56 91.5768 1722.19 91.2969C1721.82 91.0104 1721.48 90.6654 1721.2 90.2617C1720.92 89.8581 1720.68 89.4154 1720.49 88.9336C1720.31 88.4714 1720.18 87.9798 1720.08 87.459C1719.99 86.9316 1719.95 86.3913 1719.95 85.8379V83.9629C1719.95 83.3835 1720 82.8236 1720.09 82.2832C1720.19 81.7428 1720.34 81.2318 1720.53 80.75C1720.72 80.2878 1720.95 79.8646 1721.23 79.4805C1721.51 79.0898 1721.84 78.7513 1722.21 78.4648C1722.58 78.1849 1722.99 77.9701 1723.45 77.8203C1723.92 77.6641 1724.44 77.5859 1725 77.5859C1725.56 77.5859 1726.08 77.6641 1726.56 77.8203C1727.03 77.9766 1727.46 78.1947 1727.84 78.4746C1728.22 78.7546 1728.54 79.0833 1728.82 79.4609C1729.1 79.8385 1729.34 80.252 1729.53 80.7012C1729.74 81.1829 1729.89 81.7005 1730 82.2539C1730.1 82.8008 1730.15 83.3704 1730.15 83.9629V85.8379ZM1727.79 83.9434C1727.78 83.5853 1727.76 83.2337 1727.72 82.8887C1727.69 82.5436 1727.63 82.2148 1727.54 81.9023C1727.45 81.5443 1727.32 81.2188 1727.15 80.9258C1727 80.6263 1726.81 80.3724 1726.58 80.1641C1726.38 79.9818 1726.15 79.8385 1725.88 79.7344C1725.62 79.6302 1725.33 79.5781 1725 79.5781C1724.68 79.5781 1724.39 79.6302 1724.14 79.7344C1723.88 79.832 1723.66 79.9688 1723.47 80.1445C1723.24 80.3594 1723.05 80.6165 1722.9 80.916C1722.74 81.209 1722.62 81.5378 1722.54 81.9023C1722.46 82.2148 1722.4 82.5469 1722.36 82.8984C1722.33 83.2435 1722.31 83.5918 1722.31 83.9434V85.8379C1722.31 86.1829 1722.33 86.5247 1722.36 86.8633C1722.39 87.2018 1722.45 87.5273 1722.53 87.8398C1722.61 88.1914 1722.72 88.5202 1722.87 88.8262C1723.02 89.1257 1723.2 89.3796 1723.4 89.5879C1723.61 89.7832 1723.84 89.9395 1724.1 90.0566C1724.36 90.1673 1724.67 90.2227 1725.02 90.2227C1725.35 90.2227 1725.65 90.1673 1725.91 90.0566C1726.19 89.946 1726.42 89.7962 1726.62 89.6074C1726.85 89.3926 1727.03 89.1387 1727.18 88.8457C1727.34 88.5462 1727.46 88.2174 1727.55 87.8594C1727.63 87.5469 1727.69 87.2214 1727.72 86.8828C1727.76 86.5378 1727.78 86.1895 1727.79 85.8379V83.9434ZM1737.3 86.4824H1734.9V92H1732.55V77.7812H1737.07C1737.8 77.7878 1738.48 77.8822 1739.1 78.0645C1739.72 78.2467 1740.25 78.5137 1740.7 78.8652C1741.14 79.2233 1741.49 79.6693 1741.73 80.2031C1741.98 80.7305 1742.11 81.349 1742.11 82.0586C1742.11 82.5469 1742.04 82.9896 1741.91 83.3867C1741.79 83.7839 1741.61 84.1419 1741.38 84.4609C1741.15 84.7799 1740.88 85.0599 1740.56 85.3008C1740.24 85.5417 1739.89 85.75 1739.5 85.9258L1742.54 91.873V92H1740.03L1737.3 86.4824ZM1734.9 84.5684H1737.1C1737.51 84.5618 1737.89 84.5 1738.22 84.3828C1738.56 84.2591 1738.84 84.0833 1739.08 83.8555C1739.29 83.6602 1739.45 83.4193 1739.57 83.1328C1739.68 82.8464 1739.74 82.5208 1739.74 82.1562C1739.74 81.7461 1739.68 81.388 1739.55 81.082C1739.42 80.7695 1739.24 80.5091 1738.99 80.3008C1738.76 80.1055 1738.49 79.959 1738.16 79.8613C1737.83 79.7572 1737.47 79.7018 1737.07 79.6953H1734.9V84.5684ZM1748.42 85.8379L1746.89 87.5566V92H1744.52V77.7812H1746.89V84.4707L1748.22 82.7422L1751.97 77.7812H1754.84L1749.98 84.041L1755.08 92H1752.27L1748.42 85.8379ZM1763.96 88.3379C1763.96 88.0059 1763.89 87.7129 1763.76 87.459C1763.62 87.2051 1763.43 86.9772 1763.18 86.7754C1762.92 86.5866 1762.61 86.4173 1762.25 86.2676C1761.9 86.1113 1761.51 85.9714 1761.07 85.8477C1760.4 85.6589 1759.78 85.4277 1759.21 85.1543C1758.65 84.8743 1758.18 84.5618 1757.78 84.2168C1757.38 83.8652 1757.07 83.4681 1756.84 83.0254C1756.62 82.5762 1756.51 82.0716 1756.51 81.5117C1756.51 80.9062 1756.64 80.3626 1756.9 79.8809C1757.16 79.3926 1757.51 78.9759 1757.96 78.6309C1758.4 78.2923 1758.91 78.0352 1759.5 77.8594C1760.09 77.6771 1760.71 77.5859 1761.36 77.5859C1762.05 77.5859 1762.69 77.6934 1763.29 77.9082C1763.89 78.1165 1764.41 78.4095 1764.85 78.7871C1765.29 79.1712 1765.64 79.6302 1765.89 80.1641C1766.15 80.6914 1766.29 81.2773 1766.29 81.9219H1763.96C1763.93 81.5638 1763.85 81.2383 1763.73 80.9453C1763.61 80.6458 1763.44 80.3887 1763.23 80.1738C1763.01 79.9655 1762.74 79.8027 1762.42 79.6855C1762.11 79.5618 1761.74 79.5 1761.33 79.5C1760.98 79.5 1760.64 79.5488 1760.34 79.6465C1760.04 79.7376 1759.78 79.8678 1759.56 80.0371C1759.34 80.2129 1759.16 80.4245 1759.04 80.6719C1758.92 80.9193 1758.85 81.196 1758.85 81.502C1758.86 81.8275 1758.94 82.1139 1759.11 82.3613C1759.27 82.6022 1759.49 82.8138 1759.76 82.9961C1760.04 83.1784 1760.36 83.3379 1760.72 83.4746C1761.08 83.6113 1761.46 83.7383 1761.86 83.8555C1762.36 83.9987 1762.85 84.1777 1763.33 84.3926C1763.81 84.6009 1764.25 84.8548 1764.65 85.1543C1765.16 85.5319 1765.56 85.9844 1765.86 86.5117C1766.16 87.0326 1766.31 87.6348 1766.31 88.3184C1766.31 88.9499 1766.18 89.5065 1765.91 89.9883C1765.65 90.4701 1765.3 90.8704 1764.86 91.1895C1764.41 91.5215 1763.89 91.7721 1763.3 91.9414C1762.7 92.1042 1762.08 92.1855 1761.42 92.1855C1760.73 92.1855 1760.04 92.0781 1759.36 91.8633C1758.68 91.6419 1758.1 91.3229 1757.59 90.9062C1757.13 90.5156 1756.76 90.0566 1756.49 89.5293C1756.22 89.002 1756.09 88.3965 1756.08 87.7129H1758.42C1758.46 88.1491 1758.55 88.5299 1758.7 88.8555C1758.85 89.1745 1759.07 89.4382 1759.33 89.6465C1759.59 89.8613 1759.9 90.0208 1760.25 90.125C1760.61 90.2292 1761 90.2812 1761.42 90.2812C1761.78 90.2812 1762.11 90.2389 1762.42 90.1543C1762.73 90.0697 1763 89.9427 1763.23 89.7734C1763.45 89.6107 1763.63 89.4089 1763.76 89.168C1763.89 88.9271 1763.96 88.6504 1763.96 88.3379Z" fill="#B3B3B2"/>
</svg>
