<svg width="1820" height="168" viewBox="0 0 1820 168" fill="none" xmlns="http://www.w3.org/2000/svg">
<rect width="1820" height="168" rx="16" fill="#1A1A1A"/>
<path d="M52.9062 100V65.875H72.8281V70.9375H59.2578V80.7578H71.0938V85.5625H59.2578V100H52.9062ZM76.4844 100V65.875H88.5547C92.0234 65.875 94.7188 66.8281 96.6406 68.7344C98.5625 70.625 99.5234 73.1484 99.5234 76.3047C99.5234 79.5234 98.5312 82.1172 96.5469 84.0859C94.5781 86.0391 91.8984 87.0156 88.5078 87.0156H82.8359V100H76.4844ZM82.8359 82.5156H87.6641C89.6953 82.5156 91.1094 81.9609 91.9062 80.8516C92.7188 79.7266 93.1328 78.2891 93.1484 76.5391C93.1484 74.7734 92.7422 73.3516 91.9297 72.2734C91.1172 71.1797 89.6953 70.625 87.6641 70.6094H82.8359V82.5156ZM93.9922 100L86.6328 84.625L92.7266 83.5234L101 100H93.9922ZM104.047 100V65.875H125.188V70.9375H110.234V80.1719H123.055V84.8828H110.234V95.0312H125.469V100H104.047ZM128.211 83.9219V81.9531C128.211 76.3438 129.508 72.1719 132.102 69.4375C134.695 66.6875 138.047 65.3125 142.156 65.3125C146.266 65.3125 149.617 66.6875 152.211 69.4375C154.805 72.1719 156.102 76.3438 156.102 81.9531V83.9219C156.102 89.4688 154.805 93.6328 152.211 96.4141C149.617 99.1797 146.266 100.562 142.156 100.562C138.047 100.562 134.695 99.1797 132.102 96.4141C129.508 93.6328 128.211 89.4688 128.211 83.9219ZM134.773 85.0469C134.773 88.75 135.438 91.4766 136.766 93.2266C138.094 94.9766 139.891 95.8516 142.156 95.8516C144.422 95.8516 146.219 94.9766 147.547 93.2266C148.875 91.4766 149.539 88.75 149.539 85.0469V80.8516C149.539 77.1016 148.875 74.3672 147.547 72.6484C146.219 70.9297 144.422 70.0703 142.156 70.0703C139.891 70.0703 138.094 70.9297 136.766 72.6484C135.438 74.3672 134.773 77.1016 134.773 80.8516V85.0469ZM152.352 105.93L143.562 97.8438L147.172 93.9766L156.031 101.969L152.352 105.93ZM160.695 87.8828V65.875H167.047V88.4688C167.047 91.1094 167.57 93 168.617 94.1406C169.664 95.2656 171.102 95.8281 172.93 95.8281C174.742 95.8281 176.164 95.2656 177.195 94.1406C178.242 93 178.766 91.1094 178.766 88.4688V65.875H185.094V87.8828C185.094 92.1953 183.984 95.3906 181.766 97.4688C179.562 99.5312 176.625 100.562 172.953 100.562C169.234 100.562 166.258 99.5312 164.023 97.4688C161.805 95.3906 160.695 92.1953 160.695 87.8828ZM190.719 100V65.875H211.859V70.9375H196.906V80.1719H209.727V84.8828H196.906V95.0312H212.141V100H190.719ZM215.938 100V65.875H222.523L234.102 87.6016C234.352 88.1016 234.578 88.6094 234.781 89.125C234.984 89.625 235.164 90.1172 235.32 90.6016H235.461C235.445 90.0703 235.43 89.5312 235.414 88.9844C235.414 88.4375 235.414 87.9062 235.414 87.3906V65.875H240.969V100H234.453L222.758 78.1797C222.508 77.7109 222.281 77.2266 222.078 76.7266C221.875 76.2266 221.695 75.7344 221.539 75.25H221.398C221.43 75.7812 221.445 76.3203 221.445 76.8672C221.461 77.3984 221.469 77.9297 221.469 78.4609V100H215.938ZM244.039 70.9375V65.875H269.797V70.9375H260.141V100H253.719V70.9375H244.039ZM273.031 100V65.875H279.383V94.9375H293.352V100H273.031ZM302.586 100V87.0156L291.547 65.875H298.531L304.977 78.625C305.18 79.0312 305.367 79.4141 305.539 79.7734C305.711 80.1328 305.867 80.5156 306.008 80.9219H306.148C306.289 80.5156 306.438 80.1328 306.594 79.7734C306.766 79.4141 306.953 79.0312 307.156 78.625L313.625 65.875H319.93L308.984 86.8984V100H302.586ZM330.242 100L341.727 65.8047H348.734L360.172 100H353.703L345.828 75.2266C345.641 74.6328 345.484 74.0938 345.359 73.6094C345.234 73.125 345.117 72.6641 345.008 72.2266H344.891C344.781 72.6641 344.664 73.125 344.539 73.6094C344.414 74.0938 344.258 74.625 344.07 75.2031L336.336 100H330.242ZM336.195 92.1484L337.391 87.625H352.742L353.984 92.1484H336.195ZM361.508 90.7422V89.4062H367.578V90.4141C367.578 92.2734 368.109 93.6641 369.172 94.5859C370.25 95.4922 371.742 95.9453 373.648 95.9453C375.539 95.9453 376.984 95.5078 377.984 94.6328C379 93.7578 379.508 92.5938 379.508 91.1406C379.508 89.7812 379.008 88.7031 378.008 87.9062C377.008 87.0938 375.047 86.2266 372.125 85.3047C368.672 84.2109 366.125 82.875 364.484 81.2969C362.844 79.7188 362.023 77.5703 362.023 74.8516C362.023 71.9766 363.047 69.6719 365.094 67.9375C367.156 66.2031 369.945 65.3359 373.461 65.3359C376.93 65.3359 379.711 66.1797 381.805 67.8672C383.914 69.5547 384.969 71.8828 384.969 74.8516V75.9062H378.992V75.1562C378.992 73.5625 378.523 72.3125 377.586 71.4062C376.664 70.4844 375.312 70.0234 373.531 70.0234C371.672 70.0234 370.312 70.4219 369.453 71.2188C368.609 72 368.188 73.0547 368.188 74.3828C368.188 75.6328 368.688 76.6328 369.688 77.3828C370.688 78.1172 372.688 78.9531 375.688 79.8906C379.062 80.9375 381.562 82.2891 383.188 83.9453C384.828 85.5859 385.656 87.8281 385.672 90.6719C385.672 93.7188 384.578 96.1328 382.391 97.9141C380.219 99.6797 377.32 100.562 373.695 100.562C370.086 100.562 367.148 99.7266 364.883 98.0547C362.633 96.3672 361.508 93.9297 361.508 90.7422ZM390.031 100V65.875H396.383V80.4297L408.078 65.875H414.875L396.383 88.2109V100H390.031ZM408.734 100L397.531 83.1016L401.469 78.3906L416.117 100H408.734ZM417.969 100V65.875H439.109V70.9375H424.156V80.1719H436.977V84.8828H424.156V95.0312H439.391V100H417.969ZM443.188 100V65.875H453.922C458.297 65.875 461.797 67.2969 464.422 70.1406C467.047 72.9688 468.359 76.8984 468.359 81.9297V83.8984C468.359 88.9297 467.055 92.875 464.445 95.7344C461.836 98.5781 458.328 100 453.922 100H443.188ZM449.445 95.3125H453.547C456.156 95.3125 458.203 94.3828 459.688 92.5234C461.172 90.6641 461.914 87.9609 461.914 84.4141V81.4844C461.914 77.9062 461.156 75.2109 459.641 73.3984C458.125 71.5859 456.094 70.6719 453.547 70.6562H449.445V95.3125ZM483.008 83.9219V81.9531C483.008 76.3438 484.305 72.1719 486.898 69.4375C489.492 66.6875 492.844 65.3125 496.953 65.3125C501.062 65.3125 504.414 66.6875 507.008 69.4375C509.602 72.1719 510.898 76.3438 510.898 81.9531V83.9219C510.898 89.4688 509.602 93.6328 507.008 96.4141C504.414 99.1797 501.062 100.562 496.953 100.562C492.844 100.562 489.492 99.1797 486.898 96.4141C484.305 93.6328 483.008 89.4688 483.008 83.9219ZM489.57 85.0469C489.57 88.75 490.234 91.4766 491.562 93.2266C492.891 94.9766 494.688 95.8516 496.953 95.8516C499.219 95.8516 501.016 94.9766 502.344 93.2266C503.672 91.4766 504.336 88.75 504.336 85.0469V80.8516C504.336 77.1016 503.672 74.3672 502.344 72.6484C501.016 70.9297 499.219 70.0703 496.953 70.0703C494.688 70.0703 492.891 70.9297 491.562 72.6484C490.234 74.3672 489.57 77.1016 489.57 80.8516V85.0469ZM507.148 105.93L498.359 97.8438L501.969 93.9766L510.828 101.969L507.148 105.93ZM515.492 87.8828V65.875H521.844V88.4688C521.844 91.1094 522.367 93 523.414 94.1406C524.461 95.2656 525.898 95.8281 527.727 95.8281C529.539 95.8281 530.961 95.2656 531.992 94.1406C533.039 93 533.562 91.1094 533.562 88.4688V65.875H539.891V87.8828C539.891 92.1953 538.781 95.3906 536.562 97.4688C534.359 99.5312 531.422 100.562 527.75 100.562C524.031 100.562 521.055 99.5312 518.82 97.4688C516.602 95.3906 515.492 92.1953 515.492 87.8828ZM545.516 100V65.875H566.656V70.9375H551.703V80.1719H564.523V84.8828H551.703V95.0312H566.938V100H545.516ZM569.914 90.7422V89.4062H575.984V90.4141C575.984 92.2734 576.516 93.6641 577.578 94.5859C578.656 95.4922 580.148 95.9453 582.055 95.9453C583.945 95.9453 585.391 95.5078 586.391 94.6328C587.406 93.7578 587.914 92.5938 587.914 91.1406C587.914 89.7812 587.414 88.7031 586.414 87.9062C585.414 87.0938 583.453 86.2266 580.531 85.3047C577.078 84.2109 574.531 82.875 572.891 81.2969C571.25 79.7188 570.43 77.5703 570.43 74.8516C570.43 71.9766 571.453 69.6719 573.5 67.9375C575.562 66.2031 578.352 65.3359 581.867 65.3359C585.336 65.3359 588.117 66.1797 590.211 67.8672C592.32 69.5547 593.375 71.8828 593.375 74.8516V75.9062H587.398V75.1562C587.398 73.5625 586.93 72.3125 585.992 71.4062C585.07 70.4844 583.719 70.0234 581.938 70.0234C580.078 70.0234 578.719 70.4219 577.859 71.2188C577.016 72 576.594 73.0547 576.594 74.3828C576.594 75.6328 577.094 76.6328 578.094 77.3828C579.094 78.1172 581.094 78.9531 584.094 79.8906C587.469 80.9375 589.969 82.2891 591.594 83.9453C593.234 85.5859 594.062 87.8281 594.078 90.6719C594.078 93.7188 592.984 96.1328 590.797 97.9141C588.625 99.6797 585.727 100.562 582.102 100.562C578.492 100.562 575.555 99.7266 573.289 98.0547C571.039 96.3672 569.914 93.9297 569.914 90.7422ZM595.883 70.9375V65.875H621.641V70.9375H611.984V100H605.562V70.9375H595.883ZM624.969 100V65.875H631.391V100H624.969ZM636.289 83.9219V81.9531C636.289 76.2812 637.586 72.0938 640.18 69.3906C642.773 66.6719 646.125 65.3125 650.234 65.3125C654.328 65.3125 657.672 66.6719 660.266 69.3906C662.875 72.0938 664.18 76.2812 664.18 81.9531V83.9219C664.18 89.5938 662.875 93.7891 660.266 96.5078C657.672 99.2109 654.328 100.562 650.234 100.562C646.125 100.562 642.773 99.2109 640.18 96.5078C637.586 93.7891 636.289 89.5938 636.289 83.9219ZM642.852 85.0703C642.852 88.8359 643.516 91.5781 644.844 93.2969C646.172 95 647.969 95.8516 650.234 95.8516C652.484 95.8516 654.273 95 655.602 93.2969C656.945 91.5781 657.617 88.8359 657.617 85.0703V80.8281C657.617 77.0781 656.945 74.3516 655.602 72.6484C654.273 70.9297 652.484 70.0703 650.234 70.0703C647.969 70.0703 646.172 70.9297 644.844 72.6484C643.516 74.3516 642.852 77.0781 642.852 80.8281V85.0703ZM668.984 100V65.875H675.57L687.148 87.6016C687.398 88.1016 687.625 88.6094 687.828 89.125C688.031 89.625 688.211 90.1172 688.367 90.6016H688.508C688.492 90.0703 688.477 89.5312 688.461 88.9844C688.461 88.4375 688.461 87.9062 688.461 87.3906V65.875H694.016V100H687.5L675.805 78.1797C675.555 77.7109 675.328 77.2266 675.125 76.7266C674.922 76.2266 674.742 75.7344 674.586 75.25H674.445C674.477 75.7812 674.492 76.3203 674.492 76.8672C674.508 77.3984 674.516 77.9297 674.516 78.4609V100H668.984ZM698.492 90.7422V89.4062H704.562V90.4141C704.562 92.2734 705.094 93.6641 706.156 94.5859C707.234 95.4922 708.727 95.9453 710.633 95.9453C712.523 95.9453 713.969 95.5078 714.969 94.6328C715.984 93.7578 716.492 92.5938 716.492 91.1406C716.492 89.7812 715.992 88.7031 714.992 87.9062C713.992 87.0938 712.031 86.2266 709.109 85.3047C705.656 84.2109 703.109 82.875 701.469 81.2969C699.828 79.7188 699.008 77.5703 699.008 74.8516C699.008 71.9766 700.031 69.6719 702.078 67.9375C704.141 66.2031 706.93 65.3359 710.445 65.3359C713.914 65.3359 716.695 66.1797 718.789 67.8672C720.898 69.5547 721.953 71.8828 721.953 74.8516V75.9062H715.977V75.1562C715.977 73.5625 715.508 72.3125 714.57 71.4062C713.648 70.4844 712.297 70.0234 710.516 70.0234C708.656 70.0234 707.297 70.4219 706.438 71.2188C705.594 72 705.172 73.0547 705.172 74.3828C705.172 75.6328 705.672 76.6328 706.672 77.3828C707.672 78.1172 709.672 78.9531 712.672 79.8906C716.047 80.9375 718.547 82.2891 720.172 83.9453C721.812 85.5859 722.641 87.8281 722.656 90.6719C722.656 93.7188 721.562 96.1328 719.375 97.9141C717.203 99.6797 714.305 100.562 710.68 100.562C707.07 100.562 704.133 99.7266 701.867 98.0547C699.617 96.3672 698.492 93.9297 698.492 90.7422Z" fill="#F9EFEC"/>
<rect x="1595.5" y="50.5" width="67" height="67" rx="33.5" fill="#1A1A1A"/>
<rect x="1595.5" y="50.5" width="67" height="67" rx="33.5" stroke="#262626"/>
<path fill-rule="evenodd" clip-rule="evenodd" d="M1624.62 74.375L1637.75 74.375C1637.98 74.375 1638.2 74.4672 1638.37 74.6313C1638.53 74.7954 1638.62 75.0179 1638.62 75.25V88.375C1638.62 88.8582 1638.23 89.25 1637.75 89.25C1637.27 89.25 1636.88 88.8582 1636.88 88.375V77.3624L1620.87 93.3687C1620.53 93.7104 1619.97 93.7104 1619.63 93.3687C1619.29 93.027 1619.29 92.473 1619.63 92.1313L1635.64 76.125L1624.62 76.125C1624.14 76.125 1623.75 75.7332 1623.75 75.25C1623.75 74.7668 1624.14 74.375 1624.62 74.375Z" fill="#E7BEB1"/>
<path d="M1677.84 92L1673.47 77.7812H1676.04L1678.74 87.625L1678.98 88.4746L1679.22 87.6152L1681.95 77.7812H1684.5L1680.13 92H1677.84ZM1686.82 77.7812H1695.2V79.7246H1692.16V90.0664H1695.2V92H1686.82V90.0664H1689.79V79.7246H1686.82V77.7812ZM1706.84 85.623H1700.96V90.0664H1707.82V92H1698.61V77.7812H1707.78V79.7246H1700.96V83.7285H1706.84V85.623ZM1711.34 92L1709.48 77.7812H1711.66L1712.64 86.5117L1712.71 87.0684L1712.8 86.4824L1714.17 77.7812H1715.97L1717.38 86.5215L1717.48 87.1074L1717.55 86.5117L1718.54 77.7812H1720.72L1718.85 92H1716.63L1715.19 83.2988L1715.09 82.625L1714.98 83.2988L1713.56 92H1711.34ZM1741.42 88.7285H1736.96L1735.99 92H1733.55L1738.18 77.7812H1740.26L1744.81 92H1742.38L1741.42 88.7285ZM1737.55 86.7168H1740.84L1739.21 81.0918L1737.55 86.7168ZM1749.08 90.0664H1755.87V92H1746.73V77.7812H1749.08V90.0664ZM1761.1 90.0664H1767.88V92H1758.74V77.7812H1761.1V90.0664Z" fill="#B3B3B2"/>
</svg>
