<svg width="1360" height="136" viewBox="0 0 1360 136" fill="none" xmlns="http://www.w3.org/2000/svg">
<rect width="1360" height="136" rx="14" fill="#1A1A1A"/>
<path d="M41.2803 73.1338V72.1875H46.123V72.9111C46.123 74.3708 46.5498 75.4655 47.4033 76.1953C48.2692 76.9128 49.4753 77.2715 51.0215 77.2715C52.543 77.2715 53.7057 76.9251 54.5098 76.2324C55.3262 75.5397 55.7344 74.6182 55.7344 73.4678C55.7344 72.3916 55.3324 71.5381 54.5283 70.9072C53.7367 70.264 52.1471 69.5713 49.7598 68.8291C47.0137 67.988 44.985 66.9489 43.6738 65.7119C42.3626 64.4626 41.707 62.7555 41.707 60.5908C41.707 58.3148 42.5234 56.4902 44.1562 55.1172C45.8014 53.7318 48.0342 53.0391 50.8545 53.0391C53.6377 53.0391 55.8704 53.7194 57.5527 55.0801C59.2474 56.4408 60.0947 58.2962 60.0947 60.6465V61.4072H55.3076V60.8506C55.3076 59.6012 54.9303 58.6117 54.1758 57.8818C53.4336 57.1396 52.3451 56.7686 50.9102 56.7686C49.4134 56.7686 48.3187 57.084 47.626 57.7148C46.9456 58.3333 46.6055 59.1745 46.6055 60.2383C46.6055 61.2279 47.0013 62.0133 47.793 62.5947C48.597 63.1761 50.2113 63.8379 52.6357 64.5801C55.3324 65.3965 57.3363 66.4541 58.6475 67.7529C59.971 69.0518 60.6328 70.8392 60.6328 73.1152C60.6328 75.5273 59.7607 77.4385 58.0166 78.8486C56.2725 80.2588 53.9531 80.9639 51.0586 80.9639C48.1641 80.9639 45.8076 80.2959 43.9893 78.96C42.1833 77.6117 41.2803 75.6696 41.2803 73.1338ZM64.0283 70.9258V53.4844H69.0566V71.3525C69.0566 73.443 69.4834 74.9398 70.3369 75.8428C71.1904 76.7458 72.3532 77.1973 73.8252 77.1973C75.2848 77.1973 76.4414 76.7458 77.2949 75.8428C78.1484 74.9398 78.5752 73.443 78.5752 71.3525V53.4844H83.5479V70.9258C83.5479 74.3398 82.6572 76.8695 80.876 78.5146C79.0947 80.1475 76.7507 80.9639 73.8438 80.9639C70.8997 80.9639 68.5247 80.1475 66.7188 78.5146C64.9251 76.8695 64.0283 74.3398 64.0283 70.9258ZM87.3701 67.7715V66.2129C87.3701 61.735 88.403 58.4199 90.4688 56.2676C92.5345 54.1029 95.2002 53.0205 98.4658 53.0205C101.632 53.0205 104.106 53.8369 105.888 55.4697C107.681 57.1025 108.578 59.3291 108.578 62.1494V63.0029H103.643V61.9268C103.643 60.3063 103.216 59.0508 102.362 58.1602C101.509 57.2572 100.216 56.8057 98.4844 56.8057C96.6784 56.8057 95.2435 57.4922 94.1797 58.8652C93.1283 60.2259 92.6025 62.3906 92.6025 65.3594V68.6436C92.6025 71.4886 93.1344 73.6286 94.1982 75.0635C95.2744 76.486 96.7279 77.1973 98.5586 77.1973C100.216 77.1973 101.459 76.7396 102.288 75.8242C103.129 74.9089 103.581 73.6038 103.643 71.9092V71.0186H108.578L108.56 72.0205C108.485 74.6924 107.582 76.8509 105.851 78.4961C104.119 80.1289 101.651 80.9453 98.4473 80.9453C95.0827 80.9453 92.3923 79.8568 90.376 77.6797C88.3721 75.4902 87.3701 72.1875 87.3701 67.7715ZM111.269 67.7715V66.2129C111.269 61.735 112.301 58.4199 114.367 56.2676C116.433 54.1029 119.099 53.0205 122.364 53.0205C125.531 53.0205 128.005 53.8369 129.786 55.4697C131.58 57.1025 132.477 59.3291 132.477 62.1494V63.0029H127.541V61.9268C127.541 60.3063 127.114 59.0508 126.261 58.1602C125.407 57.2572 124.115 56.8057 122.383 56.8057C120.577 56.8057 119.142 57.4922 118.078 58.8652C117.027 60.2259 116.501 62.3906 116.501 65.3594V68.6436C116.501 71.4886 117.033 73.6286 118.097 75.0635C119.173 76.486 120.626 77.1973 122.457 77.1973C124.115 77.1973 125.358 76.7396 126.187 75.8242C127.028 74.9089 127.479 73.6038 127.541 71.9092V71.0186H132.477L132.458 72.0205C132.384 74.6924 131.481 76.8509 129.749 78.4961C128.017 80.1289 125.549 80.9453 122.346 80.9453C118.981 80.9453 116.291 79.8568 114.274 77.6797C112.271 75.4902 111.269 72.1875 111.269 67.7715ZM136.021 80.5V53.4844H152.942V57.4736H140.938V64.7842H151.235V68.5322H140.938V76.585H153.146V80.5H136.021ZM155.577 73.1338V72.1875H160.42V72.9111C160.42 74.3708 160.847 75.4655 161.7 76.1953C162.566 76.9128 163.772 77.2715 165.318 77.2715C166.84 77.2715 168.003 76.9251 168.807 76.2324C169.623 75.5397 170.031 74.6182 170.031 73.4678C170.031 72.3916 169.629 71.5381 168.825 70.9072C168.034 70.264 166.444 69.5713 164.057 68.8291C161.311 67.988 159.282 66.9489 157.971 65.7119C156.66 64.4626 156.004 62.7555 156.004 60.5908C156.004 58.3148 156.82 56.4902 158.453 55.1172C160.098 53.7318 162.331 53.0391 165.151 53.0391C167.935 53.0391 170.167 53.7194 171.85 55.0801C173.544 56.4408 174.392 58.2962 174.392 60.6465V61.4072H169.604V60.8506C169.604 59.6012 169.227 58.6117 168.473 57.8818C167.73 57.1396 166.642 56.7686 165.207 56.7686C163.71 56.7686 162.616 57.084 161.923 57.7148C161.243 58.3333 160.902 59.1745 160.902 60.2383C160.902 61.2279 161.298 62.0133 162.09 62.5947C162.894 63.1761 164.508 63.8379 166.933 64.5801C169.629 65.3965 171.633 66.4541 172.944 67.7529C174.268 69.0518 174.93 70.8392 174.93 73.1152C174.93 75.5273 174.058 77.4385 172.313 78.8486C170.569 80.2588 168.25 80.9639 165.355 80.9639C162.461 80.9639 160.104 80.2959 158.286 78.96C156.48 77.6117 155.577 75.6696 155.577 73.1338ZM177.583 73.1338V72.1875H182.426V72.9111C182.426 74.3708 182.853 75.4655 183.706 76.1953C184.572 76.9128 185.778 77.2715 187.324 77.2715C188.846 77.2715 190.008 76.9251 190.812 76.2324C191.629 75.5397 192.037 74.6182 192.037 73.4678C192.037 72.3916 191.635 71.5381 190.831 70.9072C190.039 70.264 188.45 69.5713 186.062 68.8291C183.316 67.988 181.288 66.9489 179.977 65.7119C178.665 64.4626 178.01 62.7555 178.01 60.5908C178.01 58.3148 178.826 56.4902 180.459 55.1172C182.104 53.7318 184.337 53.0391 187.157 53.0391C189.94 53.0391 192.173 53.7194 193.855 55.0801C195.55 56.4408 196.397 58.2962 196.397 60.6465V61.4072H191.61V60.8506C191.61 59.6012 191.233 58.6117 190.479 57.8818C189.736 57.1396 188.648 56.7686 187.213 56.7686C185.716 56.7686 184.621 57.084 183.929 57.7148C183.248 58.3333 182.908 59.1745 182.908 60.2383C182.908 61.2279 183.304 62.0133 184.096 62.5947C184.9 63.1761 186.514 63.8379 188.938 64.5801C191.635 65.3965 193.639 66.4541 194.95 67.7529C196.274 69.0518 196.936 70.8392 196.936 73.1152C196.936 75.5273 196.063 77.4385 194.319 78.8486C192.575 80.2588 190.256 80.9639 187.361 80.9639C184.467 80.9639 182.11 80.2959 180.292 78.96C178.486 77.6117 177.583 75.6696 177.583 73.1338ZM208.087 73.1338V72.1875H212.93V72.9111C212.93 74.3708 213.356 75.4655 214.21 76.1953C215.076 76.9128 216.282 77.2715 217.828 77.2715C219.35 77.2715 220.512 76.9251 221.316 76.2324C222.133 75.5397 222.541 74.6182 222.541 73.4678C222.541 72.3916 222.139 71.5381 221.335 70.9072C220.543 70.264 218.954 69.5713 216.566 68.8291C213.82 67.988 211.792 66.9489 210.48 65.7119C209.169 64.4626 208.514 62.7555 208.514 60.5908C208.514 58.3148 209.33 56.4902 210.963 55.1172C212.608 53.7318 214.841 53.0391 217.661 53.0391C220.444 53.0391 222.677 53.7194 224.359 55.0801C226.054 56.4408 226.901 58.2962 226.901 60.6465V61.4072H222.114V60.8506C222.114 59.6012 221.737 58.6117 220.982 57.8818C220.24 57.1396 219.152 56.7686 217.717 56.7686C216.22 56.7686 215.125 57.084 214.433 57.7148C213.752 58.3333 213.412 59.1745 213.412 60.2383C213.412 61.2279 213.808 62.0133 214.6 62.5947C215.404 63.1761 217.018 63.8379 219.442 64.5801C222.139 65.3965 224.143 66.4541 225.454 67.7529C226.778 69.0518 227.439 70.8392 227.439 73.1152C227.439 75.5273 226.567 77.4385 224.823 78.8486C223.079 80.2588 220.76 80.9639 217.865 80.9639C214.971 80.9639 212.614 80.2959 210.796 78.96C208.99 77.6117 208.087 75.6696 208.087 73.1338ZM228.924 57.4736V53.4844H249.482V57.4736H241.745V80.5H236.68V57.4736H228.924ZM250.8 67.7715V66.2129C250.8 61.7598 251.839 58.4508 253.917 56.2861C255.995 54.109 258.673 53.0205 261.951 53.0205C265.242 53.0205 267.926 54.109 270.004 56.2861C272.094 58.4508 273.14 61.7598 273.14 66.2129V67.7715C273.14 72.2246 272.094 75.5397 270.004 77.7168C267.926 79.8815 265.242 80.9639 261.951 80.9639C258.673 80.9639 255.995 79.8815 253.917 77.7168C251.839 75.5397 250.8 72.2246 250.8 67.7715ZM255.977 68.6064C255.977 71.5752 256.515 73.7523 257.591 75.1377C258.667 76.5107 260.12 77.1973 261.951 77.1973C263.794 77.1973 265.254 76.5107 266.33 75.1377C267.419 73.7523 267.963 71.5752 267.963 68.6064V65.3965C267.963 62.4277 267.419 60.2568 266.33 58.8838C265.254 57.5107 263.794 56.8242 261.951 56.8242C260.12 56.8242 258.667 57.5107 257.591 58.8838C256.515 60.2568 255.977 62.4277 255.977 65.3965V68.6064ZM277.11 80.5V53.4844H286.666C289.462 53.4844 291.632 54.2327 293.179 55.7295C294.737 57.2262 295.517 59.2363 295.517 61.7598C295.517 64.3079 294.719 66.3613 293.123 67.9199C291.54 69.4661 289.375 70.2393 286.629 70.2393H282.139V80.5H277.11ZM282.139 66.6396H286.054C287.687 66.6396 288.831 66.2005 289.486 65.3223C290.142 64.444 290.47 63.306 290.47 61.9082C290.47 60.5228 290.142 59.4033 289.486 58.5498C288.831 57.6839 287.687 57.2448 286.054 57.2324H282.139V66.6396ZM291.156 80.5L285.237 68.2725L290.117 67.4932L296.704 80.5H291.156ZM299.339 80.5V53.4844H304.404V80.5H299.339ZM309.284 80.5V53.4844H326.206V57.4736H314.201V64.7842H324.499V68.5322H314.201V76.585H326.41V80.5H309.284ZM328.841 73.1338V72.1875H333.684V72.9111C333.684 74.3708 334.11 75.4655 334.964 76.1953C335.83 76.9128 337.036 77.2715 338.582 77.2715C340.104 77.2715 341.266 76.9251 342.07 76.2324C342.887 75.5397 343.295 74.6182 343.295 73.4678C343.295 72.3916 342.893 71.5381 342.089 70.9072C341.297 70.264 339.708 69.5713 337.32 68.8291C334.574 67.988 332.546 66.9489 331.234 65.7119C329.923 64.4626 329.268 62.7555 329.268 60.5908C329.268 58.3148 330.084 56.4902 331.717 55.1172C333.362 53.7318 335.595 53.0391 338.415 53.0391C341.198 53.0391 343.431 53.7194 345.113 55.0801C346.808 56.4408 347.655 58.2962 347.655 60.6465V61.4072H342.868V60.8506C342.868 59.6012 342.491 58.6117 341.736 57.8818C340.994 57.1396 339.906 56.7686 338.471 56.7686C336.974 56.7686 335.879 57.084 335.187 57.7148C334.506 58.3333 334.166 59.1745 334.166 60.2383C334.166 61.2279 334.562 62.0133 335.354 62.5947C336.158 63.1761 337.772 63.8379 340.196 64.5801C342.893 65.3965 344.897 66.4541 346.208 67.7529C347.532 69.0518 348.193 70.8392 348.193 73.1152C348.193 75.5273 347.321 77.4385 345.577 78.8486C343.833 80.2588 341.514 80.9639 338.619 80.9639C335.725 80.9639 333.368 80.2959 331.55 78.96C329.744 77.6117 328.841 75.6696 328.841 73.1338Z" fill="#F9EFEC"/>
<rect x="1179.5" y="40.5" width="55" height="55" rx="27.5" fill="#1A1A1A"/>
<rect x="1179.5" y="40.5" width="55" height="55" rx="27.5" stroke="#262626"/>
<path fill-rule="evenodd" clip-rule="evenodd" d="M1203.25 59.75L1214.5 59.75C1214.7 59.75 1214.89 59.829 1215.03 59.9697C1215.17 60.1103 1215.25 60.3011 1215.25 60.5V71.75C1215.25 72.1642 1214.91 72.5 1214.5 72.5C1214.09 72.5 1213.75 72.1642 1213.75 71.75V62.3107L1200.03 76.0303C1199.74 76.3232 1199.26 76.3232 1198.97 76.0303C1198.68 75.7374 1198.68 75.2626 1198.97 74.9697L1212.69 61.25L1203.25 61.25C1202.84 61.25 1202.5 60.9142 1202.5 60.5C1202.5 60.0858 1202.84 59.75 1203.25 59.75Z" fill="#E7BEB1"/>
<path d="M1246.88 74L1243.38 62.625H1245.43L1247.59 70.5L1247.78 71.1797L1247.98 70.4922L1250.16 62.625H1252.2L1248.7 74H1246.88ZM1254.05 62.625H1260.76V64.1797H1258.33V72.4531H1260.76V74H1254.05V72.4531H1256.43V64.1797H1254.05V62.625ZM1270.07 68.8984H1265.37V72.4531H1270.86V74H1263.48V62.625H1270.82V64.1797H1265.37V67.3828H1270.07V68.8984ZM1273.67 74L1272.19 62.625H1273.93L1274.71 69.6094L1274.77 70.0547L1274.84 69.5859L1275.94 62.625H1277.38L1278.51 69.6172L1278.59 70.0859L1278.64 69.6094L1279.43 62.625H1281.18L1279.68 74H1277.91L1276.75 67.0391L1276.67 66.5L1276.59 67.0391L1275.45 74H1273.67ZM1297.73 71.3828H1294.16L1293.39 74H1291.44L1295.14 62.625H1296.8L1300.45 74H1298.5L1297.73 71.3828ZM1294.64 69.7734H1297.27L1295.97 65.2734L1294.64 69.7734ZM1303.87 72.4531H1309.3V74H1301.98V62.625H1303.87V72.4531ZM1313.48 72.4531H1318.91V74H1311.59V62.625H1313.48V72.4531Z" fill="#B3B3B2"/>
</svg>
