<svg width="1820" height="190" viewBox="0 0 1820 190" fill="none" xmlns="http://www.w3.org/2000/svg">
<rect x="1" y="1" width="1818" height="188" rx="19" stroke="#1F1F1F" stroke-width="2"/>
<rect x="20" y="20" width="280" height="150" rx="14" fill="#1A1A1A"/>
<path d="M132.112 66.0625C132.054 66.6836 131.907 67.249 131.673 67.7588C131.438 68.2627 131.131 68.6934 130.75 69.0508C130.363 69.4141 129.903 69.6953 129.37 69.8945C128.843 70.0879 128.257 70.1846 127.612 70.1846C127.085 70.1846 126.599 70.1143 126.153 69.9736C125.714 69.8271 125.321 69.6221 124.976 69.3584C124.642 69.1123 124.349 68.8164 124.097 68.4707C123.851 68.1191 123.643 67.7354 123.473 67.3193C123.303 66.9092 123.174 66.4639 123.086 65.9834C123.004 65.5029 122.963 65.002 122.963 64.4805V62.7314C122.963 62.2334 123.004 61.7529 123.086 61.29C123.168 60.8271 123.291 60.3906 123.455 59.9805C123.631 59.5234 123.856 59.1104 124.132 58.7412C124.413 58.3662 124.735 58.0469 125.099 57.7832C125.444 57.543 125.825 57.3555 126.241 57.2207C126.663 57.0859 127.123 57.0186 127.621 57.0186C128.295 57.0186 128.896 57.1182 129.423 57.3174C129.956 57.5166 130.41 57.7979 130.785 58.1611C131.166 58.5303 131.465 58.9756 131.682 59.4971C131.904 60.0186 132.048 60.5986 132.112 61.2373H130.003C129.968 60.8564 129.895 60.5137 129.783 60.209C129.678 59.8984 129.531 59.6348 129.344 59.418C129.15 59.2012 128.913 59.0371 128.632 58.9258C128.351 58.8086 128.014 58.75 127.621 58.75C127.346 58.75 127.097 58.7881 126.874 58.8643C126.657 58.9404 126.464 59.0488 126.294 59.1895C126.06 59.3594 125.863 59.582 125.705 59.8574C125.553 60.127 125.427 60.4287 125.327 60.7627C125.251 61.0557 125.192 61.3691 125.151 61.7031C125.116 62.0312 125.099 62.3682 125.099 62.7139V64.4805C125.099 64.9082 125.122 65.3096 125.169 65.6846C125.222 66.0596 125.301 66.4023 125.406 66.7129C125.488 66.9707 125.591 67.2051 125.714 67.416C125.843 67.627 125.995 67.8086 126.171 67.9609C126.353 68.125 126.561 68.251 126.795 68.3389C127.035 68.4209 127.308 68.4619 127.612 68.4619C127.976 68.4619 128.298 68.4092 128.579 68.3037C128.86 68.1982 129.101 68.043 129.3 67.8379C129.493 67.6387 129.648 67.3896 129.766 67.0908C129.883 66.792 129.959 66.4492 129.994 66.0625H132.112ZM136.586 68.2598H142.694V70H134.468V57.2031H136.586V68.2598ZM145.41 57.2031H152.951V58.9521H150.218V68.2598H152.951V70H145.41V68.2598H148.082V58.9521H145.41V57.2031ZM163.428 64.2607H158.137V68.2598H164.315V70H156.019V57.2031H164.271V58.9521H158.137V62.5557H163.428V64.2607ZM174.977 70H172.858L168.701 61.1934L168.692 70H166.557V57.2031H168.701L172.832 65.9746L172.85 57.2031H174.977V70ZM186.604 58.9521H182.658V70H180.558V58.9521H176.638V57.2031H186.604V58.9521ZM195.007 66.7041C195.007 66.4053 194.945 66.1416 194.822 65.9131C194.699 65.6846 194.526 65.4795 194.304 65.2979C194.069 65.1279 193.791 64.9756 193.469 64.8408C193.152 64.7002 192.798 64.5742 192.405 64.4629C191.802 64.293 191.245 64.085 190.735 63.8389C190.231 63.5869 189.801 63.3057 189.443 62.9951C189.086 62.6787 188.805 62.3213 188.6 61.9229C188.4 61.5186 188.301 61.0645 188.301 60.5605C188.301 60.0156 188.418 59.5264 188.652 59.0928C188.887 58.6533 189.203 58.2783 189.602 57.9678C190 57.6631 190.463 57.4316 190.99 57.2734C191.523 57.1094 192.083 57.0273 192.669 57.0273C193.29 57.0273 193.867 57.124 194.4 57.3174C194.939 57.5049 195.408 57.7686 195.807 58.1084C196.205 58.4541 196.519 58.8672 196.747 59.3477C196.981 59.8223 197.099 60.3496 197.099 60.9297H195.007C194.978 60.6074 194.907 60.3145 194.796 60.0508C194.69 59.7812 194.541 59.5498 194.348 59.3564C194.148 59.1689 193.905 59.0225 193.618 58.917C193.337 58.8057 193.012 58.75 192.643 58.75C192.32 58.75 192.021 58.7939 191.746 58.8818C191.477 58.9639 191.242 59.0811 191.043 59.2334C190.844 59.3916 190.688 59.582 190.577 59.8047C190.466 60.0273 190.41 60.2764 190.41 60.5518C190.416 60.8447 190.492 61.1025 190.639 61.3252C190.785 61.542 190.981 61.7324 191.228 61.8965C191.479 62.0605 191.767 62.2041 192.089 62.3271C192.417 62.4502 192.76 62.5645 193.117 62.6699C193.568 62.7988 194.008 62.96 194.436 63.1533C194.869 63.3408 195.268 63.5693 195.631 63.8389C196.082 64.1787 196.442 64.5859 196.712 65.0605C196.987 65.5293 197.125 66.0713 197.125 66.6865C197.125 67.2549 197.005 67.7559 196.765 68.1895C196.53 68.623 196.214 68.9834 195.815 69.2705C195.411 69.5693 194.942 69.7949 194.409 69.9473C193.876 70.0938 193.313 70.167 192.722 70.167C192.095 70.167 191.477 70.0703 190.867 69.877C190.258 69.6777 189.728 69.3906 189.276 69.0156C188.86 68.6641 188.529 68.251 188.283 67.7764C188.043 67.3018 187.92 66.7568 187.914 66.1416H190.023C190.053 66.5342 190.135 66.877 190.27 67.1699C190.41 67.457 190.601 67.6943 190.841 67.8818C191.075 68.0752 191.351 68.2188 191.667 68.3125C191.989 68.4062 192.341 68.4531 192.722 68.4531C193.044 68.4531 193.343 68.415 193.618 68.3389C193.899 68.2627 194.143 68.1484 194.348 67.9961C194.547 67.8496 194.705 67.668 194.822 67.4512C194.945 67.2344 195.007 66.9854 195.007 66.7041Z" fill="#B3B3B2"/>
<path d="M98.418 140V134.932L113.184 118.408C114.609 116.709 115.801 115.059 116.758 113.457C117.734 111.836 118.223 110.186 118.223 108.506C118.223 106.494 117.695 104.99 116.641 103.994C115.586 102.998 114.209 102.5 112.51 102.5C110.752 102.5 109.297 103.057 108.145 104.17C106.992 105.264 106.416 107.207 106.416 110V110.938H98.418V109.297C98.418 105.508 99.7363 102.461 102.373 100.156C105.01 97.832 108.418 96.6699 112.598 96.6699C116.914 96.6699 120.254 97.7148 122.617 99.8047C124.98 101.895 126.172 104.658 126.191 108.096C126.191 110.732 125.576 113.115 124.346 115.244C123.115 117.373 121.426 119.648 119.277 122.07L109.668 133.584H127.158V140H98.418ZM130.322 125.908V111.436C130.322 106.768 131.533 103.145 133.955 100.566C136.396 97.9688 139.775 96.6699 144.092 96.6699C148.408 96.6699 151.787 97.959 154.229 100.537C156.67 103.096 157.891 106.729 157.891 111.436V125.908C157.891 130.674 156.641 134.336 154.141 136.895C151.641 139.434 148.291 140.693 144.092 140.674C139.756 140.654 136.377 139.375 133.955 136.836C131.533 134.297 130.322 130.654 130.322 125.908ZM138.291 127.197C138.291 129.639 138.77 131.533 139.727 132.881C140.684 134.229 142.139 134.902 144.092 134.902C146.064 134.902 147.529 134.229 148.486 132.881C149.463 131.533 149.951 129.639 149.951 127.197V110.264C149.951 107.803 149.463 105.898 148.486 104.551C147.529 103.184 146.064 102.5 144.092 102.5C142.139 102.5 140.684 103.184 139.727 104.551C138.77 105.898 138.291 107.803 138.291 110.264V127.197ZM161.846 125.908V111.436C161.846 106.768 163.057 103.145 165.479 100.566C167.92 97.9688 171.299 96.6699 175.615 96.6699C179.932 96.6699 183.311 97.959 185.752 100.537C188.193 103.096 189.414 106.729 189.414 111.436V125.908C189.414 130.674 188.164 134.336 185.664 136.895C183.164 139.434 179.814 140.693 175.615 140.674C171.279 140.654 167.9 139.375 165.479 136.836C163.057 134.297 161.846 130.654 161.846 125.908ZM169.814 127.197C169.814 129.639 170.293 131.533 171.25 132.881C172.207 134.229 173.662 134.902 175.615 134.902C177.588 134.902 179.053 134.229 180.01 132.881C180.986 131.533 181.475 129.639 181.475 127.197V110.264C181.475 107.803 180.986 105.898 180.01 104.551C179.053 103.184 177.588 102.5 175.615 102.5C173.662 102.5 172.207 103.184 171.25 104.551C170.293 105.898 169.814 107.803 169.814 110.264V127.197ZM193.75 123.564V116.943H220.791V123.564H193.75ZM203.77 134.434V106.074H210.771V134.434H203.77Z" fill="#DA9E8B"/>
<rect x="320" y="20" width="280" height="150" rx="14" fill="#1A1A1A"/>
<path d="M420.335 65.1221V70H418.226V57.2031H422.506C423.15 57.209 423.742 57.3057 424.281 57.4932C424.826 57.6807 425.295 57.9473 425.688 58.293C426.08 58.6387 426.385 59.0576 426.602 59.5498C426.818 60.042 426.927 60.5957 426.927 61.2109C426.927 61.8027 426.818 62.3389 426.602 62.8193C426.385 63.2939 426.08 63.7012 425.688 64.041C425.295 64.3867 424.826 64.6533 424.281 64.8408C423.742 65.0283 423.15 65.1221 422.506 65.1221H420.335ZM420.335 63.3994H422.506C422.863 63.3936 423.183 63.3379 423.464 63.2324C423.751 63.1211 423.994 62.9688 424.193 62.7754C424.393 62.582 424.542 62.3535 424.642 62.0898C424.747 61.8262 424.8 61.5391 424.8 61.2285C424.8 60.8887 424.747 60.5811 424.642 60.3057C424.542 60.0244 424.393 59.7812 424.193 59.5762C423.994 59.3711 423.751 59.2129 423.464 59.1016C423.183 58.9902 422.863 58.9316 422.506 58.9258H420.335V63.3994ZM433.176 65.0342H431.014V70H428.904V57.2031H432.965C433.627 57.209 434.236 57.2939 434.793 57.458C435.35 57.6221 435.83 57.8623 436.234 58.1787C436.633 58.501 436.943 58.9023 437.166 59.3828C437.389 59.8574 437.5 60.4141 437.5 61.0527C437.5 61.4922 437.441 61.8906 437.324 62.248C437.213 62.6055 437.055 62.9277 436.85 63.2148C436.645 63.502 436.398 63.7539 436.111 63.9707C435.824 64.1875 435.505 64.375 435.153 64.5332L437.887 69.8857V70H435.628L433.176 65.0342ZM431.014 63.3115H432.991C433.366 63.3057 433.703 63.25 434.002 63.1445C434.307 63.0332 434.564 62.875 434.775 62.6699C434.963 62.4941 435.109 62.2773 435.215 62.0195C435.32 61.7617 435.373 61.4688 435.373 61.1406C435.373 60.7715 435.314 60.4492 435.197 60.1738C435.086 59.8926 434.919 59.6582 434.696 59.4707C434.491 59.2949 434.242 59.1631 433.949 59.0752C433.656 58.9814 433.328 58.9316 432.965 58.9258H431.014V63.3115ZM448.363 64.4541C448.363 64.9697 448.316 65.4678 448.223 65.9482C448.135 66.4287 448.006 66.8828 447.836 67.3105C447.654 67.7383 447.429 68.1338 447.159 68.4971C446.89 68.8545 446.579 69.1621 446.228 69.4199C445.888 69.6543 445.51 69.8389 445.094 69.9736C444.684 70.1084 444.232 70.1758 443.74 70.1758C443.23 70.1758 442.762 70.1055 442.334 69.9648C441.912 69.8184 441.534 69.6191 441.2 69.3672C440.86 69.1094 440.562 68.7988 440.304 68.4355C440.052 68.0723 439.841 67.6738 439.671 67.2402C439.507 66.8242 439.384 66.3818 439.302 65.9131C439.22 65.4385 439.179 64.9521 439.179 64.4541V62.7666C439.179 62.2451 439.223 61.7412 439.311 61.2549C439.398 60.7686 439.53 60.3086 439.706 59.875C439.876 59.459 440.084 59.0781 440.33 58.7324C440.582 58.3809 440.878 58.0762 441.218 57.8184C441.546 57.5664 441.918 57.373 442.334 57.2383C442.756 57.0977 443.219 57.0273 443.723 57.0273C444.232 57.0273 444.701 57.0977 445.129 57.2383C445.557 57.3789 445.94 57.5752 446.28 57.8271C446.62 58.0791 446.916 58.375 447.168 58.7148C447.42 59.0547 447.631 59.4268 447.801 59.8311C447.988 60.2646 448.129 60.7305 448.223 61.2285C448.316 61.7207 448.363 62.2334 448.363 62.7666V64.4541ZM446.236 62.749C446.23 62.4268 446.21 62.1104 446.175 61.7998C446.146 61.4893 446.093 61.1934 446.017 60.9121C445.929 60.5898 445.812 60.2969 445.665 60.0332C445.524 59.7637 445.352 59.5352 445.146 59.3477C444.965 59.1836 444.757 59.0547 444.522 58.9609C444.288 58.8672 444.021 58.8203 443.723 58.8203C443.436 58.8203 443.178 58.8672 442.949 58.9609C442.721 59.0488 442.521 59.1719 442.352 59.3301C442.146 59.5234 441.974 59.7549 441.833 60.0244C441.692 60.2881 441.584 60.584 441.508 60.9121C441.438 61.1934 441.385 61.4922 441.35 61.8086C441.32 62.1191 441.306 62.4326 441.306 62.749V64.4541C441.306 64.7646 441.32 65.0723 441.35 65.377C441.379 65.6816 441.429 65.9746 441.499 66.2559C441.575 66.5723 441.678 66.8682 441.807 67.1436C441.941 67.4131 442.103 67.6416 442.29 67.8291C442.472 68.0049 442.68 68.1455 442.914 68.251C443.154 68.3506 443.43 68.4004 443.74 68.4004C444.039 68.4004 444.309 68.3506 444.549 68.251C444.795 68.1514 445.006 68.0166 445.182 67.8467C445.387 67.6533 445.557 67.4248 445.691 67.1611C445.832 66.8916 445.943 66.5957 446.025 66.2734C446.096 65.9922 446.146 65.6992 446.175 65.3945C446.21 65.084 446.23 64.7705 446.236 64.4541V62.749ZM456.52 57.2031H458.655V66.0889C458.649 66.6865 458.535 67.2373 458.312 67.7412C458.096 68.2393 457.794 68.6699 457.407 69.0332C457.026 69.3965 456.575 69.6777 456.054 69.877C455.538 70.0762 454.979 70.1758 454.375 70.1758C453.754 70.1758 453.186 70.0908 452.67 69.9209C452.16 69.7451 451.721 69.4932 451.352 69.165C450.982 68.8369 450.689 68.4297 450.473 67.9434C450.262 67.457 450.145 66.8975 450.121 66.2646H452.248C452.254 66.5928 452.301 66.8887 452.389 67.1523C452.477 67.4102 452.6 67.6299 452.758 67.8115C452.939 68.0225 453.165 68.1807 453.435 68.2861C453.704 68.3916 454.018 68.4443 454.375 68.4443C454.703 68.4443 454.999 68.3828 455.263 68.2598C455.526 68.1367 455.752 67.9697 455.939 67.7588C456.121 67.5479 456.262 67.2988 456.361 67.0117C456.467 66.7188 456.52 66.4111 456.52 66.0889V57.2031ZM468.833 64.2607H463.542V68.2598H469.721V70H461.424V57.2031H469.677V58.9521H463.542V62.5557H468.833V64.2607ZM480.76 66.0625C480.701 66.6836 480.555 67.249 480.32 67.7588C480.086 68.2627 479.778 68.6934 479.397 69.0508C479.011 69.4141 478.551 69.6953 478.018 69.8945C477.49 70.0879 476.904 70.1846 476.26 70.1846C475.732 70.1846 475.246 70.1143 474.801 69.9736C474.361 69.8271 473.969 69.6221 473.623 69.3584C473.289 69.1123 472.996 68.8164 472.744 68.4707C472.498 68.1191 472.29 67.7354 472.12 67.3193C471.95 66.9092 471.821 66.4639 471.733 65.9834C471.651 65.5029 471.61 65.002 471.61 64.4805V62.7314C471.61 62.2334 471.651 61.7529 471.733 61.29C471.815 60.8271 471.938 60.3906 472.103 59.9805C472.278 59.5234 472.504 59.1104 472.779 58.7412C473.061 58.3662 473.383 58.0469 473.746 57.7832C474.092 57.543 474.473 57.3555 474.889 57.2207C475.311 57.0859 475.771 57.0186 476.269 57.0186C476.942 57.0186 477.543 57.1182 478.07 57.3174C478.604 57.5166 479.058 57.7979 479.433 58.1611C479.813 58.5303 480.112 58.9756 480.329 59.4971C480.552 60.0186 480.695 60.5986 480.76 61.2373H478.65C478.615 60.8564 478.542 60.5137 478.431 60.209C478.325 59.8984 478.179 59.6348 477.991 59.418C477.798 59.2012 477.561 59.0371 477.279 58.9258C476.998 58.8086 476.661 58.75 476.269 58.75C475.993 58.75 475.744 58.7881 475.521 58.8643C475.305 58.9404 475.111 59.0488 474.941 59.1895C474.707 59.3594 474.511 59.582 474.353 59.8574C474.2 60.127 474.074 60.4287 473.975 60.7627C473.898 61.0557 473.84 61.3691 473.799 61.7031C473.764 62.0312 473.746 62.3682 473.746 62.7139V64.4805C473.746 64.9082 473.77 65.3096 473.816 65.6846C473.869 66.0596 473.948 66.4023 474.054 66.7129C474.136 66.9707 474.238 67.2051 474.361 67.416C474.49 67.627 474.643 67.8086 474.818 67.9609C475 68.125 475.208 68.251 475.442 68.3389C475.683 68.4209 475.955 68.4619 476.26 68.4619C476.623 68.4619 476.945 68.4092 477.227 68.3037C477.508 68.1982 477.748 68.043 477.947 67.8379C478.141 67.6387 478.296 67.3896 478.413 67.0908C478.53 66.792 478.606 66.4492 478.642 66.0625H480.76ZM492.01 58.9521H488.063V70H485.963V58.9521H482.043V57.2031H492.01V58.9521ZM500.412 66.7041C500.412 66.4053 500.351 66.1416 500.228 65.9131C500.104 65.6846 499.932 65.4795 499.709 65.2979C499.475 65.1279 499.196 64.9756 498.874 64.8408C498.558 64.7002 498.203 64.5742 497.811 64.4629C497.207 64.293 496.65 64.085 496.141 63.8389C495.637 63.5869 495.206 63.3057 494.849 62.9951C494.491 62.6787 494.21 62.3213 494.005 61.9229C493.806 61.5186 493.706 61.0645 493.706 60.5605C493.706 60.0156 493.823 59.5264 494.058 59.0928C494.292 58.6533 494.608 58.2783 495.007 57.9678C495.405 57.6631 495.868 57.4316 496.396 57.2734C496.929 57.1094 497.488 57.0273 498.074 57.0273C498.695 57.0273 499.272 57.124 499.806 57.3174C500.345 57.5049 500.813 57.7686 501.212 58.1084C501.61 58.4541 501.924 58.8672 502.152 59.3477C502.387 59.8223 502.504 60.3496 502.504 60.9297H500.412C500.383 60.6074 500.312 60.3145 500.201 60.0508C500.096 59.7812 499.946 59.5498 499.753 59.3564C499.554 59.1689 499.311 59.0225 499.023 58.917C498.742 58.8057 498.417 58.75 498.048 58.75C497.726 58.75 497.427 58.7939 497.151 58.8818C496.882 58.9639 496.647 59.0811 496.448 59.2334C496.249 59.3916 496.094 59.582 495.982 59.8047C495.871 60.0273 495.815 60.2764 495.815 60.5518C495.821 60.8447 495.897 61.1025 496.044 61.3252C496.19 61.542 496.387 61.7324 496.633 61.8965C496.885 62.0605 497.172 62.2041 497.494 62.3271C497.822 62.4502 498.165 62.5645 498.522 62.6699C498.974 62.7988 499.413 62.96 499.841 63.1533C500.274 63.3408 500.673 63.5693 501.036 63.8389C501.487 64.1787 501.848 64.5859 502.117 65.0605C502.393 65.5293 502.53 66.0713 502.53 66.6865C502.53 67.2549 502.41 67.7559 502.17 68.1895C501.936 68.623 501.619 68.9834 501.221 69.2705C500.816 69.5693 500.348 69.7949 499.814 69.9473C499.281 70.0938 498.719 70.167 498.127 70.167C497.5 70.167 496.882 70.0703 496.272 69.877C495.663 69.6777 495.133 69.3906 494.682 69.0156C494.266 68.6641 493.935 68.251 493.688 67.7764C493.448 67.3018 493.325 66.7568 493.319 66.1416H495.429C495.458 66.5342 495.54 66.877 495.675 67.1699C495.815 67.457 496.006 67.6943 496.246 67.8818C496.48 68.0752 496.756 68.2188 497.072 68.3125C497.395 68.4062 497.746 68.4531 498.127 68.4531C498.449 68.4531 498.748 68.415 499.023 68.3389C499.305 68.2627 499.548 68.1484 499.753 67.9961C499.952 67.8496 500.11 67.668 500.228 67.4512C500.351 67.2344 500.412 66.9854 500.412 66.7041Z" fill="#B3B3B2"/>
<path d="M398.418 140V134.932L413.184 118.408C414.609 116.709 415.801 115.059 416.758 113.457C417.734 111.836 418.223 110.186 418.223 108.506C418.223 106.494 417.695 104.99 416.641 103.994C415.586 102.998 414.209 102.5 412.51 102.5C410.752 102.5 409.297 103.057 408.145 104.17C406.992 105.264 406.416 107.207 406.416 110V110.938H398.418V109.297C398.418 105.508 399.736 102.461 402.373 100.156C405.01 97.832 408.418 96.6699 412.598 96.6699C416.914 96.6699 420.254 97.7148 422.617 99.8047C424.98 101.895 426.172 104.658 426.191 108.096C426.191 110.732 425.576 113.115 424.346 115.244C423.115 117.373 421.426 119.648 419.277 122.07L409.668 133.584H427.158V140H398.418ZM429.59 128.604C429.59 125.791 430.342 123.457 431.846 121.602C433.369 119.746 435.049 118.545 436.885 117.998V117.881C435.166 117.119 433.73 115.928 432.578 114.307C431.426 112.666 430.85 110.596 430.85 108.096C430.85 104.6 432.031 101.826 434.395 99.7754C436.758 97.7051 439.971 96.6699 444.033 96.6699C448.096 96.6699 451.299 97.7246 453.643 99.834C455.986 101.943 457.158 104.697 457.158 108.096C457.158 110.674 456.562 112.783 455.371 114.424C454.199 116.045 452.764 117.188 451.064 117.852V117.969C452.959 118.496 454.658 119.697 456.162 121.572C457.666 123.428 458.418 125.771 458.418 128.604C458.418 132.393 457.08 135.352 454.404 137.48C451.729 139.609 448.271 140.674 444.033 140.674C439.795 140.674 436.328 139.609 433.633 137.48C430.938 135.352 429.59 132.393 429.59 128.604ZM437.559 127.783C437.559 130.166 438.125 131.973 439.258 133.203C440.41 134.434 441.992 135.049 444.004 135.049C446.016 135.049 447.588 134.434 448.721 133.203C449.854 131.973 450.42 130.176 450.42 127.812C450.42 125.352 449.824 123.535 448.633 122.363C447.461 121.191 445.918 120.605 444.004 120.605C442.109 120.605 440.557 121.191 439.346 122.363C438.154 123.535 437.559 125.342 437.559 127.783ZM438.467 108.945C438.467 111.055 438.984 112.725 440.02 113.955C441.055 115.186 442.383 115.801 444.004 115.801C445.625 115.801 446.953 115.186 447.988 113.955C449.023 112.725 449.541 111.055 449.541 108.945C449.541 106.836 449.072 105.215 448.135 104.082C447.197 102.949 445.82 102.383 444.004 102.383C442.188 102.383 440.811 102.93 439.873 104.023C438.936 105.117 438.467 106.758 438.467 108.945ZM461.846 125.908V111.436C461.846 106.768 463.057 103.145 465.479 100.566C467.92 97.9688 471.299 96.6699 475.615 96.6699C479.932 96.6699 483.311 97.959 485.752 100.537C488.193 103.096 489.414 106.729 489.414 111.436V125.908C489.414 130.674 488.164 134.336 485.664 136.895C483.164 139.434 479.814 140.693 475.615 140.674C471.279 140.654 467.9 139.375 465.479 136.836C463.057 134.297 461.846 130.654 461.846 125.908ZM469.814 127.197C469.814 129.639 470.293 131.533 471.25 132.881C472.207 134.229 473.662 134.902 475.615 134.902C477.588 134.902 479.053 134.229 480.01 132.881C480.986 131.533 481.475 129.639 481.475 127.197V110.264C481.475 107.803 480.986 105.898 480.01 104.551C479.053 103.184 477.588 102.5 475.615 102.5C473.662 102.5 472.207 103.184 471.25 104.551C470.293 105.898 469.814 107.803 469.814 110.264V127.197ZM493.75 123.564V116.943H520.791V123.564H493.75ZM503.77 134.434V106.074H510.771V134.434H503.77Z" fill="#DA9E8B"/>
<rect x="620" y="20" width="280" height="150" rx="14" fill="#1A1A1A"/>
<path d="M699.312 70H697.246V64.2959H692.939V70H690.883V57.2031H692.939V62.5557H697.246V57.2031H699.312V70ZM708.065 67.0557H704.049L703.179 70H700.981L705.147 57.2031H707.02L711.115 70H708.927L708.065 67.0557ZM704.585 65.2451H707.547L706.079 60.1826L704.585 65.2451ZM714.93 65.1221V70H712.82V57.2031H717.101C717.745 57.209 718.337 57.3057 718.876 57.4932C719.421 57.6807 719.89 57.9473 720.282 58.293C720.675 58.6387 720.979 59.0576 721.196 59.5498C721.413 60.042 721.521 60.5957 721.521 61.2109C721.521 61.8027 721.413 62.3389 721.196 62.8193C720.979 63.2939 720.675 63.7012 720.282 64.041C719.89 64.3867 719.421 64.6533 718.876 64.8408C718.337 65.0283 717.745 65.1221 717.101 65.1221H714.93ZM714.93 63.3994H717.101C717.458 63.3936 717.777 63.3379 718.059 63.2324C718.346 63.1211 718.589 62.9688 718.788 62.7754C718.987 62.582 719.137 62.3535 719.236 62.0898C719.342 61.8262 719.395 61.5391 719.395 61.2285C719.395 60.8887 719.342 60.5811 719.236 60.3057C719.137 60.0244 718.987 59.7812 718.788 59.5762C718.589 59.3711 718.346 59.2129 718.059 59.1016C717.777 58.9902 717.458 58.9316 717.101 58.9258H714.93V63.3994ZM725.74 65.1221V70H723.631V57.2031H727.911C728.556 57.209 729.147 57.3057 729.687 57.4932C730.231 57.6807 730.7 57.9473 731.093 58.293C731.485 58.6387 731.79 59.0576 732.007 59.5498C732.224 60.042 732.332 60.5957 732.332 61.2109C732.332 61.8027 732.224 62.3389 732.007 62.8193C731.79 63.2939 731.485 63.7012 731.093 64.041C730.7 64.3867 730.231 64.6533 729.687 64.8408C729.147 65.0283 728.556 65.1221 727.911 65.1221H725.74ZM725.74 63.3994H727.911C728.269 63.3936 728.588 63.3379 728.869 63.2324C729.156 63.1211 729.399 62.9688 729.599 62.7754C729.798 62.582 729.947 62.3535 730.047 62.0898C730.152 61.8262 730.205 61.5391 730.205 61.2285C730.205 60.8887 730.152 60.5811 730.047 60.3057C729.947 60.0244 729.798 59.7812 729.599 59.5762C729.399 59.3711 729.156 59.2129 728.869 59.1016C728.588 58.9902 728.269 58.9316 727.911 58.9258H725.74V63.3994ZM738.405 63.3203L741.086 57.2031H743.441L739.434 65.4297L739.416 70H737.351L737.342 65.3682L733.369 57.2031H735.716L738.405 63.3203ZM764.544 66.0625C764.485 66.6836 764.339 67.249 764.104 67.7588C763.87 68.2627 763.562 68.6934 763.182 69.0508C762.795 69.4141 762.335 69.6953 761.802 69.8945C761.274 70.0879 760.688 70.1846 760.044 70.1846C759.517 70.1846 759.03 70.1143 758.585 69.9736C758.146 69.8271 757.753 69.6221 757.407 69.3584C757.073 69.1123 756.78 68.8164 756.528 68.4707C756.282 68.1191 756.074 67.7354 755.904 67.3193C755.734 66.9092 755.605 66.4639 755.518 65.9834C755.436 65.5029 755.395 65.002 755.395 64.4805V62.7314C755.395 62.2334 755.436 61.7529 755.518 61.29C755.6 60.8271 755.723 60.3906 755.887 59.9805C756.062 59.5234 756.288 59.1104 756.563 58.7412C756.845 58.3662 757.167 58.0469 757.53 57.7832C757.876 57.543 758.257 57.3555 758.673 57.2207C759.095 57.0859 759.555 57.0186 760.053 57.0186C760.727 57.0186 761.327 57.1182 761.854 57.3174C762.388 57.5166 762.842 57.7979 763.217 58.1611C763.598 58.5303 763.896 58.9756 764.113 59.4971C764.336 60.0186 764.479 60.5986 764.544 61.2373H762.435C762.399 60.8564 762.326 60.5137 762.215 60.209C762.109 59.8984 761.963 59.6348 761.775 59.418C761.582 59.2012 761.345 59.0371 761.063 58.9258C760.782 58.8086 760.445 58.75 760.053 58.75C759.777 58.75 759.528 58.7881 759.306 58.8643C759.089 58.9404 758.896 59.0488 758.726 59.1895C758.491 59.3594 758.295 59.582 758.137 59.8574C757.984 60.127 757.858 60.4287 757.759 60.7627C757.683 61.0557 757.624 61.3691 757.583 61.7031C757.548 62.0312 757.53 62.3682 757.53 62.7139V64.4805C757.53 64.9082 757.554 65.3096 757.601 65.6846C757.653 66.0596 757.732 66.4023 757.838 66.7129C757.92 66.9707 758.022 67.2051 758.146 67.416C758.274 67.627 758.427 67.8086 758.603 67.9609C758.784 68.125 758.992 68.251 759.227 68.3389C759.467 68.4209 759.739 68.4619 760.044 68.4619C760.407 68.4619 760.729 68.4092 761.011 68.3037C761.292 68.1982 761.532 68.043 761.731 67.8379C761.925 67.6387 762.08 67.3896 762.197 67.0908C762.314 66.792 762.391 66.4492 762.426 66.0625H764.544ZM769.018 68.2598H775.126V70H766.899V57.2031H769.018V68.2598ZM777.842 57.2031H785.383V58.9521H782.649V68.2598H785.383V70H777.842V68.2598H780.514V58.9521H777.842V57.2031ZM795.859 64.2607H790.568V68.2598H796.747V70H788.45V57.2031H796.703V58.9521H790.568V62.5557H795.859V64.2607ZM807.408 70H805.29L801.133 61.1934L801.124 70H798.988V57.2031H801.133L805.264 65.9746L805.281 57.2031H807.408V70ZM819.036 58.9521H815.09V70H812.989V58.9521H809.069V57.2031H819.036V58.9521ZM827.438 66.7041C827.438 66.4053 827.377 66.1416 827.254 65.9131C827.131 65.6846 826.958 65.4795 826.735 65.2979C826.501 65.1279 826.223 64.9756 825.9 64.8408C825.584 64.7002 825.229 64.5742 824.837 64.4629C824.233 64.293 823.677 64.085 823.167 63.8389C822.663 63.5869 822.232 63.3057 821.875 62.9951C821.518 62.6787 821.236 62.3213 821.031 61.9229C820.832 61.5186 820.732 61.0645 820.732 60.5605C820.732 60.0156 820.85 59.5264 821.084 59.0928C821.318 58.6533 821.635 58.2783 822.033 57.9678C822.432 57.6631 822.895 57.4316 823.422 57.2734C823.955 57.1094 824.515 57.0273 825.101 57.0273C825.722 57.0273 826.299 57.124 826.832 57.3174C827.371 57.5049 827.84 57.7686 828.238 58.1084C828.637 58.4541 828.95 58.8672 829.179 59.3477C829.413 59.8223 829.53 60.3496 829.53 60.9297H827.438C827.409 60.6074 827.339 60.3145 827.228 60.0508C827.122 59.7812 826.973 59.5498 826.779 59.3564C826.58 59.1689 826.337 59.0225 826.05 58.917C825.769 58.8057 825.443 58.75 825.074 58.75C824.752 58.75 824.453 58.7939 824.178 58.8818C823.908 58.9639 823.674 59.0811 823.475 59.2334C823.275 59.3916 823.12 59.582 823.009 59.8047C822.897 60.0273 822.842 60.2764 822.842 60.5518C822.848 60.8447 822.924 61.1025 823.07 61.3252C823.217 61.542 823.413 61.7324 823.659 61.8965C823.911 62.0605 824.198 62.2041 824.521 62.3271C824.849 62.4502 825.191 62.5645 825.549 62.6699C826 62.7988 826.439 62.96 826.867 63.1533C827.301 63.3408 827.699 63.5693 828.062 63.8389C828.514 64.1787 828.874 64.5859 829.144 65.0605C829.419 65.5293 829.557 66.0713 829.557 66.6865C829.557 67.2549 829.437 67.7559 829.196 68.1895C828.962 68.623 828.646 68.9834 828.247 69.2705C827.843 69.5693 827.374 69.7949 826.841 69.9473C826.308 70.0938 825.745 70.167 825.153 70.167C824.526 70.167 823.908 70.0703 823.299 69.877C822.689 69.6777 822.159 69.3906 821.708 69.0156C821.292 68.6641 820.961 68.251 820.715 67.7764C820.475 67.3018 820.352 66.7568 820.346 66.1416H822.455C822.484 66.5342 822.566 66.877 822.701 67.1699C822.842 67.457 823.032 67.6943 823.272 67.8818C823.507 68.0752 823.782 68.2188 824.099 68.3125C824.421 68.4062 824.772 68.4531 825.153 68.4531C825.476 68.4531 825.774 68.415 826.05 68.3389C826.331 68.2627 826.574 68.1484 826.779 67.9961C826.979 67.8496 827.137 67.668 827.254 67.4512C827.377 67.2344 827.438 66.9854 827.438 66.7041Z" fill="#B3B3B2"/>
<path d="M702.93 140V104.521L692.031 108.301V101.621L705.625 96.9336H710.898V140H702.93ZM722.324 125.908V111.436C722.324 106.768 723.535 103.145 725.957 100.566C728.398 97.9688 731.777 96.6699 736.094 96.6699C740.41 96.6699 743.789 97.959 746.23 100.537C748.672 103.096 749.893 106.729 749.893 111.436V125.908C749.893 130.674 748.643 134.336 746.143 136.895C743.643 139.434 740.293 140.693 736.094 140.674C731.758 140.654 728.379 139.375 725.957 136.836C723.535 134.297 722.324 130.654 722.324 125.908ZM730.293 127.197C730.293 129.639 730.771 131.533 731.729 132.881C732.686 134.229 734.141 134.902 736.094 134.902C738.066 134.902 739.531 134.229 740.488 132.881C741.465 131.533 741.953 129.639 741.953 127.197V110.264C741.953 107.803 741.465 105.898 740.488 104.551C739.531 103.184 738.066 102.5 736.094 102.5C734.141 102.5 732.686 103.184 731.729 104.551C730.771 105.898 730.293 107.803 730.293 110.264V127.197ZM753.848 125.908V111.436C753.848 106.768 755.059 103.145 757.48 100.566C759.922 97.9688 763.301 96.6699 767.617 96.6699C771.934 96.6699 775.312 97.959 777.754 100.537C780.195 103.096 781.416 106.729 781.416 111.436V125.908C781.416 130.674 780.166 134.336 777.666 136.895C775.166 139.434 771.816 140.693 767.617 140.674C763.281 140.654 759.902 139.375 757.48 136.836C755.059 134.297 753.848 130.654 753.848 125.908ZM761.816 127.197C761.816 129.639 762.295 131.533 763.252 132.881C764.209 134.229 765.664 134.902 767.617 134.902C769.59 134.902 771.055 134.229 772.012 132.881C772.988 131.533 773.477 129.639 773.477 127.197V110.264C773.477 107.803 772.988 105.898 772.012 104.551C771.055 103.184 769.59 102.5 767.617 102.5C765.664 102.5 764.209 103.184 763.252 104.551C762.295 105.898 761.816 107.803 761.816 110.264V127.197ZM784.902 111.055V106.016C784.902 103.047 785.693 100.752 787.275 99.1309C788.877 97.4902 791.064 96.6699 793.838 96.6699C796.709 96.6699 798.916 97.5 800.459 99.1602C802.021 100.82 802.803 103.105 802.803 106.016V111.055C802.803 114.102 802.012 116.455 800.43 118.115C798.867 119.756 796.67 120.576 793.838 120.576C791.025 120.576 788.828 119.756 787.246 118.115C785.684 116.455 784.902 114.102 784.902 111.055ZM790.674 111.582C790.674 113.105 790.908 114.258 791.377 115.039C791.865 115.801 792.686 116.182 793.838 116.182C795.029 116.182 795.859 115.801 796.328 115.039C796.816 114.258 797.061 113.105 797.061 111.582V105.811C797.061 104.307 796.816 103.164 796.328 102.383C795.859 101.582 795.029 101.182 793.838 101.182C792.666 101.182 791.846 101.582 791.377 102.383C790.908 103.164 790.674 104.307 790.674 105.811V111.582ZM822.197 98.8379L797.178 141.143L792.461 138.271L817.363 96.1719L822.197 98.8379ZM811.738 131.182V126.143C811.738 123.174 812.529 120.879 814.111 119.258C815.713 117.617 817.9 116.797 820.674 116.797C823.545 116.797 825.752 117.627 827.295 119.287C828.857 120.947 829.639 123.232 829.639 126.143V131.182C829.639 134.229 828.848 136.582 827.266 138.242C825.703 139.883 823.506 140.703 820.674 140.703C817.861 140.703 815.664 139.883 814.082 138.242C812.52 136.582 811.738 134.229 811.738 131.182ZM817.51 131.709C817.51 133.232 817.744 134.385 818.213 135.166C818.701 135.928 819.521 136.309 820.674 136.309C821.865 136.309 822.695 135.928 823.164 135.166C823.652 134.385 823.896 133.232 823.896 131.709V125.938C823.896 124.434 823.652 123.291 823.164 122.51C822.695 121.709 821.865 121.309 820.674 121.309C819.502 121.309 818.682 121.709 818.213 122.51C817.744 123.291 817.51 124.434 817.51 125.938V131.709Z" fill="#DA9E8B"/>
<rect x="920" y="20" width="280" height="150" rx="14" fill="#1A1A1A"/>
<path d="M1025.77 64.5508H1020.35V70H1018.23V57.2031H1026.54V58.9521H1020.35V62.8105H1025.77V64.5508ZM1037.55 64.4541C1037.55 64.9697 1037.51 65.4678 1037.41 65.9482C1037.32 66.4287 1037.2 66.8828 1037.03 67.3105C1036.84 67.7383 1036.62 68.1338 1036.35 68.4971C1036.08 68.8545 1035.77 69.1621 1035.42 69.4199C1035.08 69.6543 1034.7 69.8389 1034.28 69.9736C1033.87 70.1084 1033.42 70.1758 1032.93 70.1758C1032.42 70.1758 1031.95 70.1055 1031.52 69.9648C1031.1 69.8184 1030.72 69.6191 1030.39 69.3672C1030.05 69.1094 1029.75 68.7988 1029.49 68.4355C1029.24 68.0723 1029.03 67.6738 1028.86 67.2402C1028.7 66.8242 1028.57 66.3818 1028.49 65.9131C1028.41 65.4385 1028.37 64.9521 1028.37 64.4541V62.7666C1028.37 62.2451 1028.41 61.7412 1028.5 61.2549C1028.59 60.7686 1028.72 60.3086 1028.9 59.875C1029.07 59.459 1029.27 59.0781 1029.52 58.7324C1029.77 58.3809 1030.07 58.0762 1030.41 57.8184C1030.74 57.5664 1031.11 57.373 1031.52 57.2383C1031.95 57.0977 1032.41 57.0273 1032.91 57.0273C1033.42 57.0273 1033.89 57.0977 1034.32 57.2383C1034.75 57.3789 1035.13 57.5752 1035.47 57.8271C1035.81 58.0791 1036.11 58.375 1036.36 58.7148C1036.61 59.0547 1036.82 59.4268 1036.99 59.8311C1037.18 60.2646 1037.32 60.7305 1037.41 61.2285C1037.51 61.7207 1037.55 62.2334 1037.55 62.7666V64.4541ZM1035.43 62.749C1035.42 62.4268 1035.4 62.1104 1035.36 61.7998C1035.33 61.4893 1035.28 61.1934 1035.21 60.9121C1035.12 60.5898 1035 60.2969 1034.85 60.0332C1034.71 59.7637 1034.54 59.5352 1034.34 59.3477C1034.15 59.1836 1033.95 59.0547 1033.71 58.9609C1033.48 58.8672 1033.21 58.8203 1032.91 58.8203C1032.62 58.8203 1032.37 58.8672 1032.14 58.9609C1031.91 59.0488 1031.71 59.1719 1031.54 59.3301C1031.34 59.5234 1031.16 59.7549 1031.02 60.0244C1030.88 60.2881 1030.77 60.584 1030.7 60.9121C1030.63 61.1934 1030.57 61.4922 1030.54 61.8086C1030.51 62.1191 1030.5 62.4326 1030.5 62.749V64.4541C1030.5 64.7646 1030.51 65.0723 1030.54 65.377C1030.57 65.6816 1030.62 65.9746 1030.69 66.2559C1030.76 66.5723 1030.87 66.8682 1031 67.1436C1031.13 67.4131 1031.29 67.6416 1031.48 67.8291C1031.66 68.0049 1031.87 68.1455 1032.1 68.251C1032.34 68.3506 1032.62 68.4004 1032.93 68.4004C1033.23 68.4004 1033.5 68.3506 1033.74 68.251C1033.98 68.1514 1034.2 68.0166 1034.37 67.8467C1034.58 67.6533 1034.75 67.4248 1034.88 67.1611C1035.02 66.8916 1035.13 66.5957 1035.21 66.2734C1035.29 65.9922 1035.33 65.6992 1035.36 65.3945C1035.4 65.084 1035.42 64.7705 1035.43 64.4541V62.749ZM1041.99 68.2598H1048.1V70H1039.87V57.2031H1041.99V68.2598ZM1052.8 68.2598H1058.91V70H1050.68V57.2031H1052.8V68.2598ZM1069.98 64.4541C1069.98 64.9697 1069.94 65.4678 1069.84 65.9482C1069.76 66.4287 1069.63 66.8828 1069.46 67.3105C1069.28 67.7383 1069.05 68.1338 1068.78 68.4971C1068.51 68.8545 1068.2 69.1621 1067.85 69.4199C1067.51 69.6543 1067.13 69.8389 1066.71 69.9736C1066.3 70.1084 1065.85 70.1758 1065.36 70.1758C1064.85 70.1758 1064.38 70.1055 1063.96 69.9648C1063.53 69.8184 1063.16 69.6191 1062.82 69.3672C1062.48 69.1094 1062.18 68.7988 1061.92 68.4355C1061.67 68.0723 1061.46 67.6738 1061.29 67.2402C1061.13 66.8242 1061 66.3818 1060.92 65.9131C1060.84 65.4385 1060.8 64.9521 1060.8 64.4541V62.7666C1060.8 62.2451 1060.84 61.7412 1060.93 61.2549C1061.02 60.7686 1061.15 60.3086 1061.33 59.875C1061.5 59.459 1061.71 59.0781 1061.95 58.7324C1062.2 58.3809 1062.5 58.0762 1062.84 57.8184C1063.17 57.5664 1063.54 57.373 1063.96 57.2383C1064.38 57.0977 1064.84 57.0273 1065.34 57.0273C1065.85 57.0273 1066.32 57.0977 1066.75 57.2383C1067.18 57.3789 1067.56 57.5752 1067.9 57.8271C1068.24 58.0791 1068.54 58.375 1068.79 58.7148C1069.04 59.0547 1069.25 59.4268 1069.42 59.8311C1069.61 60.2646 1069.75 60.7305 1069.84 61.2285C1069.94 61.7207 1069.98 62.2334 1069.98 62.7666V64.4541ZM1067.86 62.749C1067.85 62.4268 1067.83 62.1104 1067.8 61.7998C1067.77 61.4893 1067.71 61.1934 1067.64 60.9121C1067.55 60.5898 1067.43 60.2969 1067.29 60.0332C1067.15 59.7637 1066.97 59.5352 1066.77 59.3477C1066.59 59.1836 1066.38 59.0547 1066.14 58.9609C1065.91 58.8672 1065.64 58.8203 1065.34 58.8203C1065.06 58.8203 1064.8 58.8672 1064.57 58.9609C1064.34 59.0488 1064.14 59.1719 1063.97 59.3301C1063.77 59.5234 1063.59 59.7549 1063.45 60.0244C1063.31 60.2881 1063.21 60.584 1063.13 60.9121C1063.06 61.1934 1063.01 61.4922 1062.97 61.8086C1062.94 62.1191 1062.93 62.4326 1062.93 62.749V64.4541C1062.93 64.7646 1062.94 65.0723 1062.97 65.377C1063 65.6816 1063.05 65.9746 1063.12 66.2559C1063.2 66.5723 1063.3 66.8682 1063.43 67.1436C1063.56 67.4131 1063.72 67.6416 1063.91 67.8291C1064.09 68.0049 1064.3 68.1455 1064.54 68.251C1064.78 68.3506 1065.05 68.4004 1065.36 68.4004C1065.66 68.4004 1065.93 68.3506 1066.17 68.251C1066.42 68.1514 1066.63 68.0166 1066.8 67.8467C1067.01 67.6533 1067.18 67.4248 1067.31 67.1611C1067.45 66.8916 1067.56 66.5957 1067.65 66.2734C1067.72 65.9922 1067.77 65.6992 1067.8 65.3945C1067.83 65.084 1067.85 64.7705 1067.86 64.4541V62.749ZM1072.88 70L1071.21 57.2031H1073.17L1074.05 65.0605L1074.12 65.5615L1074.2 65.0342L1075.43 57.2031H1077.05L1078.33 65.0693L1078.41 65.5967L1078.47 65.0605L1079.36 57.2031H1081.33L1079.64 70H1077.65L1076.35 62.1689L1076.26 61.5625L1076.16 62.1689L1074.88 70H1072.88ZM1090.45 64.2607H1085.16V68.2598H1091.34V70H1083.04V57.2031H1091.3V58.9521H1085.16V62.5557H1090.45V64.2607ZM1098.04 65.0342H1095.88V70H1093.77V57.2031H1097.83C1098.49 57.209 1099.1 57.2939 1099.66 57.458C1100.21 57.6221 1100.69 57.8623 1101.1 58.1787C1101.5 58.501 1101.81 58.9023 1102.03 59.3828C1102.25 59.8574 1102.36 60.4141 1102.36 61.0527C1102.36 61.4922 1102.3 61.8906 1102.19 62.248C1102.08 62.6055 1101.92 62.9277 1101.71 63.2148C1101.51 63.502 1101.26 63.7539 1100.97 63.9707C1100.69 64.1875 1100.37 64.375 1100.02 64.5332L1102.75 69.8857V70H1100.49L1098.04 65.0342ZM1095.88 63.3115H1097.85C1098.23 63.3057 1098.57 63.25 1098.87 63.1445C1099.17 63.0332 1099.43 62.875 1099.64 62.6699C1099.83 62.4941 1099.97 62.2773 1100.08 62.0195C1100.18 61.7617 1100.24 61.4688 1100.24 61.1406C1100.24 60.7715 1100.18 60.4492 1100.06 60.1738C1099.95 59.8926 1099.78 59.6582 1099.56 59.4707C1099.35 59.2949 1099.11 59.1631 1098.81 59.0752C1098.52 58.9814 1098.19 58.9316 1097.83 58.9258H1095.88V63.3115Z" fill="#B3B3B2"/>
<path d="M1013.77 140V128.867L1013.92 128.135V108.184H1013.68L1003.75 124.766H1016.49L1017.64 124.619H1026.31V130.889H996.104V125.176L1014.41 97.3438H1021.18V140H1013.77ZM1028.71 140V134.932L1043.48 118.408C1044.9 116.709 1046.09 115.059 1047.05 113.457C1048.03 111.836 1048.52 110.186 1048.52 108.506C1048.52 106.494 1047.99 104.99 1046.93 103.994C1045.88 102.998 1044.5 102.5 1042.8 102.5C1041.04 102.5 1039.59 103.057 1038.44 104.17C1037.29 105.264 1036.71 107.207 1036.71 110V110.938H1028.71V109.297C1028.71 105.508 1030.03 102.461 1032.67 100.156C1035.3 97.832 1038.71 96.6699 1042.89 96.6699C1047.21 96.6699 1050.55 97.7148 1052.91 99.8047C1055.27 101.895 1056.46 104.658 1056.48 108.096C1056.48 110.732 1055.87 113.115 1054.64 115.244C1053.41 117.373 1051.72 119.648 1049.57 122.07L1039.96 133.584H1057.45V140H1028.71ZM1060.62 125.908V111.436C1060.62 106.768 1061.83 103.145 1064.25 100.566C1066.69 97.9688 1070.07 96.6699 1074.38 96.6699C1078.7 96.6699 1082.08 97.959 1084.52 100.537C1086.96 103.096 1088.18 106.729 1088.18 111.436V125.908C1088.18 130.674 1086.93 134.336 1084.43 136.895C1081.93 139.434 1078.58 140.693 1074.38 140.674C1070.05 140.654 1066.67 139.375 1064.25 136.836C1061.83 134.297 1060.62 130.654 1060.62 125.908ZM1068.58 127.197C1068.58 129.639 1069.06 131.533 1070.02 132.881C1070.98 134.229 1072.43 134.902 1074.38 134.902C1076.36 134.902 1077.82 134.229 1078.78 132.881C1079.76 131.533 1080.24 129.639 1080.24 127.197V110.264C1080.24 107.803 1079.76 105.898 1078.78 104.551C1077.82 103.184 1076.36 102.5 1074.38 102.5C1072.43 102.5 1070.98 103.184 1070.02 104.551C1069.06 105.898 1068.58 107.803 1068.58 110.264V127.197ZM1093.6 140V97.3438H1101.57V115.449L1115.81 97.3438H1124.22L1101.57 125.264V140H1093.6ZM1116.54 140L1102.86 118.877L1107.75 112.9L1125.74 140H1116.54Z" fill="#DA9E8B"/>
<rect x="1220" y="20" width="280" height="150" rx="14" fill="#1A1A1A"/>
<path d="M1262.73 63.3203L1265.41 57.2031H1267.77L1263.76 65.4297L1263.74 70H1261.68L1261.67 65.3682L1257.7 57.2031H1260.04L1262.73 63.3203ZM1273.91 70.1758C1273.21 70.1758 1272.56 70.0586 1271.98 69.8242C1271.4 69.5898 1270.9 69.2646 1270.48 68.8486C1270.07 68.4385 1269.75 67.9551 1269.52 67.3984C1269.29 66.8359 1269.18 66.2295 1269.18 65.5791V65.2188C1269.18 64.4746 1269.3 63.8008 1269.53 63.1973C1269.77 62.5938 1270.09 62.0781 1270.5 61.6504C1270.91 61.2227 1271.39 60.8945 1271.92 60.666C1272.47 60.4316 1273.05 60.3145 1273.67 60.3145C1274.35 60.3145 1274.96 60.4316 1275.48 60.666C1276.01 60.8945 1276.45 61.2139 1276.81 61.624C1277.17 62.04 1277.44 62.5352 1277.62 63.1094C1277.8 63.6836 1277.89 64.3105 1277.89 64.9902V65.8955H1271.3V65.9395C1271.37 66.3555 1271.46 66.7041 1271.6 66.9854C1271.73 67.2666 1271.92 67.5186 1272.15 67.7412C1272.39 67.9756 1272.66 68.1572 1272.98 68.2861C1273.3 68.415 1273.65 68.4795 1274.03 68.4795C1274.56 68.4795 1275.04 68.3799 1275.49 68.1807C1275.94 67.9756 1276.32 67.6855 1276.61 67.3105L1277.73 68.4004C1277.42 68.8574 1276.93 69.2676 1276.28 69.6309C1275.62 69.9941 1274.84 70.1758 1273.91 70.1758ZM1273.66 62.0195C1273.36 62.0195 1273.08 62.0752 1272.82 62.1865C1272.57 62.292 1272.34 62.4443 1272.14 62.6436C1271.95 62.8486 1271.78 63.0947 1271.64 63.3818C1271.51 63.6689 1271.41 63.9941 1271.34 64.3574H1275.82V64.2168C1275.82 63.9414 1275.77 63.6689 1275.67 63.3994C1275.57 63.124 1275.43 62.8838 1275.25 62.6787C1275.07 62.4795 1274.85 62.3213 1274.58 62.2041C1274.32 62.0811 1274.01 62.0195 1273.66 62.0195ZM1286.36 70C1286.29 69.8828 1286.24 69.7422 1286.2 69.5781C1286.16 69.4082 1286.13 69.2324 1286.1 69.0508C1285.96 69.2031 1285.79 69.3496 1285.6 69.4902C1285.42 69.625 1285.21 69.7422 1284.99 69.8418C1284.76 69.9473 1284.51 70.0293 1284.25 70.0879C1283.98 70.1465 1283.7 70.1758 1283.39 70.1758C1282.9 70.1758 1282.45 70.1055 1282.04 69.9648C1281.64 69.8184 1281.29 69.6191 1281 69.3672C1280.71 69.1211 1280.48 68.8252 1280.32 68.4795C1280.16 68.1279 1280.08 67.75 1280.08 67.3457C1280.08 66.8242 1280.18 66.3643 1280.39 65.9658C1280.6 65.5615 1280.9 65.2275 1281.3 64.9639C1281.67 64.7178 1282.13 64.5303 1282.67 64.4014C1283.21 64.2725 1283.83 64.208 1284.51 64.208H1286.04V63.5664C1286.04 63.3203 1286 63.0977 1285.91 62.8984C1285.83 62.6992 1285.71 62.5264 1285.55 62.3799C1285.38 62.2334 1285.17 62.1221 1284.92 62.0459C1284.68 61.9639 1284.41 61.9229 1284.09 61.9229C1283.8 61.9229 1283.55 61.958 1283.33 62.0283C1283.12 62.0986 1282.95 62.1953 1282.81 62.3184C1282.67 62.4297 1282.56 62.5674 1282.49 62.7314C1282.42 62.8896 1282.39 63.0596 1282.39 63.2412H1280.28C1280.29 62.8604 1280.38 62.4941 1280.56 62.1426C1280.73 61.791 1280.99 61.4805 1281.33 61.2109C1281.66 60.9355 1282.06 60.7188 1282.54 60.5605C1283.03 60.3965 1283.58 60.3145 1284.2 60.3145C1284.76 60.3145 1285.28 60.3848 1285.76 60.5254C1286.25 60.6602 1286.66 60.8623 1287.02 61.1318C1287.37 61.4014 1287.64 61.7441 1287.84 62.1602C1288.04 62.5703 1288.14 63.0449 1288.14 63.584V67.8115C1288.14 68.2393 1288.17 68.626 1288.23 68.9717C1288.29 69.3115 1288.38 69.6045 1288.5 69.8506V70H1286.36ZM1283.8 68.4883C1284.07 68.4883 1284.33 68.4531 1284.56 68.3828C1284.8 68.3125 1285.02 68.2217 1285.21 68.1104C1285.41 67.999 1285.57 67.873 1285.71 67.7324C1285.86 67.5918 1285.96 67.4453 1286.04 67.293V65.5352H1284.69C1284.23 65.5352 1283.83 65.5791 1283.5 65.667C1283.17 65.749 1282.9 65.8691 1282.7 66.0273C1282.52 66.1621 1282.39 66.3232 1282.3 66.5107C1282.22 66.6982 1282.18 66.9092 1282.18 67.1436C1282.18 67.3369 1282.22 67.5186 1282.29 67.6885C1282.36 67.8525 1282.46 67.9932 1282.59 68.1104C1282.73 68.2275 1282.9 68.3213 1283.1 68.3916C1283.29 68.4561 1283.53 68.4883 1283.8 68.4883ZM1297.67 60.3145C1298.01 60.3145 1298.34 60.3379 1298.65 60.3848C1298.97 60.4316 1299.23 60.4873 1299.41 60.5518L1299.11 62.626C1298.79 62.5557 1298.47 62.5029 1298.15 62.4678C1297.84 62.4326 1297.53 62.415 1297.22 62.415C1296.87 62.415 1296.55 62.4502 1296.27 62.5205C1295.99 62.5908 1295.74 62.6992 1295.52 62.8457C1295.29 62.9863 1295.09 63.165 1294.93 63.3818C1294.76 63.5986 1294.62 63.8477 1294.51 64.1289V70H1292.41V60.4902H1294.38L1294.47 61.8086L1294.48 62.0283C1294.86 61.4951 1295.33 61.0762 1295.87 60.7715C1296.41 60.4668 1297.01 60.3145 1297.67 60.3145ZM1308.12 67.4248C1308.12 67.2607 1308.08 67.1143 1308 66.9854C1307.93 66.8564 1307.81 66.7334 1307.64 66.6162C1307.46 66.5107 1307.22 66.4111 1306.93 66.3174C1306.64 66.2236 1306.27 66.1357 1305.83 66.0537C1305.28 65.9424 1304.78 65.8047 1304.32 65.6406C1303.87 65.4766 1303.48 65.2773 1303.15 65.043C1302.83 64.8203 1302.58 64.5566 1302.4 64.252C1302.21 63.9473 1302.12 63.5928 1302.12 63.1885C1302.12 62.8018 1302.21 62.4355 1302.4 62.0898C1302.58 61.7383 1302.85 61.4307 1303.2 61.167C1303.54 60.9033 1303.95 60.6953 1304.43 60.543C1304.91 60.3906 1305.45 60.3145 1306.04 60.3145C1306.68 60.3145 1307.25 60.3936 1307.75 60.5518C1308.25 60.7041 1308.68 60.915 1309.03 61.1846C1309.38 61.4541 1309.64 61.7734 1309.83 62.1426C1310.02 62.5117 1310.11 62.9102 1310.11 63.3379H1308.01C1308.01 63.1621 1307.97 62.9951 1307.9 62.8369C1307.83 62.6729 1307.72 62.5264 1307.58 62.3975C1307.42 62.2451 1307.21 62.125 1306.95 62.0371C1306.69 61.9434 1306.39 61.8965 1306.04 61.8965C1305.73 61.8965 1305.45 61.9316 1305.21 62.002C1304.97 62.0664 1304.78 62.1572 1304.63 62.2744C1304.48 62.3799 1304.36 62.5059 1304.29 62.6523C1304.21 62.793 1304.17 62.9424 1304.17 63.1006C1304.17 63.2646 1304.2 63.4141 1304.27 63.5488C1304.33 63.6777 1304.45 63.792 1304.61 63.8916C1304.76 63.9971 1304.97 64.0938 1305.24 64.1816C1305.52 64.2695 1305.87 64.3486 1306.28 64.4189C1306.86 64.5244 1307.39 64.6533 1307.87 64.8057C1308.35 64.958 1308.76 65.1455 1309.1 65.3682C1309.44 65.6025 1309.71 65.8779 1309.89 66.1943C1310.08 66.5107 1310.17 66.8857 1310.17 67.3193C1310.17 67.7412 1310.08 68.1279 1309.88 68.4795C1309.68 68.8311 1309.41 69.1328 1309.05 69.3848C1308.69 69.6367 1308.25 69.833 1307.75 69.9736C1307.25 70.1143 1306.69 70.1846 1306.07 70.1846C1305.38 70.1846 1304.78 70.0938 1304.24 69.9121C1303.71 69.7305 1303.27 69.4902 1302.92 69.1914C1302.55 68.8984 1302.28 68.5615 1302.09 68.1807C1301.9 67.7998 1301.81 67.4131 1301.81 67.0205H1303.85C1303.86 67.3135 1303.94 67.5625 1304.08 67.7676C1304.22 67.9668 1304.39 68.1279 1304.6 68.251C1304.81 68.3799 1305.04 68.4736 1305.31 68.5322C1305.57 68.585 1305.84 68.6113 1306.11 68.6113C1306.47 68.6113 1306.79 68.5732 1307.05 68.4971C1307.33 68.4209 1307.55 68.3184 1307.71 68.1895C1307.85 68.084 1307.95 67.9697 1308.01 67.8467C1308.08 67.7178 1308.12 67.5771 1308.12 67.4248ZM1332.15 64.4541C1332.15 64.9697 1332.1 65.4678 1332.01 65.9482C1331.92 66.4287 1331.79 66.8828 1331.62 67.3105C1331.44 67.7383 1331.21 68.1338 1330.94 68.4971C1330.67 68.8545 1330.36 69.1621 1330.01 69.4199C1329.67 69.6543 1329.29 69.8389 1328.88 69.9736C1328.47 70.1084 1328.02 70.1758 1327.52 70.1758C1327.01 70.1758 1326.55 70.1055 1326.12 69.9648C1325.7 69.8184 1325.32 69.6191 1324.98 69.3672C1324.64 69.1094 1324.35 68.7988 1324.09 68.4355C1323.84 68.0723 1323.62 67.6738 1323.46 67.2402C1323.29 66.8242 1323.17 66.3818 1323.09 65.9131C1323 65.4385 1322.96 64.9521 1322.96 64.4541V62.7666C1322.96 62.2451 1323.01 61.7412 1323.09 61.2549C1323.18 60.7686 1323.31 60.3086 1323.49 59.875C1323.66 59.459 1323.87 59.0781 1324.11 58.7324C1324.37 58.3809 1324.66 58.0762 1325 57.8184C1325.33 57.5664 1325.7 57.373 1326.12 57.2383C1326.54 57.0977 1327 57.0273 1327.51 57.0273C1328.02 57.0273 1328.49 57.0977 1328.91 57.2383C1329.34 57.3789 1329.72 57.5752 1330.06 57.8271C1330.4 58.0791 1330.7 58.375 1330.95 58.7148C1331.2 59.0547 1331.42 59.4268 1331.58 59.8311C1331.77 60.2646 1331.91 60.7305 1332.01 61.2285C1332.1 61.7207 1332.15 62.2334 1332.15 62.7666V64.4541ZM1330.02 62.749C1330.01 62.4268 1329.99 62.1104 1329.96 61.7998C1329.93 61.4893 1329.88 61.1934 1329.8 60.9121C1329.71 60.5898 1329.6 60.2969 1329.45 60.0332C1329.31 59.7637 1329.14 59.5352 1328.93 59.3477C1328.75 59.1836 1328.54 59.0547 1328.31 58.9609C1328.07 58.8672 1327.81 58.8203 1327.51 58.8203C1327.22 58.8203 1326.96 58.8672 1326.73 58.9609C1326.5 59.0488 1326.31 59.1719 1326.14 59.3301C1325.93 59.5234 1325.76 59.7549 1325.62 60.0244C1325.48 60.2881 1325.37 60.584 1325.29 60.9121C1325.22 61.1934 1325.17 61.4922 1325.13 61.8086C1325.1 62.1191 1325.09 62.4326 1325.09 62.749V64.4541C1325.09 64.7646 1325.1 65.0723 1325.13 65.377C1325.16 65.6816 1325.21 65.9746 1325.28 66.2559C1325.36 66.5723 1325.46 66.8682 1325.59 67.1436C1325.73 67.4131 1325.89 67.6416 1326.07 67.8291C1326.26 68.0049 1326.46 68.1455 1326.7 68.251C1326.94 68.3506 1327.21 68.4004 1327.52 68.4004C1327.82 68.4004 1328.09 68.3506 1328.33 68.251C1328.58 68.1514 1328.79 68.0166 1328.97 67.8467C1329.17 67.6533 1329.34 67.4248 1329.48 67.1611C1329.62 66.8916 1329.73 66.5957 1329.81 66.2734C1329.88 65.9922 1329.93 65.6992 1329.96 65.3945C1329.99 65.084 1330.01 64.7705 1330.02 64.4541V62.749ZM1336.73 70V62.0635H1334.18V60.4902H1336.73V59.9102C1336.73 59.2891 1336.82 58.7441 1337.01 58.2754C1337.2 57.8008 1337.47 57.4023 1337.83 57.0801C1338.18 56.7637 1338.6 56.5234 1339.09 56.3594C1339.59 56.1953 1340.15 56.1133 1340.76 56.1133C1340.98 56.1133 1341.19 56.125 1341.39 56.1484C1341.6 56.166 1341.81 56.1895 1342.01 56.2188C1342.17 56.2422 1342.34 56.2715 1342.51 56.3066C1342.68 56.3359 1342.85 56.3682 1343.03 56.4033L1342.86 58.082C1342.63 58.0176 1342.36 57.9619 1342.06 57.915C1341.77 57.8682 1341.43 57.8447 1341.06 57.8447C1340.67 57.8447 1340.33 57.8916 1340.04 57.9854C1339.76 58.0791 1339.53 58.2168 1339.35 58.3984C1339.18 58.5684 1339.05 58.7793 1338.96 59.0312C1338.88 59.2832 1338.84 59.5762 1338.84 59.9102V60.4902H1342.36V62.0635H1338.84V70H1336.73ZM1363.43 64.2607H1358.14V68.2598H1364.32V70H1356.02V57.2031H1364.27V58.9521H1358.14V62.5557H1363.43V64.2607ZM1370.94 63.6895L1373.22 60.4902H1375.55L1372.21 65.1748L1375.65 70H1373.33L1370.96 66.6777L1368.6 70H1366.27L1369.71 65.1748L1366.38 60.4902H1368.69L1370.94 63.6895ZM1377.6 73.6562V60.4902H1379.53L1379.61 61.4658C1379.74 61.3076 1379.88 61.1641 1380.03 61.0352C1380.18 60.9062 1380.35 60.7949 1380.52 60.7012C1380.75 60.5781 1381 60.4844 1381.28 60.4199C1381.55 60.3496 1381.85 60.3145 1382.16 60.3145C1382.77 60.3145 1383.3 60.4316 1383.77 60.666C1384.23 60.9004 1384.63 61.2314 1384.94 61.6592C1385.25 62.0869 1385.49 62.5996 1385.66 63.1973C1385.82 63.7891 1385.9 64.4424 1385.9 65.1572V65.3418C1385.9 66.0273 1385.82 66.666 1385.66 67.2578C1385.5 67.8496 1385.26 68.3594 1384.94 68.7871C1384.63 69.2207 1384.24 69.5605 1383.77 69.8066C1383.31 70.0527 1382.78 70.1758 1382.18 70.1758C1381.84 70.1758 1381.53 70.1406 1381.24 70.0703C1380.96 70 1380.7 69.8975 1380.46 69.7627C1380.32 69.6807 1380.19 69.5869 1380.06 69.4814C1379.93 69.376 1379.81 69.2617 1379.7 69.1387V73.6562H1377.6ZM1383.8 65.1572C1383.8 64.7295 1383.76 64.3281 1383.67 63.9531C1383.59 63.5723 1383.46 63.2412 1383.28 62.96C1383.1 62.6787 1382.87 62.4561 1382.59 62.292C1382.31 62.1279 1381.97 62.0459 1381.58 62.0459C1381.36 62.0459 1381.16 62.0693 1380.97 62.1162C1380.78 62.1631 1380.62 62.2305 1380.47 62.3184C1380.3 62.4121 1380.15 62.5293 1380.02 62.6699C1379.9 62.8105 1379.79 62.9688 1379.7 63.1445V67.3721C1379.78 67.5361 1379.88 67.6855 1380 67.8203C1380.11 67.9551 1380.25 68.0723 1380.4 68.1719C1380.56 68.2656 1380.74 68.3418 1380.94 68.4004C1381.13 68.4531 1381.35 68.4795 1381.59 68.4795C1381.99 68.4795 1382.32 68.3975 1382.6 68.2334C1382.88 68.0635 1383.11 67.835 1383.28 67.5479C1383.46 67.2549 1383.6 66.9209 1383.68 66.5459C1383.76 66.165 1383.8 65.7637 1383.8 65.3418V65.1572ZM1392.83 70.1758C1392.12 70.1758 1391.48 70.0586 1390.89 69.8242C1390.31 69.5898 1389.82 69.2646 1389.4 68.8486C1388.98 68.4385 1388.66 67.9551 1388.43 67.3984C1388.21 66.8359 1388.1 66.2295 1388.1 65.5791V65.2188C1388.1 64.4746 1388.22 63.8008 1388.45 63.1973C1388.68 62.5938 1389.01 62.0781 1389.42 61.6504C1389.83 61.2227 1390.3 60.8945 1390.84 60.666C1391.39 60.4316 1391.97 60.3145 1392.58 60.3145C1393.27 60.3145 1393.87 60.4316 1394.4 60.666C1394.93 60.8945 1395.37 61.2139 1395.73 61.624C1396.08 62.04 1396.35 62.5352 1396.54 63.1094C1396.72 63.6836 1396.81 64.3105 1396.81 64.9902V65.8955H1390.22V65.9395C1390.28 66.3555 1390.38 66.7041 1390.52 66.9854C1390.65 67.2666 1390.83 67.5186 1391.07 67.7412C1391.3 67.9756 1391.58 68.1572 1391.9 68.2861C1392.22 68.415 1392.57 68.4795 1392.95 68.4795C1393.47 68.4795 1393.96 68.3799 1394.41 68.1807C1394.86 67.9756 1395.23 67.6855 1395.53 67.3105L1396.65 68.4004C1396.33 68.8574 1395.85 69.2676 1395.19 69.6309C1394.54 69.9941 1393.75 70.1758 1392.83 70.1758ZM1392.57 62.0195C1392.27 62.0195 1392 62.0752 1391.74 62.1865C1391.49 62.292 1391.26 62.4443 1391.06 62.6436C1390.86 62.8486 1390.69 63.0947 1390.56 63.3818C1390.42 63.6689 1390.33 63.9941 1390.26 64.3574H1394.73V64.2168C1394.73 63.9414 1394.68 63.6689 1394.58 63.3994C1394.49 63.124 1394.34 62.8838 1394.16 62.6787C1393.99 62.4795 1393.76 62.3213 1393.5 62.2041C1393.23 62.0811 1392.92 62.0195 1392.57 62.0195ZM1405.77 60.3145C1406.11 60.3145 1406.44 60.3379 1406.76 60.3848C1407.08 60.4316 1407.33 60.4873 1407.51 60.5518L1407.21 62.626C1406.89 62.5557 1406.57 62.5029 1406.26 62.4678C1405.95 62.4326 1405.64 62.415 1405.33 62.415C1404.97 62.415 1404.66 62.4502 1404.38 62.5205C1404.09 62.5908 1403.85 62.6992 1403.63 62.8457C1403.39 62.9863 1403.2 63.165 1403.03 63.3818C1402.87 63.5986 1402.73 63.8477 1402.62 64.1289V70H1400.52V60.4902H1402.49L1402.57 61.8086L1402.58 62.0283C1402.97 61.4951 1403.43 61.0762 1403.97 60.7715C1404.52 60.4668 1405.12 60.3145 1405.77 60.3145ZM1410.49 60.4902H1415.54V68.2598H1418.33V70H1410.49V68.2598H1413.42V62.2393H1410.49V60.4902ZM1413.23 58.0293C1413.23 57.8594 1413.26 57.7041 1413.31 57.5635C1413.37 57.417 1413.46 57.291 1413.57 57.1855C1413.67 57.0859 1413.8 57.0098 1413.95 56.957C1414.1 56.8984 1414.27 56.8691 1414.46 56.8691C1414.77 56.8691 1415.03 56.9512 1415.22 57.1152C1415.42 57.2734 1415.54 57.4785 1415.56 57.7305C1415.61 57.9883 1415.56 58.2139 1415.43 58.4072C1415.3 58.5947 1415.12 58.7207 1414.87 58.7852C1414.75 58.8965 1414.6 58.9697 1414.43 59.0049C1414.26 59.04 1414.07 59.0254 1413.87 58.9609C1413.66 58.8965 1413.5 58.7822 1413.38 58.6182C1413.28 58.4482 1413.23 58.252 1413.23 58.0293ZM1425.26 70.1758C1424.56 70.1758 1423.91 70.0586 1423.33 69.8242C1422.75 69.5898 1422.25 69.2646 1421.83 68.8486C1421.42 68.4385 1421.09 67.9551 1420.86 67.3984C1420.64 66.8359 1420.53 66.2295 1420.53 65.5791V65.2188C1420.53 64.4746 1420.65 63.8008 1420.88 63.1973C1421.12 62.5938 1421.44 62.0781 1421.85 61.6504C1422.26 61.2227 1422.73 60.8945 1423.27 60.666C1423.82 60.4316 1424.4 60.3145 1425.01 60.3145C1425.7 60.3145 1426.3 60.4316 1426.83 60.666C1427.36 60.8945 1427.8 61.2139 1428.16 61.624C1428.52 62.04 1428.79 62.5352 1428.97 63.1094C1429.15 63.6836 1429.24 64.3105 1429.24 64.9902V65.8955H1422.65V65.9395C1422.71 66.3555 1422.81 66.7041 1422.95 66.9854C1423.08 67.2666 1423.27 67.5186 1423.5 67.7412C1423.74 67.9756 1424.01 68.1572 1424.33 68.2861C1424.65 68.415 1425 68.4795 1425.38 68.4795C1425.9 68.4795 1426.39 68.3799 1426.84 68.1807C1427.29 67.9756 1427.66 67.6855 1427.96 67.3105L1429.08 68.4004C1428.77 68.8574 1428.28 69.2676 1427.62 69.6309C1426.97 69.9941 1426.18 70.1758 1425.26 70.1758ZM1425 62.0195C1424.71 62.0195 1424.43 62.0752 1424.17 62.1865C1423.92 62.292 1423.69 62.4443 1423.49 62.6436C1423.29 62.8486 1423.13 63.0947 1422.99 63.3818C1422.86 63.6689 1422.76 63.9941 1422.69 64.3574H1427.17V64.2168C1427.17 63.9414 1427.12 63.6689 1427.02 63.3994C1426.92 63.124 1426.78 62.8838 1426.59 62.6787C1426.42 62.4795 1426.2 62.3213 1425.93 62.2041C1425.66 62.0811 1425.36 62.0195 1425 62.0195ZM1431.63 70V60.4902H1433.53L1433.66 61.8438C1433.79 61.6621 1433.93 61.4951 1434.08 61.3428C1434.24 61.1846 1434.41 61.0439 1434.58 60.9209C1434.87 60.7275 1435.17 60.5781 1435.51 60.4727C1435.84 60.3672 1436.19 60.3145 1436.56 60.3145C1437.05 60.3145 1437.49 60.3848 1437.9 60.5254C1438.3 60.666 1438.65 60.8887 1438.93 61.1934C1439.22 61.498 1439.44 61.8877 1439.6 62.3623C1439.76 62.8311 1439.84 63.3994 1439.84 64.0674V70H1437.74V64.1025C1437.74 63.71 1437.7 63.3818 1437.61 63.1182C1437.52 62.8545 1437.39 62.6436 1437.22 62.4854C1437.05 62.3271 1436.85 62.2158 1436.61 62.1514C1436.37 62.0811 1436.09 62.0459 1435.78 62.0459C1435.52 62.0459 1435.28 62.0811 1435.06 62.1514C1434.84 62.2158 1434.63 62.3096 1434.45 62.4326C1434.31 62.5264 1434.18 62.6406 1434.06 62.7754C1433.93 62.9102 1433.83 63.0566 1433.73 63.2148V70H1431.63ZM1446.58 68.4883C1446.84 68.4883 1447.1 68.4502 1447.34 68.374C1447.58 68.292 1447.8 68.1777 1447.99 68.0312C1448.17 67.8848 1448.31 67.7119 1448.42 67.5127C1448.53 67.3135 1448.58 67.0938 1448.58 66.8535H1450.56C1450.57 67.3164 1450.46 67.7529 1450.25 68.1631C1450.04 68.5674 1449.75 68.916 1449.38 69.209C1449.02 69.5137 1448.59 69.7539 1448.11 69.9297C1447.64 70.0996 1447.13 70.1846 1446.61 70.1846C1445.88 70.1846 1445.23 70.0586 1444.68 69.8066C1444.14 69.5488 1443.68 69.2031 1443.32 68.7695C1442.95 68.3359 1442.67 67.832 1442.49 67.2578C1442.3 66.6777 1442.2 66.0596 1442.2 65.4033V65.0957C1442.2 64.4453 1442.29 63.8301 1442.48 63.25C1442.66 62.6699 1442.94 62.1631 1443.31 61.7295C1443.68 61.2959 1444.14 60.9531 1444.68 60.7012C1445.23 60.4434 1445.87 60.3145 1446.6 60.3145C1447.17 60.3145 1447.7 60.4023 1448.19 60.5781C1448.68 60.7539 1449.1 61 1449.46 61.3164C1449.81 61.6328 1450.08 62.0107 1450.27 62.4502C1450.47 62.8896 1450.57 63.373 1450.56 63.9004H1448.58C1448.58 63.6426 1448.54 63.3994 1448.44 63.1709C1448.34 62.9424 1448.21 62.7432 1448.03 62.5732C1447.85 62.4033 1447.63 62.2686 1447.38 62.1689C1447.13 62.0693 1446.87 62.0195 1446.58 62.0195C1446.14 62.0195 1445.78 62.1104 1445.48 62.292C1445.2 62.4678 1444.97 62.6992 1444.8 62.9863C1444.62 63.2734 1444.49 63.6016 1444.41 63.9707C1444.34 64.3398 1444.3 64.7148 1444.3 65.0957V65.4033C1444.3 65.79 1444.34 66.1709 1444.41 66.5459C1444.49 66.915 1444.61 67.2402 1444.79 67.5215C1444.96 67.8145 1445.19 68.0488 1445.48 68.2246C1445.78 68.4004 1446.14 68.4883 1446.58 68.4883ZM1457.69 70.1758C1456.99 70.1758 1456.34 70.0586 1455.76 69.8242C1455.18 69.5898 1454.68 69.2646 1454.26 68.8486C1453.85 68.4385 1453.52 67.9551 1453.3 67.3984C1453.07 66.8359 1452.96 66.2295 1452.96 65.5791V65.2188C1452.96 64.4746 1453.08 63.8008 1453.31 63.1973C1453.55 62.5938 1453.87 62.0781 1454.28 61.6504C1454.69 61.2227 1455.17 60.8945 1455.7 60.666C1456.25 60.4316 1456.83 60.3145 1457.44 60.3145C1458.13 60.3145 1458.74 60.4316 1459.26 60.666C1459.79 60.8945 1460.23 61.2139 1460.59 61.624C1460.95 62.04 1461.22 62.5352 1461.4 63.1094C1461.58 63.6836 1461.67 64.3105 1461.67 64.9902V65.8955H1455.08V65.9395C1455.14 66.3555 1455.24 66.7041 1455.38 66.9854C1455.51 67.2666 1455.7 67.5186 1455.93 67.7412C1456.17 67.9756 1456.44 68.1572 1456.76 68.2861C1457.08 68.415 1457.43 68.4795 1457.81 68.4795C1458.33 68.4795 1458.82 68.3799 1459.27 68.1807C1459.72 67.9756 1460.1 67.6855 1460.39 67.3105L1461.51 68.4004C1461.2 68.8574 1460.71 69.2676 1460.05 69.6309C1459.4 69.9941 1458.62 70.1758 1457.69 70.1758ZM1457.44 62.0195C1457.14 62.0195 1456.86 62.0752 1456.6 62.1865C1456.35 62.292 1456.12 62.4443 1455.92 62.6436C1455.72 62.8486 1455.56 63.0947 1455.42 63.3818C1455.29 63.6689 1455.19 63.9941 1455.12 64.3574H1459.6V64.2168C1459.6 63.9414 1459.55 63.6689 1459.45 63.3994C1459.35 63.124 1459.21 62.8838 1459.03 62.6787C1458.85 62.4795 1458.63 62.3213 1458.36 62.2041C1458.09 62.0811 1457.79 62.0195 1457.44 62.0195Z" fill="#B3B3B2"/>
<path d="M1326.69 140V104.521L1315.79 108.301V101.621L1329.38 96.9336H1334.66V140H1326.69ZM1346.08 125.908V111.436C1346.08 106.768 1347.29 103.145 1349.72 100.566C1352.16 97.9688 1355.54 96.6699 1359.85 96.6699C1364.17 96.6699 1367.55 97.959 1369.99 100.537C1372.43 103.096 1373.65 106.729 1373.65 111.436V125.908C1373.65 130.674 1372.4 134.336 1369.9 136.895C1367.4 139.434 1364.05 140.693 1359.85 140.674C1355.52 140.654 1352.14 139.375 1349.72 136.836C1347.29 134.297 1346.08 130.654 1346.08 125.908ZM1354.05 127.197C1354.05 129.639 1354.53 131.533 1355.49 132.881C1356.45 134.229 1357.9 134.902 1359.85 134.902C1361.83 134.902 1363.29 134.229 1364.25 132.881C1365.22 131.533 1365.71 129.639 1365.71 127.197V110.264C1365.71 107.803 1365.22 105.898 1364.25 104.551C1363.29 103.184 1361.83 102.5 1359.85 102.5C1357.9 102.5 1356.45 103.184 1355.49 104.551C1354.53 105.898 1354.05 107.803 1354.05 110.264V127.197ZM1377.99 123.564V116.943H1405.03V123.564H1377.99ZM1388.01 134.434V106.074H1395.01V134.434H1388.01Z" fill="#DA9E8B"/>
<rect x="1520" y="20" width="280" height="150" rx="14" fill="#1A1A1A"/>
<rect x="1567" y="61.5" width="67" height="67" rx="33.5" fill="#0F0F0F"/>
<rect x="1567" y="61.5" width="67" height="67" rx="33.5" stroke="#262626"/>
<path fill-rule="evenodd" clip-rule="evenodd" d="M1596.12 85.375L1609.25 85.375C1609.48 85.375 1609.7 85.4672 1609.87 85.6313C1610.03 85.7954 1610.12 86.0179 1610.12 86.25V99.375C1610.12 99.8582 1609.73 100.25 1609.25 100.25C1608.77 100.25 1608.38 99.8582 1608.38 99.375V88.3624L1592.37 104.369C1592.03 104.71 1591.47 104.71 1591.13 104.369C1590.79 104.027 1590.79 103.473 1591.13 103.131L1607.14 87.125L1596.12 87.125C1595.64 87.125 1595.25 86.7332 1595.25 86.25C1595.25 85.7668 1595.64 85.375 1596.12 85.375Z" fill="#E7BEB1"/>
<path d="M1649.84 96.8379L1648.31 98.5566V103H1645.94V88.7812H1648.31V95.4707L1649.64 93.7422L1653.39 88.7812H1656.26L1651.39 95.041L1656.5 103H1653.69L1649.84 96.8379ZM1667.15 103H1664.79L1660.17 93.2148L1660.16 103H1657.79V88.7812H1660.17L1664.76 98.5273L1664.78 88.7812H1667.15V103ZM1679.62 96.8379C1679.62 97.4108 1679.57 97.9642 1679.46 98.498C1679.36 99.0319 1679.22 99.5365 1679.03 100.012C1678.83 100.487 1678.58 100.926 1678.28 101.33C1677.98 101.727 1677.63 102.069 1677.24 102.355C1676.87 102.616 1676.45 102.821 1675.98 102.971C1675.53 103.12 1675.03 103.195 1674.48 103.195C1673.91 103.195 1673.39 103.117 1672.92 102.961C1672.45 102.798 1672.03 102.577 1671.66 102.297C1671.28 102.01 1670.95 101.665 1670.66 101.262C1670.38 100.858 1670.15 100.415 1669.96 99.9336C1669.78 99.4714 1669.64 98.9798 1669.55 98.459C1669.46 97.9316 1669.41 97.3913 1669.41 96.8379V94.9629C1669.41 94.3835 1669.46 93.8236 1669.56 93.2832C1669.66 92.7428 1669.8 92.2318 1670 91.75C1670.19 91.2878 1670.42 90.8646 1670.69 90.4805C1670.97 90.0898 1671.3 89.7513 1671.68 89.4648C1672.04 89.1849 1672.46 88.9701 1672.92 88.8203C1673.39 88.6641 1673.9 88.5859 1674.46 88.5859C1675.03 88.5859 1675.55 88.6641 1676.02 88.8203C1676.5 88.9766 1676.93 89.1947 1677.3 89.4746C1677.68 89.7546 1678.01 90.0833 1678.29 90.4609C1678.57 90.8385 1678.8 91.252 1678.99 91.7012C1679.2 92.1829 1679.36 92.7005 1679.46 93.2539C1679.57 93.8008 1679.62 94.3704 1679.62 94.9629V96.8379ZM1677.25 94.9434C1677.25 94.5853 1677.22 94.2337 1677.19 93.8887C1677.15 93.5436 1677.09 93.2148 1677.01 92.9023C1676.91 92.5443 1676.78 92.2188 1676.62 91.9258C1676.46 91.6263 1676.27 91.3724 1676.04 91.1641C1675.84 90.9818 1675.61 90.8385 1675.35 90.7344C1675.09 90.6302 1674.79 90.5781 1674.46 90.5781C1674.14 90.5781 1673.86 90.6302 1673.6 90.7344C1673.35 90.832 1673.13 90.9688 1672.94 91.1445C1672.71 91.3594 1672.52 91.6165 1672.36 91.916C1672.21 92.209 1672.08 92.5378 1672 92.9023C1671.92 93.2148 1671.86 93.5469 1671.82 93.8984C1671.79 94.2435 1671.78 94.5918 1671.78 94.9434V96.8379C1671.78 97.1829 1671.79 97.5247 1671.82 97.8633C1671.86 98.2018 1671.91 98.5273 1671.99 98.8398C1672.07 99.1914 1672.19 99.5202 1672.33 99.8262C1672.48 100.126 1672.66 100.38 1672.87 100.588C1673.07 100.783 1673.3 100.939 1673.56 101.057C1673.83 101.167 1674.14 101.223 1674.48 101.223C1674.81 101.223 1675.11 101.167 1675.38 101.057C1675.65 100.946 1675.89 100.796 1676.08 100.607C1676.31 100.393 1676.5 100.139 1676.65 99.8457C1676.8 99.5462 1676.93 99.2174 1677.02 98.8594C1677.1 98.5469 1677.15 98.2214 1677.19 97.8828C1677.22 97.5378 1677.25 97.1895 1677.25 96.8379V94.9434ZM1682.84 103L1680.98 88.7812H1683.16L1684.14 97.5117L1684.21 98.0684L1684.3 97.4824L1685.67 88.7812H1687.47L1688.88 97.5215L1688.98 98.1074L1689.05 97.5117L1690.04 88.7812H1692.22L1690.35 103H1688.13L1686.69 94.2988L1686.59 93.625L1686.48 94.2988L1685.06 103H1682.84ZM1708.8 88.7812L1710.55 94.8652L1712.5 88.7812H1715.42V103H1713.21V98.1758L1713.35 91.8281L1711.16 98.6152H1709.94L1707.96 92.0625L1708.08 98.1758V103H1705.89V88.7812H1708.8ZM1727.66 96.8379C1727.66 97.4108 1727.61 97.9642 1727.51 98.498C1727.41 99.0319 1727.27 99.5365 1727.08 100.012C1726.88 100.487 1726.63 100.926 1726.33 101.33C1726.03 101.727 1725.68 102.069 1725.29 102.355C1724.91 102.616 1724.49 102.821 1724.03 102.971C1723.58 103.12 1723.07 103.195 1722.53 103.195C1721.96 103.195 1721.44 103.117 1720.96 102.961C1720.5 102.798 1720.08 102.577 1719.71 102.297C1719.33 102.01 1719 101.665 1718.71 101.262C1718.43 100.858 1718.19 100.415 1718.01 99.9336C1717.82 99.4714 1717.69 98.9798 1717.6 98.459C1717.5 97.9316 1717.46 97.3913 1717.46 96.8379V94.9629C1717.46 94.3835 1717.51 93.8236 1717.61 93.2832C1717.7 92.7428 1717.85 92.2318 1718.04 91.75C1718.23 91.2878 1718.46 90.8646 1718.74 90.4805C1719.02 90.0898 1719.35 89.7513 1719.72 89.4648C1720.09 89.1849 1720.5 88.9701 1720.96 88.8203C1721.43 88.6641 1721.95 88.5859 1722.51 88.5859C1723.07 88.5859 1723.6 88.6641 1724.07 88.8203C1724.55 88.9766 1724.97 89.1947 1725.35 89.4746C1725.73 89.7546 1726.06 90.0833 1726.34 90.4609C1726.62 90.8385 1726.85 91.252 1727.04 91.7012C1727.25 92.1829 1727.4 92.7005 1727.51 93.2539C1727.61 93.8008 1727.66 94.3704 1727.66 94.9629V96.8379ZM1725.3 94.9434C1725.29 94.5853 1725.27 94.2337 1725.23 93.8887C1725.2 93.5436 1725.14 93.2148 1725.06 92.9023C1724.96 92.5443 1724.83 92.2188 1724.67 91.9258C1724.51 91.6263 1724.32 91.3724 1724.09 91.1641C1723.89 90.9818 1723.66 90.8385 1723.4 90.7344C1723.14 90.6302 1722.84 90.5781 1722.51 90.5781C1722.19 90.5781 1721.9 90.6302 1721.65 90.7344C1721.39 90.832 1721.17 90.9688 1720.98 91.1445C1720.76 91.3594 1720.56 91.6165 1720.41 91.916C1720.25 92.209 1720.13 92.5378 1720.05 92.9023C1719.97 93.2148 1719.91 93.5469 1719.87 93.8984C1719.84 94.2435 1719.82 94.5918 1719.82 94.9434V96.8379C1719.82 97.1829 1719.84 97.5247 1719.87 97.8633C1719.9 98.2018 1719.96 98.5273 1720.04 98.8398C1720.12 99.1914 1720.24 99.5202 1720.38 99.8262C1720.53 100.126 1720.71 100.38 1720.92 100.588C1721.12 100.783 1721.35 100.939 1721.61 101.057C1721.88 101.167 1722.18 101.223 1722.53 101.223C1722.86 101.223 1723.16 101.167 1723.43 101.057C1723.7 100.946 1723.93 100.796 1724.13 100.607C1724.36 100.393 1724.55 100.139 1724.7 99.8457C1724.85 99.5462 1724.98 99.2174 1725.07 98.8594C1725.14 98.5469 1725.2 98.2214 1725.23 97.8828C1725.27 97.5378 1725.29 97.1895 1725.3 96.8379V94.9434ZM1734.81 97.4824H1732.41V103H1730.07V88.7812H1734.58C1735.31 88.7878 1735.99 88.8822 1736.61 89.0645C1737.23 89.2467 1737.76 89.5137 1738.21 89.8652C1738.65 90.2233 1739 90.6693 1739.25 91.2031C1739.49 91.7305 1739.62 92.349 1739.62 93.0586C1739.62 93.5469 1739.55 93.9896 1739.42 94.3867C1739.3 94.7839 1739.12 95.1419 1738.89 95.4609C1738.67 95.7799 1738.39 96.0599 1738.07 96.3008C1737.76 96.5417 1737.4 96.75 1737.01 96.9258L1740.05 102.873V103H1737.54L1734.81 97.4824ZM1732.41 95.5684H1734.61C1735.02 95.5618 1735.4 95.5 1735.73 95.3828C1736.07 95.2591 1736.36 95.0833 1736.59 94.8555C1736.8 94.6602 1736.96 94.4193 1737.08 94.1328C1737.2 93.8464 1737.25 93.5208 1737.25 93.1562C1737.25 92.7461 1737.19 92.388 1737.06 92.082C1736.93 91.7695 1736.75 91.5091 1736.5 91.3008C1736.27 91.1055 1736 90.959 1735.67 90.8613C1735.35 90.7572 1734.98 90.7018 1734.58 90.6953H1732.41V95.5684ZM1750.41 96.623H1744.53V101.066H1751.39V103H1742.18V88.7812H1751.35V90.7246H1744.53V94.7285H1750.41V96.623Z" fill="#B3B3B2"/>
</svg>
