<svg width="1780" height="156" viewBox="0 0 1780 156" fill="none" xmlns="http://www.w3.org/2000/svg">
<rect width="1780" height="156" rx="16" fill="#1A1A1A"/>
<path d="M52.9062 94V59.875H64.9766C68.4453 59.875 71.1406 60.8281 73.0625 62.7344C74.9844 64.625 75.9453 67.1484 75.9453 70.3047C75.9453 73.5234 74.9531 76.1172 72.9688 78.0859C71 80.0391 68.3203 81.0156 64.9297 81.0156H59.2578V94H52.9062ZM59.2578 76.5156H64.0859C66.1172 76.5156 67.5312 75.9609 68.3281 74.8516C69.1406 73.7266 69.5547 72.2891 69.5703 70.5391C69.5703 68.7734 69.1641 67.3516 68.3516 66.2734C67.5391 65.1797 66.1172 64.625 64.0859 64.6094H59.2578V76.5156ZM70.4141 94L63.0547 78.625L69.1484 77.5234L77.4219 94H70.4141ZM80.4688 94V59.875H101.609V64.9375H86.6562V74.1719H99.4766V78.8828H86.6562V89.0312H101.891V94H80.4688ZM102.477 94L113.961 59.8047H120.969L132.406 94H125.938L118.062 69.2266C117.875 68.6328 117.719 68.0938 117.594 67.6094C117.469 67.125 117.352 66.6641 117.242 66.2266H117.125C117.016 66.6641 116.898 67.125 116.773 67.6094C116.648 68.0938 116.492 68.625 116.305 69.2031L108.57 94H102.477ZM108.43 86.1484L109.625 81.625H124.977L126.219 86.1484H108.43ZM133.742 84.7422V83.4062H139.812V84.4141C139.812 86.2734 140.344 87.6641 141.406 88.5859C142.484 89.4922 143.977 89.9453 145.883 89.9453C147.773 89.9453 149.219 89.5078 150.219 88.6328C151.234 87.7578 151.742 86.5938 151.742 85.1406C151.742 83.7812 151.242 82.7031 150.242 81.9062C149.242 81.0938 147.281 80.2266 144.359 79.3047C140.906 78.2109 138.359 76.875 136.719 75.2969C135.078 73.7188 134.258 71.5703 134.258 68.8516C134.258 65.9766 135.281 63.6719 137.328 61.9375C139.391 60.2031 142.18 59.3359 145.695 59.3359C149.164 59.3359 151.945 60.1797 154.039 61.8672C156.148 63.5547 157.203 65.8828 157.203 68.8516V69.9062H151.227V69.1562C151.227 67.5625 150.758 66.3125 149.82 65.4062C148.898 64.4844 147.547 64.0234 145.766 64.0234C143.906 64.0234 142.547 64.4219 141.688 65.2188C140.844 66 140.422 67.0547 140.422 68.3828C140.422 69.6328 140.922 70.6328 141.922 71.3828C142.922 72.1172 144.922 72.9531 147.922 73.8906C151.297 74.9375 153.797 76.2891 155.422 77.9453C157.062 79.5859 157.891 81.8281 157.906 84.6719C157.906 87.7188 156.812 90.1328 154.625 91.9141C152.453 93.6797 149.555 94.5625 145.93 94.5625C142.32 94.5625 139.383 93.7266 137.117 92.0547C134.867 90.3672 133.742 87.9297 133.742 84.7422ZM161.258 77.9219V75.9531C161.258 70.2812 162.555 66.0938 165.148 63.3906C167.742 60.6719 171.094 59.3125 175.203 59.3125C179.297 59.3125 182.641 60.6719 185.234 63.3906C187.844 66.0938 189.148 70.2812 189.148 75.9531V77.9219C189.148 83.5938 187.844 87.7891 185.234 90.5078C182.641 93.2109 179.297 94.5625 175.203 94.5625C171.094 94.5625 167.742 93.2109 165.148 90.5078C162.555 87.7891 161.258 83.5938 161.258 77.9219ZM167.82 79.0703C167.82 82.8359 168.484 85.5781 169.812 87.2969C171.141 89 172.938 89.8516 175.203 89.8516C177.453 89.8516 179.242 89 180.57 87.2969C181.914 85.5781 182.586 82.8359 182.586 79.0703V74.8281C182.586 71.0781 181.914 68.3516 180.57 66.6484C179.242 64.9297 177.453 64.0703 175.203 64.0703C172.938 64.0703 171.141 64.9297 169.812 66.6484C168.484 68.3516 167.82 71.0781 167.82 74.8281V79.0703ZM193.953 94V59.875H200.539L212.117 81.6016C212.367 82.1016 212.594 82.6094 212.797 83.125C213 83.625 213.18 84.1172 213.336 84.6016H213.477C213.461 84.0703 213.445 83.5312 213.43 82.9844C213.43 82.4375 213.43 81.9062 213.43 81.3906V59.875H218.984V94H212.469L200.773 72.1797C200.523 71.7109 200.297 71.2266 200.094 70.7266C199.891 70.2266 199.711 69.7344 199.555 69.25H199.414C199.445 69.7812 199.461 70.3203 199.461 70.8672C199.477 71.3984 199.484 71.9297 199.484 72.4609V94H193.953ZM223.461 84.7422V83.4062H229.531V84.4141C229.531 86.2734 230.062 87.6641 231.125 88.5859C232.203 89.4922 233.695 89.9453 235.602 89.9453C237.492 89.9453 238.938 89.5078 239.938 88.6328C240.953 87.7578 241.461 86.5938 241.461 85.1406C241.461 83.7812 240.961 82.7031 239.961 81.9062C238.961 81.0938 237 80.2266 234.078 79.3047C230.625 78.2109 228.078 76.875 226.438 75.2969C224.797 73.7188 223.977 71.5703 223.977 68.8516C223.977 65.9766 225 63.6719 227.047 61.9375C229.109 60.2031 231.898 59.3359 235.414 59.3359C238.883 59.3359 241.664 60.1797 243.758 61.8672C245.867 63.5547 246.922 65.8828 246.922 68.8516V69.9062H240.945V69.1562C240.945 67.5625 240.477 66.3125 239.539 65.4062C238.617 64.4844 237.266 64.0234 235.484 64.0234C233.625 64.0234 232.266 64.4219 231.406 65.2188C230.562 66 230.141 67.0547 230.141 68.3828C230.141 69.6328 230.641 70.6328 231.641 71.3828C232.641 72.1172 234.641 72.9531 237.641 73.8906C241.016 74.9375 243.516 76.2891 245.141 77.9453C246.781 79.5859 247.609 81.8281 247.625 84.6719C247.625 87.7188 246.531 90.1328 244.344 91.9141C242.172 93.6797 239.273 94.5625 235.648 94.5625C232.039 94.5625 229.102 93.7266 226.836 92.0547C224.586 90.3672 223.461 87.9297 223.461 84.7422ZM259.414 64.9375V59.875H285.172V64.9375H275.516V94H269.094V64.9375H259.414ZM286.648 77.9219V75.9531C286.648 70.2812 287.945 66.0938 290.539 63.3906C293.133 60.6719 296.484 59.3125 300.594 59.3125C304.688 59.3125 308.031 60.6719 310.625 63.3906C313.234 66.0938 314.539 70.2812 314.539 75.9531V77.9219C314.539 83.5938 313.234 87.7891 310.625 90.5078C308.031 93.2109 304.688 94.5625 300.594 94.5625C296.484 94.5625 293.133 93.2109 290.539 90.5078C287.945 87.7891 286.648 83.5938 286.648 77.9219ZM293.211 79.0703C293.211 82.8359 293.875 85.5781 295.203 87.2969C296.531 89 298.328 89.8516 300.594 89.8516C302.844 89.8516 304.633 89 305.961 87.2969C307.305 85.5781 307.977 82.8359 307.977 79.0703V74.8281C307.977 71.0781 307.305 68.3516 305.961 66.6484C304.633 64.9297 302.844 64.0703 300.594 64.0703C298.328 64.0703 296.531 64.9297 295.203 66.6484C293.875 68.3516 293.211 71.0781 293.211 74.8281V79.0703ZM329.164 77.9219V75.9531C329.164 70.2656 330.453 66.0703 333.031 63.3672C335.609 60.6641 338.938 59.3125 343.016 59.3125C346.984 59.3125 350.078 60.3281 352.297 62.3594C354.516 64.3906 355.625 67.2031 355.625 70.7969V71.9922H349.414V70.4688C349.414 68.4219 348.883 66.8438 347.82 65.7344C346.773 64.6094 345.188 64.0469 343.062 64.0469C340.828 64.0469 339.062 64.9062 337.766 66.625C336.469 68.3438 335.82 71.0625 335.82 74.7812V79.0938C335.82 82.6875 336.477 85.3828 337.789 87.1797C339.102 88.9609 340.891 89.8516 343.156 89.8516C345.203 89.8516 346.742 89.2891 347.773 88.1641C348.805 87.0234 349.352 85.3594 349.414 83.1719V81.9297H355.625V83.3594C355.547 86.7344 354.422 89.4453 352.25 91.4922C350.094 93.5234 347.016 94.5391 343.016 94.5391C338.766 94.5391 335.391 93.1719 332.891 90.4375C330.406 87.7031 329.164 83.5312 329.164 77.9219ZM359.938 94V59.875H366.289V73.7734H379.133V59.875H385.484V94H379.133V78.9766H366.289V94H359.938ZM390.289 77.9219V75.9531C390.289 70.2812 391.586 66.0938 394.18 63.3906C396.773 60.6719 400.125 59.3125 404.234 59.3125C408.328 59.3125 411.672 60.6719 414.266 63.3906C416.875 66.0938 418.18 70.2812 418.18 75.9531V77.9219C418.18 83.5938 416.875 87.7891 414.266 90.5078C411.672 93.2109 408.328 94.5625 404.234 94.5625C400.125 94.5625 396.773 93.2109 394.18 90.5078C391.586 87.7891 390.289 83.5938 390.289 77.9219ZM396.852 79.0703C396.852 82.8359 397.516 85.5781 398.844 87.2969C400.172 89 401.969 89.8516 404.234 89.8516C406.484 89.8516 408.273 89 409.602 87.2969C410.945 85.5781 411.617 82.8359 411.617 79.0703V74.8281C411.617 71.0781 410.945 68.3516 409.602 66.6484C408.273 64.9297 406.484 64.0703 404.234 64.0703C401.969 64.0703 400.172 64.9297 398.844 66.6484C397.516 68.3516 396.852 71.0781 396.852 74.8281V79.0703ZM421.977 77.9219V75.9531C421.977 70.2812 423.273 66.0938 425.867 63.3906C428.461 60.6719 431.812 59.3125 435.922 59.3125C440.016 59.3125 443.359 60.6719 445.953 63.3906C448.562 66.0938 449.867 70.2812 449.867 75.9531V77.9219C449.867 83.5938 448.562 87.7891 445.953 90.5078C443.359 93.2109 440.016 94.5625 435.922 94.5625C431.812 94.5625 428.461 93.2109 425.867 90.5078C423.273 87.7891 421.977 83.5938 421.977 77.9219ZM428.539 79.0703C428.539 82.8359 429.203 85.5781 430.531 87.2969C431.859 89 433.656 89.8516 435.922 89.8516C438.172 89.8516 439.961 89 441.289 87.2969C442.633 85.5781 443.305 82.8359 443.305 79.0703V74.8281C443.305 71.0781 442.633 68.3516 441.289 66.6484C439.961 64.9297 438.172 64.0703 435.922 64.0703C433.656 64.0703 431.859 64.9297 430.531 66.6484C429.203 68.3516 428.539 71.0781 428.539 74.8281V79.0703ZM453.336 84.7422V83.4062H459.406V84.4141C459.406 86.2734 459.938 87.6641 461 88.5859C462.078 89.4922 463.57 89.9453 465.477 89.9453C467.367 89.9453 468.812 89.5078 469.812 88.6328C470.828 87.7578 471.336 86.5938 471.336 85.1406C471.336 83.7812 470.836 82.7031 469.836 81.9062C468.836 81.0938 466.875 80.2266 463.953 79.3047C460.5 78.2109 457.953 76.875 456.312 75.2969C454.672 73.7188 453.852 71.5703 453.852 68.8516C453.852 65.9766 454.875 63.6719 456.922 61.9375C458.984 60.2031 461.773 59.3359 465.289 59.3359C468.758 59.3359 471.539 60.1797 473.633 61.8672C475.742 63.5547 476.797 65.8828 476.797 68.8516V69.9062H470.82V69.1562C470.82 67.5625 470.352 66.3125 469.414 65.4062C468.492 64.4844 467.141 64.0234 465.359 64.0234C463.5 64.0234 462.141 64.4219 461.281 65.2188C460.438 66 460.016 67.0547 460.016 68.3828C460.016 69.6328 460.516 70.6328 461.516 71.3828C462.516 72.1172 464.516 72.9531 467.516 73.8906C470.891 74.9375 473.391 76.2891 475.016 77.9453C476.656 79.5859 477.484 81.8281 477.5 84.6719C477.5 87.7188 476.406 90.1328 474.219 91.9141C472.047 93.6797 469.148 94.5625 465.523 94.5625C461.914 94.5625 458.977 93.7266 456.711 92.0547C454.461 90.3672 453.336 87.9297 453.336 84.7422ZM481.859 94V59.875H503V64.9375H488.047V74.1719H500.867V78.8828H488.047V89.0312H503.281V94H481.859ZM517.719 94V59.875H524.305L535.883 81.6016C536.133 82.1016 536.359 82.6094 536.562 83.125C536.766 83.625 536.945 84.1172 537.102 84.6016H537.242C537.227 84.0703 537.211 83.5312 537.195 82.9844C537.195 82.4375 537.195 81.9062 537.195 81.3906V59.875H542.75V94H536.234L524.539 72.1797C524.289 71.7109 524.062 71.2266 523.859 70.7266C523.656 70.2266 523.477 69.7344 523.32 69.25H523.18C523.211 69.7812 523.227 70.3203 523.227 70.8672C523.242 71.3984 523.25 71.9297 523.25 72.4609V94H517.719ZM548.562 94V59.875H569.703V64.9375H554.75V74.1719H567.57V78.8828H554.75V89.0312H569.984V94H548.562ZM571.18 94L582.617 74.4062H583.742L591.828 59.875H597.992L587.281 78.5547H586.203L577.438 94H571.18ZM571.742 59.875H578.82L587.047 74.4062H587.094L598.531 94H591.406L582.594 78.5547H582.547L571.742 59.875ZM599.539 77.9219V75.9531C599.539 70.5625 600.805 66.4453 603.336 63.6016C605.867 60.7422 609.289 59.3125 613.602 59.3125C617.492 59.3125 620.5 60.2969 622.625 62.2656C624.75 64.2344 625.836 66.7422 625.883 69.7891V70.5156H619.695V70C619.695 68.2969 619.164 66.9062 618.102 65.8281C617.039 64.7344 615.477 64.1875 613.414 64.1875C611.133 64.1875 609.336 65.0859 608.023 66.8828C606.727 68.6797 606.078 71.3516 606.078 74.8984V79.0469C606.078 82.5469 606.773 85.2188 608.164 87.0625C609.555 88.9062 611.492 89.8281 613.977 89.8281C615.242 89.8281 616.328 89.6797 617.234 89.3828C618.156 89.0859 619.023 88.6094 619.836 87.9531V81.0391H613.508V76.4688L625.93 76.4453V90.0391C625.039 91.0391 623.586 92.0469 621.57 93.0625C619.555 94.0625 617.016 94.5625 613.953 94.5625C609.484 94.5625 605.961 93.1406 603.383 90.2969C600.82 87.4375 599.539 83.3125 599.539 77.9219ZM630.781 94V59.875H651.922V64.9375H636.969V74.1719H649.789V78.8828H636.969V89.0312H652.203V94H630.781ZM656 94V59.875H662.586L674.164 81.6016C674.414 82.1016 674.641 82.6094 674.844 83.125C675.047 83.625 675.227 84.1172 675.383 84.6016H675.523C675.508 84.0703 675.492 83.5312 675.477 82.9844C675.477 82.4375 675.477 81.9062 675.477 81.3906V59.875H681.031V94H674.516L662.82 72.1797C662.57 71.7109 662.344 71.2266 662.141 70.7266C661.938 70.2266 661.758 69.7344 661.602 69.25H661.461C661.492 69.7812 661.508 70.3203 661.508 70.8672C661.523 71.3984 661.531 71.9297 661.531 72.4609V94H656ZM697.672 94V59.875H717.594V64.9375H704.023V74.7578H715.859V79.5625H704.023V94H697.672ZM720.336 77.9219V75.9531C720.336 70.2812 721.633 66.0938 724.227 63.3906C726.82 60.6719 730.172 59.3125 734.281 59.3125C738.375 59.3125 741.719 60.6719 744.312 63.3906C746.922 66.0938 748.227 70.2812 748.227 75.9531V77.9219C748.227 83.5938 746.922 87.7891 744.312 90.5078C741.719 93.2109 738.375 94.5625 734.281 94.5625C730.172 94.5625 726.82 93.2109 724.227 90.5078C721.633 87.7891 720.336 83.5938 720.336 77.9219ZM726.898 79.0703C726.898 82.8359 727.562 85.5781 728.891 87.2969C730.219 89 732.016 89.8516 734.281 89.8516C736.531 89.8516 738.32 89 739.648 87.2969C740.992 85.5781 741.664 82.8359 741.664 79.0703V74.8281C741.664 71.0781 740.992 68.3516 739.648 66.6484C738.32 64.9297 736.531 64.0703 734.281 64.0703C732.016 64.0703 730.219 64.9297 728.891 66.6484C727.562 68.3516 726.898 71.0781 726.898 74.8281V79.0703ZM753.031 94V59.875H765.102C768.57 59.875 771.266 60.8281 773.188 62.7344C775.109 64.625 776.07 67.1484 776.07 70.3047C776.07 73.5234 775.078 76.1172 773.094 78.0859C771.125 80.0391 768.445 81.0156 765.055 81.0156H759.383V94H753.031ZM759.383 76.5156H764.211C766.242 76.5156 767.656 75.9609 768.453 74.8516C769.266 73.7266 769.68 72.2891 769.695 70.5391C769.695 68.7734 769.289 67.3516 768.477 66.2734C767.664 65.1797 766.242 64.625 764.211 64.6094H759.383V76.5156ZM770.539 94L763.18 78.625L769.273 77.5234L777.547 94H770.539ZM799.367 94V81.0156L788.328 59.875H795.312L801.758 72.625C801.961 73.0312 802.148 73.4141 802.32 73.7734C802.492 74.1328 802.648 74.5156 802.789 74.9219H802.93C803.07 74.5156 803.219 74.1328 803.375 73.7734C803.547 73.4141 803.734 73.0312 803.938 72.625L810.406 59.875H816.711L805.766 80.8984V94H799.367ZM817.133 77.9219V75.9531C817.133 70.2812 818.43 66.0938 821.023 63.3906C823.617 60.6719 826.969 59.3125 831.078 59.3125C835.172 59.3125 838.516 60.6719 841.109 63.3906C843.719 66.0938 845.023 70.2812 845.023 75.9531V77.9219C845.023 83.5938 843.719 87.7891 841.109 90.5078C838.516 93.2109 835.172 94.5625 831.078 94.5625C826.969 94.5625 823.617 93.2109 821.023 90.5078C818.43 87.7891 817.133 83.5938 817.133 77.9219ZM823.695 79.0703C823.695 82.8359 824.359 85.5781 825.688 87.2969C827.016 89 828.812 89.8516 831.078 89.8516C833.328 89.8516 835.117 89 836.445 87.2969C837.789 85.5781 838.461 82.8359 838.461 79.0703V74.8281C838.461 71.0781 837.789 68.3516 836.445 66.6484C835.117 64.9297 833.328 64.0703 831.078 64.0703C828.812 64.0703 827.016 64.9297 825.688 66.6484C824.359 68.3516 823.695 71.0781 823.695 74.8281V79.0703ZM849.617 81.8828V59.875H855.969V82.4688C855.969 85.1094 856.492 87 857.539 88.1406C858.586 89.2656 860.023 89.8281 861.852 89.8281C863.664 89.8281 865.086 89.2656 866.117 88.1406C867.164 87 867.688 85.1094 867.688 82.4688V59.875H874.016V81.8828C874.016 86.1953 872.906 89.3906 870.688 91.4688C868.484 93.5312 865.547 94.5625 861.875 94.5625C858.156 94.5625 855.18 93.5312 852.945 91.4688C850.727 89.3906 849.617 86.1953 849.617 81.8828ZM879.641 94V59.875H891.711C895.18 59.875 897.875 60.8281 899.797 62.7344C901.719 64.625 902.68 67.1484 902.68 70.3047C902.68 73.5234 901.688 76.1172 899.703 78.0859C897.734 80.0391 895.055 81.0156 891.664 81.0156H885.992V94H879.641ZM885.992 76.5156H890.82C892.852 76.5156 894.266 75.9609 895.062 74.8516C895.875 73.7266 896.289 72.2891 896.305 70.5391C896.305 68.7734 895.898 67.3516 895.086 66.2734C894.273 65.1797 892.852 64.625 890.82 64.6094H885.992V76.5156ZM897.148 94L889.789 78.625L895.883 77.5234L904.156 94H897.148ZM918.031 94V59.875H928.766C933.141 59.875 936.641 61.2969 939.266 64.1406C941.891 66.9688 943.203 70.8984 943.203 75.9297V77.8984C943.203 82.9297 941.898 86.875 939.289 89.7344C936.68 92.5781 933.172 94 928.766 94H918.031ZM924.289 89.3125H928.391C931 89.3125 933.047 88.3828 934.531 86.5234C936.016 84.6641 936.758 81.9609 936.758 78.4141V75.4844C936.758 71.9062 936 69.2109 934.484 67.3984C932.969 65.5859 930.938 64.6719 928.391 64.6562H924.289V89.3125ZM948.125 94V59.875H954.547V94H948.125ZM959.445 77.9219V75.9531C959.445 70.5625 960.711 66.4453 963.242 63.6016C965.773 60.7422 969.195 59.3125 973.508 59.3125C977.398 59.3125 980.406 60.2969 982.531 62.2656C984.656 64.2344 985.742 66.7422 985.789 69.7891V70.5156H979.602V70C979.602 68.2969 979.07 66.9062 978.008 65.8281C976.945 64.7344 975.383 64.1875 973.32 64.1875C971.039 64.1875 969.242 65.0859 967.93 66.8828C966.633 68.6797 965.984 71.3516 965.984 74.8984V79.0469C965.984 82.5469 966.68 85.2188 968.07 87.0625C969.461 88.9062 971.398 89.8281 973.883 89.8281C975.148 89.8281 976.234 89.6797 977.141 89.3828C978.062 89.0859 978.93 88.6094 979.742 87.9531V81.0391H973.414V76.4688L985.836 76.4453V90.0391C984.945 91.0391 983.492 92.0469 981.477 93.0625C979.461 94.0625 976.922 94.5625 973.859 94.5625C969.391 94.5625 965.867 93.1406 963.289 90.2969C960.727 87.4375 959.445 83.3125 959.445 77.9219ZM990.781 94V59.875H997.203V94H990.781ZM1000.37 64.9375V59.875H1026.12V64.9375H1016.47V94H1010.05V64.9375H1000.37ZM1024.04 94L1035.52 59.8047H1042.53L1053.97 94H1047.5L1039.62 69.2266C1039.44 68.6328 1039.28 68.0938 1039.16 67.6094C1039.03 67.125 1038.91 66.6641 1038.8 66.2266H1038.69C1038.58 66.6641 1038.46 67.125 1038.34 67.6094C1038.21 68.0938 1038.05 68.625 1037.87 69.2031L1030.13 94H1024.04ZM1029.99 86.1484L1031.19 81.625H1046.54L1047.78 86.1484H1029.99ZM1056.55 94V59.875H1062.9V88.9375H1076.87V94H1056.55ZM1088.96 83.7344V82.75H1094.89V84.0391C1094.89 86.0547 1095.27 87.5312 1096.04 88.4688C1096.8 89.4062 1097.96 89.875 1099.51 89.875C1100.98 89.875 1102.11 89.3828 1102.91 88.3984C1103.72 87.3984 1104.12 85.75 1104.12 83.4531V59.875H1110.48V82.9375C1110.48 86.6406 1109.55 89.5078 1107.71 91.5391C1105.87 93.5547 1103.21 94.5625 1099.74 94.5625C1096.32 94.5625 1093.66 93.6641 1091.77 91.8672C1089.9 90.0547 1088.96 87.3438 1088.96 83.7344ZM1115.07 77.9219V75.9531C1115.07 70.2812 1116.37 66.0938 1118.96 63.3906C1121.55 60.6719 1124.91 59.3125 1129.02 59.3125C1133.11 59.3125 1136.45 60.6719 1139.05 63.3906C1141.66 66.0938 1142.96 70.2812 1142.96 75.9531V77.9219C1142.96 83.5938 1141.66 87.7891 1139.05 90.5078C1136.45 93.2109 1133.11 94.5625 1129.02 94.5625C1124.91 94.5625 1121.55 93.2109 1118.96 90.5078C1116.37 87.7891 1115.07 83.5938 1115.07 77.9219ZM1121.63 79.0703C1121.63 82.8359 1122.3 85.5781 1123.62 87.2969C1124.95 89 1126.75 89.8516 1129.02 89.8516C1131.27 89.8516 1133.05 89 1134.38 87.2969C1135.73 85.5781 1136.4 82.8359 1136.4 79.0703V74.8281C1136.4 71.0781 1135.73 68.3516 1134.38 66.6484C1133.05 64.9297 1131.27 64.0703 1129.02 64.0703C1126.75 64.0703 1124.95 64.9297 1123.62 66.6484C1122.3 68.3516 1121.63 71.0781 1121.63 74.8281V79.0703ZM1147.55 81.8828V59.875H1153.91V82.4688C1153.91 85.1094 1154.43 87 1155.48 88.1406C1156.52 89.2656 1157.96 89.8281 1159.79 89.8281C1161.6 89.8281 1163.02 89.2656 1164.05 88.1406C1165.1 87 1165.62 85.1094 1165.62 82.4688V59.875H1171.95V81.8828C1171.95 86.1953 1170.84 89.3906 1168.62 91.4688C1166.42 93.5312 1163.48 94.5625 1159.81 94.5625C1156.09 94.5625 1153.12 93.5312 1150.88 91.4688C1148.66 89.3906 1147.55 86.1953 1147.55 81.8828ZM1177.58 94V59.875H1189.65C1193.12 59.875 1195.81 60.8281 1197.73 62.7344C1199.66 64.625 1200.62 67.1484 1200.62 70.3047C1200.62 73.5234 1199.62 76.1172 1197.64 78.0859C1195.67 80.0391 1192.99 81.0156 1189.6 81.0156H1183.93V94H1177.58ZM1183.93 76.5156H1188.76C1190.79 76.5156 1192.2 75.9609 1193 74.8516C1193.81 73.7266 1194.23 72.2891 1194.24 70.5391C1194.24 68.7734 1193.84 67.3516 1193.02 66.2734C1192.21 65.1797 1190.79 64.625 1188.76 64.6094H1183.93V76.5156ZM1195.09 94L1187.73 78.625L1193.82 77.5234L1202.09 94H1195.09ZM1205.14 94V59.875H1211.73L1223.3 81.6016C1223.55 82.1016 1223.78 82.6094 1223.98 83.125C1224.19 83.625 1224.37 84.1172 1224.52 84.6016H1224.66C1224.65 84.0703 1224.63 83.5312 1224.62 82.9844C1224.62 82.4375 1224.62 81.9062 1224.62 81.3906V59.875H1230.17V94H1223.66L1211.96 72.1797C1211.71 71.7109 1211.48 71.2266 1211.28 70.7266C1211.08 70.2266 1210.9 69.7344 1210.74 69.25H1210.6C1210.63 69.7812 1210.65 70.3203 1210.65 70.8672C1210.66 71.3984 1210.67 71.9297 1210.67 72.4609V94H1205.14ZM1235.98 94V59.875H1257.12V64.9375H1242.17V74.1719H1254.99V78.8828H1242.17V89.0312H1257.41V94H1235.98ZM1269.43 94V81.0156L1258.39 59.875H1265.38L1271.82 72.625C1272.02 73.0312 1272.21 73.4141 1272.38 73.7734C1272.55 74.1328 1272.71 74.5156 1272.85 74.9219H1272.99C1273.13 74.5156 1273.28 74.1328 1273.44 73.7734C1273.61 73.4141 1273.8 73.0312 1274 72.625L1280.47 59.875H1286.77L1275.83 80.8984V94H1269.43Z" fill="#F9EFEC"/>
</svg>
