<svg width="1780" height="156" viewBox="0 0 1780 156" fill="none" xmlns="http://www.w3.org/2000/svg">
<rect width="1780" height="156" rx="16" fill="#1A1A1A"/>
<path d="M51.8984 77.9219V75.9531C51.8984 70.2812 53.1953 66.0938 55.7891 63.3906C58.3828 60.6719 61.7344 59.3125 65.8438 59.3125C69.9375 59.3125 73.2812 60.6719 75.875 63.3906C78.4844 66.0938 79.7891 70.2812 79.7891 75.9531V77.9219C79.7891 83.5938 78.4844 87.7891 75.875 90.5078C73.2812 93.2109 69.9375 94.5625 65.8438 94.5625C61.7344 94.5625 58.3828 93.2109 55.7891 90.5078C53.1953 87.7891 51.8984 83.5938 51.8984 77.9219ZM58.4609 79.0703C58.4609 82.8359 59.125 85.5781 60.4531 87.2969C61.7812 89 63.5781 89.8516 65.8438 89.8516C68.0938 89.8516 69.8828 89 71.2109 87.2969C72.5547 85.5781 73.2266 82.8359 73.2266 79.0703V74.8281C73.2266 71.0781 72.5547 68.3516 71.2109 66.6484C69.8828 64.9297 68.0938 64.0703 65.8438 64.0703C63.5781 64.0703 61.7812 64.9297 60.4531 66.6484C59.125 68.3516 58.4609 71.0781 58.4609 74.8281V79.0703ZM84.3828 81.8828V59.875H90.7344V82.4688C90.7344 85.1094 91.2578 87 92.3047 88.1406C93.3516 89.2656 94.7891 89.8281 96.6172 89.8281C98.4297 89.8281 99.8516 89.2656 100.883 88.1406C101.93 87 102.453 85.1094 102.453 82.4688V59.875H108.781V81.8828C108.781 86.1953 107.672 89.3906 105.453 91.4688C103.25 93.5312 100.312 94.5625 96.6406 94.5625C92.9219 94.5625 89.9453 93.5312 87.7109 91.4688C85.4922 89.3906 84.3828 86.1953 84.3828 81.8828ZM114.406 94V59.875H126.477C129.945 59.875 132.641 60.8281 134.562 62.7344C136.484 64.625 137.445 67.1484 137.445 70.3047C137.445 73.5234 136.453 76.1172 134.469 78.0859C132.5 80.0391 129.82 81.0156 126.43 81.0156H120.758V94H114.406ZM120.758 76.5156H125.586C127.617 76.5156 129.031 75.9609 129.828 74.8516C130.641 73.7266 131.055 72.2891 131.07 70.5391C131.07 68.7734 130.664 67.3516 129.852 66.2734C129.039 65.1797 127.617 64.625 125.586 64.6094H120.758V76.5156ZM131.914 94L124.555 78.625L130.648 77.5234L138.922 94H131.914ZM151.461 84.7422V83.4062H157.531V84.4141C157.531 86.2734 158.062 87.6641 159.125 88.5859C160.203 89.4922 161.695 89.9453 163.602 89.9453C165.492 89.9453 166.938 89.5078 167.938 88.6328C168.953 87.7578 169.461 86.5938 169.461 85.1406C169.461 83.7812 168.961 82.7031 167.961 81.9062C166.961 81.0938 165 80.2266 162.078 79.3047C158.625 78.2109 156.078 76.875 154.438 75.2969C152.797 73.7188 151.977 71.5703 151.977 68.8516C151.977 65.9766 153 63.6719 155.047 61.9375C157.109 60.2031 159.898 59.3359 163.414 59.3359C166.883 59.3359 169.664 60.1797 171.758 61.8672C173.867 63.5547 174.922 65.8828 174.922 68.8516V69.9062H168.945V69.1562C168.945 67.5625 168.477 66.3125 167.539 65.4062C166.617 64.4844 165.266 64.0234 163.484 64.0234C161.625 64.0234 160.266 64.4219 159.406 65.2188C158.562 66 158.141 67.0547 158.141 68.3828C158.141 69.6328 158.641 70.6328 159.641 71.3828C160.641 72.1172 162.641 72.9531 165.641 73.8906C169.016 74.9375 171.516 76.2891 173.141 77.9453C174.781 79.5859 175.609 81.8281 175.625 84.6719C175.625 87.7188 174.531 90.1328 172.344 91.9141C170.172 93.6797 167.273 94.5625 163.648 94.5625C160.039 94.5625 157.102 93.7266 154.836 92.0547C152.586 90.3672 151.461 87.9297 151.461 84.7422ZM179.984 94V59.875H201.125V64.9375H186.172V74.1719H198.992V78.8828H186.172V89.0312H201.406V94H179.984ZM205.203 94V59.875H217.273C220.742 59.875 223.438 60.8281 225.359 62.7344C227.281 64.625 228.242 67.1484 228.242 70.3047C228.242 73.5234 227.25 76.1172 225.266 78.0859C223.297 80.0391 220.617 81.0156 217.227 81.0156H211.555V94H205.203ZM211.555 76.5156H216.383C218.414 76.5156 219.828 75.9609 220.625 74.8516C221.438 73.7266 221.852 72.2891 221.867 70.5391C221.867 68.7734 221.461 67.3516 220.648 66.2734C219.836 65.1797 218.414 64.625 216.383 64.6094H211.555V76.5156ZM222.711 94L215.352 78.625L221.445 77.5234L229.719 94H222.711ZM229.133 59.875H235.766L243.359 83.9219C243.484 84.3125 243.602 84.7031 243.711 85.0938C243.82 85.4844 243.922 85.8594 244.016 86.2188H244.156C244.234 85.8594 244.328 85.4766 244.438 85.0703C244.562 84.6641 244.68 84.2812 244.789 83.9219L252.453 59.875H258.641L247.391 94.1641H240.406L229.133 59.875ZM261.125 94V59.875H267.547V94H261.125ZM272.445 77.9219V75.9531C272.445 70.2656 273.734 66.0703 276.312 63.3672C278.891 60.6641 282.219 59.3125 286.297 59.3125C290.266 59.3125 293.359 60.3281 295.578 62.3594C297.797 64.3906 298.906 67.2031 298.906 70.7969V71.9922H292.695V70.4688C292.695 68.4219 292.164 66.8438 291.102 65.7344C290.055 64.6094 288.469 64.0469 286.344 64.0469C284.109 64.0469 282.344 64.9062 281.047 66.625C279.75 68.3438 279.102 71.0625 279.102 74.7812V79.0938C279.102 82.6875 279.758 85.3828 281.07 87.1797C282.383 88.9609 284.172 89.8516 286.438 89.8516C288.484 89.8516 290.023 89.2891 291.055 88.1641C292.086 87.0234 292.633 85.3594 292.695 83.1719V81.9297H298.906V83.3594C298.828 86.7344 297.703 89.4453 295.531 91.4922C293.375 93.5234 290.297 94.5391 286.297 94.5391C282.047 94.5391 278.672 93.1719 276.172 90.4375C273.688 87.7031 272.445 83.5312 272.445 77.9219ZM303.219 94V59.875H324.359V64.9375H309.406V74.1719H322.227V78.8828H309.406V89.0312H324.641V94H303.219ZM327.617 84.7422V83.4062H333.688V84.4141C333.688 86.2734 334.219 87.6641 335.281 88.5859C336.359 89.4922 337.852 89.9453 339.758 89.9453C341.648 89.9453 343.094 89.5078 344.094 88.6328C345.109 87.7578 345.617 86.5938 345.617 85.1406C345.617 83.7812 345.117 82.7031 344.117 81.9062C343.117 81.0938 341.156 80.2266 338.234 79.3047C334.781 78.2109 332.234 76.875 330.594 75.2969C328.953 73.7188 328.133 71.5703 328.133 68.8516C328.133 65.9766 329.156 63.6719 331.203 61.9375C333.266 60.2031 336.055 59.3359 339.57 59.3359C343.039 59.3359 345.82 60.1797 347.914 61.8672C350.023 63.5547 351.078 65.8828 351.078 68.8516V69.9062H345.102V69.1562C345.102 67.5625 344.633 66.3125 343.695 65.4062C342.773 64.4844 341.422 64.0234 339.641 64.0234C337.781 64.0234 336.422 64.4219 335.562 65.2188C334.719 66 334.297 67.0547 334.297 68.3828C334.297 69.6328 334.797 70.6328 335.797 71.3828C336.797 72.1172 338.797 72.9531 341.797 73.8906C345.172 74.9375 347.672 76.2891 349.297 77.9453C350.938 79.5859 351.766 81.8281 351.781 84.6719C351.781 87.7188 350.688 90.1328 348.5 91.9141C346.328 93.6797 343.43 94.5625 339.805 94.5625C336.195 94.5625 333.258 93.7266 330.992 92.0547C328.742 90.3672 327.617 87.9297 327.617 84.7422Z" fill="#F9EFEC"/>
</svg>
