<svg width="98" height="19" viewBox="0 0 98 19" fill="none" xmlns="http://www.w3.org/2000/svg">
<path d="M97.2813 18.5H94.8085V7.60464H87.9173V18.5H85.457V5.13184H87.9173V7.49167C87.934 7.16531 88.0093 6.85987 88.1432 6.57535C88.2771 6.28246 88.4528 6.03142 88.6704 5.82221C88.8964 5.60464 89.1558 5.43728 89.4487 5.32012C89.7415 5.1946 90.0554 5.13184 90.3901 5.13184H94.8085C95.1516 5.13184 95.4738 5.19878 95.775 5.33267C96.0763 5.4582 96.3357 5.63393 96.5533 5.85987C96.7792 6.07744 96.9549 6.33686 97.0805 6.63811C97.2144 6.93937 97.2813 7.26154 97.2813 7.60464V18.5Z" fill="#F3DFD8"/>
<path d="M81.3252 13.0774H72.4759V16.0272H81.3252V18.5H72.4759C72.1411 18.5 71.8232 18.4373 71.5219 18.3118C71.2206 18.1779 70.957 18.0021 70.7311 17.7846C70.5135 17.5586 70.3378 17.295 70.2039 16.9938C70.0784 16.6925 70.0156 16.3703 70.0156 16.0272V7.60464C70.0156 7.26154 70.0784 6.93937 70.2039 6.63811C70.3378 6.33686 70.5135 6.07744 70.7311 5.85987C70.957 5.63393 71.2206 5.4582 71.5219 5.33267C71.8232 5.19878 72.1411 5.13184 72.4759 5.13184H78.8524C79.1955 5.13184 79.5177 5.19878 79.819 5.33267C80.1202 5.4582 80.3796 5.63393 80.5972 5.85987C80.8232 6.07744 80.9989 6.33686 81.1244 6.63811C81.2583 6.93937 81.3252 7.26154 81.3252 7.60464V13.0774ZM72.4759 7.60464V10.6046H78.8524V7.60464H72.4759Z" fill="#F3DFD8"/>
<path d="M50.7383 3.07322C50.7383 2.72176 50.8052 2.39121 50.9391 2.08159C51.073 1.7636 51.2571 1.49163 51.4914 1.26569C51.7257 1.03138 51.9977 0.84728 52.3073 0.713389C52.6253 0.57113 52.96 0.5 53.3115 0.5H63.0772C63.4287 0.5 63.7592 0.57113 64.0688 0.713389C64.3868 0.84728 64.663 1.03138 64.8973 1.26569C65.1316 1.49163 65.3157 1.7636 65.4496 2.08159C65.5835 2.39121 65.6504 2.72176 65.6504 3.07322V5.3954H63.0772V3.07322H53.3115V15.9268H63.0772V11.5586H58.1943V8.98536H65.6504V15.9268C65.6504 16.2782 65.5835 16.613 65.4496 16.931C65.3157 17.2406 65.1316 17.5126 64.8973 17.7469C64.663 17.9812 64.3868 18.1653 64.0688 18.2992C63.7592 18.4331 63.4287 18.5 63.0772 18.5H53.3115C52.96 18.5 52.6253 18.4331 52.3073 18.2992C51.9977 18.1653 51.7257 17.9812 51.4914 17.7469C51.2571 17.5126 51.073 17.2406 50.9391 16.931C50.8052 16.613 50.7383 16.2782 50.7383 15.9268V3.07322Z" fill="#F3DFD8"/>
<path d="M47.4219 5.13184L42.5641 11.659L47.6478 18.5H44.6604L41.0704 13.6674L37.4679 18.5H34.4805L39.5767 11.659L34.719 5.13184H37.6939L41.0704 9.65066L44.4344 5.13184H47.4219Z" fill="#F3DFD8"/>
<path d="M31.6456 13.0774H22.7962V16.0272H31.6456V18.5H22.7962C22.4615 18.5 22.1435 18.4373 21.8422 18.3118C21.541 18.1779 21.2774 18.0021 21.0514 17.7846C20.8338 17.5586 20.6581 17.295 20.5242 16.9938C20.3987 16.6925 20.3359 16.3703 20.3359 16.0272V7.60464C20.3359 7.26154 20.3987 6.93937 20.5242 6.63811C20.6581 6.33686 20.8338 6.07744 21.0514 5.85987C21.2774 5.63393 21.541 5.4582 21.8422 5.33267C22.1435 5.19878 22.4615 5.13184 22.7962 5.13184H29.1728C29.5159 5.13184 29.838 5.19878 30.1393 5.33267C30.4405 5.4582 30.7 5.63393 30.9175 5.85987C31.1435 6.07744 31.3192 6.33686 31.4447 6.63811C31.5786 6.93937 31.6456 7.26154 31.6456 7.60464V13.0774ZM22.7962 7.60464V10.6046H29.1728V7.60464H22.7962Z" fill="#F3DFD8"/>
<path d="M2.57322 18.5H0V0.5H2.57322L13.3933 14.4582V0.5H15.9665V18.5H13.3933L2.57322 4.54184V18.5Z" fill="#F3DFD8"/>
</svg>
